<?xml version="1.0" encoding="utf-8" standalone="no"?>
<!DOCTYPE svg PUBLIC "-//W3C//DTD SVG 1.1//EN"
  "http://www.w3.org/Graphics/SVG/1.1/DTD/svg11.dtd">
<svg xmlns:xlink="http://www.w3.org/1999/xlink" width="597.037031pt" height="337.525312pt" viewBox="0 0 597.037031 337.525312" xmlns="http://www.w3.org/2000/svg" version="1.1">
 <metadata>
  <rdf:RDF xmlns:dc="http://purl.org/dc/elements/1.1/" xmlns:cc="http://creativecommons.org/ns#" xmlns:rdf="http://www.w3.org/1999/02/22-rdf-syntax-ns#">
   <cc:Work>
    <dc:type rdf:resource="http://purl.org/dc/dcmitype/StillImage"/>
    <dc:date>2026-07-14T15:13:47.277778</dc:date>
    <dc:format>image/svg+xml</dc:format>
    <dc:creator>
     <cc:Agent>
      <dc:title>Matplotlib v3.11.0, https://matplotlib.org/</dc:title>
     </cc:Agent>
    </dc:creator>
   </cc:Work>
  </rdf:RDF>
 </metadata>
 <defs>
  <style type="text/css">*{stroke-linejoin: round; stroke-linecap: butt}</style>
 </defs>
 <g id="figure_1">
  <g id="patch_1">
   <path d="M 0 337.525312 
L 597.037031 337.525312 
L 597.037031 0 
L 0 0 
z
" style="fill: #ffffff"/>
  </g>
  <g id="axes_1">
   <g id="patch_2">
    <path d="M 41.926504 312.417695 
L 546.191309 312.417695 
L 546.191309 24.111875 
L 41.926504 24.111875 
z
" style="fill: #ffffff"/>
   </g>
   <g id="patch_3">
    <path d="M 64.847631 312.417695 
L 161.357642 312.417695 
L 161.357642 256.094214 
L 64.847631 256.094214 
z
" clip-path="url(#p395bf7dc77)" style="fill: #54a24b; opacity: 0.82"/>
   </g>
   <g id="patch_4">
    <path d="M 185.485144 312.417695 
L 281.995155 312.417695 
L 281.995155 37.840724 
L 185.485144 37.840724 
z
" clip-path="url(#p395bf7dc77)" style="fill: #f58518; opacity: 0.82"/>
   </g>
   <g id="patch_5">
    <path d="M 306.122658 312.417695 
L 402.632668 312.417695 
L 402.632668 44.881159 
L 306.122658 44.881159 
z
" clip-path="url(#p395bf7dc77)" style="fill: #b279a2; opacity: 0.82"/>
   </g>
   <g id="patch_6">
    <path d="M 426.760171 312.417695 
L 523.270181 312.417695 
L 523.270181 312.417695 
L 426.760171 312.417695 
z
" clip-path="url(#p395bf7dc77)" style="fill: #72b7b2; opacity: 0.82"/>
   </g>
   <g id="matplotlib.axis_1">
    <g id="xtick_1">
     <g id="line2d_1">
      <defs>
       <path id="m86c9c96638" d="M 0 0 
L 0 3.5 
" style="stroke: #000000; stroke-width: 0.8"/>
      </defs>
      <g>
       <use xlink:href="#m86c9c96638" x="113.102637" y="312.417695" style="stroke: #000000; stroke-width: 0.8"/>
      </g>
     </g>
     <g id="text_1">
      <!-- 清晰脸 -->
      <g transform="translate(98.102637 327.781758) scale(0.1 -0.1)">
       <defs>
        <path id="MicrosoftYaHei-88e" d="M 2638 -791 
L 2163 -791 
L 2163 2378 
L 5856 2378 
L 5856 -78 
Q 5856 -741 5188 -741 
L 4150 -741 
Q 4119 -541 4056 -259 
Q 4638 -297 5000 -297 
Q 5381 -297 5381 28 
L 5381 341 
L 2638 341 
L 2638 -791 
z
M 1719 3153 
L 3775 3153 
L 3775 3578 
L 2138 3578 
L 2138 3972 
L 3775 3972 
L 3775 4397 
L 1925 4397 
L 1925 4791 
L 3775 4791 
L 3775 5353 
L 4256 5353 
L 4256 4791 
L 6206 4791 
L 6206 4397 
L 4256 4397 
L 4256 3972 
L 6038 3972 
L 6038 3578 
L 4256 3578 
L 4256 3153 
L 6319 3153 
L 6319 2759 
L 1719 2759 
L 1719 3153 
z
M 288 -609 
Q 663 553 931 1809 
Q 1206 1691 1438 1616 
Q 1138 453 838 -778 
L 288 -609 
z
M 5381 1978 
L 2638 1978 
L 2638 1547 
L 5381 1547 
L 5381 1978 
z
M 2638 728 
L 5381 728 
L 5381 1159 
L 2638 1159 
L 2638 728 
z
M 81 3247 
L 400 3603 
Q 981 3209 1481 2797 
Q 1250 2541 1113 2397 
Q 544 2903 81 3247 
z
M 325 4878 
L 650 5209 
Q 1063 4897 1725 4328 
Q 1513 4122 1350 3959 
Q 706 4566 325 4878 
z
" transform="scale(0.015625)"/>
        <path id="MicrosoftYaHei-7b1" d="M 2119 4016 
L 2769 4016 
L 2769 5253 
L 3200 5253 
L 3200 4016 
L 3863 4016 
L 3863 3597 
L 3200 3597 
L 3200 2572 
L 3400 2747 
Q 3763 2409 4075 2059 
L 3763 1772 
Q 3472 2119 3200 2388 
L 3200 -816 
L 2769 -816 
L 2769 2481 
Q 2466 1388 2094 828 
Q 2000 1116 1906 1347 
L 1906 -153 
L 1481 -153 
L 1481 216 
L 794 216 
L 794 -247 
L 369 -247 
L 369 4728 
L 1906 4728 
L 1906 1397 
Q 2456 2350 2728 3597 
L 2119 3597 
L 2119 4016 
z
M 4113 4766 
Q 5125 4822 6006 5047 
L 6169 4578 
Q 5369 4428 4550 4353 
L 4550 3159 
L 6250 3159 
L 6250 2722 
L 5688 2722 
L 5688 -847 
L 5250 -847 
L 5250 2722 
L 4550 2722 
L 4550 2228 
Q 4550 184 3719 -828 
Q 3569 -597 3400 -416 
Q 4113 466 4113 2159 
L 4113 4766 
z
M 794 628 
L 1481 628 
L 1481 2284 
L 794 2284 
L 794 628 
z
M 1481 4316 
L 794 4316 
L 794 2684 
L 1481 2684 
L 1481 4316 
z
" transform="scale(0.015625)"/>
        <path id="MicrosoftYaHei-a0e" d="M 4650 5228 
L 4544 5047 
Q 5231 3866 6363 3284 
Q 6256 3159 6069 2866 
Q 4969 3534 4275 4653 
Q 3731 3791 2525 2803 
Q 2344 3028 2206 3178 
L 2206 -122 
Q 2206 -747 1600 -747 
Q 1313 -747 1069 -734 
Q 1050 -534 994 -272 
Q 1300 -303 1475 -303 
Q 1756 -303 1756 -9 
L 1756 1409 
L 938 1409 
Q 888 -16 388 -872 
Q 225 -691 31 -547 
Q 494 222 494 1703 
L 494 4978 
L 2206 4978 
L 2206 3209 
Q 3506 4116 4056 5228 
L 4650 5228 
z
M 2425 -91 
L 4625 -91 
Q 5081 1072 5456 2272 
L 5925 2103 
Q 5556 1047 5106 -91 
L 6175 -91 
L 6175 -522 
L 2425 -522 
L 2425 -91 
z
M 2919 3022 
L 5581 3022 
L 5581 2591 
L 2919 2591 
L 2919 3022 
z
M 944 1822 
L 1756 1822 
L 1756 2991 
L 944 2991 
L 944 1822 
z
M 1756 4566 
L 944 4566 
L 944 3403 
L 1756 3403 
L 1756 4566 
z
M 2644 1972 
L 3069 2103 
Q 3381 1184 3600 422 
L 3144 272 
Q 2938 1141 2644 1972 
z
M 3806 2178 
L 4219 2272 
Q 4463 1422 4644 578 
L 4194 472 
Q 4044 1259 3806 2178 
z
" transform="scale(0.015625)"/>
       </defs>
       <use xlink:href="#MicrosoftYaHei-88e"/>
       <use xlink:href="#MicrosoftYaHei-7b1" transform="translate(100 0)"/>
       <use xlink:href="#MicrosoftYaHei-a0e" transform="translate(200 0)"/>
      </g>
     </g>
    </g>
    <g id="xtick_2">
     <g id="line2d_2">
      <g>
       <use xlink:href="#m86c9c96638" x="233.74015" y="312.417695" style="stroke: #000000; stroke-width: 0.8"/>
      </g>
     </g>
     <g id="text_2">
      <!-- 小脸 -->
      <g transform="translate(223.74015 327.616133) scale(0.1 -0.1)">
       <defs>
        <path id="MicrosoftYaHei-634" d="M 1513 3878 
L 2025 3697 
Q 1425 1984 625 478 
Q 413 609 113 759 
Q 831 1972 1513 3878 
z
M 4300 3641 
L 4769 3866 
Q 5563 2422 6319 828 
L 5750 559 
Q 4988 2328 4300 3641 
z
M 3000 5247 
L 3556 5247 
L 3556 66 
Q 3556 -747 2675 -747 
Q 2325 -747 1744 -728 
Q 1700 -453 1638 -141 
Q 2238 -197 2556 -197 
Q 3000 -197 3000 203 
L 3000 5247 
z
" transform="scale(0.015625)"/>
       </defs>
       <use xlink:href="#MicrosoftYaHei-634"/>
       <use xlink:href="#MicrosoftYaHei-a0e" transform="translate(100 0)"/>
      </g>
     </g>
    </g>
    <g id="xtick_3">
     <g id="line2d_3">
      <g>
       <use xlink:href="#m86c9c96638" x="354.377663" y="312.417695" style="stroke: #000000; stroke-width: 0.8"/>
      </g>
     </g>
     <g id="text_3">
      <!-- 姿态偏转 -->
      <g transform="translate(334.377663 327.791133) scale(0.1 -0.1)">
       <defs>
        <path id="MicrosoftYaHei-2fba" d="M 250 1828 
L 2169 1828 
Q 2363 2103 2513 2322 
L 3006 2172 
Q 2875 2009 2738 1828 
L 6150 1828 
L 6150 1416 
L 5019 1416 
Q 4719 722 4050 241 
Q 5100 -84 6025 -391 
L 5788 -834 
Q 4794 -484 3538 -72 
Q 2375 -678 425 -847 
Q 338 -603 250 -372 
Q 1844 -278 2888 134 
Q 2119 384 1256 653 
Q 1594 1047 1869 1416 
L 250 1416 
L 250 1828 
z
M 1831 2659 
Q 3663 3103 3875 4347 
L 2925 4347 
Q 2700 3891 2419 3509 
Q 2219 3647 2000 3778 
Q 2575 4434 2825 5266 
L 3306 5266 
Q 3219 5003 3113 4759 
L 6013 4759 
L 6013 4366 
L 5588 3516 
Q 5375 3616 5131 3709 
L 5463 4347 
L 4350 4347 
Q 4306 4134 4250 3953 
Q 4806 2953 6256 2616 
Q 6081 2378 5944 2159 
Q 4644 2547 4056 3509 
Q 3625 2691 2150 2234 
Q 2006 2472 1831 2659 
z
M 1988 859 
Q 2750 634 3463 416 
Q 4144 816 4488 1416 
L 2431 1416 
Q 2206 1122 1988 859 
z
M 1819 3847 
Q 1931 3603 2063 3403 
Q 1263 2816 513 2197 
L 188 2622 
Q 1100 3259 1819 3847 
z
M 756 5197 
Q 1288 4866 1800 4497 
Q 1638 4303 1481 4109 
Q 1025 4472 481 4853 
L 756 5197 
z
" transform="scale(0.015625)"/>
        <path id="MicrosoftYaHei-6c1" d="M 325 4434 
L 2888 4434 
Q 2972 4822 2969 5328 
L 3438 5328 
Q 3444 4841 3372 4434 
L 6075 4434 
L 6075 3991 
L 3528 3991 
Q 4419 2706 6231 2241 
Q 6050 2034 5881 1759 
Q 4041 2394 3172 3772 
Q 2975 3331 2588 2953 
Q 3078 2616 3538 2259 
L 3225 1891 
Q 2828 2244 2259 2675 
Q 1556 2138 388 1703 
Q 294 1922 113 2178 
Q 2250 2866 2750 3991 
L 325 3991 
L 325 4434 
z
M 1713 1547 
L 2200 1547 
L 2200 203 
Q 2200 -172 2575 -172 
L 3763 -172 
Q 4175 -172 4256 134 
Q 4331 428 4381 1028 
Q 4556 953 4863 847 
Q 4763 128 4706 -47 
Q 4563 -616 3869 -616 
L 2488 -616 
Q 1713 -616 1713 172 
L 1713 1547 
z
M 813 1447 
L 1281 1297 
Q 1038 522 663 -297 
Q 463 -203 194 -116 
Q 569 591 813 1447 
z
M 4894 1272 
L 5263 1553 
Q 5781 972 6306 309 
L 5888 -9 
Q 5425 641 4894 1272 
z
M 2594 1503 
L 2913 1809 
Q 3419 1403 3850 991 
L 3488 641 
Q 3094 1059 2594 1503 
z
" transform="scale(0.015625)"/>
        <path id="MicrosoftYaHei-49e" d="M 3088 -803 
L 2675 -803 
L 2675 2522 
L 6050 2522 
L 6050 -128 
Q 6050 -497 5919 -628 
Q 5794 -766 5444 -784 
Q 5213 -791 5019 -791 
Q 4994 -616 4953 -466 
L 4644 -466 
L 4644 797 
L 4063 797 
L 4063 -491 
L 3669 -491 
L 3669 797 
L 3088 797 
L 3088 -803 
z
M 2013 4678 
L 3884 4678 
Q 3738 4941 3606 5141 
L 4081 5359 
Q 4259 5075 4481 4678 
L 5956 4678 
L 5956 2966 
L 5525 2966 
L 5525 3166 
L 2450 3166 
L 2450 2816 
Q 2450 1316 2294 616 
Q 2138 -153 1706 -841 
Q 1575 -647 1363 -428 
Q 1744 159 1875 834 
Q 2013 1491 2013 2784 
L 2013 4678 
z
M 81 2291 
Q 913 3553 1381 5322 
L 1850 5203 
Q 1594 4353 1275 3609 
L 1275 -828 
L 838 -828 
L 838 2703 
Q 572 2209 275 1778 
Q 188 2041 81 2291 
z
M 5525 4278 
L 2450 4278 
L 2450 3566 
L 5525 3566 
L 5525 4278 
z
M 5381 -391 
Q 5631 -391 5631 -103 
L 5631 797 
L 5038 797 
L 5038 -375 
Q 5238 -391 5381 -391 
z
M 5631 2122 
L 5038 2122 
L 5038 1178 
L 5631 1178 
L 5631 2122 
z
M 4063 1178 
L 4644 1178 
L 4644 2122 
L 4063 2122 
L 4063 1178 
z
M 3088 1178 
L 3669 1178 
L 3669 2122 
L 3088 2122 
L 3088 1178 
z
" transform="scale(0.015625)"/>
        <path id="MicrosoftYaHei-af4" d="M 3125 584 
L 3406 959 
Q 3925 634 4431 303 
L 5400 1428 
L 3244 1428 
L 3244 1859 
Q 3363 2238 3481 2666 
L 2769 2666 
L 2769 3091 
L 3600 3091 
Q 3703 3484 3809 3916 
L 3063 3916 
L 3063 4341 
L 3913 4341 
Q 4022 4800 4131 5297 
L 4613 5297 
Q 4506 4806 4394 4341 
L 6075 4341 
L 6075 3916 
L 4294 3916 
Q 4188 3491 4084 3091 
L 6300 3091 
L 6300 2666 
L 3969 2666 
Q 3853 2247 3738 1853 
L 6006 1853 
L 6006 1409 
L 4819 50 
Q 5191 -197 5556 -447 
L 5231 -859 
Q 4219 -103 3125 584 
z
M 744 2303 
L 1506 2303 
L 1506 3534 
L 1969 3534 
L 1969 2303 
L 2813 2303 
L 2813 1878 
L 1969 1878 
L 1969 1034 
Q 2441 1100 2944 1172 
Q 2919 953 2900 722 
Q 2431 653 1969 584 
L 1969 -841 
L 1506 -841 
L 1506 516 
Q 825 413 150 309 
L 81 791 
Q 756 872 1506 972 
L 1506 1878 
L 225 1878 
L 225 2297 
Q 553 2994 844 3922 
L 156 3922 
L 156 4347 
L 972 4347 
Q 1109 4819 1238 5347 
L 1750 5247 
Q 1609 4788 1466 4347 
L 2813 4347 
L 2813 3922 
L 1325 3922 
Q 1044 3084 744 2303 
z
" transform="scale(0.015625)"/>
       </defs>
       <use xlink:href="#MicrosoftYaHei-2fba"/>
       <use xlink:href="#MicrosoftYaHei-6c1" transform="translate(100 0)"/>
       <use xlink:href="#MicrosoftYaHei-49e" transform="translate(200 0)"/>
       <use xlink:href="#MicrosoftYaHei-af4" transform="translate(300 0)"/>
      </g>
     </g>
    </g>
    <g id="xtick_4">
     <g id="line2d_4">
      <g>
       <use xlink:href="#m86c9c96638" x="475.015176" y="312.417695" style="stroke: #000000; stroke-width: 0.8"/>
      </g>
     </g>
     <g id="text_4">
      <!-- 模糊 -->
      <g transform="translate(465.015176 327.723945) scale(0.1 -0.1)">
       <defs>
        <path id="MicrosoftYaHei-825" d="M 2050 984 
L 3859 984 
Q 3900 1213 3913 1547 
L 2950 1547 
L 2950 1372 
L 2500 1372 
L 2500 3634 
L 5844 3634 
L 5844 1372 
L 5394 1372 
L 5394 1547 
L 4344 1547 
Q 4325 1203 4288 984 
L 6250 984 
L 6250 584 
L 4525 584 
Q 5203 -175 6319 -341 
Q 6144 -572 6013 -809 
Q 4803 -456 4128 466 
Q 3681 -431 2075 -847 
Q 1969 -628 1831 -416 
Q 3303 -106 3713 584 
L 2050 584 
L 2050 984 
z
M 63 1409 
Q 603 2316 922 3509 
L 138 3509 
L 138 3922 
L 1006 3922 
L 1006 5309 
L 1444 5309 
L 1444 3922 
L 2256 3922 
L 2256 3509 
L 1444 3509 
L 1444 2684 
L 1688 2884 
Q 2044 2503 2350 2116 
L 2006 1828 
Q 1719 2244 1444 2563 
L 1444 -822 
L 1006 -822 
L 1006 2581 
Q 672 1438 275 859 
Q 188 1128 63 1409 
z
M 4713 5303 
L 5150 5303 
L 5150 4703 
L 6225 4703 
L 6225 4303 
L 5150 4303 
L 5150 3797 
L 4713 3797 
L 4713 4303 
L 3600 4303 
L 3600 3797 
L 3163 3797 
L 3163 4303 
L 2175 4303 
L 2175 4703 
L 3163 4703 
L 3163 5309 
L 3600 5309 
L 3600 4703 
L 4713 4703 
L 4713 5303 
z
M 5394 3247 
L 2950 3247 
L 2950 2778 
L 5394 2778 
L 5394 3247 
z
M 2950 1934 
L 5394 1934 
L 5394 2403 
L 2950 2403 
L 2950 1934 
z
" transform="scale(0.015625)"/>
        <path id="MicrosoftYaHei-9a5" d="M 4213 4959 
L 6013 4959 
L 6013 -122 
Q 6013 -747 5419 -747 
Q 5013 -747 4831 -728 
Q 4813 -547 4756 -247 
Q 5075 -291 5306 -291 
Q 5581 -291 5581 -16 
L 5581 1378 
L 4631 1378 
Q 4547 -81 3813 -859 
Q 3656 -697 3419 -516 
Q 4213 197 4213 1834 
L 4213 4959 
z
M 2206 2466 
L 2781 2466 
L 2781 3722 
L 2175 3722 
L 2175 4134 
L 2781 4134 
L 2781 5309 
L 3213 5309 
L 3213 4134 
L 3888 4134 
L 3888 3722 
L 3213 3722 
L 3213 2466 
L 3800 2466 
L 3800 91 
L 2625 91 
L 2625 -309 
L 2206 -309 
L 2206 2466 
z
M 88 722 
Q 581 1566 916 2697 
L 106 2697 
L 106 3097 
L 981 3097 
L 981 5316 
L 1375 5316 
L 1375 3097 
L 2181 3097 
L 2181 2697 
L 1375 2697 
L 1375 1981 
L 1588 2141 
Q 1925 1791 2200 1441 
L 1875 1172 
Q 1681 1450 1375 1813 
L 1375 -791 
L 981 -791 
L 981 1881 
Q 688 916 281 153 
Q 163 547 88 722 
z
M 3381 491 
L 3381 2066 
L 2625 2066 
L 2625 491 
L 3381 491 
z
M 4644 1803 
L 5581 1803 
L 5581 2959 
L 4644 2959 
L 4644 1803 
z
M 5581 4534 
L 4644 4534 
L 4644 3384 
L 5581 3384 
L 5581 4534 
z
M 1513 3534 
Q 1688 4016 1844 4772 
L 2231 4678 
Q 2038 3947 1850 3428 
L 1513 3534 
z
M 156 4709 
L 500 4778 
Q 650 4159 756 3528 
L 375 3447 
Q 294 4059 156 4709 
z
" transform="scale(0.015625)"/>
       </defs>
       <use xlink:href="#MicrosoftYaHei-825"/>
       <use xlink:href="#MicrosoftYaHei-9a5" transform="translate(100 0)"/>
      </g>
     </g>
    </g>
   </g>
   <g id="matplotlib.axis_2">
    <g id="ytick_1">
     <g id="line2d_5">
      <path d="M 41.926504 312.417695 
L 546.191309 312.417695 
" clip-path="url(#p395bf7dc77)" style="fill: none; stroke: #b0b0b0; stroke-opacity: 0.2; stroke-width: 0.8; stroke-linecap: square"/>
     </g>
     <g id="line2d_6">
      <defs>
       <path id="m91bb6e6d79" d="M 0 0 
L -3.5 0 
" style="stroke: #000000; stroke-width: 0.8"/>
      </defs>
      <g>
       <use xlink:href="#m91bb6e6d79" x="41.926504" y="312.417695" style="stroke: #000000; stroke-width: 0.8"/>
      </g>
     </g>
     <g id="text_5">
      <!-- 0 -->
      <g transform="translate(29.062441 316.477754) scale(0.1 -0.1)">
       <defs>
        <path id="MicrosoftYaHei-16" d="M 284 2325 
Q 284 3606 709 4264 
Q 1134 4922 1941 4922 
Q 3478 4922 3478 2441 
Q 3478 1216 3045 567 
Q 2613 -81 1831 -81 
Q 1094 -81 689 534 
Q 284 1150 284 2325 
z
M 909 2353 
Q 909 425 1888 425 
Q 2850 425 2850 2384 
Q 2850 4413 1906 4413 
Q 909 4413 909 2353 
z
" transform="scale(0.015625)"/>
       </defs>
       <use xlink:href="#MicrosoftYaHei-16"/>
      </g>
     </g>
    </g>
    <g id="ytick_2">
     <g id="line2d_7">
      <path d="M 41.926504 277.215519 
L 546.191309 277.215519 
" clip-path="url(#p395bf7dc77)" style="fill: none; stroke: #b0b0b0; stroke-opacity: 0.2; stroke-width: 0.8; stroke-linecap: square"/>
     </g>
     <g id="line2d_8">
      <g>
       <use xlink:href="#m91bb6e6d79" x="41.926504" y="277.215519" style="stroke: #000000; stroke-width: 0.8"/>
      </g>
     </g>
     <g id="text_6">
      <!-- 5 -->
      <g transform="translate(29.062441 281.275578) scale(0.1 -0.1)">
       <defs>
        <path id="MicrosoftYaHei-1b" d="M 3294 1494 
Q 3294 784 2823 350 
Q 2353 -84 1559 -84 
Q 878 -84 544 119 
L 544 744 
Q 1034 425 1544 425 
Q 2050 425 2361 704 
Q 2672 984 2672 1447 
Q 2672 1909 2348 2167 
Q 2025 2425 1434 2425 
Q 978 2425 613 2384 
L 791 4841 
L 3053 4841 
L 3053 4303 
L 1306 4303 
L 1206 2931 
L 1647 2950 
Q 2416 2950 2855 2567 
Q 3294 2184 3294 1494 
z
" transform="scale(0.015625)"/>
       </defs>
       <use xlink:href="#MicrosoftYaHei-1b"/>
      </g>
     </g>
    </g>
    <g id="ytick_3">
     <g id="line2d_9">
      <path d="M 41.926504 242.013344 
L 546.191309 242.013344 
" clip-path="url(#p395bf7dc77)" style="fill: none; stroke: #b0b0b0; stroke-opacity: 0.2; stroke-width: 0.8; stroke-linecap: square"/>
     </g>
     <g id="line2d_10">
      <g>
       <use xlink:href="#m91bb6e6d79" x="41.926504" y="242.013344" style="stroke: #000000; stroke-width: 0.8"/>
      </g>
     </g>
     <g id="text_7">
      <!-- 10 -->
      <g transform="translate(23.198379 246.073402) scale(0.1 -0.1)">
       <defs>
        <path id="MicrosoftYaHei-17" d="M 1781 0 
L 1781 4141 
Q 1638 3997 1295 3819 
Q 953 3641 663 3569 
L 663 4169 
Q 1047 4275 1484 4508 
Q 1922 4741 2156 4947 
L 2388 4947 
L 2388 0 
L 1781 0 
z
" transform="scale(0.015625)"/>
       </defs>
       <use xlink:href="#MicrosoftYaHei-17"/>
       <use xlink:href="#MicrosoftYaHei-16" transform="translate(58.640625 0)"/>
      </g>
     </g>
    </g>
    <g id="ytick_4">
     <g id="line2d_11">
      <path d="M 41.926504 206.811168 
L 546.191309 206.811168 
" clip-path="url(#p395bf7dc77)" style="fill: none; stroke: #b0b0b0; stroke-opacity: 0.2; stroke-width: 0.8; stroke-linecap: square"/>
     </g>
     <g id="line2d_12">
      <g>
       <use xlink:href="#m91bb6e6d79" x="41.926504" y="206.811168" style="stroke: #000000; stroke-width: 0.8"/>
      </g>
     </g>
     <g id="text_8">
      <!-- 15 -->
      <g transform="translate(23.198379 210.871226) scale(0.1 -0.1)">
       <use xlink:href="#MicrosoftYaHei-17"/>
       <use xlink:href="#MicrosoftYaHei-1b" transform="translate(58.640625 0)"/>
      </g>
     </g>
    </g>
    <g id="ytick_5">
     <g id="line2d_13">
      <path d="M 41.926504 171.608992 
L 546.191309 171.608992 
" clip-path="url(#p395bf7dc77)" style="fill: none; stroke: #b0b0b0; stroke-opacity: 0.2; stroke-width: 0.8; stroke-linecap: square"/>
     </g>
     <g id="line2d_14">
      <g>
       <use xlink:href="#m91bb6e6d79" x="41.926504" y="171.608992" style="stroke: #000000; stroke-width: 0.8"/>
      </g>
     </g>
     <g id="text_9">
      <!-- 20 -->
      <g transform="translate(23.198379 175.66905) scale(0.1 -0.1)">
       <defs>
        <path id="MicrosoftYaHei-18" d="M 2666 3572 
Q 2666 3963 2419 4186 
Q 2172 4409 1747 4409 
Q 1447 4409 1140 4256 
Q 834 4103 569 3819 
L 569 4413 
Q 806 4659 1107 4790 
Q 1409 4922 1816 4922 
Q 2472 4922 2872 4570 
Q 3272 4219 3272 3619 
Q 3272 3084 3026 2693 
Q 2781 2303 2188 1894 
Q 1581 1475 1376 1294 
Q 1172 1113 1090 947 
Q 1009 781 1009 544 
L 3416 544 
L 3416 0 
L 372 0 
L 372 241 
Q 372 659 486 951 
Q 600 1244 862 1520 
Q 1125 1797 1681 2184 
Q 2250 2584 2458 2886 
Q 2666 3188 2666 3572 
z
" transform="scale(0.015625)"/>
       </defs>
       <use xlink:href="#MicrosoftYaHei-18"/>
       <use xlink:href="#MicrosoftYaHei-16" transform="translate(58.640625 0)"/>
      </g>
     </g>
    </g>
    <g id="ytick_6">
     <g id="line2d_15">
      <path d="M 41.926504 136.406816 
L 546.191309 136.406816 
" clip-path="url(#p395bf7dc77)" style="fill: none; stroke: #b0b0b0; stroke-opacity: 0.2; stroke-width: 0.8; stroke-linecap: square"/>
     </g>
     <g id="line2d_16">
      <g>
       <use xlink:href="#m91bb6e6d79" x="41.926504" y="136.406816" style="stroke: #000000; stroke-width: 0.8"/>
      </g>
     </g>
     <g id="text_10">
      <!-- 25 -->
      <g transform="translate(23.198379 140.466875) scale(0.1 -0.1)">
       <use xlink:href="#MicrosoftYaHei-18"/>
       <use xlink:href="#MicrosoftYaHei-1b" transform="translate(58.640625 0)"/>
      </g>
     </g>
    </g>
    <g id="ytick_7">
     <g id="line2d_17">
      <path d="M 41.926504 101.20464 
L 546.191309 101.20464 
" clip-path="url(#p395bf7dc77)" style="fill: none; stroke: #b0b0b0; stroke-opacity: 0.2; stroke-width: 0.8; stroke-linecap: square"/>
     </g>
     <g id="line2d_18">
      <g>
       <use xlink:href="#m91bb6e6d79" x="41.926504" y="101.20464" style="stroke: #000000; stroke-width: 0.8"/>
      </g>
     </g>
     <g id="text_11">
      <!-- 30 -->
      <g transform="translate(23.198379 105.264699) scale(0.1 -0.1)">
       <defs>
        <path id="MicrosoftYaHei-19" d="M 447 809 
Q 944 425 1569 425 
Q 2069 425 2361 670 
Q 2653 916 2653 1328 
Q 2653 2247 1338 2247 
L 934 2247 
L 934 2753 
L 1319 2753 
Q 2484 2753 2484 3616 
Q 2484 4413 1594 4413 
Q 1084 4413 634 4069 
L 634 4647 
Q 1109 4922 1744 4922 
Q 2363 4922 2738 4598 
Q 3113 4275 3113 3759 
Q 3113 2809 2144 2538 
L 2144 2525 
Q 2669 2469 2973 2155 
Q 3278 1841 3278 1372 
Q 3278 719 2808 319 
Q 2338 -81 1556 -81 
Q 869 -81 447 175 
L 447 809 
z
" transform="scale(0.015625)"/>
       </defs>
       <use xlink:href="#MicrosoftYaHei-19"/>
       <use xlink:href="#MicrosoftYaHei-16" transform="translate(58.640625 0)"/>
      </g>
     </g>
    </g>
    <g id="ytick_8">
     <g id="line2d_19">
      <path d="M 41.926504 66.002464 
L 546.191309 66.002464 
" clip-path="url(#p395bf7dc77)" style="fill: none; stroke: #b0b0b0; stroke-opacity: 0.2; stroke-width: 0.8; stroke-linecap: square"/>
     </g>
     <g id="line2d_20">
      <g>
       <use xlink:href="#m91bb6e6d79" x="41.926504" y="66.002464" style="stroke: #000000; stroke-width: 0.8"/>
      </g>
     </g>
     <g id="text_12">
      <!-- 35 -->
      <g transform="translate(23.198379 70.062523) scale(0.1 -0.1)">
       <use xlink:href="#MicrosoftYaHei-19"/>
       <use xlink:href="#MicrosoftYaHei-1b" transform="translate(58.640625 0)"/>
      </g>
     </g>
    </g>
    <g id="ytick_9">
     <g id="line2d_21">
      <path d="M 41.926504 30.800288 
L 546.191309 30.800288 
" clip-path="url(#p395bf7dc77)" style="fill: none; stroke: #b0b0b0; stroke-opacity: 0.2; stroke-width: 0.8; stroke-linecap: square"/>
     </g>
     <g id="line2d_22">
      <g>
       <use xlink:href="#m91bb6e6d79" x="41.926504" y="30.800288" style="stroke: #000000; stroke-width: 0.8"/>
      </g>
     </g>
     <g id="text_13">
      <!-- 40 -->
      <g transform="translate(23.198379 34.860347) scale(0.1 -0.1)">
       <defs>
        <path id="MicrosoftYaHei-1a" d="M 2906 4841 
L 2906 1644 
L 3631 1644 
L 3631 1138 
L 2906 1138 
L 2906 0 
L 2313 0 
L 2313 1138 
L 53 1138 
L 53 1616 
Q 656 2294 1265 3178 
Q 1875 4063 2272 4841 
L 2906 4841 
z
M 741 1644 
L 2313 1644 
L 2313 3950 
Q 1988 3366 1616 2817 
Q 1244 2269 741 1644 
z
" transform="scale(0.015625)"/>
       </defs>
       <use xlink:href="#MicrosoftYaHei-1a"/>
       <use xlink:href="#MicrosoftYaHei-16" transform="translate(58.640625 0)"/>
      </g>
     </g>
    </g>
    <g id="text_14">
     <!-- 每次实验的平均轨迹数 -->
     <g transform="translate(16.410781 223.264785) rotate(-90) scale(0.11 -0.11)">
      <defs>
       <path id="MicrosoftYaHei-83f" d="M 125 2203 
L 1044 2203 
L 1325 3766 
L 5456 3766 
Q 5422 2928 5391 2203 
L 6300 2203 
L 6300 1753 
L 5372 1753 
Q 5344 1141 5319 616 
L 6075 616 
L 6075 178 
L 5284 178 
Q 5222 -278 5031 -484 
Q 4788 -753 4181 -753 
Q 3831 -753 3288 -728 
Q 3256 -516 3194 -222 
Q 3838 -278 4119 -278 
Q 4513 -278 4638 -128 
Q 4722 -41 4766 178 
L 763 178 
L 763 647 
L 963 1753 
L 125 1753 
L 125 2203 
z
M 4866 1753 
L 1472 1753 
L 1275 616 
L 4813 616 
Q 4844 1172 4866 1753 
z
M 4925 3328 
L 1750 3328 
L 1553 2203 
L 4888 2203 
Q 4906 2753 4925 3328 
z
M 100 3522 
Q 1025 4309 1550 5359 
L 2113 5359 
Q 1966 5069 1803 4803 
L 6156 4803 
L 6156 4353 
L 1509 4353 
Q 1022 3659 413 3134 
Q 281 3316 100 3522 
z
M 2619 2978 
L 2913 3303 
Q 3388 2934 3750 2622 
L 3413 2247 
Q 3025 2628 2619 2978 
z
M 2569 1391 
L 2863 1716 
Q 3338 1347 3700 1034 
L 3369 666 
Q 2888 1116 2569 1391 
z
" transform="scale(0.015625)"/>
       <path id="MicrosoftYaHei-829" d="M 4119 3472 
Q 4113 3159 4091 2856 
Q 4509 728 6319 -284 
Q 6063 -559 5913 -772 
Q 4344 331 3900 1944 
Q 3491 200 1650 -866 
Q 1525 -672 1306 -422 
Q 3225 591 3525 2428 
Q 3613 2878 3619 3472 
L 4119 3472 
z
M 4944 2647 
Q 5225 3166 5450 3766 
L 2991 3766 
Q 2719 3144 2388 2572 
Q 2163 2734 1938 2841 
Q 2669 4034 3000 5309 
L 3506 5166 
Q 3356 4675 3175 4209 
L 5988 4209 
L 5988 3766 
Q 5731 3072 5425 2466 
Q 5213 2572 4944 2647 
z
M 1388 2622 
Q 1675 2403 1875 2284 
Q 1075 859 575 -178 
L 69 153 
Q 713 1128 1388 2622 
z
M 644 4916 
Q 1150 4409 1781 3672 
L 1375 3297 
Q 769 4097 281 4591 
L 644 4916 
z
" transform="scale(0.015625)"/>
       <path id="MicrosoftYaHei-618" d="M 113 -397 
Q 2419 34 3081 972 
L 213 972 
L 213 1434 
L 3313 1434 
Q 3525 2084 3506 3703 
L 4031 3703 
Q 4031 2097 3856 1434 
L 6225 1434 
L 6225 972 
L 3681 972 
Q 3631 872 3563 759 
Q 4900 197 6181 -403 
L 5906 -878 
Q 4569 -197 3263 391 
Q 2413 -441 413 -891 
Q 269 -616 113 -397 
z
M 331 4422 
L 3194 4422 
Q 3038 4703 2775 5078 
L 3231 5334 
Q 3438 5059 3731 4609 
L 3388 4422 
L 6063 4422 
L 6063 3303 
L 5563 3303 
L 5563 3959 
L 831 3959 
L 831 3303 
L 331 3303 
L 331 4422 
z
M 1100 2734 
Q 1819 2409 2450 2053 
L 2181 1622 
Q 1556 2003 863 2334 
L 1100 2734 
z
M 1663 3691 
Q 2388 3341 2981 2984 
L 2700 2559 
Q 2119 2934 1419 3322 
L 1663 3691 
z
" transform="scale(0.015625)"/>
       <path id="MicrosoftYaHei-be0" d="M 963 4116 
L 819 2397 
L 1450 2397 
L 1613 4503 
L 194 4503 
L 194 4928 
L 2088 4928 
L 1894 2397 
L 2288 2397 
Q 2244 1078 2206 228 
Q 2188 -722 1381 -722 
Q 1044 -722 588 -703 
Q 556 -472 506 -209 
Q 956 -266 1306 -266 
Q 1744 -266 1769 266 
Q 1806 953 1831 1972 
L 331 1972 
L 531 4116 
L 963 4116 
z
M 2338 -103 
L 4594 -103 
Q 5044 1009 5394 2222 
L 5869 2072 
Q 5500 953 5088 -103 
L 6188 -103 
L 6188 -534 
L 2338 -534 
L 2338 -103 
z
M 4606 5278 
L 4488 5078 
Q 5244 3734 6363 3122 
Q 6163 2872 6031 2684 
Q 4931 3497 4238 4641 
Q 3600 3509 2456 2609 
Q 2344 2772 2144 3003 
Q 3388 3866 4050 5278 
L 4606 5278 
z
M 2975 2978 
L 5550 2978 
L 5550 2547 
L 2975 2547 
L 2975 2978 
z
M 3731 2178 
L 4175 2297 
Q 4438 1359 4606 659 
L 4150 528 
Q 3969 1391 3731 2178 
z
M 2656 1897 
L 3094 2034 
Q 3400 1147 3606 453 
L 3144 297 
Q 2938 1097 2656 1897 
z
M 38 1034 
Q 763 1178 1631 1384 
Q 1625 1134 1638 941 
Q 925 791 131 572 
L 38 1034 
z
" transform="scale(0.015625)"/>
       <path id="MicrosoftYaHei-919" d="M 356 4284 
L 988 4284 
Q 1219 4853 1369 5322 
L 1894 5172 
Q 1697 4694 1513 4284 
L 2763 4284 
L 2763 -691 
L 2263 -691 
L 2263 -203 
L 856 -203 
L 856 -734 
L 356 -734 
L 356 4284 
z
M 2856 3003 
Q 3444 3934 3850 5322 
L 4375 5191 
Q 4216 4719 4050 4303 
L 6063 4303 
Q 5988 1091 5938 259 
Q 5894 -722 4906 -722 
Q 4338 -722 3750 -684 
Q 3713 -372 3650 -128 
L 3669 -128 
Q 4294 -216 4813 -216 
Q 5381 -216 5425 384 
Q 5494 1316 5525 3834 
L 3850 3834 
Q 3578 3231 3288 2772 
Q 3119 2891 2856 3003 
z
M 856 266 
L 2263 266 
L 2263 1847 
L 856 1847 
L 856 266 
z
M 2263 3816 
L 856 3816 
L 856 2297 
L 2263 2297 
L 2263 3816 
z
M 3406 2578 
L 3788 2859 
Q 4481 2041 4894 1441 
L 4431 1116 
Q 3988 1841 3406 2578 
z
" transform="scale(0.015625)"/>
       <path id="MicrosoftYaHei-675" d="M 169 1934 
L 2938 1934 
L 2938 4547 
L 450 4547 
L 450 5028 
L 5975 5028 
L 5975 4547 
L 3463 4547 
L 3463 1934 
L 6250 1934 
L 6250 1453 
L 3463 1453 
L 3463 -847 
L 2938 -847 
L 2938 1453 
L 169 1453 
L 169 1934 
z
M 3950 2559 
Q 4638 3284 5188 4159 
L 5656 3859 
Q 4950 2891 4338 2234 
L 3950 2559 
z
M 769 3859 
L 1163 4134 
Q 1863 3316 2369 2553 
L 1925 2222 
Q 1444 3003 769 3859 
z
" transform="scale(0.015625)"/>
       <path id="MicrosoftYaHei-5ae" d="M 2244 2803 
Q 2931 3953 3338 5322 
L 3838 5172 
Q 3691 4744 3531 4347 
L 6013 4347 
Q 5925 1053 5875 297 
Q 5831 -697 4806 -697 
Q 4188 -697 3706 -672 
Q 3669 -422 3606 -141 
L 3625 -141 
Q 4250 -209 4775 -209 
Q 5350 -209 5394 378 
Q 5456 1447 5513 3891 
L 3341 3891 
Q 3028 3172 2675 2572 
Q 2481 2691 2244 2803 
z
M 81 428 
Q 559 600 1006 769 
L 1006 3253 
L 169 3253 
L 169 3697 
L 1006 3697 
L 1006 5259 
L 1469 5259 
L 1469 3697 
L 2281 3697 
L 2281 3253 
L 1469 3253 
L 1469 947 
Q 1922 1125 2338 1303 
Q 2350 991 2369 784 
Q 1363 403 250 -53 
L 81 428 
z
M 2513 853 
Q 3769 1353 5119 1934 
Q 5150 1641 5188 1434 
Q 4031 947 2706 359 
L 2513 853 
z
M 3138 2909 
L 3481 3216 
Q 4025 2716 4531 2216 
L 4125 1859 
Q 3644 2409 3138 2909 
z
" transform="scale(0.015625)"/>
       <path id="MicrosoftYaHei-af3" d="M 2700 3934 
L 3406 3934 
L 3406 5303 
L 3894 5303 
L 3894 3934 
L 5313 3934 
L 5313 78 
Q 5313 -166 5475 -166 
L 5556 -166 
Q 5731 -166 5775 184 
Q 5831 591 5869 1309 
Q 6081 1203 6319 1134 
Q 6281 591 6206 47 
Q 6106 -641 5619 -641 
L 5331 -641 
Q 4838 -641 4838 22 
L 4838 3472 
L 3894 3472 
Q 3881 1634 3706 859 
Q 3506 -116 2869 -891 
Q 2688 -672 2463 -491 
Q 3044 109 3244 1072 
Q 3394 1709 3406 3472 
L 2700 3472 
L 2700 3934 
z
M 825 2434 
L 1500 2434 
L 1500 3603 
L 1975 3603 
L 1975 2434 
L 2694 2434 
L 2694 1972 
L 1975 1972 
L 1975 1166 
Q 2325 1234 2694 1309 
Q 2681 1022 2681 828 
Q 2338 766 1975 697 
L 1975 -859 
L 1500 -859 
L 1500 603 
Q 869 478 181 334 
L 75 834 
Q 756 934 1500 1072 
L 1500 1972 
L 300 1972 
L 300 2366 
Q 569 3141 813 4028 
L 163 4028 
L 163 4466 
L 925 4466 
Q 1031 4884 1138 5328 
L 1644 5228 
Q 1538 4834 1438 4466 
L 2675 4466 
L 2675 4028 
L 1313 4028 
Q 1063 3159 825 2434 
z
" transform="scale(0.015625)"/>
       <path id="MicrosoftYaHei-b1c" d="M 1950 4422 
L 3963 4422 
Q 3772 4772 3519 5109 
L 3919 5353 
Q 4200 5003 4425 4641 
L 4059 4422 
L 6150 4422 
L 6150 3966 
L 4938 3966 
L 4938 959 
Q 4938 203 4175 159 
Q 3888 147 3419 147 
Q 3388 391 3325 666 
Q 3700 634 4056 634 
Q 4488 634 4488 1122 
L 4488 3966 
L 3569 3966 
L 3569 2797 
Q 3569 853 2438 -16 
Q 2281 197 2113 372 
Q 3119 1172 3119 2791 
L 3119 3966 
L 1950 3966 
L 1950 4422 
z
M 2903 -228 
L 4163 -253 
L 6319 -191 
Q 6213 -441 6113 -672 
L 4159 -703 
L 2763 -672 
Q 1575 -641 1088 47 
Q 806 -216 356 -753 
L 88 -222 
Q 559 197 863 459 
L 863 2641 
L 150 2641 
L 150 3097 
L 1325 3097 
L 1325 397 
Q 1778 -200 2903 -228 
z
M 5194 2853 
L 5638 3053 
Q 6056 2153 6300 1478 
L 5844 1284 
Q 5550 2134 5194 2853 
z
M 2269 3047 
L 2725 2884 
Q 2413 2141 2013 1328 
Q 1981 1341 1550 1528 
Q 1956 2247 2269 3047 
z
M 769 5272 
Q 1281 4591 1656 4009 
L 1225 3703 
Q 850 4341 369 5009 
L 769 5272 
z
" transform="scale(0.015625)"/>
       <path id="MicrosoftYaHei-783" d="M 4175 5303 
L 4675 5228 
Q 4544 4622 4369 4097 
L 6281 4097 
L 6281 3672 
L 5888 3672 
Q 5731 1834 5088 753 
Q 5594 66 6375 -372 
Q 6175 -647 6038 -866 
Q 5275 -372 4769 309 
Q 4194 -403 3400 -928 
Q 3263 -747 3044 -534 
Q 3919 41 4463 772 
Q 3956 1647 3794 2791 
Q 3663 2559 3519 2359 
Q 3394 2541 3206 2759 
Q 3931 3803 4175 5303 
z
M 150 1697 
L 1100 1697 
Q 1238 1934 1369 2184 
L 1819 2041 
Q 1719 1866 1619 1697 
L 3150 1697 
L 3150 1291 
Q 2913 678 2431 216 
Q 2775 53 3131 -109 
L 2856 -541 
Q 2469 -322 2050 -103 
Q 1344 -609 269 -903 
Q 169 -703 56 -466 
Q 969 -259 1600 128 
Q 1063 403 475 691 
Q 675 978 863 1284 
L 150 1284 
L 150 1697 
z
M 219 3847 
L 1656 3847 
L 1656 5247 
L 2119 5247 
L 2119 3847 
L 3319 3847 
L 3319 3434 
L 2119 3434 
L 2119 3053 
L 2306 3266 
Q 2888 2841 3281 2516 
L 2981 2166 
Q 2638 2491 2119 2897 
L 2119 2184 
L 1656 2184 
L 1656 3059 
Q 1088 2466 331 2016 
Q 213 2197 63 2397 
Q 850 2822 1506 3434 
L 219 3434 
L 219 3847 
z
M 5388 3672 
L 4219 3672 
Q 4188 3591 4150 3516 
Q 4263 2191 4775 1247 
Q 5275 2159 5388 3672 
z
M 1088 834 
Q 1531 634 2000 416 
Q 2431 784 2675 1284 
L 1375 1284 
Q 1231 1053 1088 834 
z
M 3038 5091 
L 3425 4834 
Q 3081 4384 2738 4003 
Q 2594 4128 2400 4266 
Q 2725 4647 3038 5091 
z
M 381 4816 
L 738 5059 
Q 1019 4716 1319 4322 
L 931 4047 
Q 656 4453 381 4816 
z
" transform="scale(0.015625)"/>
      </defs>
      <use xlink:href="#MicrosoftYaHei-83f"/>
      <use xlink:href="#MicrosoftYaHei-829" transform="translate(100 0)"/>
      <use xlink:href="#MicrosoftYaHei-618" transform="translate(200 0)"/>
      <use xlink:href="#MicrosoftYaHei-be0" transform="translate(300 0)"/>
      <use xlink:href="#MicrosoftYaHei-919" transform="translate(400 0)"/>
      <use xlink:href="#MicrosoftYaHei-675" transform="translate(500 0)"/>
      <use xlink:href="#MicrosoftYaHei-5ae" transform="translate(600 0)"/>
      <use xlink:href="#MicrosoftYaHei-af3" transform="translate(700 0)"/>
      <use xlink:href="#MicrosoftYaHei-b1c" transform="translate(800 0)"/>
      <use xlink:href="#MicrosoftYaHei-783" transform="translate(900 0)"/>
     </g>
    </g>
   </g>
   <g id="patch_7">
    <path d="M 41.926504 312.417695 
L 41.926504 24.111875 
" style="fill: none; stroke: #000000; stroke-width: 0.8; stroke-linejoin: miter; stroke-linecap: square"/>
   </g>
   <g id="patch_8">
    <path d="M 546.191309 312.417695 
L 546.191309 24.111875 
" style="fill: none; stroke: #000000; stroke-width: 0.8; stroke-linejoin: miter; stroke-linecap: square"/>
   </g>
   <g id="patch_9">
    <path d="M 41.926504 312.417695 
L 546.191309 312.417695 
" style="fill: none; stroke: #000000; stroke-width: 0.8; stroke-linejoin: miter; stroke-linecap: square"/>
   </g>
   <g id="patch_10">
    <path d="M 41.926504 24.111875 
L 546.191309 24.111875 
" style="fill: none; stroke: #000000; stroke-width: 0.8; stroke-linejoin: miter; stroke-linecap: square"/>
   </g>
   <g id="text_15">
    <!-- 8.0 -->
    <g transform="translate(106.034668 251.165909) scale(0.1 -0.1)">
     <defs>
      <path id="MicrosoftYaHei-1e" d="M 306 1350 
Q 306 1769 556 2122 
Q 806 2475 1200 2625 
Q 884 2803 700 3081 
Q 516 3359 516 3684 
Q 516 4028 692 4312 
Q 869 4597 1183 4759 
Q 1497 4922 1875 4922 
Q 2256 4922 2572 4761 
Q 2888 4600 3063 4315 
Q 3238 4031 3238 3684 
Q 3238 3366 3058 3086 
Q 2878 2806 2559 2625 
Q 2953 2472 3200 2119 
Q 3447 1766 3447 1350 
Q 3447 938 3250 611 
Q 3053 284 2690 103 
Q 2328 -78 1875 -78 
Q 1425 -78 1065 103 
Q 706 284 506 612 
Q 306 941 306 1350 
z
M 906 1378 
Q 906 947 1172 687 
Q 1438 428 1878 428 
Q 2309 428 2582 692 
Q 2856 956 2856 1378 
Q 2856 1778 2579 2051 
Q 2303 2325 1878 2325 
Q 1456 2325 1181 2058 
Q 906 1791 906 1378 
z
M 1081 3634 
Q 1081 3309 1312 3076 
Q 1544 2844 1878 2844 
Q 2206 2844 2445 3078 
Q 2684 3313 2684 3634 
Q 2684 3963 2454 4191 
Q 2225 4419 1878 4419 
Q 1534 4419 1307 4195 
Q 1081 3972 1081 3634 
z
" transform="scale(0.015625)"/>
      <path id="MicrosoftYaHei-14" d="M 372 322 
Q 372 491 487 606 
Q 603 722 775 722 
Q 950 722 1065 605 
Q 1181 488 1181 322 
Q 1181 159 1065 42 
Q 950 -75 772 -75 
Q 600 -75 486 42 
Q 372 159 372 322 
z
" transform="scale(0.015625)"/>
     </defs>
     <use xlink:href="#MicrosoftYaHei-1e"/>
     <use xlink:href="#MicrosoftYaHei-14" transform="translate(58.640625 0)"/>
     <use xlink:href="#MicrosoftYaHei-16" transform="translate(82.71875 0)"/>
    </g>
   </g>
   <g id="text_16">
    <!-- 39.0 -->
    <g transform="translate(223.74015 32.912419) scale(0.1 -0.1)">
     <defs>
      <path id="MicrosoftYaHei-1f" d="M 578 656 
Q 978 425 1441 425 
Q 2091 425 2448 937 
Q 2806 1450 2806 2394 
Q 2800 2388 2794 2394 
Q 2475 1788 1722 1788 
Q 1113 1788 713 2206 
Q 313 2625 313 3294 
Q 313 4006 750 4464 
Q 1188 4922 1884 4922 
Q 2606 4922 3012 4355 
Q 3419 3788 3419 2703 
Q 3419 1363 2894 641 
Q 2369 -81 1441 -81 
Q 931 -81 578 84 
L 578 656 
z
M 931 3372 
Q 931 2884 1181 2598 
Q 1431 2313 1872 2313 
Q 2253 2313 2512 2573 
Q 2772 2834 2772 3206 
Q 2772 3728 2514 4070 
Q 2256 4413 1834 4413 
Q 1444 4413 1187 4116 
Q 931 3819 931 3372 
z
" transform="scale(0.015625)"/>
     </defs>
     <use xlink:href="#MicrosoftYaHei-19"/>
     <use xlink:href="#MicrosoftYaHei-1f" transform="translate(58.640625 0)"/>
     <use xlink:href="#MicrosoftYaHei-14" transform="translate(117.28125 0)"/>
     <use xlink:href="#MicrosoftYaHei-16" transform="translate(141.359375 0)"/>
    </g>
   </g>
   <g id="text_17">
    <!-- 38.0 -->
    <g transform="translate(344.377663 39.952854) scale(0.1 -0.1)">
     <use xlink:href="#MicrosoftYaHei-19"/>
     <use xlink:href="#MicrosoftYaHei-1e" transform="translate(58.640625 0)"/>
     <use xlink:href="#MicrosoftYaHei-14" transform="translate(117.28125 0)"/>
     <use xlink:href="#MicrosoftYaHei-16" transform="translate(141.359375 0)"/>
    </g>
   </g>
   <g id="text_18">
    <!-- 0.0 -->
    <g transform="translate(467.947207 307.489391) scale(0.1 -0.1)">
     <use xlink:href="#MicrosoftYaHei-16"/>
     <use xlink:href="#MicrosoftYaHei-14" transform="translate(58.640625 0)"/>
     <use xlink:href="#MicrosoftYaHei-16" transform="translate(82.71875 0)"/>
    </g>
   </g>
   <g id="text_19">
    <!-- 协议B3：主要人脸退化类型与第一名身份正确率 -->
    <g transform="translate(156.168516 18.111875) scale(0.13 -0.13)">
     <defs>
      <path id="MicrosoftYaHei-523" d="M 2206 4022 
L 3291 4022 
Q 3313 4659 3313 5278 
L 3800 5278 
Q 3794 4697 3772 4022 
L 5294 4022 
Q 5231 1716 5150 172 
Q 5113 -691 4281 -691 
Q 4075 -691 3594 -678 
Q 3550 -391 3488 -134 
Q 3894 -191 4200 -191 
Q 4650 -197 4675 291 
Q 4750 1784 4794 3534 
L 3756 3534 
Q 3722 2138 3538 1322 
Q 3219 84 2225 -778 
Q 2069 -603 1863 -409 
Q 2756 378 3056 1453 
Q 3250 2184 3278 3534 
L 2206 3534 
L 2206 4022 
z
M 94 3484 
L 775 3484 
L 775 5272 
L 1256 5272 
L 1256 3484 
L 1863 3484 
L 1863 3028 
L 1256 3028 
L 1256 -803 
L 775 -803 
L 775 3028 
L 94 3028 
L 94 3484 
z
M 2394 2916 
L 2813 2759 
Q 2500 1934 2088 997 
Q 1894 1103 1669 1191 
Q 2075 1978 2394 2916 
z
M 5331 2791 
L 5750 2922 
Q 6063 2047 6319 1278 
L 5863 1122 
Q 5600 2053 5331 2791 
z
" transform="scale(0.015625)"/>
      <path id="MicrosoftYaHei-a91" d="M 5813 4841 
Q 5447 2288 4309 909 
Q 5119 156 6288 -272 
Q 6056 -547 5888 -791 
Q 4719 -234 3941 516 
Q 3100 -300 1969 -847 
Q 1831 -647 1613 -372 
Q 2772 131 3575 909 
Q 2384 2338 2119 4841 
L 2606 4916 
Q 2809 2638 3938 1300 
Q 5041 2647 5313 4928 
L 5813 4841 
z
M 2181 1222 
Q 2200 953 2250 678 
Q 1819 359 1313 -47 
Q 1156 -178 1025 -341 
L 663 47 
Q 856 253 856 653 
L 856 2772 
L 94 2772 
L 94 3234 
L 1331 3234 
L 1331 553 
Q 1763 884 2181 1222 
z
M 3250 5103 
L 3650 5316 
Q 4050 4703 4425 4016 
L 3981 3759 
Q 3569 4584 3250 5103 
z
M 788 5172 
Q 1238 4722 1700 4191 
L 1281 3834 
Q 813 4434 425 4866 
L 788 5172 
z
" transform="scale(0.015625)"/>
      <path id="MicrosoftYaHei-28" d="M 625 0 
L 625 4841 
L 2047 4841 
Q 2684 4841 3065 4536 
Q 3447 4231 3447 3728 
Q 3447 3328 3220 3022 
Q 2994 2716 2597 2588 
L 2597 2575 
Q 3091 2519 3386 2201 
Q 3681 1884 3681 1397 
Q 3681 772 3232 386 
Q 2784 0 2084 0 
L 625 0 
z
M 1250 4294 
L 1250 2778 
L 1819 2778 
Q 2272 2778 2530 2998 
Q 2788 3219 2788 3609 
Q 2788 4294 1875 4294 
L 1250 4294 
z
M 1250 2234 
L 1250 547 
L 2000 547 
Q 2491 547 2758 773 
Q 3025 1000 3025 1403 
Q 3025 2234 1897 2234 
L 1250 2234 
z
" transform="scale(0.015625)"/>
      <path id="MicrosoftYaHei-379" d="M 1606 3531 
Q 1772 3531 1890 3415 
Q 2009 3300 2009 3138 
Q 2009 2975 1893 2858 
Q 1778 2741 1606 2741 
Q 1434 2741 1318 2858 
Q 1203 2975 1203 3138 
Q 1203 3300 1322 3415 
Q 1441 3531 1606 3531 
z
M 1606 716 
Q 1772 716 1890 600 
Q 2009 484 2009 319 
Q 2009 150 1890 36 
Q 1772 -78 1606 -78 
Q 1441 -78 1322 36 
Q 1203 150 1203 319 
Q 1203 484 1322 600 
Q 1441 716 1606 716 
z
" transform="scale(0.015625)"/>
      <path id="MicrosoftYaHei-41f" d="M 150 9 
L 2931 9 
L 2931 1809 
L 644 1809 
L 644 2284 
L 2931 2284 
L 2931 3709 
L 400 3709 
L 400 4184 
L 5975 4184 
L 5975 3709 
L 3469 3709 
L 3469 2284 
L 5756 2284 
L 5756 1809 
L 3469 1809 
L 3469 9 
L 6250 9 
L 6250 -453 
L 150 -453 
L 150 9 
z
M 2694 5109 
L 3156 5347 
Q 3538 4778 3706 4466 
L 3213 4203 
Q 2875 4828 2694 5109 
z
" transform="scale(0.015625)"/>
      <path id="MicrosoftYaHei-a7d" d="M 613 3978 
L 2181 3978 
L 2181 4659 
L 313 4659 
L 313 5084 
L 6088 5084 
L 6088 4659 
L 4213 4659 
L 4213 3978 
L 5781 3978 
L 5781 2116 
L 5319 2116 
L 5319 2353 
L 1075 2353 
L 1075 2116 
L 613 2116 
L 613 3978 
z
M 94 1741 
L 1959 1741 
Q 2150 2038 2319 2341 
L 2800 2147 
Q 2663 1941 2528 1741 
L 6300 1741 
L 6300 1316 
L 4856 1316 
Q 4497 681 3925 247 
Q 4853 -31 5875 -347 
L 5600 -834 
Q 4550 -469 3394 -81 
Q 2300 -650 531 -872 
Q 419 -641 288 -391 
Q 1809 -253 2750 134 
Q 1991 388 1188 653 
Q 1447 981 1675 1316 
L 94 1316 
L 94 1741 
z
M 1900 853 
Q 2584 650 3328 428 
Q 3938 797 4269 1316 
L 2231 1316 
Q 2066 1078 1900 853 
z
M 2644 2753 
L 3750 2753 
L 3750 3578 
L 2644 3578 
L 2644 2753 
z
M 5319 3578 
L 4213 3578 
L 4213 2753 
L 5319 2753 
L 5319 3578 
z
M 1075 2753 
L 2181 2753 
L 2181 3578 
L 1075 3578 
L 1075 2753 
z
M 2644 3978 
L 3750 3978 
L 3750 4659 
L 2644 4659 
L 2644 3978 
z
" transform="scale(0.015625)"/>
      <path id="MicrosoftYaHei-44b" d="M 100 -303 
Q 2825 1272 2981 5222 
L 3531 5222 
Q 3497 4553 3400 3947 
Q 4175 822 6313 -166 
Q 6050 -453 5850 -709 
Q 3994 341 3203 3006 
Q 2519 431 494 -778 
Q 325 -547 100 -303 
z
" transform="scale(0.015625)"/>
      <path id="MicrosoftYaHei-b1e" d="M 4094 1216 
Q 4100 959 4125 722 
Q 3531 497 2925 203 
Q 2750 109 2575 -16 
L 2219 453 
Q 2400 628 2400 878 
L 2400 5028 
L 5544 5028 
L 5544 2178 
L 5075 2178 
L 5075 2341 
L 2875 2341 
L 2875 709 
Q 3375 903 4094 1216 
z
M 2644 -222 
Q 4419 -247 6300 -197 
Q 6231 -403 6125 -691 
Q 4306 -703 2569 -666 
Q 1519 -647 1081 66 
Q 825 -172 331 -772 
L 75 -253 
Q 625 278 875 509 
L 875 2616 
L 131 2616 
L 131 3078 
L 1356 3078 
L 1356 409 
Q 1744 -197 2644 -222 
z
M 5794 2209 
L 6113 1778 
Q 5506 1534 4931 1297 
Q 5606 878 6056 584 
L 5744 147 
Q 4719 891 3319 1778 
L 3575 2122 
Q 4081 1816 4513 1553 
Q 5138 1853 5794 2209 
z
M 5075 4603 
L 2875 4603 
L 2875 3891 
L 5075 3891 
L 5075 4603 
z
M 5075 2766 
L 5075 3478 
L 2875 3478 
L 2875 2766 
L 5075 2766 
z
M 856 5178 
Q 1175 4791 1731 3997 
L 1288 3684 
Q 781 4478 456 4909 
L 856 5178 
z
" transform="scale(0.015625)"/>
      <path id="MicrosoftYaHei-517" d="M 1844 1453 
Q 2663 1834 3375 2331 
L 3375 5197 
L 3913 5197 
L 3913 2734 
Q 4869 3506 5613 4516 
L 6069 4184 
Q 5159 2975 3913 2069 
L 3913 303 
Q 3913 -122 4363 -122 
L 5156 -122 
Q 5581 -122 5650 284 
Q 5738 709 5763 1266 
Q 6025 1166 6313 1084 
Q 6263 559 6181 122 
Q 6063 -597 5281 -597 
L 4225 -597 
Q 3375 -597 3375 241 
L 3375 1703 
Q 2791 1328 2144 1016 
Q 2013 1222 1844 1453 
z
M 88 2222 
Q 1175 3666 1688 5291 
L 2231 5134 
Q 1934 4359 1588 3675 
L 1588 -797 
L 1063 -797 
L 1063 2734 
Q 716 2172 325 1678 
Q 219 1947 88 2222 
z
" transform="scale(0.015625)"/>
      <path id="MicrosoftYaHei-99d" d="M 6338 -359 
Q 6213 -503 6006 -853 
Q 3975 -459 3200 884 
Q 2644 -497 400 -897 
Q 288 -684 131 -434 
Q 2244 -147 2744 1047 
L 275 1047 
L 275 1484 
L 2875 1484 
Q 2925 1691 2956 1978 
L 3456 1978 
Q 3413 1697 3369 1484 
L 6125 1484 
L 6125 1047 
L 3619 1047 
Q 4450 -159 6338 -359 
z
M 325 3741 
L 2975 3741 
L 2975 5303 
L 3450 5303 
L 3450 3741 
L 6075 3741 
L 6075 3322 
L 3450 3322 
L 3450 2953 
L 3625 3191 
Q 5325 2528 6231 2128 
L 6013 1722 
Q 4956 2266 3450 2847 
L 3450 2197 
L 2975 2197 
L 2975 3241 
Q 1863 2191 450 1741 
Q 319 1934 144 2153 
Q 1569 2553 2538 3322 
L 325 3322 
L 325 3741 
z
M 5550 4784 
Q 5163 4459 4394 3891 
L 4069 4222 
Q 4569 4578 5194 5122 
L 5550 4784 
z
M 900 4791 
L 1206 5122 
Q 1875 4647 2306 4266 
L 1969 3897 
Q 1581 4284 900 4791 
z
" transform="scale(0.015625)"/>
      <path id="MicrosoftYaHei-5ba" d="M 150 3503 
L 1100 3503 
Q 1106 3638 1106 4547 
L 413 4547 
L 413 4959 
L 3675 4959 
L 3675 4547 
L 2994 4547 
L 2994 3503 
L 3881 3503 
L 3881 3091 
L 2994 3091 
L 2994 1747 
L 2538 1747 
L 2538 3091 
L 1528 3091 
Q 1450 2191 638 1534 
Q 475 1716 294 1897 
Q 1013 2453 1066 3091 
L 150 3091 
L 150 3503 
z
M 138 -103 
L 2938 -103 
L 2938 741 
L 706 741 
L 706 1172 
L 2938 1172 
L 2938 1659 
L 3425 1659 
L 3425 1172 
L 5713 1172 
L 5713 741 
L 3425 741 
L 3425 -103 
L 6256 -103 
L 6256 -534 
L 138 -534 
L 138 -103 
z
M 5856 5209 
L 5856 2334 
Q 5856 1672 5200 1659 
Q 4825 1647 4331 1659 
Q 4306 1897 4256 2153 
Q 4781 2122 5044 2122 
Q 5400 2122 5400 2516 
L 5400 5209 
L 5856 5209 
z
M 1556 3503 
L 2538 3503 
L 2538 4547 
L 1563 4547 
Q 1563 3791 1556 3503 
z
M 4138 4859 
L 4588 4859 
L 4588 2697 
L 4138 2697 
L 4138 4859 
z
" transform="scale(0.015625)"/>
      <path id="MicrosoftYaHei-40a" d="M 1163 2384 
L 1163 2859 
L 1413 5328 
L 1931 5328 
L 1834 4334 
L 6269 4334 
L 6269 3859 
L 1791 3859 
L 1694 2859 
L 5813 2859 
Q 5738 1547 5644 416 
Q 5556 -247 5263 -478 
Q 4981 -703 4322 -703 
Q 3706 -697 2900 -678 
Q 2863 -466 2794 -134 
Q 3744 -203 4213 -209 
Q 5050 -266 5125 447 
Q 5206 1278 5263 2384 
L 1163 2384 
z
M 106 1409 
L 4738 1409 
L 4738 934 
L 106 934 
L 106 1409 
z
" transform="scale(0.015625)"/>
      <path id="MicrosoftYaHei-986" d="M 4006 5347 
L 4544 5347 
Q 4406 5038 4256 4759 
L 6225 4759 
L 6225 4372 
L 4650 4372 
Q 4922 4106 5163 3822 
L 4806 3553 
L 5613 3553 
L 5613 1884 
L 5131 1884 
L 5131 2109 
L 3431 2109 
L 3431 1484 
L 5944 1484 
Q 5919 922 5881 416 
Q 5838 -372 5081 -372 
Q 4700 -372 4138 -366 
Q 4094 -134 4031 128 
Q 4644 97 4988 97 
Q 5356 97 5388 466 
Q 5419 759 5431 1059 
L 3431 1059 
L 3431 -853 
L 2931 -853 
L 2931 909 
Q 2059 -147 306 -703 
Q 194 -522 44 -303 
Q 1566 144 2463 1059 
L 563 1059 
L 563 1484 
L 863 2534 
L 2931 2534 
L 2931 3128 
L 744 3128 
L 744 3553 
L 1972 3553 
Q 1713 3891 1456 4184 
L 1706 4372 
L 1247 4372 
Q 875 3875 388 3459 
Q 263 3609 75 3797 
Q 869 4441 1294 5347 
L 1831 5347 
Q 1688 5041 1513 4759 
L 3325 4759 
L 3325 4372 
L 1825 4372 
Q 2075 4119 2331 3828 
L 1981 3553 
L 4794 3553 
Q 4541 3894 4294 4178 
L 4559 4372 
L 4028 4372 
Q 3784 3984 3506 3672 
Q 3369 3809 3125 3978 
Q 3650 4516 4006 5347 
z
M 1075 1484 
L 2931 1484 
L 2931 2109 
L 1250 2109 
L 1075 1484 
z
M 5131 3128 
L 3431 3128 
L 3431 2534 
L 5131 2534 
L 5131 3128 
z
" transform="scale(0.015625)"/>
      <path id="MicrosoftYaHei-25b2" d="M 100 2703 
L 6313 2703 
L 6313 2153 
L 100 2153 
L 100 2703 
z
" transform="scale(0.015625)"/>
      <path id="MicrosoftYaHei-564" d="M 2406 5328 
L 2894 5128 
Q 2688 4853 2475 4603 
L 5669 4603 
L 5669 4159 
Q 4506 2828 2600 1978 
L 5656 1978 
L 5656 -866 
L 5156 -866 
L 5156 -459 
L 1863 -459 
L 1863 -866 
L 1363 -866 
L 1363 1478 
Q 875 1297 350 1122 
Q 213 1359 63 1584 
Q 1463 1966 2588 2516 
Q 2200 2909 1750 3322 
L 2125 3647 
Q 2650 3178 3088 2778 
Q 4188 3384 5000 4172 
L 2094 4172 
Q 1388 3403 481 2753 
Q 306 2984 156 3159 
Q 1394 3966 2406 5328 
z
M 5156 1528 
L 1863 1528 
L 1863 -22 
L 5156 -22 
L 5156 1528 
z
" transform="scale(0.015625)"/>
      <path id="MicrosoftYaHei-aef" d="M 150 1666 
L 1013 1666 
L 1013 4653 
L 2441 4653 
Q 2588 5022 2681 5341 
L 3206 5209 
Q 3088 4941 2953 4653 
L 5219 4653 
L 5219 1997 
Q 5628 2303 6006 2641 
L 6319 2297 
Q 5791 1844 5219 1441 
L 5219 191 
Q 5219 -753 4394 -759 
Q 3881 -772 3356 -747 
Q 3319 -528 3256 -228 
Q 3713 -272 4238 -272 
Q 4725 -272 4725 241 
L 4725 1109 
Q 2819 -116 419 -828 
Q 300 -584 138 -353 
Q 2347 216 4094 1247 
L 150 1247 
L 150 1666 
z
M 1506 1666 
L 4725 1666 
L 4725 2259 
L 1506 2259 
L 1506 1666 
z
M 4725 4234 
L 1506 4234 
L 1506 3647 
L 4725 3647 
L 4725 4234 
z
M 1506 2659 
L 4725 2659 
L 4725 3247 
L 1506 3247 
L 1506 2659 
z
" transform="scale(0.015625)"/>
      <path id="MicrosoftYaHei-461" d="M 2269 2653 
L 5394 2653 
Q 5388 2566 5300 366 
Q 5275 -709 4319 -722 
Q 3806 -722 3425 -703 
Q 3394 -416 3331 -184 
Q 3763 -241 4200 -253 
Q 4806 -297 4813 422 
Q 4863 1259 4888 2216 
L 3481 2216 
Q 3463 1222 3181 572 
Q 2844 -172 2019 -822 
Q 1856 -622 1656 -416 
Q 2450 203 2713 772 
Q 2969 1275 2997 2216 
L 2269 2216 
L 2269 2653 
z
M 75 2353 
Q 969 3534 1525 5284 
L 2013 5116 
Q 1709 4284 1350 3559 
L 1350 -809 
L 875 -809 
L 875 2691 
Q 588 2216 275 1797 
Q 181 2066 75 2353 
z
M 4006 5116 
L 4419 5291 
Q 5038 3703 6325 2972 
Q 6088 2697 5969 2516 
Q 4575 3472 4006 5116 
z
M 1588 2741 
Q 2563 3597 3163 5034 
L 3606 4866 
Q 3025 3409 1963 2397 
Q 1738 2628 1588 2741 
z
" transform="scale(0.015625)"/>
      <path id="MicrosoftYaHei-833" d="M 88 66 
L 1106 66 
L 1106 3416 
L 1644 3416 
L 1644 66 
L 3231 66 
L 3231 4309 
L 375 4309 
L 375 4797 
L 6063 4797 
L 6063 4309 
L 3769 4309 
L 3769 2672 
L 5850 2672 
L 5850 2191 
L 3769 2191 
L 3769 66 
L 6313 66 
L 6313 -422 
L 88 -422 
L 88 66 
z
" transform="scale(0.015625)"/>
      <path id="MicrosoftYaHei-947" d="M 2075 3453 
Q 2956 4334 3456 5359 
L 3931 5272 
Q 3781 4991 3619 4722 
L 5438 4722 
L 5438 4328 
L 4909 3666 
L 6063 3666 
L 6063 -53 
Q 6063 -728 5475 -728 
Q 5144 -728 4906 -716 
Q 4869 -497 4813 -259 
Q 5156 -291 5331 -291 
Q 5619 -291 5619 16 
L 5619 734 
L 4588 734 
L 4588 -659 
L 4144 -659 
L 4144 734 
L 3113 734 
Q 2944 -263 2444 -884 
Q 2288 -703 2081 -509 
Q 2756 291 2756 1841 
L 2756 3506 
Q 2597 3316 2431 3134 
Q 2281 3278 2075 3453 
z
M 31 1691 
Q 741 2834 1066 4291 
L 231 4291 
L 231 4716 
L 2469 4716 
L 2469 4291 
L 1509 4291 
Q 1356 3613 1128 2991 
L 2200 2991 
L 2200 128 
L 1150 128 
L 1150 -347 
L 738 -347 
L 738 2059 
Q 559 1691 350 1347 
Q 225 1497 31 1691 
z
M 1788 541 
L 1788 2578 
L 1150 2578 
L 1150 541 
L 1788 541 
z
M 4875 4322 
L 3366 4322 
Q 3138 3981 2884 3666 
L 4384 3666 
L 4875 4322 
z
M 4588 1134 
L 5619 1134 
L 5619 1991 
L 4588 1991 
L 4588 1134 
z
M 5619 3241 
L 4588 3241 
L 4588 2391 
L 5619 2391 
L 5619 3241 
z
M 3166 1134 
L 4144 1134 
L 4144 1991 
L 3200 1991 
Q 3200 1841 3166 1134 
z
M 3200 2391 
L 4144 2391 
L 4144 3241 
L 3200 3241 
L 3200 2391 
z
" transform="scale(0.015625)"/>
      <path id="MicrosoftYaHei-8e4" d="M 2525 2009 
Q 2622 2016 3928 2081 
Q 3772 2300 3625 2491 
L 3963 2703 
Q 4413 2203 4794 1653 
L 4394 1403 
Q 4284 1569 4178 1725 
Q 2991 1659 2213 1597 
Q 2075 1584 1881 1541 
L 1725 1966 
Q 1913 2028 2006 2084 
Q 2534 2441 3050 2913 
Q 2597 2894 2275 2866 
Q 2144 2847 1988 2809 
L 1800 3191 
Q 1956 3247 2088 3366 
Q 2509 3722 2875 4228 
L 231 4228 
L 231 4666 
L 3031 4666 
Q 2878 4944 2744 5153 
L 3194 5372 
Q 3438 5000 3616 4666 
L 6175 4666 
L 6175 4228 
L 3053 4228 
L 3350 4072 
Q 2844 3553 2494 3247 
Q 2850 3256 3425 3269 
Q 3675 3519 3925 3797 
L 4356 3547 
Q 3363 2603 2525 2009 
z
M 144 991 
L 2994 991 
L 2994 1541 
L 3488 1541 
L 3488 991 
L 6275 991 
L 6275 553 
L 3488 553 
L 3488 -853 
L 2994 -853 
L 2994 553 
L 144 553 
L 144 991 
z
M 1719 2672 
L 1944 2303 
Q 1200 1866 425 1409 
L 163 1828 
Q 813 2134 1719 2672 
z
M 4856 2678 
Q 5750 2172 6250 1816 
L 5975 1409 
Q 5331 1909 4600 2341 
L 4856 2678 
z
M 5994 3591 
Q 5519 3178 4963 2809 
L 4644 3141 
Q 5244 3534 5638 3928 
L 5994 3591 
z
M 363 3634 
L 681 3941 
Q 1200 3528 1588 3159 
L 1238 2816 
Q 875 3197 363 3634 
z
" transform="scale(0.015625)"/>
     </defs>
     <use xlink:href="#MicrosoftYaHei-523"/>
     <use xlink:href="#MicrosoftYaHei-a91" transform="translate(100 0)"/>
     <use xlink:href="#MicrosoftYaHei-28" transform="translate(200 0)"/>
     <use xlink:href="#MicrosoftYaHei-19" transform="translate(262.75 0)"/>
     <use xlink:href="#MicrosoftYaHei-379" transform="translate(321.390625 0)"/>
     <use xlink:href="#MicrosoftYaHei-41f" transform="translate(421.390625 0)"/>
     <use xlink:href="#MicrosoftYaHei-a7d" transform="translate(521.390625 0)"/>
     <use xlink:href="#MicrosoftYaHei-44b" transform="translate(621.390625 0)"/>
     <use xlink:href="#MicrosoftYaHei-a0e" transform="translate(721.390625 0)"/>
     <use xlink:href="#MicrosoftYaHei-b1e" transform="translate(821.390625 0)"/>
     <use xlink:href="#MicrosoftYaHei-517" transform="translate(921.390625 0)"/>
     <use xlink:href="#MicrosoftYaHei-99d" transform="translate(1021.390625 0)"/>
     <use xlink:href="#MicrosoftYaHei-5ba" transform="translate(1121.390625 0)"/>
     <use xlink:href="#MicrosoftYaHei-40a" transform="translate(1221.390625 0)"/>
     <use xlink:href="#MicrosoftYaHei-986" transform="translate(1321.390625 0)"/>
     <use xlink:href="#MicrosoftYaHei-25b2" transform="translate(1421.390625 0)"/>
     <use xlink:href="#MicrosoftYaHei-564" transform="translate(1521.390625 0)"/>
     <use xlink:href="#MicrosoftYaHei-aef" transform="translate(1621.390625 0)"/>
     <use xlink:href="#MicrosoftYaHei-461" transform="translate(1721.390625 0)"/>
     <use xlink:href="#MicrosoftYaHei-833" transform="translate(1821.390625 0)"/>
     <use xlink:href="#MicrosoftYaHei-947" transform="translate(1921.390625 0)"/>
     <use xlink:href="#MicrosoftYaHei-8e4" transform="translate(2021.390625 0)"/>
    </g>
   </g>
  </g>
  <g id="axes_2">
   <g id="matplotlib.axis_3">
    <g id="ytick_10">
     <g id="line2d_23">
      <defs>
       <path id="mad94e15394" d="M 0 0 
L 3.5 0 
" style="stroke: #000000; stroke-width: 0.8"/>
      </defs>
      <g>
       <use xlink:href="#mad94e15394" x="546.191309" y="312.417695" style="stroke: #000000; stroke-width: 0.8"/>
      </g>
     </g>
     <g id="text_20">
      <!-- 0% -->
      <g transform="translate(553.191309 316.477754) scale(0.1 -0.1)">
       <defs>
        <path id="MicrosoftYaHei-b" d="M 272 3619 
Q 272 4213 589 4563 
Q 906 4913 1444 4913 
Q 1959 4913 2248 4591 
Q 2538 4269 2538 3694 
Q 2538 3122 2219 2765 
Q 1900 2409 1372 2409 
Q 872 2409 572 2740 
Q 272 3072 272 3619 
z
M 753 3650 
Q 753 3247 928 3028 
Q 1103 2809 1406 2809 
Q 1719 2809 1889 3036 
Q 2059 3263 2059 3675 
Q 2059 4078 1892 4298 
Q 1725 4519 1422 4519 
Q 1113 4519 933 4289 
Q 753 4059 753 3650 
z
M 4647 4841 
L 1538 -31 
L 1016 -31 
L 4125 4841 
L 4647 4841 
z
M 3172 1134 
Q 3172 1728 3489 2083 
Q 3806 2438 4341 2438 
Q 4853 2438 5143 2114 
Q 5434 1791 5434 1203 
Q 5434 634 5112 279 
Q 4791 -75 4272 -75 
Q 3769 -75 3470 261 
Q 3172 597 3172 1134 
z
M 3650 1163 
Q 3650 769 3825 548 
Q 4000 328 4303 328 
Q 4616 328 4786 556 
Q 4956 784 4956 1194 
Q 4956 1600 4786 1815 
Q 4616 2031 4319 2031 
Q 4000 2031 3825 1801 
Q 3650 1572 3650 1163 
z
" transform="scale(0.015625)"/>
       </defs>
       <use xlink:href="#MicrosoftYaHei-16"/>
       <use xlink:href="#MicrosoftYaHei-b" transform="translate(58.640625 0)"/>
      </g>
     </g>
    </g>
    <g id="ytick_11">
     <g id="line2d_24">
      <g>
       <use xlink:href="#mad94e15394" x="546.191309" y="268.062954" style="stroke: #000000; stroke-width: 0.8"/>
      </g>
     </g>
     <g id="text_21">
      <!-- 10% -->
      <g transform="translate(553.191309 272.123012) scale(0.1 -0.1)">
       <use xlink:href="#MicrosoftYaHei-17"/>
       <use xlink:href="#MicrosoftYaHei-16" transform="translate(58.640625 0)"/>
       <use xlink:href="#MicrosoftYaHei-b" transform="translate(117.28125 0)"/>
      </g>
     </g>
    </g>
    <g id="ytick_12">
     <g id="line2d_25">
      <g>
       <use xlink:href="#mad94e15394" x="546.191309" y="223.708212" style="stroke: #000000; stroke-width: 0.8"/>
      </g>
     </g>
     <g id="text_22">
      <!-- 20% -->
      <g transform="translate(553.191309 227.768271) scale(0.1 -0.1)">
       <use xlink:href="#MicrosoftYaHei-18"/>
       <use xlink:href="#MicrosoftYaHei-16" transform="translate(58.640625 0)"/>
       <use xlink:href="#MicrosoftYaHei-b" transform="translate(117.28125 0)"/>
      </g>
     </g>
    </g>
    <g id="ytick_13">
     <g id="line2d_26">
      <g>
       <use xlink:href="#mad94e15394" x="546.191309" y="179.353471" style="stroke: #000000; stroke-width: 0.8"/>
      </g>
     </g>
     <g id="text_23">
      <!-- 30% -->
      <g transform="translate(553.191309 183.413529) scale(0.1 -0.1)">
       <use xlink:href="#MicrosoftYaHei-19"/>
       <use xlink:href="#MicrosoftYaHei-16" transform="translate(58.640625 0)"/>
       <use xlink:href="#MicrosoftYaHei-b" transform="translate(117.28125 0)"/>
      </g>
     </g>
    </g>
    <g id="ytick_14">
     <g id="line2d_27">
      <g>
       <use xlink:href="#mad94e15394" x="546.191309" y="134.998729" style="stroke: #000000; stroke-width: 0.8"/>
      </g>
     </g>
     <g id="text_24">
      <!-- 40% -->
      <g transform="translate(553.191309 139.058788) scale(0.1 -0.1)">
       <use xlink:href="#MicrosoftYaHei-1a"/>
       <use xlink:href="#MicrosoftYaHei-16" transform="translate(58.640625 0)"/>
       <use xlink:href="#MicrosoftYaHei-b" transform="translate(117.28125 0)"/>
      </g>
     </g>
    </g>
    <g id="ytick_15">
     <g id="line2d_28">
      <g>
       <use xlink:href="#mad94e15394" x="546.191309" y="90.643987" style="stroke: #000000; stroke-width: 0.8"/>
      </g>
     </g>
     <g id="text_25">
      <!-- 50% -->
      <g transform="translate(553.191309 94.704046) scale(0.1 -0.1)">
       <use xlink:href="#MicrosoftYaHei-1b"/>
       <use xlink:href="#MicrosoftYaHei-16" transform="translate(58.640625 0)"/>
       <use xlink:href="#MicrosoftYaHei-b" transform="translate(117.28125 0)"/>
      </g>
     </g>
    </g>
    <g id="ytick_16">
     <g id="line2d_29">
      <g>
       <use xlink:href="#mad94e15394" x="546.191309" y="46.289246" style="stroke: #000000; stroke-width: 0.8"/>
      </g>
     </g>
     <g id="text_26">
      <!-- 60% -->
      <g transform="translate(553.191309 50.349304) scale(0.1 -0.1)">
       <defs>
        <path id="MicrosoftYaHei-1c" d="M 3181 4219 
Q 2803 4413 2391 4413 
Q 1763 4413 1381 3866 
Q 1000 3319 994 2372 
L 1009 2372 
Q 1353 3038 2106 3038 
Q 2734 3038 3109 2628 
Q 3484 2219 3484 1541 
Q 3484 831 3051 375 
Q 2619 -81 1947 -81 
Q 1209 -81 789 495 
Q 369 1072 369 2131 
Q 369 3413 920 4167 
Q 1472 4922 2372 4922 
Q 2888 4922 3181 4781 
L 3181 4219 
z
M 1031 1584 
Q 1031 1106 1286 765 
Q 1541 425 1963 425 
Q 2363 425 2613 719 
Q 2863 1013 2863 1475 
Q 2863 1975 2627 2253 
Q 2391 2531 1956 2531 
Q 1544 2531 1287 2250 
Q 1031 1969 1031 1584 
z
" transform="scale(0.015625)"/>
       </defs>
       <use xlink:href="#MicrosoftYaHei-1c"/>
       <use xlink:href="#MicrosoftYaHei-16" transform="translate(58.640625 0)"/>
       <use xlink:href="#MicrosoftYaHei-b" transform="translate(117.28125 0)"/>
      </g>
     </g>
    </g>
    <g id="text_27">
     <!-- 第一名身份正确率 -->
     <g transform="translate(587.049434 212.264785) rotate(-90) scale(0.11 -0.11)">
      <use xlink:href="#MicrosoftYaHei-986"/>
      <use xlink:href="#MicrosoftYaHei-25b2" transform="translate(100 0)"/>
      <use xlink:href="#MicrosoftYaHei-564" transform="translate(200 0)"/>
      <use xlink:href="#MicrosoftYaHei-aef" transform="translate(300 0)"/>
      <use xlink:href="#MicrosoftYaHei-461" transform="translate(400 0)"/>
      <use xlink:href="#MicrosoftYaHei-833" transform="translate(500 0)"/>
      <use xlink:href="#MicrosoftYaHei-947" transform="translate(600 0)"/>
      <use xlink:href="#MicrosoftYaHei-8e4" transform="translate(700 0)"/>
     </g>
    </g>
   </g>
   <g id="line2d_30">
    <path d="M 113.102637 89.92411 
L 233.74015 206.92837 
L 354.377663 182.663665 
L 475.015176 312.417695 
" clip-path="url(#p395bf7dc77)" style="fill: none; stroke: #4c78a8; stroke-width: 2.2; stroke-linecap: square"/>
    <defs>
     <path id="m36e078408a" d="M 0 3 
C 0.795609 3 1.55874 2.683901 2.12132 2.12132 
C 2.683901 1.55874 3 0.795609 3 0 
C 3 -0.795609 2.683901 -1.55874 2.12132 -2.12132 
C 1.55874 -2.683901 0.795609 -3 0 -3 
C -0.795609 -3 -1.55874 -2.683901 -2.12132 -2.12132 
C -2.683901 -1.55874 -3 -0.795609 -3 0 
C -3 0.795609 -2.683901 1.55874 -2.12132 2.12132 
C -1.55874 2.683901 -0.795609 3 0 3 
z
" style="stroke: #4c78a8"/>
    </defs>
    <g clip-path="url(#p395bf7dc77)">
     <use xlink:href="#m36e078408a" x="113.102637" y="89.92411" style="fill: #4c78a8; stroke: #4c78a8"/>
     <use xlink:href="#m36e078408a" x="233.74015" y="206.92837" style="fill: #4c78a8; stroke: #4c78a8"/>
     <use xlink:href="#m36e078408a" x="354.377663" y="182.663665" style="fill: #4c78a8; stroke: #4c78a8"/>
     <use xlink:href="#m36e078408a" x="475.015176" y="312.417695" style="fill: #4c78a8; stroke: #4c78a8"/>
    </g>
   </g>
   <g id="patch_11">
    <path d="M 41.926504 312.417695 
L 41.926504 24.111875 
" style="fill: none; stroke: #000000; stroke-width: 0.8; stroke-linejoin: miter; stroke-linecap: square"/>
   </g>
   <g id="patch_12">
    <path d="M 546.191309 312.417695 
L 546.191309 24.111875 
" style="fill: none; stroke: #000000; stroke-width: 0.8; stroke-linejoin: miter; stroke-linecap: square"/>
   </g>
   <g id="patch_13">
    <path d="M 41.926504 312.417695 
L 546.191309 312.417695 
" style="fill: none; stroke: #000000; stroke-width: 0.8; stroke-linejoin: miter; stroke-linecap: square"/>
   </g>
   <g id="patch_14">
    <path d="M 41.926504 24.111875 
L 546.191309 24.111875 
" style="fill: none; stroke: #000000; stroke-width: 0.8; stroke-linejoin: miter; stroke-linecap: square"/>
   </g>
   <g id="text_28">
    <!-- 50.2% -->
    <g style="fill: #4c78a8" transform="translate(98.654199 74.39995) scale(0.1 -0.1)">
     <use xlink:href="#MicrosoftYaHei-1b"/>
     <use xlink:href="#MicrosoftYaHei-16" transform="translate(58.640625 0)"/>
     <use xlink:href="#MicrosoftYaHei-14" transform="translate(117.28125 0)"/>
     <use xlink:href="#MicrosoftYaHei-18" transform="translate(141.359375 0)"/>
     <use xlink:href="#MicrosoftYaHei-b" transform="translate(200 0)"/>
    </g>
   </g>
   <g id="text_29">
    <!-- 23.8% -->
    <g style="fill: #4c78a8" transform="translate(219.291712 191.40421) scale(0.1 -0.1)">
     <use xlink:href="#MicrosoftYaHei-18"/>
     <use xlink:href="#MicrosoftYaHei-19" transform="translate(58.640625 0)"/>
     <use xlink:href="#MicrosoftYaHei-14" transform="translate(117.28125 0)"/>
     <use xlink:href="#MicrosoftYaHei-1e" transform="translate(141.359375 0)"/>
     <use xlink:href="#MicrosoftYaHei-b" transform="translate(200 0)"/>
    </g>
   </g>
   <g id="text_30">
    <!-- 29.3% -->
    <g style="fill: #4c78a8" transform="translate(339.929225 167.139505) scale(0.1 -0.1)">
     <use xlink:href="#MicrosoftYaHei-18"/>
     <use xlink:href="#MicrosoftYaHei-1f" transform="translate(58.640625 0)"/>
     <use xlink:href="#MicrosoftYaHei-14" transform="translate(117.28125 0)"/>
     <use xlink:href="#MicrosoftYaHei-19" transform="translate(141.359375 0)"/>
     <use xlink:href="#MicrosoftYaHei-b" transform="translate(200 0)"/>
    </g>
   </g>
   <g id="text_31">
    <!-- 0.0% -->
    <g style="fill: #4c78a8" transform="translate(463.49877 296.893536) scale(0.1 -0.1)">
     <use xlink:href="#MicrosoftYaHei-16"/>
     <use xlink:href="#MicrosoftYaHei-14" transform="translate(58.640625 0)"/>
     <use xlink:href="#MicrosoftYaHei-16" transform="translate(82.71875 0)"/>
     <use xlink:href="#MicrosoftYaHei-b" transform="translate(141.359375 0)"/>
    </g>
   </g>
  </g>
 </g>
 <defs>
  <clipPath id="p395bf7dc77">
   <rect x="41.926504" y="24.111875" width="504.264805" height="288.30582"/>
  </clipPath>
 </defs>
</svg>
