<?xml version="1.0" encoding="utf-8" standalone="no"?>
<!DOCTYPE svg PUBLIC "-//W3C//DTD SVG 1.1//EN"
  "http://www.w3.org/Graphics/SVG/1.1/DTD/svg11.dtd">
<svg xmlns:xlink="http://www.w3.org/1999/xlink" width="655.212187pt" height="338.473125pt" viewBox="0 0 655.212187 338.473125" xmlns="http://www.w3.org/2000/svg" version="1.1">
 <metadata>
  <rdf:RDF xmlns:dc="http://purl.org/dc/elements/1.1/" xmlns:cc="http://creativecommons.org/ns#" xmlns:rdf="http://www.w3.org/1999/02/22-rdf-syntax-ns#">
   <cc:Work>
    <dc:type rdf:resource="http://purl.org/dc/dcmitype/StillImage"/>
    <dc:date>2026-07-14T15:13:45.392138</dc:date>
    <dc:format>image/svg+xml</dc:format>
    <dc:creator>
     <cc:Agent>
      <dc:title>Matplotlib v3.11.0, https://matplotlib.org/</dc:title>
     </cc:Agent>
    </dc:creator>
   </cc:Work>
  </rdf:RDF>
 </metadata>
 <defs>
  <style type="text/css">*{stroke-linejoin: round; stroke-linecap: butt}</style>
 </defs>
 <g id="figure_1">
  <g id="patch_1">
   <path d="M 0 338.473125 
L 655.212187 338.473125 
L 655.212187 0 
L 0 0 
z
" style="fill: #ffffff"/>
  </g>
  <g id="axes_1">
   <g id="patch_2">
    <path d="M 50.759785 313.365508 
L 648.012187 313.365508 
L 648.012187 24.099687 
L 50.759785 24.099687 
z
" style="fill: #ffffff"/>
   </g>
   <g id="patch_3">
    <path d="M 77.907622 313.365508 
L 112.079723 313.365508 
L 112.079723 303.940263 
L 77.907622 303.940263 
z
" clip-path="url(#p42952ab698)" style="fill: #4c78a8"/>
   </g>
   <g id="patch_4">
    <path d="M 172.830127 313.365508 
L 207.002229 313.365508 
L 207.002229 77.730447 
L 172.830127 77.730447 
z
" clip-path="url(#p42952ab698)" style="fill: #4c78a8"/>
   </g>
   <g id="patch_5">
    <path d="M 267.752632 313.365508 
L 301.924734 313.365508 
L 301.924734 275.663653 
L 267.752632 275.663653 
z
" clip-path="url(#p42952ab698)" style="fill: #4c78a8"/>
   </g>
   <g id="patch_6">
    <path d="M 362.675137 313.365508 
L 396.847239 313.365508 
L 396.847239 77.730447 
L 362.675137 77.730447 
z
" clip-path="url(#p42952ab698)" style="fill: #4c78a8"/>
   </g>
   <g id="patch_7">
    <path d="M 457.597642 313.365508 
L 491.769744 313.365508 
L 491.769744 87.155692 
L 457.597642 87.155692 
z
" clip-path="url(#p42952ab698)" style="fill: #4c78a8"/>
   </g>
   <g id="patch_8">
    <path d="M 552.520147 313.365508 
L 586.692249 313.365508 
L 586.692249 87.155692 
L 552.520147 87.155692 
z
" clip-path="url(#p42952ab698)" style="fill: #4c78a8"/>
   </g>
   <g id="patch_9">
    <path d="M 112.079723 313.365508 
L 146.251825 313.365508 
L 146.251825 308.652666 
L 112.079723 308.652666 
z
" clip-path="url(#p42952ab698)" style="fill: #f58518"/>
   </g>
   <g id="patch_10">
    <path d="M 207.002229 313.365508 
L 241.17433 313.365508 
L 241.17433 190.835136 
L 207.002229 190.835136 
z
" clip-path="url(#p42952ab698)" style="fill: #f58518"/>
   </g>
   <g id="patch_11">
    <path d="M 301.924734 313.365508 
L 336.096836 313.365508 
L 336.096836 303.940263 
L 301.924734 303.940263 
z
" clip-path="url(#p42952ab698)" style="fill: #f58518"/>
   </g>
   <g id="patch_12">
    <path d="M 396.847239 313.365508 
L 431.019341 313.365508 
L 431.019341 214.398905 
L 396.847239 214.398905 
z
" clip-path="url(#p42952ab698)" style="fill: #f58518"/>
   </g>
   <g id="patch_13">
    <path d="M 491.769744 313.365508 
L 525.941846 313.365508 
L 525.941846 242.675077 
L 491.769744 242.675077 
z
" clip-path="url(#p42952ab698)" style="fill: #f58518"/>
   </g>
   <g id="patch_14">
    <path d="M 586.692249 313.365508 
L 620.864351 313.365508 
L 620.864351 242.675077 
L 586.692249 242.675077 
z
" clip-path="url(#p42952ab698)" style="fill: #f58518"/>
   </g>
   <g id="matplotlib.axis_1">
    <g id="xtick_1">
     <g id="line2d_1">
      <defs>
       <path id="me224612e2e" d="M 0 0 
L 0 3.5 
" style="stroke: #000000; stroke-width: 0.8"/>
      </defs>
      <g>
       <use xlink:href="#me224612e2e" x="112.079723" y="313.365508" style="stroke: #000000; stroke-width: 0.8"/>
      </g>
     </g>
     <g id="text_1">
      <!-- 仅人脸 -->
      <g transform="translate(97.079723 328.690508) scale(0.1 -0.1)">
       <defs>
        <path id="MicrosoftYaHei-44e" d="M 2131 4416 
L 2131 4853 
L 5906 4853 
L 5906 4428 
Q 5628 2366 4441 953 
Q 5203 175 6338 -284 
Q 6094 -578 5944 -784 
Q 4834 -244 4075 553 
Q 3256 -263 2088 -828 
Q 1969 -659 1713 -366 
Q 2909 184 3716 972 
Q 2634 2359 2459 4416 
L 2131 4416 
z
M 5344 4416 
L 2941 4416 
Q 3138 2572 4081 1363 
Q 5147 2625 5344 4416 
z
M 56 2384 
Q 1044 3716 1531 5328 
L 2038 5159 
Q 1741 4331 1388 3619 
L 1388 -803 
L 900 -803 
L 900 2741 
Q 594 2250 256 1828 
Q 163 2097 56 2384 
z
" transform="scale(0.015625)"/>
        <path id="MicrosoftYaHei-44b" d="M 100 -303 
Q 2825 1272 2981 5222 
L 3531 5222 
Q 3497 4553 3400 3947 
Q 4175 822 6313 -166 
Q 6050 -453 5850 -709 
Q 3994 341 3203 3006 
Q 2519 431 494 -778 
Q 325 -547 100 -303 
z
" transform="scale(0.015625)"/>
        <path id="MicrosoftYaHei-a0e" d="M 4650 5228 
L 4544 5047 
Q 5231 3866 6363 3284 
Q 6256 3159 6069 2866 
Q 4969 3534 4275 4653 
Q 3731 3791 2525 2803 
Q 2344 3028 2206 3178 
L 2206 -122 
Q 2206 -747 1600 -747 
Q 1313 -747 1069 -734 
Q 1050 -534 994 -272 
Q 1300 -303 1475 -303 
Q 1756 -303 1756 -9 
L 1756 1409 
L 938 1409 
Q 888 -16 388 -872 
Q 225 -691 31 -547 
Q 494 222 494 1703 
L 494 4978 
L 2206 4978 
L 2206 3209 
Q 3506 4116 4056 5228 
L 4650 5228 
z
M 2425 -91 
L 4625 -91 
Q 5081 1072 5456 2272 
L 5925 2103 
Q 5556 1047 5106 -91 
L 6175 -91 
L 6175 -522 
L 2425 -522 
L 2425 -91 
z
M 2919 3022 
L 5581 3022 
L 5581 2591 
L 2919 2591 
L 2919 3022 
z
M 944 1822 
L 1756 1822 
L 1756 2991 
L 944 2991 
L 944 1822 
z
M 1756 4566 
L 944 4566 
L 944 3403 
L 1756 3403 
L 1756 4566 
z
M 2644 1972 
L 3069 2103 
Q 3381 1184 3600 422 
L 3144 272 
Q 2938 1141 2644 1972 
z
M 3806 2178 
L 4219 2272 
Q 4463 1422 4644 578 
L 4194 472 
Q 4044 1259 3806 2178 
z
" transform="scale(0.015625)"/>
       </defs>
       <use xlink:href="#MicrosoftYaHei-44e"/>
       <use xlink:href="#MicrosoftYaHei-44b" transform="translate(100 0)"/>
       <use xlink:href="#MicrosoftYaHei-a0e" transform="translate(200 0)"/>
      </g>
     </g>
    </g>
    <g id="xtick_2">
     <g id="line2d_2">
      <g>
       <use xlink:href="#me224612e2e" x="207.002229" y="313.365508" style="stroke: #000000; stroke-width: 0.8"/>
      </g>
     </g>
     <g id="text_2">
      <!-- 仅人形 -->
      <g transform="translate(192.002229 328.690508) scale(0.1 -0.1)">
       <defs>
        <path id="MicrosoftYaHei-6a5" d="M 175 2647 
L 1019 2647 
L 1019 4422 
L 350 4422 
L 350 4872 
L 3775 4872 
L 3775 4422 
L 3006 4422 
L 3006 2647 
L 3975 2647 
L 3975 2197 
L 3006 2197 
L 3006 -791 
L 2525 -791 
L 2525 2197 
L 1497 2197 
Q 1500 128 406 -841 
Q 256 -622 75 -428 
Q 1025 366 1016 2197 
L 175 2197 
L 175 2647 
z
M 1500 2647 
L 2525 2647 
L 2525 4422 
L 1500 4422 
L 1500 2647 
z
M 6319 1353 
Q 5331 166 3738 -834 
Q 3631 -666 3388 -422 
Q 4925 397 5956 1672 
L 6319 1353 
z
M 6138 3172 
Q 5250 2159 4019 1347 
Q 3888 1528 3694 1722 
Q 4856 2441 5775 3484 
L 6138 3172 
z
M 6038 4934 
Q 5194 4009 3988 3266 
Q 3875 3428 3675 3666 
Q 4838 4322 5675 5253 
L 6038 4934 
z
" transform="scale(0.015625)"/>
       </defs>
       <use xlink:href="#MicrosoftYaHei-44e"/>
       <use xlink:href="#MicrosoftYaHei-44b" transform="translate(100 0)"/>
       <use xlink:href="#MicrosoftYaHei-6a5" transform="translate(200 0)"/>
      </g>
     </g>
    </g>
    <g id="xtick_3">
     <g id="line2d_3">
      <g>
       <use xlink:href="#me224612e2e" x="301.924734" y="313.365508" style="stroke: #000000; stroke-width: 0.8"/>
      </g>
     </g>
     <g id="text_3">
      <!-- 仅步态 -->
      <g transform="translate(286.924734 328.690508) scale(0.1 -0.1)">
       <defs>
        <path id="MicrosoftYaHei-835" d="M 188 2997 
L 1250 2997 
L 1250 4759 
L 1750 4759 
L 1750 2997 
L 3088 2997 
L 3088 5328 
L 3588 5328 
L 3588 4416 
L 5744 4416 
L 5744 3966 
L 3588 3966 
L 3588 2997 
L 6225 2997 
L 6225 2534 
L 188 2534 
L 188 2997 
z
M 188 -441 
Q 3744 -9 5400 1872 
L 5794 1484 
Q 4013 -453 375 -891 
Q 306 -691 188 -441 
z
M 1794 2147 
L 2194 1803 
Q 1369 947 613 322 
Q 469 497 275 691 
Q 1044 1291 1794 2147 
z
M 3038 2378 
L 3538 2378 
L 3538 528 
L 3038 528 
L 3038 2378 
z
" transform="scale(0.015625)"/>
        <path id="MicrosoftYaHei-6c1" d="M 325 4434 
L 2888 4434 
Q 2972 4822 2969 5328 
L 3438 5328 
Q 3444 4841 3372 4434 
L 6075 4434 
L 6075 3991 
L 3528 3991 
Q 4419 2706 6231 2241 
Q 6050 2034 5881 1759 
Q 4041 2394 3172 3772 
Q 2975 3331 2588 2953 
Q 3078 2616 3538 2259 
L 3225 1891 
Q 2828 2244 2259 2675 
Q 1556 2138 388 1703 
Q 294 1922 113 2178 
Q 2250 2866 2750 3991 
L 325 3991 
L 325 4434 
z
M 1713 1547 
L 2200 1547 
L 2200 203 
Q 2200 -172 2575 -172 
L 3763 -172 
Q 4175 -172 4256 134 
Q 4331 428 4381 1028 
Q 4556 953 4863 847 
Q 4763 128 4706 -47 
Q 4563 -616 3869 -616 
L 2488 -616 
Q 1713 -616 1713 172 
L 1713 1547 
z
M 813 1447 
L 1281 1297 
Q 1038 522 663 -297 
Q 463 -203 194 -116 
Q 569 591 813 1447 
z
M 4894 1272 
L 5263 1553 
Q 5781 972 6306 309 
L 5888 -9 
Q 5425 641 4894 1272 
z
M 2594 1503 
L 2913 1809 
Q 3419 1403 3850 991 
L 3488 641 
Q 3094 1059 2594 1503 
z
" transform="scale(0.015625)"/>
       </defs>
       <use xlink:href="#MicrosoftYaHei-44e"/>
       <use xlink:href="#MicrosoftYaHei-835" transform="translate(100 0)"/>
       <use xlink:href="#MicrosoftYaHei-6c1" transform="translate(200 0)"/>
      </g>
     </g>
    </g>
    <g id="xtick_4">
     <g id="line2d_4">
      <g>
       <use xlink:href="#me224612e2e" x="396.847239" y="313.365508" style="stroke: #000000; stroke-width: 0.8"/>
      </g>
     </g>
     <g id="text_4">
      <!-- 人脸+人形 -->
      <g transform="translate(373.138645 328.57332) scale(0.1 -0.1)">
       <defs>
        <path id="MicrosoftYaHei-11" d="M 3972 1772 
L 2613 1772 
L 2613 419 
L 2141 419 
L 2141 1772 
L 788 1772 
L 788 2250 
L 2141 2250 
L 2141 3603 
L 2613 3603 
L 2613 2250 
L 3972 2250 
L 3972 1772 
z
" transform="scale(0.015625)"/>
       </defs>
       <use xlink:href="#MicrosoftYaHei-44b"/>
       <use xlink:href="#MicrosoftYaHei-a0e" transform="translate(100 0)"/>
       <use xlink:href="#MicrosoftYaHei-11" transform="translate(200 0)"/>
       <use xlink:href="#MicrosoftYaHei-44b" transform="translate(274.171875 0)"/>
       <use xlink:href="#MicrosoftYaHei-6a5" transform="translate(374.171875 0)"/>
      </g>
     </g>
    </g>
    <g id="xtick_5">
     <g id="line2d_5">
      <g>
       <use xlink:href="#me224612e2e" x="491.769744" y="313.365508" style="stroke: #000000; stroke-width: 0.8"/>
      </g>
     </g>
     <g id="text_5">
      <!-- 人形+步态 -->
      <g transform="translate(468.06115 328.690508) scale(0.1 -0.1)">
       <use xlink:href="#MicrosoftYaHei-44b"/>
       <use xlink:href="#MicrosoftYaHei-6a5" transform="translate(100 0)"/>
       <use xlink:href="#MicrosoftYaHei-11" transform="translate(200 0)"/>
       <use xlink:href="#MicrosoftYaHei-835" transform="translate(274.171875 0)"/>
       <use xlink:href="#MicrosoftYaHei-6c1" transform="translate(374.171875 0)"/>
      </g>
     </g>
    </g>
    <g id="xtick_6">
     <g id="line2d_6">
      <g>
       <use xlink:href="#me224612e2e" x="586.692249" y="313.365508" style="stroke: #000000; stroke-width: 0.8"/>
      </g>
     </g>
     <g id="text_6">
      <!-- 三路 -->
      <g transform="translate(576.692249 328.738945) scale(0.1 -0.1)">
       <defs>
        <path id="MicrosoftYaHei-406" d="M 575 4691 
L 5813 4691 
L 5813 4153 
L 575 4153 
L 575 4691 
z
M 188 166 
L 6225 166 
L 6225 -359 
L 188 -359 
L 188 166 
z
M 856 2547 
L 5531 2547 
L 5531 2016 
L 856 2016 
L 856 2547 
z
" transform="scale(0.015625)"/>
        <path id="MicrosoftYaHei-ae8" d="M 481 2416 
L 894 2416 
L 894 106 
Q 1147 144 1413 184 
L 1413 3041 
L 913 3041 
L 913 2834 
L 463 2834 
L 463 4953 
L 2513 4953 
L 2513 3041 
L 1850 3041 
L 1850 1984 
L 2500 1984 
L 2500 1559 
L 1850 1559 
L 1850 250 
Q 2241 313 2650 384 
Q 2638 172 2638 -72 
Q 1419 -278 225 -484 
L 100 3 
Q 288 25 481 50 
L 481 2416 
z
M 2575 3428 
Q 3231 4234 3713 5359 
L 4175 5191 
Q 4041 4909 3906 4653 
L 5881 4653 
L 5881 4234 
Q 5472 3463 4797 2809 
Q 5413 2388 6313 2178 
Q 6188 1903 6106 1659 
Q 5125 1994 4441 2500 
Q 3759 1972 2788 1559 
Q 2725 1684 2538 2003 
Q 3384 2306 4072 2816 
Q 3694 3191 3391 3756 
Q 3138 3366 2888 3059 
Q 2738 3259 2575 3428 
z
M 3038 1584 
L 5756 1584 
L 5756 -847 
L 5288 -847 
L 5288 -547 
L 3506 -547 
L 3506 -847 
L 3038 -847 
L 3038 1584 
z
M 5288 1147 
L 3506 1147 
L 3506 -109 
L 5288 -109 
L 5288 1147 
z
M 2063 3466 
L 2063 4528 
L 913 4528 
L 913 3466 
L 2063 3466 
z
M 5344 4228 
L 3675 4228 
Q 3656 4197 3638 4166 
Q 3953 3531 4425 3103 
Q 4988 3606 5344 4228 
z
" transform="scale(0.015625)"/>
       </defs>
       <use xlink:href="#MicrosoftYaHei-406"/>
       <use xlink:href="#MicrosoftYaHei-ae8" transform="translate(100 0)"/>
      </g>
     </g>
    </g>
   </g>
   <g id="matplotlib.axis_2">
    <g id="ytick_1">
     <g id="line2d_7">
      <path d="M 50.759785 313.365508 
L 648.012187 313.365508 
" clip-path="url(#p42952ab698)" style="fill: none; stroke: #b0b0b0; stroke-opacity: 0.25; stroke-width: 0.8; stroke-linecap: square"/>
     </g>
     <g id="line2d_8">
      <defs>
       <path id="mf3dc1b56cd" d="M 0 0 
L -3.5 0 
" style="stroke: #000000; stroke-width: 0.8"/>
      </defs>
      <g>
       <use xlink:href="#mf3dc1b56cd" x="50.759785" y="313.365508" style="stroke: #000000; stroke-width: 0.8"/>
      </g>
     </g>
     <g id="text_7">
      <!-- 0% -->
      <g transform="translate(28.998848 317.425566) scale(0.1 -0.1)">
       <defs>
        <path id="MicrosoftYaHei-16" d="M 284 2325 
Q 284 3606 709 4264 
Q 1134 4922 1941 4922 
Q 3478 4922 3478 2441 
Q 3478 1216 3045 567 
Q 2613 -81 1831 -81 
Q 1094 -81 689 534 
Q 284 1150 284 2325 
z
M 909 2353 
Q 909 425 1888 425 
Q 2850 425 2850 2384 
Q 2850 4413 1906 4413 
Q 909 4413 909 2353 
z
" transform="scale(0.015625)"/>
        <path id="MicrosoftYaHei-b" d="M 272 3619 
Q 272 4213 589 4563 
Q 906 4913 1444 4913 
Q 1959 4913 2248 4591 
Q 2538 4269 2538 3694 
Q 2538 3122 2219 2765 
Q 1900 2409 1372 2409 
Q 872 2409 572 2740 
Q 272 3072 272 3619 
z
M 753 3650 
Q 753 3247 928 3028 
Q 1103 2809 1406 2809 
Q 1719 2809 1889 3036 
Q 2059 3263 2059 3675 
Q 2059 4078 1892 4298 
Q 1725 4519 1422 4519 
Q 1113 4519 933 4289 
Q 753 4059 753 3650 
z
M 4647 4841 
L 1538 -31 
L 1016 -31 
L 4125 4841 
L 4647 4841 
z
M 3172 1134 
Q 3172 1728 3489 2083 
Q 3806 2438 4341 2438 
Q 4853 2438 5143 2114 
Q 5434 1791 5434 1203 
Q 5434 634 5112 279 
Q 4791 -75 4272 -75 
Q 3769 -75 3470 261 
Q 3172 597 3172 1134 
z
M 3650 1163 
Q 3650 769 3825 548 
Q 4000 328 4303 328 
Q 4616 328 4786 556 
Q 4956 784 4956 1194 
Q 4956 1600 4786 1815 
Q 4616 2031 4319 2031 
Q 4000 2031 3825 1801 
Q 3650 1572 3650 1163 
z
" transform="scale(0.015625)"/>
       </defs>
       <use xlink:href="#MicrosoftYaHei-16"/>
       <use xlink:href="#MicrosoftYaHei-b" transform="translate(58.640625 0)"/>
      </g>
     </g>
    </g>
    <g id="ytick_2">
     <g id="line2d_9">
      <path d="M 50.759785 269.537353 
L 648.012187 269.537353 
" clip-path="url(#p42952ab698)" style="fill: none; stroke: #b0b0b0; stroke-opacity: 0.25; stroke-width: 0.8; stroke-linecap: square"/>
     </g>
     <g id="line2d_10">
      <g>
       <use xlink:href="#mf3dc1b56cd" x="50.759785" y="269.537353" style="stroke: #000000; stroke-width: 0.8"/>
      </g>
     </g>
     <g id="text_8">
      <!-- 10% -->
      <g transform="translate(23.134785 273.597412) scale(0.1 -0.1)">
       <defs>
        <path id="MicrosoftYaHei-17" d="M 1781 0 
L 1781 4141 
Q 1638 3997 1295 3819 
Q 953 3641 663 3569 
L 663 4169 
Q 1047 4275 1484 4508 
Q 1922 4741 2156 4947 
L 2388 4947 
L 2388 0 
L 1781 0 
z
" transform="scale(0.015625)"/>
       </defs>
       <use xlink:href="#MicrosoftYaHei-17"/>
       <use xlink:href="#MicrosoftYaHei-16" transform="translate(58.640625 0)"/>
       <use xlink:href="#MicrosoftYaHei-b" transform="translate(117.28125 0)"/>
      </g>
     </g>
    </g>
    <g id="ytick_3">
     <g id="line2d_11">
      <path d="M 50.759785 225.709199 
L 648.012187 225.709199 
" clip-path="url(#p42952ab698)" style="fill: none; stroke: #b0b0b0; stroke-opacity: 0.25; stroke-width: 0.8; stroke-linecap: square"/>
     </g>
     <g id="line2d_12">
      <g>
       <use xlink:href="#mf3dc1b56cd" x="50.759785" y="225.709199" style="stroke: #000000; stroke-width: 0.8"/>
      </g>
     </g>
     <g id="text_9">
      <!-- 20% -->
      <g transform="translate(23.134785 229.769257) scale(0.1 -0.1)">
       <defs>
        <path id="MicrosoftYaHei-18" d="M 2666 3572 
Q 2666 3963 2419 4186 
Q 2172 4409 1747 4409 
Q 1447 4409 1140 4256 
Q 834 4103 569 3819 
L 569 4413 
Q 806 4659 1107 4790 
Q 1409 4922 1816 4922 
Q 2472 4922 2872 4570 
Q 3272 4219 3272 3619 
Q 3272 3084 3026 2693 
Q 2781 2303 2188 1894 
Q 1581 1475 1376 1294 
Q 1172 1113 1090 947 
Q 1009 781 1009 544 
L 3416 544 
L 3416 0 
L 372 0 
L 372 241 
Q 372 659 486 951 
Q 600 1244 862 1520 
Q 1125 1797 1681 2184 
Q 2250 2584 2458 2886 
Q 2666 3188 2666 3572 
z
" transform="scale(0.015625)"/>
       </defs>
       <use xlink:href="#MicrosoftYaHei-18"/>
       <use xlink:href="#MicrosoftYaHei-16" transform="translate(58.640625 0)"/>
       <use xlink:href="#MicrosoftYaHei-b" transform="translate(117.28125 0)"/>
      </g>
     </g>
    </g>
    <g id="ytick_4">
     <g id="line2d_13">
      <path d="M 50.759785 181.881044 
L 648.012187 181.881044 
" clip-path="url(#p42952ab698)" style="fill: none; stroke: #b0b0b0; stroke-opacity: 0.25; stroke-width: 0.8; stroke-linecap: square"/>
     </g>
     <g id="line2d_14">
      <g>
       <use xlink:href="#mf3dc1b56cd" x="50.759785" y="181.881044" style="stroke: #000000; stroke-width: 0.8"/>
      </g>
     </g>
     <g id="text_10">
      <!-- 30% -->
      <g transform="translate(23.134785 185.941103) scale(0.1 -0.1)">
       <defs>
        <path id="MicrosoftYaHei-19" d="M 447 809 
Q 944 425 1569 425 
Q 2069 425 2361 670 
Q 2653 916 2653 1328 
Q 2653 2247 1338 2247 
L 934 2247 
L 934 2753 
L 1319 2753 
Q 2484 2753 2484 3616 
Q 2484 4413 1594 4413 
Q 1084 4413 634 4069 
L 634 4647 
Q 1109 4922 1744 4922 
Q 2363 4922 2738 4598 
Q 3113 4275 3113 3759 
Q 3113 2809 2144 2538 
L 2144 2525 
Q 2669 2469 2973 2155 
Q 3278 1841 3278 1372 
Q 3278 719 2808 319 
Q 2338 -81 1556 -81 
Q 869 -81 447 175 
L 447 809 
z
" transform="scale(0.015625)"/>
       </defs>
       <use xlink:href="#MicrosoftYaHei-19"/>
       <use xlink:href="#MicrosoftYaHei-16" transform="translate(58.640625 0)"/>
       <use xlink:href="#MicrosoftYaHei-b" transform="translate(117.28125 0)"/>
      </g>
     </g>
    </g>
    <g id="ytick_5">
     <g id="line2d_15">
      <path d="M 50.759785 138.052889 
L 648.012187 138.052889 
" clip-path="url(#p42952ab698)" style="fill: none; stroke: #b0b0b0; stroke-opacity: 0.25; stroke-width: 0.8; stroke-linecap: square"/>
     </g>
     <g id="line2d_16">
      <g>
       <use xlink:href="#mf3dc1b56cd" x="50.759785" y="138.052889" style="stroke: #000000; stroke-width: 0.8"/>
      </g>
     </g>
     <g id="text_11">
      <!-- 40% -->
      <g transform="translate(23.134785 142.112948) scale(0.1 -0.1)">
       <defs>
        <path id="MicrosoftYaHei-1a" d="M 2906 4841 
L 2906 1644 
L 3631 1644 
L 3631 1138 
L 2906 1138 
L 2906 0 
L 2313 0 
L 2313 1138 
L 53 1138 
L 53 1616 
Q 656 2294 1265 3178 
Q 1875 4063 2272 4841 
L 2906 4841 
z
M 741 1644 
L 2313 1644 
L 2313 3950 
Q 1988 3366 1616 2817 
Q 1244 2269 741 1644 
z
" transform="scale(0.015625)"/>
       </defs>
       <use xlink:href="#MicrosoftYaHei-1a"/>
       <use xlink:href="#MicrosoftYaHei-16" transform="translate(58.640625 0)"/>
       <use xlink:href="#MicrosoftYaHei-b" transform="translate(117.28125 0)"/>
      </g>
     </g>
    </g>
    <g id="ytick_6">
     <g id="line2d_17">
      <path d="M 50.759785 94.224735 
L 648.012187 94.224735 
" clip-path="url(#p42952ab698)" style="fill: none; stroke: #b0b0b0; stroke-opacity: 0.25; stroke-width: 0.8; stroke-linecap: square"/>
     </g>
     <g id="line2d_18">
      <g>
       <use xlink:href="#mf3dc1b56cd" x="50.759785" y="94.224735" style="stroke: #000000; stroke-width: 0.8"/>
      </g>
     </g>
     <g id="text_12">
      <!-- 50% -->
      <g transform="translate(23.134785 98.284793) scale(0.1 -0.1)">
       <defs>
        <path id="MicrosoftYaHei-1b" d="M 3294 1494 
Q 3294 784 2823 350 
Q 2353 -84 1559 -84 
Q 878 -84 544 119 
L 544 744 
Q 1034 425 1544 425 
Q 2050 425 2361 704 
Q 2672 984 2672 1447 
Q 2672 1909 2348 2167 
Q 2025 2425 1434 2425 
Q 978 2425 613 2384 
L 791 4841 
L 3053 4841 
L 3053 4303 
L 1306 4303 
L 1206 2931 
L 1647 2950 
Q 2416 2950 2855 2567 
Q 3294 2184 3294 1494 
z
" transform="scale(0.015625)"/>
       </defs>
       <use xlink:href="#MicrosoftYaHei-1b"/>
       <use xlink:href="#MicrosoftYaHei-16" transform="translate(58.640625 0)"/>
       <use xlink:href="#MicrosoftYaHei-b" transform="translate(117.28125 0)"/>
      </g>
     </g>
    </g>
    <g id="ytick_7">
     <g id="line2d_19">
      <path d="M 50.759785 50.39658 
L 648.012187 50.39658 
" clip-path="url(#p42952ab698)" style="fill: none; stroke: #b0b0b0; stroke-opacity: 0.25; stroke-width: 0.8; stroke-linecap: square"/>
     </g>
     <g id="line2d_20">
      <g>
       <use xlink:href="#mf3dc1b56cd" x="50.759785" y="50.39658" style="stroke: #000000; stroke-width: 0.8"/>
      </g>
     </g>
     <g id="text_13">
      <!-- 60% -->
      <g transform="translate(23.134785 54.456639) scale(0.1 -0.1)">
       <defs>
        <path id="MicrosoftYaHei-1c" d="M 3181 4219 
Q 2803 4413 2391 4413 
Q 1763 4413 1381 3866 
Q 1000 3319 994 2372 
L 1009 2372 
Q 1353 3038 2106 3038 
Q 2734 3038 3109 2628 
Q 3484 2219 3484 1541 
Q 3484 831 3051 375 
Q 2619 -81 1947 -81 
Q 1209 -81 789 495 
Q 369 1072 369 2131 
Q 369 3413 920 4167 
Q 1472 4922 2372 4922 
Q 2888 4922 3181 4781 
L 3181 4219 
z
M 1031 1584 
Q 1031 1106 1286 765 
Q 1541 425 1963 425 
Q 2363 425 2613 719 
Q 2863 1013 2863 1475 
Q 2863 1975 2627 2253 
Q 2391 2531 1956 2531 
Q 1544 2531 1287 2250 
Q 1031 1969 1031 1584 
z
" transform="scale(0.015625)"/>
       </defs>
       <use xlink:href="#MicrosoftYaHei-1c"/>
       <use xlink:href="#MicrosoftYaHei-16" transform="translate(58.640625 0)"/>
       <use xlink:href="#MicrosoftYaHei-b" transform="translate(117.28125 0)"/>
      </g>
     </g>
    </g>
    <g id="text_14">
     <!-- 识别比例 -->
     <g transform="translate(16.347188 190.732598) rotate(-90) scale(0.11 -0.11)">
      <defs>
       <path id="MicrosoftYaHei-a9c" d="M 2431 4884 
L 5875 4884 
L 5875 1597 
L 5394 1597 
L 5394 1972 
L 2913 1972 
L 2913 1597 
L 2431 1597 
L 2431 4884 
z
M 5394 4447 
L 2913 4447 
L 2913 2409 
L 5394 2409 
L 5394 4447 
z
M 2313 1309 
Q 2344 1047 2394 791 
Q 1831 372 1325 -41 
Q 1200 -153 1050 -328 
L 681 59 
Q 881 259 881 609 
L 881 2772 
L 88 2772 
L 88 3222 
L 1363 3222 
L 1363 566 
Q 1875 947 2313 1309 
z
M 4469 997 
L 4875 1297 
Q 5619 503 6381 -422 
L 5931 -759 
Q 5225 153 4469 997 
z
M 3306 1322 
L 3725 1022 
Q 2981 116 2063 -784 
Q 1906 -634 1681 -447 
Q 2544 334 3306 1322 
z
M 1025 5203 
Q 1638 4578 2000 4172 
L 1569 3816 
Q 1088 4434 656 4891 
L 1025 5203 
z
" transform="scale(0.015625)"/>
       <path id="MicrosoftYaHei-4f0" d="M 538 4959 
L 3375 4959 
L 3375 2772 
L 2888 2772 
L 2888 3028 
L 1025 3028 
L 1025 2772 
L 538 2772 
L 538 4959 
z
M 300 2116 
L 1316 2116 
Q 1331 2431 1338 2822 
L 1825 2822 
Q 1816 2431 1797 2116 
L 3431 2116 
Q 3413 1028 3363 328 
Q 3319 -684 2431 -678 
Q 2006 -678 1563 -641 
Q 1531 -347 1469 -122 
Q 1963 -203 2350 -203 
Q 2850 -209 2875 378 
Q 2925 891 2938 1666 
L 1769 1666 
Q 1688 53 431 -859 
Q 300 -666 88 -441 
Q 1238 366 1288 1666 
L 300 1666 
L 300 2116 
z
M 5425 5278 
L 5944 5278 
L 5944 53 
Q 5944 -747 5163 -747 
Q 4756 -747 4175 -741 
Q 4138 -484 4081 -178 
Q 4725 -228 4994 -228 
Q 5425 -228 5425 191 
L 5425 5278 
z
M 4138 4647 
L 4644 4647 
L 4644 666 
L 4138 666 
L 4138 4647 
z
M 2888 4509 
L 1025 4509 
L 1025 3478 
L 2888 3478 
L 2888 4509 
z
" transform="scale(0.015625)"/>
       <path id="MicrosoftYaHei-841" d="M 3225 5316 
L 3744 5316 
L 3744 2672 
Q 4959 3550 5744 4509 
L 6188 4178 
Q 5175 3063 3744 2056 
L 3744 247 
Q 3744 -166 4106 -166 
L 5175 -166 
Q 5588 -166 5650 203 
Q 5725 678 5763 1247 
Q 6025 1147 6300 1066 
Q 6244 484 6150 22 
Q 6019 -622 5319 -622 
L 3944 -622 
Q 3225 -622 3225 159 
L 3225 5316 
z
M 1063 5153 
L 1063 3278 
L 2825 3278 
L 2825 2809 
L 1063 2809 
L 1063 153 
Q 1713 428 2763 928 
Q 2763 634 2788 366 
Q 1869 -3 1231 -328 
Q 956 -472 725 -672 
L 344 -184 
Q 544 -34 544 272 
L 544 5153 
L 1063 5153 
z
" transform="scale(0.015625)"/>
       <path id="MicrosoftYaHei-486" d="M 2381 1841 
L 2631 2191 
Q 2916 1997 3247 1738 
Q 3488 2378 3581 3128 
L 2703 3128 
Q 2350 1984 1831 1291 
Q 1700 1491 1531 1678 
Q 2238 2694 2578 4522 
L 1900 4522 
L 1900 4959 
L 4319 4959 
L 4319 4522 
L 3044 4522 
Q 2947 4009 2828 3559 
L 4044 3559 
L 4044 3128 
Q 3788 666 2038 -822 
Q 1900 -634 1694 -416 
Q 2578 297 3063 1303 
Q 2753 1556 2381 1841 
z
M 88 2291 
Q 894 3659 1281 5322 
L 1744 5234 
Q 1578 4534 1325 3853 
L 1325 -809 
L 900 -809 
L 900 2847 
Q 625 2275 288 1716 
Q 213 1966 88 2291 
z
M 5575 5303 
L 6031 5303 
L 6031 84 
Q 6031 -391 5881 -566 
Q 5750 -728 5356 -734 
Q 5088 -741 4488 -722 
Q 4463 -466 4400 -203 
Q 4881 -253 5188 -253 
Q 5431 -259 5500 -166 
Q 5575 -84 5575 234 
L 5575 5303 
z
M 4913 653 
L 4469 653 
L 4469 4322 
L 4913 4322 
L 4913 653 
z
" transform="scale(0.015625)"/>
      </defs>
      <use xlink:href="#MicrosoftYaHei-a9c"/>
      <use xlink:href="#MicrosoftYaHei-4f0" transform="translate(100 0)"/>
      <use xlink:href="#MicrosoftYaHei-841" transform="translate(200 0)"/>
      <use xlink:href="#MicrosoftYaHei-486" transform="translate(300 0)"/>
     </g>
    </g>
   </g>
   <g id="patch_15">
    <path d="M 50.759785 313.365508 
L 50.759785 24.099687 
" style="fill: none; stroke: #000000; stroke-width: 0.8; stroke-linejoin: miter; stroke-linecap: square"/>
   </g>
   <g id="patch_16">
    <path d="M 648.012187 313.365508 
L 648.012187 24.099687 
" style="fill: none; stroke: #000000; stroke-width: 0.8; stroke-linejoin: miter; stroke-linecap: square"/>
   </g>
   <g id="patch_17">
    <path d="M 50.759785 313.365508 
L 648.012187 313.365508 
" style="fill: none; stroke: #000000; stroke-width: 0.8; stroke-linejoin: miter; stroke-linecap: square"/>
   </g>
   <g id="patch_18">
    <path d="M 50.759785 24.099687 
L 648.012187 24.099687 
" style="fill: none; stroke: #000000; stroke-width: 0.8; stroke-linejoin: miter; stroke-linecap: square"/>
   </g>
   <g id="text_15">
    <!-- 2.2% -->
    <g transform="translate(84.628907 295.085278) scale(0.09 -0.09)">
     <defs>
      <path id="MicrosoftYaHei-14" d="M 372 322 
Q 372 491 487 606 
Q 603 722 775 722 
Q 950 722 1065 605 
Q 1181 488 1181 322 
Q 1181 159 1065 42 
Q 950 -75 772 -75 
Q 600 -75 486 42 
Q 372 159 372 322 
z
" transform="scale(0.015625)"/>
     </defs>
     <use xlink:href="#MicrosoftYaHei-18"/>
     <use xlink:href="#MicrosoftYaHei-14" transform="translate(58.640625 0)"/>
     <use xlink:href="#MicrosoftYaHei-18" transform="translate(82.71875 0)"/>
     <use xlink:href="#MicrosoftYaHei-b" transform="translate(141.359375 0)"/>
    </g>
   </g>
   <g id="text_16">
    <!-- 53.8% -->
    <g transform="translate(176.912584 68.875462) scale(0.09 -0.09)">
     <defs>
      <path id="MicrosoftYaHei-1e" d="M 306 1350 
Q 306 1769 556 2122 
Q 806 2475 1200 2625 
Q 884 2803 700 3081 
Q 516 3359 516 3684 
Q 516 4028 692 4312 
Q 869 4597 1183 4759 
Q 1497 4922 1875 4922 
Q 2256 4922 2572 4761 
Q 2888 4600 3063 4315 
Q 3238 4031 3238 3684 
Q 3238 3366 3058 3086 
Q 2878 2806 2559 2625 
Q 2953 2472 3200 2119 
Q 3447 1766 3447 1350 
Q 3447 938 3250 611 
Q 3053 284 2690 103 
Q 2328 -78 1875 -78 
Q 1425 -78 1065 103 
Q 706 284 506 612 
Q 306 941 306 1350 
z
M 906 1378 
Q 906 947 1172 687 
Q 1438 428 1878 428 
Q 2309 428 2582 692 
Q 2856 956 2856 1378 
Q 2856 1778 2579 2051 
Q 2303 2325 1878 2325 
Q 1456 2325 1181 2058 
Q 906 1791 906 1378 
z
M 1081 3634 
Q 1081 3309 1312 3076 
Q 1544 2844 1878 2844 
Q 2206 2844 2445 3078 
Q 2684 3313 2684 3634 
Q 2684 3963 2454 4191 
Q 2225 4419 1878 4419 
Q 1534 4419 1307 4195 
Q 1081 3972 1081 3634 
z
" transform="scale(0.015625)"/>
     </defs>
     <use xlink:href="#MicrosoftYaHei-1b"/>
     <use xlink:href="#MicrosoftYaHei-19" transform="translate(58.640625 0)"/>
     <use xlink:href="#MicrosoftYaHei-14" transform="translate(117.28125 0)"/>
     <use xlink:href="#MicrosoftYaHei-1e" transform="translate(141.359375 0)"/>
     <use xlink:href="#MicrosoftYaHei-b" transform="translate(200 0)"/>
    </g>
   </g>
   <g id="text_17">
    <!-- 8.6% -->
    <g transform="translate(274.473917 266.808668) scale(0.09 -0.09)">
     <use xlink:href="#MicrosoftYaHei-1e"/>
     <use xlink:href="#MicrosoftYaHei-14" transform="translate(58.640625 0)"/>
     <use xlink:href="#MicrosoftYaHei-1c" transform="translate(82.71875 0)"/>
     <use xlink:href="#MicrosoftYaHei-b" transform="translate(141.359375 0)"/>
    </g>
   </g>
   <g id="text_18">
    <!-- 53.8% -->
    <g transform="translate(366.757594 68.875462) scale(0.09 -0.09)">
     <use xlink:href="#MicrosoftYaHei-1b"/>
     <use xlink:href="#MicrosoftYaHei-19" transform="translate(58.640625 0)"/>
     <use xlink:href="#MicrosoftYaHei-14" transform="translate(117.28125 0)"/>
     <use xlink:href="#MicrosoftYaHei-1e" transform="translate(141.359375 0)"/>
     <use xlink:href="#MicrosoftYaHei-b" transform="translate(200 0)"/>
    </g>
   </g>
   <g id="text_19">
    <!-- 51.6% -->
    <g transform="translate(461.680099 78.300707) scale(0.09 -0.09)">
     <use xlink:href="#MicrosoftYaHei-1b"/>
     <use xlink:href="#MicrosoftYaHei-17" transform="translate(58.640625 0)"/>
     <use xlink:href="#MicrosoftYaHei-14" transform="translate(117.28125 0)"/>
     <use xlink:href="#MicrosoftYaHei-1c" transform="translate(141.359375 0)"/>
     <use xlink:href="#MicrosoftYaHei-b" transform="translate(200 0)"/>
    </g>
   </g>
   <g id="text_20">
    <!-- 51.6% -->
    <g transform="translate(556.602605 78.300707) scale(0.09 -0.09)">
     <use xlink:href="#MicrosoftYaHei-1b"/>
     <use xlink:href="#MicrosoftYaHei-17" transform="translate(58.640625 0)"/>
     <use xlink:href="#MicrosoftYaHei-14" transform="translate(117.28125 0)"/>
     <use xlink:href="#MicrosoftYaHei-1c" transform="translate(141.359375 0)"/>
     <use xlink:href="#MicrosoftYaHei-b" transform="translate(200 0)"/>
    </g>
   </g>
   <g id="text_21">
    <!-- 1.1% -->
    <g transform="translate(118.801009 299.797681) scale(0.09 -0.09)">
     <use xlink:href="#MicrosoftYaHei-17"/>
     <use xlink:href="#MicrosoftYaHei-14" transform="translate(58.640625 0)"/>
     <use xlink:href="#MicrosoftYaHei-17" transform="translate(82.71875 0)"/>
     <use xlink:href="#MicrosoftYaHei-b" transform="translate(141.359375 0)"/>
    </g>
   </g>
   <g id="text_22">
    <!-- 28.0% -->
    <g transform="translate(211.084686 181.980151) scale(0.09 -0.09)">
     <use xlink:href="#MicrosoftYaHei-18"/>
     <use xlink:href="#MicrosoftYaHei-1e" transform="translate(58.640625 0)"/>
     <use xlink:href="#MicrosoftYaHei-14" transform="translate(117.28125 0)"/>
     <use xlink:href="#MicrosoftYaHei-16" transform="translate(141.359375 0)"/>
     <use xlink:href="#MicrosoftYaHei-b" transform="translate(200 0)"/>
    </g>
   </g>
   <g id="text_23">
    <!-- 2.2% -->
    <g transform="translate(308.646019 295.085278) scale(0.09 -0.09)">
     <use xlink:href="#MicrosoftYaHei-18"/>
     <use xlink:href="#MicrosoftYaHei-14" transform="translate(58.640625 0)"/>
     <use xlink:href="#MicrosoftYaHei-18" transform="translate(82.71875 0)"/>
     <use xlink:href="#MicrosoftYaHei-b" transform="translate(141.359375 0)"/>
    </g>
   </g>
   <g id="text_24">
    <!-- 22.6% -->
    <g transform="translate(400.929696 205.54392) scale(0.09 -0.09)">
     <use xlink:href="#MicrosoftYaHei-18"/>
     <use xlink:href="#MicrosoftYaHei-18" transform="translate(58.640625 0)"/>
     <use xlink:href="#MicrosoftYaHei-14" transform="translate(117.28125 0)"/>
     <use xlink:href="#MicrosoftYaHei-1c" transform="translate(141.359375 0)"/>
     <use xlink:href="#MicrosoftYaHei-b" transform="translate(200 0)"/>
    </g>
   </g>
   <g id="text_25">
    <!-- 16.1% -->
    <g transform="translate(495.852201 233.820092) scale(0.09 -0.09)">
     <use xlink:href="#MicrosoftYaHei-17"/>
     <use xlink:href="#MicrosoftYaHei-1c" transform="translate(58.640625 0)"/>
     <use xlink:href="#MicrosoftYaHei-14" transform="translate(117.28125 0)"/>
     <use xlink:href="#MicrosoftYaHei-17" transform="translate(141.359375 0)"/>
     <use xlink:href="#MicrosoftYaHei-b" transform="translate(200 0)"/>
    </g>
   </g>
   <g id="text_26">
    <!-- 16.1% -->
    <g transform="translate(590.774706 233.820092) scale(0.09 -0.09)">
     <use xlink:href="#MicrosoftYaHei-17"/>
     <use xlink:href="#MicrosoftYaHei-1c" transform="translate(58.640625 0)"/>
     <use xlink:href="#MicrosoftYaHei-14" transform="translate(117.28125 0)"/>
     <use xlink:href="#MicrosoftYaHei-17" transform="translate(141.359375 0)"/>
     <use xlink:href="#MicrosoftYaHei-b" transform="translate(200 0)"/>
    </g>
   </g>
   <g id="text_27">
    <!-- 协议A：不同身份线索组合的识别表现 -->
    <g transform="translate(240.812627 18.099687) scale(0.13 -0.13)">
     <defs>
      <path id="MicrosoftYaHei-523" d="M 2206 4022 
L 3291 4022 
Q 3313 4659 3313 5278 
L 3800 5278 
Q 3794 4697 3772 4022 
L 5294 4022 
Q 5231 1716 5150 172 
Q 5113 -691 4281 -691 
Q 4075 -691 3594 -678 
Q 3550 -391 3488 -134 
Q 3894 -191 4200 -191 
Q 4650 -197 4675 291 
Q 4750 1784 4794 3534 
L 3756 3534 
Q 3722 2138 3538 1322 
Q 3219 84 2225 -778 
Q 2069 -603 1863 -409 
Q 2756 378 3056 1453 
Q 3250 2184 3278 3534 
L 2206 3534 
L 2206 4022 
z
M 94 3484 
L 775 3484 
L 775 5272 
L 1256 5272 
L 1256 3484 
L 1863 3484 
L 1863 3028 
L 1256 3028 
L 1256 -803 
L 775 -803 
L 775 3028 
L 94 3028 
L 94 3484 
z
M 2394 2916 
L 2813 2759 
Q 2500 1934 2088 997 
Q 1894 1103 1669 1191 
Q 2075 1978 2394 2916 
z
M 5331 2791 
L 5750 2922 
Q 6063 2047 6319 1278 
L 5863 1122 
Q 5600 2053 5331 2791 
z
" transform="scale(0.015625)"/>
      <path id="MicrosoftYaHei-a91" d="M 5813 4841 
Q 5447 2288 4309 909 
Q 5119 156 6288 -272 
Q 6056 -547 5888 -791 
Q 4719 -234 3941 516 
Q 3100 -300 1969 -847 
Q 1831 -647 1613 -372 
Q 2772 131 3575 909 
Q 2384 2338 2119 4841 
L 2606 4916 
Q 2809 2638 3938 1300 
Q 5041 2647 5313 4928 
L 5813 4841 
z
M 2181 1222 
Q 2200 953 2250 678 
Q 1819 359 1313 -47 
Q 1156 -178 1025 -341 
L 663 47 
Q 856 253 856 653 
L 856 2772 
L 94 2772 
L 94 3234 
L 1331 3234 
L 1331 553 
Q 1763 884 2181 1222 
z
M 3250 5103 
L 3650 5316 
Q 4050 4703 4425 4016 
L 3981 3759 
Q 3569 4584 3250 5103 
z
M 788 5172 
Q 1238 4722 1700 4191 
L 1281 3834 
Q 813 4434 425 4866 
L 788 5172 
z
" transform="scale(0.015625)"/>
      <path id="MicrosoftYaHei-27" d="M 4428 0 
L 3738 0 
L 3244 1325 
L 1228 1325 
L 763 0 
L 72 0 
L 1916 4841 
L 2584 4841 
L 4428 0 
z
M 3050 1872 
L 2319 3884 
Q 2284 3981 2244 4222 
L 2228 4222 
Q 2194 4003 2150 3884 
L 1425 1872 
L 3050 1872 
z
" transform="scale(0.015625)"/>
      <path id="MicrosoftYaHei-379" d="M 1606 3531 
Q 1772 3531 1890 3415 
Q 2009 3300 2009 3138 
Q 2009 2975 1893 2858 
Q 1778 2741 1606 2741 
Q 1434 2741 1318 2858 
Q 1203 2975 1203 3138 
Q 1203 3300 1322 3415 
Q 1441 3531 1606 3531 
z
M 1606 716 
Q 1772 716 1890 600 
Q 2009 484 2009 319 
Q 2009 150 1890 36 
Q 1772 -78 1606 -78 
Q 1441 -78 1322 36 
Q 1203 150 1203 319 
Q 1203 484 1322 600 
Q 1441 716 1606 716 
z
" transform="scale(0.015625)"/>
      <path id="MicrosoftYaHei-409" d="M 225 4772 
L 6181 4772 
L 6181 4284 
L 3881 4284 
Q 3581 3766 3081 3053 
L 3444 3053 
L 3444 -866 
L 2906 -866 
L 2906 2859 
Q 1838 1541 388 609 
Q 231 834 38 1059 
Q 2006 2291 3213 4284 
L 225 4284 
L 225 4772 
z
M 4069 2859 
Q 5238 2147 6325 1409 
L 5969 916 
Q 4681 1872 3763 2434 
L 4069 2859 
z
" transform="scale(0.015625)"/>
      <path id="MicrosoftYaHei-563" d="M 1013 -772 
L 531 -772 
L 531 4959 
L 5856 4959 
L 5856 -47 
Q 5856 -741 5125 -741 
Q 4669 -741 4088 -716 
Q 4056 -497 4000 -216 
Q 4619 -272 5025 -272 
Q 5375 -272 5375 78 
L 5375 4497 
L 1013 4497 
L 1013 -772 
z
M 1875 2566 
L 4506 2566 
L 4506 597 
L 2338 597 
L 2338 272 
L 1875 272 
L 1875 2566 
z
M 4044 2116 
L 2338 2116 
L 2338 1047 
L 4044 1047 
L 4044 2116 
z
M 1363 3734 
L 5025 3734 
L 5025 3284 
L 1363 3284 
L 1363 3734 
z
" transform="scale(0.015625)"/>
      <path id="MicrosoftYaHei-aef" d="M 150 1666 
L 1013 1666 
L 1013 4653 
L 2441 4653 
Q 2588 5022 2681 5341 
L 3206 5209 
Q 3088 4941 2953 4653 
L 5219 4653 
L 5219 1997 
Q 5628 2303 6006 2641 
L 6319 2297 
Q 5791 1844 5219 1441 
L 5219 191 
Q 5219 -753 4394 -759 
Q 3881 -772 3356 -747 
Q 3319 -528 3256 -228 
Q 3713 -272 4238 -272 
Q 4725 -272 4725 241 
L 4725 1109 
Q 2819 -116 419 -828 
Q 300 -584 138 -353 
Q 2347 216 4094 1247 
L 150 1247 
L 150 1666 
z
M 1506 1666 
L 4725 1666 
L 4725 2259 
L 1506 2259 
L 1506 1666 
z
M 4725 4234 
L 1506 4234 
L 1506 3647 
L 4725 3647 
L 4725 4234 
z
M 1506 2659 
L 4725 2659 
L 4725 3247 
L 1506 3247 
L 1506 2659 
z
" transform="scale(0.015625)"/>
      <path id="MicrosoftYaHei-461" d="M 2269 2653 
L 5394 2653 
Q 5388 2566 5300 366 
Q 5275 -709 4319 -722 
Q 3806 -722 3425 -703 
Q 3394 -416 3331 -184 
Q 3763 -241 4200 -253 
Q 4806 -297 4813 422 
Q 4863 1259 4888 2216 
L 3481 2216 
Q 3463 1222 3181 572 
Q 2844 -172 2019 -822 
Q 1856 -622 1656 -416 
Q 2450 203 2713 772 
Q 2969 1275 2997 2216 
L 2269 2216 
L 2269 2653 
z
M 75 2353 
Q 969 3534 1525 5284 
L 2013 5116 
Q 1709 4284 1350 3559 
L 1350 -809 
L 875 -809 
L 875 2691 
Q 588 2216 275 1797 
Q 181 2066 75 2353 
z
M 4006 5116 
L 4419 5291 
Q 5038 3703 6325 2972 
Q 6088 2697 5969 2516 
Q 4575 3472 4006 5116 
z
M 1588 2741 
Q 2563 3597 3163 5034 
L 3606 4866 
Q 3025 3409 1963 2397 
Q 1738 2628 1588 2741 
z
" transform="scale(0.015625)"/>
      <path id="MicrosoftYaHei-9bf" d="M 1969 -347 
Q 3144 75 4003 631 
Q 3781 1197 3653 1972 
L 2319 1784 
L 2244 2234 
L 3591 2422 
Q 3538 2859 3513 3356 
L 2381 3228 
L 2306 3678 
L 3488 3809 
Q 3453 4459 3425 5303 
L 3938 5303 
Q 3953 4497 3978 3866 
L 6069 4103 
L 6125 3659 
L 3997 3413 
Q 4019 2919 4069 2488 
L 6225 2791 
L 6281 2347 
L 4128 2041 
Q 4234 1394 4416 916 
Q 5078 1416 5519 2009 
L 5925 1703 
Q 5363 1025 4619 475 
Q 4859 44 5194 -184 
Q 5606 -428 5725 66 
Q 5806 466 5856 953 
Q 6144 828 6338 772 
Q 6231 97 6125 -247 
Q 5944 -778 5506 -778 
Q 5050 -778 4663 -403 
Q 4409 -163 4209 194 
Q 3350 -363 2281 -772 
Q 2169 -597 1969 -347 
z
M 900 1541 
Q 1456 1622 2213 1753 
Q 2175 1522 2156 1272 
Q 1113 1109 325 978 
L 225 1447 
Q 659 1913 1178 2775 
Q 672 2747 225 2703 
L 106 3128 
Q 688 3922 1300 5353 
L 1775 5166 
Q 1131 3897 669 3166 
Q 1041 3178 1422 3194 
Q 1638 3578 1869 4028 
L 2331 3797 
Q 1569 2478 900 1541 
z
M 106 97 
Q 1206 334 2331 616 
Q 2313 366 2313 141 
Q 1269 -103 244 -378 
L 106 97 
z
M 4463 4972 
L 4731 5284 
Q 5175 5003 5681 4609 
L 5381 4247 
Q 4863 4691 4463 4972 
z
" transform="scale(0.015625)"/>
      <path id="MicrosoftYaHei-9ab" d="M 4431 2197 
Q 5281 1559 5956 966 
L 5588 622 
Q 5391 816 5178 1009 
Q 4331 978 3531 941 
L 3531 3 
Q 3531 -766 2713 -766 
Q 2344 -766 1925 -753 
Q 1894 -528 1838 -253 
Q 2288 -303 2619 -303 
Q 3044 -303 3044 109 
L 3044 913 
Q 2413 881 1813 841 
Q 1450 816 1088 759 
L 900 1253 
Q 1325 1341 1750 1541 
Q 2350 1831 2884 2131 
Q 2381 2097 1919 2059 
Q 1625 2028 1400 1984 
L 1244 2409 
Q 1513 2509 1769 2672 
Q 2175 2934 2619 3297 
L 806 3297 
L 806 2578 
L 319 2578 
L 319 3722 
L 2944 3722 
L 2944 4303 
L 500 4303 
L 500 4728 
L 2944 4728 
L 2944 5341 
L 3456 5341 
L 3456 4728 
L 5925 4728 
L 5925 4303 
L 3456 4303 
L 3456 3722 
L 6081 3722 
L 6081 2578 
L 5594 2578 
L 5594 3297 
L 3231 3297 
Q 2584 2791 2000 2416 
Q 2731 2447 3459 2472 
Q 3891 2738 4269 3009 
L 4650 2716 
Q 3244 1866 1988 1253 
Q 3313 1309 4747 1388 
Q 4441 1650 4106 1916 
L 4431 2197 
z
M 4356 678 
Q 5425 203 6294 -266 
Q 6113 -503 6000 -697 
Q 5181 -191 4094 322 
L 4356 678 
z
M 1838 728 
L 2131 372 
Q 1294 -228 394 -684 
Q 275 -491 88 -278 
Q 1031 141 1838 728 
z
" transform="scale(0.015625)"/>
      <path id="MicrosoftYaHei-9c1" d="M 1994 -516 
L 1994 -66 
L 2738 -66 
L 2738 4941 
L 5763 4941 
L 5763 -66 
L 6313 -66 
L 6313 -516 
L 1994 -516 
z
M 969 1703 
Q 1606 1784 2300 1872 
Q 2275 1603 2256 1447 
Q 1331 1328 400 1191 
L 300 1647 
Q 697 1956 1284 2941 
Q 597 2897 256 2866 
L 131 3278 
Q 619 3866 1200 5291 
L 1706 5116 
Q 1163 4091 681 3316 
Q 1197 3319 1506 3328 
Q 1756 3775 2038 4334 
L 2519 4122 
Q 1806 2859 969 1703 
z
M 5288 4491 
L 3213 4491 
L 3213 3259 
L 5288 3259 
L 5288 4491 
z
M 3213 -66 
L 5288 -66 
L 5288 1166 
L 3213 1166 
L 3213 -66 
z
M 3213 1597 
L 5288 1597 
L 5288 2828 
L 3213 2828 
L 3213 1597 
z
M 181 291 
Q 1088 459 2356 741 
Q 2331 453 2331 266 
Q 1031 -3 319 -184 
L 181 291 
z
" transform="scale(0.015625)"/>
      <path id="MicrosoftYaHei-560" d="M 1025 1909 
L 5381 1909 
L 5381 -866 
L 4881 -866 
L 4881 -447 
L 1525 -447 
L 1525 -878 
L 1025 -878 
L 1025 1909 
z
M 3700 5234 
L 3550 5053 
Q 4594 3697 6319 3009 
Q 6125 2734 5988 2509 
Q 5481 2753 5025 3059 
L 5025 2703 
L 1369 2703 
L 1369 3016 
Q 913 2716 394 2428 
Q 269 2641 81 2897 
Q 2013 3866 3000 5234 
L 3700 5234 
z
M 4881 1453 
L 1525 1453 
L 1525 -3 
L 4881 -3 
L 4881 1453 
z
M 3219 4691 
Q 2581 3872 1550 3147 
L 4894 3147 
Q 3944 3797 3219 4691 
z
" transform="scale(0.015625)"/>
      <path id="MicrosoftYaHei-919" d="M 356 4284 
L 988 4284 
Q 1219 4853 1369 5322 
L 1894 5172 
Q 1697 4694 1513 4284 
L 2763 4284 
L 2763 -691 
L 2263 -691 
L 2263 -203 
L 856 -203 
L 856 -734 
L 356 -734 
L 356 4284 
z
M 2856 3003 
Q 3444 3934 3850 5322 
L 4375 5191 
Q 4216 4719 4050 4303 
L 6063 4303 
Q 5988 1091 5938 259 
Q 5894 -722 4906 -722 
Q 4338 -722 3750 -684 
Q 3713 -372 3650 -128 
L 3669 -128 
Q 4294 -216 4813 -216 
Q 5381 -216 5425 384 
Q 5494 1316 5525 3834 
L 3850 3834 
Q 3578 3231 3288 2772 
Q 3119 2891 2856 3003 
z
M 856 266 
L 2263 266 
L 2263 1847 
L 856 1847 
L 856 266 
z
M 2263 3816 
L 856 3816 
L 856 2297 
L 2263 2297 
L 2263 3816 
z
M 3406 2578 
L 3788 2859 
Q 4481 2041 4894 1441 
L 4431 1116 
Q 3988 1841 3406 2578 
z
" transform="scale(0.015625)"/>
      <path id="MicrosoftYaHei-a6e" d="M 5519 1891 
L 5863 1459 
L 4466 759 
Q 5200 159 6306 -34 
Q 6094 -309 5956 -534 
Q 3941 -53 3066 1944 
Q 2747 1538 2338 1172 
L 2338 -166 
Q 3163 103 3869 397 
Q 3863 122 3875 -147 
Q 3125 -403 2325 -709 
Q 2156 -778 1994 -872 
L 1700 -416 
Q 1875 -291 1875 -66 
L 1875 794 
Q 1228 309 406 -84 
Q 269 134 88 347 
Q 1703 1009 2625 2122 
L 156 2122 
L 156 2553 
L 2956 2553 
L 2956 3191 
L 600 3191 
L 600 3622 
L 2956 3622 
L 2956 4234 
L 350 4234 
L 350 4666 
L 2956 4666 
L 2956 5366 
L 3450 5366 
L 3450 4666 
L 6069 4666 
L 6069 4234 
L 3450 4234 
L 3450 3622 
L 5800 3622 
L 5800 3191 
L 3450 3191 
L 3450 2553 
L 6244 2553 
L 6244 2122 
L 3466 2122 
Q 3728 1513 4141 1066 
Q 4769 1378 5519 1891 
z
" transform="scale(0.015625)"/>
      <path id="MicrosoftYaHei-8eb" d="M 3900 4141 
L 4388 4141 
L 4388 3091 
Q 4388 2288 4250 1678 
L 4663 1678 
L 4663 103 
Q 4663 -228 5025 -228 
L 5325 -228 
Q 5700 -228 5738 109 
Q 5775 397 5800 928 
Q 6013 841 6313 734 
Q 6263 184 6213 -91 
Q 6119 -666 5394 -666 
L 4931 -666 
Q 4188 -666 4188 41 
L 4188 1425 
Q 4059 981 3850 653 
Q 3319 -203 2094 -834 
Q 1931 -603 1756 -422 
Q 2975 166 3450 941 
Q 3900 1641 3900 3053 
L 3900 4141 
z
M 2588 5034 
L 5781 5034 
L 5781 1284 
L 5294 1284 
L 5294 4572 
L 3075 4572 
L 3075 1197 
L 2588 1197 
L 2588 5034 
z
M 81 384 
Q 531 506 1025 647 
L 1025 2466 
L 200 2466 
L 200 2916 
L 1025 2916 
L 1025 4366 
L 150 4366 
L 150 4816 
L 2400 4816 
L 2400 4366 
L 1513 4366 
L 1513 2916 
L 2313 2916 
L 2313 2466 
L 1513 2466 
L 1513 791 
Q 1956 925 2431 1072 
Q 2444 834 2475 603 
Q 1400 272 256 -97 
L 81 384 
z
" transform="scale(0.015625)"/>
     </defs>
     <use xlink:href="#MicrosoftYaHei-523"/>
     <use xlink:href="#MicrosoftYaHei-a91" transform="translate(100 0)"/>
     <use xlink:href="#MicrosoftYaHei-27" transform="translate(200 0)"/>
     <use xlink:href="#MicrosoftYaHei-379" transform="translate(270.359375 0)"/>
     <use xlink:href="#MicrosoftYaHei-409" transform="translate(370.359375 0)"/>
     <use xlink:href="#MicrosoftYaHei-563" transform="translate(470.359375 0)"/>
     <use xlink:href="#MicrosoftYaHei-aef" transform="translate(570.359375 0)"/>
     <use xlink:href="#MicrosoftYaHei-461" transform="translate(670.359375 0)"/>
     <use xlink:href="#MicrosoftYaHei-9bf" transform="translate(770.359375 0)"/>
     <use xlink:href="#MicrosoftYaHei-9ab" transform="translate(870.359375 0)"/>
     <use xlink:href="#MicrosoftYaHei-9c1" transform="translate(970.359375 0)"/>
     <use xlink:href="#MicrosoftYaHei-560" transform="translate(1070.359375 0)"/>
     <use xlink:href="#MicrosoftYaHei-919" transform="translate(1170.359375 0)"/>
     <use xlink:href="#MicrosoftYaHei-a9c" transform="translate(1270.359375 0)"/>
     <use xlink:href="#MicrosoftYaHei-4f0" transform="translate(1370.359375 0)"/>
     <use xlink:href="#MicrosoftYaHei-a6e" transform="translate(1470.359375 0)"/>
     <use xlink:href="#MicrosoftYaHei-8eb" transform="translate(1570.359375 0)"/>
    </g>
   </g>
   <g id="legend_1">
    <g id="patch_19">
     <path d="M 483.765 59.934805 
L 641.712188 59.934805 
Q 643.512187 59.934805 643.512187 58.134805 
L 643.512187 30.399687 
Q 643.512187 28.599687 641.712188 28.599687 
L 483.765 28.599687 
Q 481.965 28.599687 481.965 30.399687 
L 481.965 58.134805 
Q 481.965 59.934805 483.765 59.934805 
z
" style="fill: #ffffff; opacity: 0.8; stroke: #cccccc; stroke-linejoin: miter"/>
    </g>
    <g id="patch_20">
     <path d="M 485.565 39.718906 
L 503.565 39.718906 
L 503.565 33.418906 
L 485.565 33.418906 
z
" style="fill: #4c78a8"/>
    </g>
    <g id="text_28">
     <!-- 强制选第一名时认对（Rank-1） -->
     <g transform="translate(510.765 39.718906) scale(0.09 -0.09)">
      <defs>
       <path id="MicrosoftYaHei-6a0" d="M 5250 466 
L 5669 666 
Q 6031 28 6363 -641 
L 5894 -878 
Q 5794 -641 5688 -416 
Q 3750 -547 2219 -653 
L 2150 -134 
Q 3088 -97 3969 -59 
L 3969 866 
L 2894 866 
L 2894 622 
L 2431 622 
L 2431 2616 
L 3969 2616 
L 3969 3297 
L 3144 3297 
L 3144 3047 
L 2681 3047 
L 2681 4972 
L 5731 4972 
L 5731 3047 
L 5269 3047 
L 5269 3297 
L 4444 3297 
L 4444 2616 
L 5988 2616 
L 5988 866 
L 4444 866 
L 4444 -41 
Q 4975 -22 5488 3 
Q 5369 241 5250 466 
z
M 425 3466 
L 1650 3466 
L 1650 4516 
L 238 4516 
L 238 4941 
L 2113 4941 
L 2113 2772 
L 1650 2772 
L 1650 3041 
L 831 3041 
L 719 2072 
L 2056 2072 
Q 1994 741 1944 128 
Q 1888 -722 1100 -722 
Q 819 -722 425 -716 
Q 388 -484 325 -216 
Q 731 -247 1019 -247 
Q 1444 -247 1475 191 
Q 1525 828 1563 1647 
L 225 1647 
L 425 3466 
z
M 5269 4547 
L 3144 4547 
L 3144 3722 
L 5269 3722 
L 5269 4547 
z
M 5525 1291 
L 5525 2191 
L 4444 2191 
L 4444 1291 
L 5525 1291 
z
M 2894 1291 
L 3969 1291 
L 3969 2191 
L 2894 2191 
L 2894 1291 
z
" transform="scale(0.015625)"/>
       <path id="MicrosoftYaHei-4f2" d="M 1906 5266 
L 2394 5266 
L 2394 4309 
L 3750 4309 
L 3750 3872 
L 2394 3872 
L 2394 3034 
L 4025 3034 
L 4025 2597 
L 2394 2597 
L 2394 1897 
L 3763 1897 
L 3763 409 
Q 3763 -266 3150 -272 
Q 2956 -278 2631 -272 
Q 2600 -72 2538 178 
Q 2844 159 3038 159 
Q 3300 159 3300 472 
L 3300 1472 
L 2394 1472 
L 2394 -847 
L 1906 -847 
L 1906 1472 
L 1044 1472 
L 1044 -378 
L 581 -378 
L 581 1897 
L 1906 1897 
L 1906 2597 
L 113 2597 
L 113 3034 
L 1906 3034 
L 1906 3872 
L 981 3872 
Q 822 3513 619 3191 
Q 413 3309 194 3428 
Q 688 4172 881 5041 
L 1344 4922 
Q 1263 4603 1159 4309 
L 1906 4309 
L 1906 5266 
z
M 5469 5272 
L 5969 5272 
L 5969 122 
Q 5969 -722 5225 -722 
Q 4981 -722 4388 -716 
Q 4350 -472 4288 -172 
Q 4813 -222 5075 -222 
Q 5469 -222 5469 222 
L 5469 5272 
z
M 4750 822 
L 4269 822 
L 4269 4672 
L 4750 4672 
L 4750 822 
z
" transform="scale(0.015625)"/>
       <path id="MicrosoftYaHei-b23" d="M 1756 2753 
L 3825 2753 
L 3825 3797 
L 2772 3797 
Q 2584 3322 2381 2947 
Q 2219 3053 1944 3172 
Q 2431 4028 2669 5072 
L 3156 4966 
Q 3047 4575 2928 4228 
L 3825 4228 
L 3825 5316 
L 4313 5316 
L 4313 4228 
L 5944 4228 
L 5944 3797 
L 4313 3797 
L 4313 2753 
L 6244 2753 
L 6244 2322 
L 4769 2322 
L 4769 984 
Q 4769 653 5044 653 
L 5344 653 
Q 5631 653 5675 953 
Q 5713 1197 5744 1691 
Q 5938 1603 6219 1509 
Q 6169 1078 6113 784 
Q 6013 228 5400 228 
L 4938 228 
Q 4288 228 4288 934 
L 4288 2322 
L 3447 2322 
Q 3444 2038 3431 1816 
Q 3394 647 2119 84 
Q 1994 266 1806 503 
Q 2906 959 2950 1816 
Q 2963 2003 2972 2322 
L 1756 2322 
L 1756 2753 
z
M 2694 -197 
L 4000 -209 
L 6300 -166 
Q 6231 -372 6125 -659 
L 3947 -684 
L 2638 -666 
Q 1513 -628 1081 91 
Q 825 -147 331 -747 
L 75 -228 
Q 628 306 875 538 
L 875 2641 
L 131 2641 
L 131 3103 
L 1356 3103 
L 1356 431 
Q 1741 -184 2694 -197 
z
M 856 5203 
Q 1175 4816 1731 4022 
L 1288 3709 
Q 781 4503 456 4934 
L 856 5203 
z
" transform="scale(0.015625)"/>
       <path id="MicrosoftYaHei-986" d="M 4006 5347 
L 4544 5347 
Q 4406 5038 4256 4759 
L 6225 4759 
L 6225 4372 
L 4650 4372 
Q 4922 4106 5163 3822 
L 4806 3553 
L 5613 3553 
L 5613 1884 
L 5131 1884 
L 5131 2109 
L 3431 2109 
L 3431 1484 
L 5944 1484 
Q 5919 922 5881 416 
Q 5838 -372 5081 -372 
Q 4700 -372 4138 -366 
Q 4094 -134 4031 128 
Q 4644 97 4988 97 
Q 5356 97 5388 466 
Q 5419 759 5431 1059 
L 3431 1059 
L 3431 -853 
L 2931 -853 
L 2931 909 
Q 2059 -147 306 -703 
Q 194 -522 44 -303 
Q 1566 144 2463 1059 
L 563 1059 
L 563 1484 
L 863 2534 
L 2931 2534 
L 2931 3128 
L 744 3128 
L 744 3553 
L 1972 3553 
Q 1713 3891 1456 4184 
L 1706 4372 
L 1247 4372 
Q 875 3875 388 3459 
Q 263 3609 75 3797 
Q 869 4441 1294 5347 
L 1831 5347 
Q 1688 5041 1513 4759 
L 3325 4759 
L 3325 4372 
L 1825 4372 
Q 2075 4119 2331 3828 
L 1981 3553 
L 4794 3553 
Q 4541 3894 4294 4178 
L 4559 4372 
L 4028 4372 
Q 3784 3984 3506 3672 
Q 3369 3809 3125 3978 
Q 3650 4516 4006 5347 
z
M 1075 1484 
L 2931 1484 
L 2931 2109 
L 1250 2109 
L 1075 1484 
z
M 5131 3128 
L 3431 3128 
L 3431 2534 
L 5131 2534 
L 5131 3128 
z
" transform="scale(0.015625)"/>
       <path id="MicrosoftYaHei-25b2" d="M 100 2703 
L 6313 2703 
L 6313 2153 
L 100 2153 
L 100 2703 
z
" transform="scale(0.015625)"/>
       <path id="MicrosoftYaHei-564" d="M 2406 5328 
L 2894 5128 
Q 2688 4853 2475 4603 
L 5669 4603 
L 5669 4159 
Q 4506 2828 2600 1978 
L 5656 1978 
L 5656 -866 
L 5156 -866 
L 5156 -459 
L 1863 -459 
L 1863 -866 
L 1363 -866 
L 1363 1478 
Q 875 1297 350 1122 
Q 213 1359 63 1584 
Q 1463 1966 2588 2516 
Q 2200 2909 1750 3322 
L 2125 3647 
Q 2650 3178 3088 2778 
Q 4188 3384 5000 4172 
L 2094 4172 
Q 1388 3403 481 2753 
Q 306 2984 156 3159 
Q 1394 3966 2406 5328 
z
M 5156 1528 
L 1863 1528 
L 1863 -22 
L 5156 -22 
L 5156 1528 
z
" transform="scale(0.015625)"/>
       <path id="MicrosoftYaHei-79e" d="M 344 4728 
L 2500 4728 
L 2500 -366 
L 2006 -366 
L 2006 153 
L 838 153 
L 838 -441 
L 344 -441 
L 344 4728 
z
M 2706 3941 
L 4925 3941 
L 4925 5322 
L 5425 5322 
L 5425 3941 
L 6313 3941 
L 6313 3478 
L 5425 3478 
L 5425 116 
Q 5425 -722 4625 -722 
Q 4263 -722 3563 -703 
Q 3531 -478 3463 -178 
Q 4119 -228 4488 -228 
Q 4925 -228 4925 216 
L 4925 3478 
L 2706 3478 
L 2706 3941 
z
M 838 616 
L 2006 616 
L 2006 2234 
L 838 2234 
L 838 616 
z
M 2006 4266 
L 838 4266 
L 838 2684 
L 2006 2684 
L 2006 4266 
z
M 3406 2878 
Q 3906 1966 4163 1422 
Q 4000 1347 3663 1172 
Q 3419 1766 2963 2653 
L 3406 2878 
z
" transform="scale(0.015625)"/>
       <path id="MicrosoftYaHei-a8d" d="M 3788 5253 
L 4294 5253 
Q 4288 4431 4272 3644 
Q 4616 791 6325 -222 
Q 6100 -472 5919 -703 
Q 4584 234 4103 2297 
Q 3759 409 2181 -816 
Q 2038 -641 1819 -416 
Q 3756 978 3769 3678 
Q 3788 4378 3788 5253 
z
M 2525 1634 
Q 2563 1359 2625 1128 
Q 1975 628 1381 97 
Q 1213 -59 1094 -228 
L 725 159 
Q 925 366 925 709 
L 925 2816 
L 88 2816 
L 88 3266 
L 1413 3266 
L 1413 716 
Q 1875 1084 2525 1634 
z
M 1025 5203 
Q 1625 4597 2081 4097 
L 1650 3741 
Q 1213 4291 656 4891 
L 1025 5203 
z
" transform="scale(0.015625)"/>
       <path id="MicrosoftYaHei-62b" d="M 694 3691 
Q 1234 2909 1741 2166 
Q 2113 3081 2213 4147 
L 250 4147 
L 250 4622 
L 2725 4622 
L 2725 4166 
Q 2553 2809 2059 1700 
Q 2569 953 3044 247 
L 2594 -53 
Q 2203 563 1803 1181 
Q 1247 163 388 -622 
Q 263 -428 81 -166 
Q 975 638 1500 1647 
Q 919 2538 319 3434 
L 694 3691 
z
M 2975 3941 
L 5056 3941 
L 5056 5278 
L 5563 5278 
L 5563 3941 
L 6325 3941 
L 6325 3466 
L 5563 3466 
L 5563 191 
Q 5563 -716 4669 -716 
Q 4388 -716 3744 -709 
Q 3713 -478 3644 -147 
Q 4263 -197 4588 -197 
Q 5056 -197 5056 278 
L 5056 3466 
L 2975 3466 
L 2975 3941 
z
M 3088 2684 
L 3494 2928 
Q 4000 2184 4388 1484 
L 3919 1216 
Q 3550 1922 3088 2684 
z
" transform="scale(0.015625)"/>
       <path id="MicrosoftYaHei-367" d="M 5288 -1100 
Q 4172 119 4172 1850 
Q 4172 3603 5288 4838 
L 5825 4838 
Q 4716 3572 4716 1856 
Q 4716 166 5819 -1100 
L 5288 -1100 
z
" transform="scale(0.015625)"/>
       <path id="MicrosoftYaHei-38" d="M 4159 0 
L 3422 0 
L 2619 1344 
Q 2378 1747 2178 1892 
Q 1978 2038 1700 2038 
L 1250 2038 
L 1250 0 
L 625 0 
L 625 4841 
L 2100 4841 
Q 2806 4841 3206 4500 
Q 3606 4159 3606 3547 
Q 3606 2541 2531 2241 
L 2531 2225 
Q 2731 2141 2876 1984 
Q 3022 1828 3253 1450 
L 4159 0 
z
M 1250 4294 
L 1250 2584 
L 1988 2584 
Q 2416 2584 2683 2834 
Q 2950 3084 2950 3491 
Q 2950 3869 2706 4081 
Q 2463 4294 1997 4294 
L 1250 4294 
z
" transform="scale(0.015625)"/>
       <path id="MicrosoftYaHei-47" d="M 628 3216 
Q 1144 3538 1819 3538 
Q 3069 3538 3069 2225 
L 3069 0 
L 2463 0 
L 2463 534 
L 2447 534 
Q 2088 -81 1388 -81 
Q 884 -81 587 191 
Q 291 463 291 925 
Q 291 1894 1438 2053 
L 2463 2197 
Q 2463 3044 1763 3044 
Q 1141 3044 628 2625 
L 628 3216 
z
M 1653 1625 
Q 1228 1569 1067 1412 
Q 906 1256 906 975 
Q 906 728 1081 572 
Q 1256 416 1544 416 
Q 1944 416 2203 697 
Q 2463 978 2463 1403 
L 2463 1734 
L 1653 1625 
z
" transform="scale(0.015625)"/>
       <path id="MicrosoftYaHei-54" d="M 3469 0 
L 2859 0 
L 2859 1966 
Q 2859 3031 2081 3031 
Q 1678 3031 1418 2731 
Q 1159 2431 1159 1972 
L 1159 0 
L 547 0 
L 547 3456 
L 1159 3456 
L 1159 2884 
L 1172 2884 
Q 1563 3538 2306 3538 
Q 2875 3538 3172 3173 
Q 3469 2809 3469 2113 
L 3469 0 
z
" transform="scale(0.015625)"/>
       <path id="MicrosoftYaHei-51" d="M 3484 0 
L 2650 0 
L 1172 1666 
L 1159 1666 
L 1159 0 
L 547 0 
L 547 5116 
L 1159 5116 
L 1159 1872 
L 1172 1872 
L 2575 3456 
L 3363 3456 
L 1800 1794 
L 3484 0 
z
" transform="scale(0.015625)"/>
       <path id="MicrosoftYaHei-13" d="M 2328 1681 
L 488 1681 
L 488 2153 
L 2328 2153 
L 2328 1681 
z
" transform="scale(0.015625)"/>
       <path id="MicrosoftYaHei-368" d="M 1113 -1100 
L 575 -1100 
Q 1684 163 1684 1888 
Q 1684 3581 581 4838 
L 1113 4838 
Q 2222 3628 2222 1888 
Q 2222 128 1113 -1100 
z
" transform="scale(0.015625)"/>
      </defs>
      <use xlink:href="#MicrosoftYaHei-6a0"/>
      <use xlink:href="#MicrosoftYaHei-4f2" transform="translate(100 0)"/>
      <use xlink:href="#MicrosoftYaHei-b23" transform="translate(200 0)"/>
      <use xlink:href="#MicrosoftYaHei-986" transform="translate(300 0)"/>
      <use xlink:href="#MicrosoftYaHei-25b2" transform="translate(400 0)"/>
      <use xlink:href="#MicrosoftYaHei-564" transform="translate(500 0)"/>
      <use xlink:href="#MicrosoftYaHei-79e" transform="translate(600 0)"/>
      <use xlink:href="#MicrosoftYaHei-a8d" transform="translate(700 0)"/>
      <use xlink:href="#MicrosoftYaHei-62b" transform="translate(800 0)"/>
      <use xlink:href="#MicrosoftYaHei-367" transform="translate(900 0)"/>
      <use xlink:href="#MicrosoftYaHei-38" transform="translate(1000 0)"/>
      <use xlink:href="#MicrosoftYaHei-47" transform="translate(1065.28125 0)"/>
      <use xlink:href="#MicrosoftYaHei-54" transform="translate(1120.5625 0)"/>
      <use xlink:href="#MicrosoftYaHei-51" transform="translate(1182.1875 0)"/>
      <use xlink:href="#MicrosoftYaHei-13" transform="translate(1229.296875 0)"/>
      <use xlink:href="#MicrosoftYaHei-17" transform="translate(1272.5625 0)"/>
      <use xlink:href="#MicrosoftYaHei-368" transform="translate(1331.203125 0)"/>
     </g>
    </g>
    <g id="patch_21">
     <path d="M 485.565 54.054043 
L 503.565 54.054043 
L 503.565 47.754043 
L 485.565 47.754043 
z
" style="fill: #f58518"/>
    </g>
    <g id="text_29">
     <!-- 误识率≤5%时正确接受（TPIR） -->
     <g transform="translate(510.765 54.054043) scale(0.09 -0.09)">
      <defs>
       <path id="MicrosoftYaHei-aa8" d="M 1819 1484 
L 3706 1484 
Q 3750 1769 3756 2222 
L 2044 2222 
L 2044 2659 
L 6069 2659 
L 6069 2222 
L 4244 2222 
Q 4234 1753 4203 1484 
L 6288 1484 
L 6288 1047 
L 4356 1047 
Q 4913 -53 6363 -359 
Q 6138 -628 5981 -828 
Q 4538 -406 3984 850 
Q 3569 -272 1969 -847 
Q 1819 -653 1631 -441 
Q 3188 53 3588 1047 
L 1819 1047 
L 1819 1484 
z
M 2325 5034 
L 5750 5034 
L 5750 2991 
L 5275 2991 
L 5275 3272 
L 2800 3272 
L 2800 2991 
L 2325 2991 
L 2325 5034 
z
M 2044 784 
Q 2063 459 2088 247 
Q 1294 -272 925 -584 
L 631 -166 
Q 844 9 844 378 
L 844 2716 
L 100 2716 
L 100 3166 
L 1325 3166 
L 1325 284 
Q 1763 578 2044 784 
z
M 5275 4616 
L 2800 4616 
L 2800 3691 
L 5275 3691 
L 5275 4616 
z
M 831 5153 
Q 1281 4697 1725 4184 
L 1294 3822 
Q 881 4347 450 4822 
L 831 5153 
z
" transform="scale(0.015625)"/>
       <path id="MicrosoftYaHei-8e4" d="M 2525 2009 
Q 2622 2016 3928 2081 
Q 3772 2300 3625 2491 
L 3963 2703 
Q 4413 2203 4794 1653 
L 4394 1403 
Q 4284 1569 4178 1725 
Q 2991 1659 2213 1597 
Q 2075 1584 1881 1541 
L 1725 1966 
Q 1913 2028 2006 2084 
Q 2534 2441 3050 2913 
Q 2597 2894 2275 2866 
Q 2144 2847 1988 2809 
L 1800 3191 
Q 1956 3247 2088 3366 
Q 2509 3722 2875 4228 
L 231 4228 
L 231 4666 
L 3031 4666 
Q 2878 4944 2744 5153 
L 3194 5372 
Q 3438 5000 3616 4666 
L 6175 4666 
L 6175 4228 
L 3053 4228 
L 3350 4072 
Q 2844 3553 2494 3247 
Q 2850 3256 3425 3269 
Q 3675 3519 3925 3797 
L 4356 3547 
Q 3363 2603 2525 2009 
z
M 144 991 
L 2994 991 
L 2994 1541 
L 3488 1541 
L 3488 991 
L 6275 991 
L 6275 553 
L 3488 553 
L 3488 -853 
L 2994 -853 
L 2994 553 
L 144 553 
L 144 991 
z
M 1719 2672 
L 1944 2303 
Q 1200 1866 425 1409 
L 163 1828 
Q 813 2134 1719 2672 
z
M 4856 2678 
Q 5750 2172 6250 1816 
L 5975 1409 
Q 5331 1909 4600 2341 
L 4856 2678 
z
M 5994 3591 
Q 5519 3178 4963 2809 
L 4644 3141 
Q 5244 3534 5638 3928 
L 5994 3591 
z
M 363 3634 
L 681 3941 
Q 1200 3528 1588 3159 
L 1238 2816 
Q 875 3197 363 3634 
z
" transform="scale(0.015625)"/>
       <path id="MicrosoftYaHei-287" d="M 3844 853 
L 909 2306 
L 909 2547 
L 3844 4144 
L 3844 3606 
L 1663 2447 
L 1663 2434 
L 3844 1400 
L 3844 853 
z
M 3969 0 
L 784 0 
L 784 475 
L 3969 475 
L 3969 0 
z
" transform="scale(0.015625)"/>
       <path id="MicrosoftYaHei-833" d="M 88 66 
L 1106 66 
L 1106 3416 
L 1644 3416 
L 1644 66 
L 3231 66 
L 3231 4309 
L 375 4309 
L 375 4797 
L 6063 4797 
L 6063 4309 
L 3769 4309 
L 3769 2672 
L 5850 2672 
L 5850 2191 
L 3769 2191 
L 3769 66 
L 6313 66 
L 6313 -422 
L 88 -422 
L 88 66 
z
" transform="scale(0.015625)"/>
       <path id="MicrosoftYaHei-947" d="M 2075 3453 
Q 2956 4334 3456 5359 
L 3931 5272 
Q 3781 4991 3619 4722 
L 5438 4722 
L 5438 4328 
L 4909 3666 
L 6063 3666 
L 6063 -53 
Q 6063 -728 5475 -728 
Q 5144 -728 4906 -716 
Q 4869 -497 4813 -259 
Q 5156 -291 5331 -291 
Q 5619 -291 5619 16 
L 5619 734 
L 4588 734 
L 4588 -659 
L 4144 -659 
L 4144 734 
L 3113 734 
Q 2944 -263 2444 -884 
Q 2288 -703 2081 -509 
Q 2756 291 2756 1841 
L 2756 3506 
Q 2597 3316 2431 3134 
Q 2281 3278 2075 3453 
z
M 31 1691 
Q 741 2834 1066 4291 
L 231 4291 
L 231 4716 
L 2469 4716 
L 2469 4291 
L 1509 4291 
Q 1356 3613 1128 2991 
L 2200 2991 
L 2200 128 
L 1150 128 
L 1150 -347 
L 738 -347 
L 738 2059 
Q 559 1691 350 1347 
Q 225 1497 31 1691 
z
M 1788 541 
L 1788 2578 
L 1150 2578 
L 1150 541 
L 1788 541 
z
M 4875 4322 
L 3366 4322 
Q 3138 3981 2884 3666 
L 4384 3666 
L 4875 4322 
z
M 4588 1134 
L 5619 1134 
L 5619 1991 
L 4588 1991 
L 4588 1134 
z
M 5619 3241 
L 4588 3241 
L 4588 2391 
L 5619 2391 
L 5619 3241 
z
M 3166 1134 
L 4144 1134 
L 4144 1991 
L 3200 1991 
Q 3200 1841 3166 1134 
z
M 3200 2391 
L 4144 2391 
L 4144 3241 
L 3200 3241 
L 3200 2391 
z
" transform="scale(0.015625)"/>
       <path id="MicrosoftYaHei-74e" d="M 1800 -366 
Q 3019 -188 3784 222 
Q 3200 484 2531 772 
Q 2800 1119 3028 1466 
L 2000 1466 
L 2000 1884 
L 3291 1884 
Q 3491 2222 3656 2559 
L 4119 2366 
Q 3969 2116 3822 1884 
L 6225 1884 
L 6225 1466 
L 5403 1466 
Q 5156 778 4672 306 
Q 5469 -25 6219 -353 
L 5944 -816 
Q 5241 -444 4288 -3 
Q 3450 -572 2038 -841 
Q 1950 -634 1800 -366 
z
M 100 1966 
Q 544 2088 963 2213 
L 963 3641 
L 175 3641 
L 175 4091 
L 963 4091 
L 963 5259 
L 1425 5259 
L 1425 4091 
L 2144 4091 
L 2144 3641 
L 1425 3641 
L 1425 2356 
Q 1722 2450 2006 2547 
Q 2013 2266 2044 2059 
Q 1722 1956 1425 1856 
L 1425 -72 
Q 1425 -747 819 -753 
Q 588 -759 231 -747 
Q 206 -491 156 -228 
Q 531 -266 688 -266 
Q 963 -266 963 66 
L 963 1703 
Q 534 1559 163 1428 
L 100 1966 
z
M 2019 3072 
L 4453 3072 
Q 4850 3622 5156 4103 
L 5625 3847 
Q 5300 3456 4966 3072 
L 6269 3072 
L 6269 2653 
L 2019 2653 
L 2019 3072 
z
M 2263 4591 
L 4028 4591 
Q 3881 4875 3719 5153 
L 4138 5347 
Q 4338 5009 4519 4666 
L 4359 4591 
L 6119 4591 
L 6119 4172 
L 2263 4172 
L 2263 4591 
z
M 3181 909 
Q 3703 703 4203 497 
Q 4694 894 4900 1466 
L 3553 1466 
Q 3363 1175 3181 909 
z
M 2825 3853 
L 3188 4097 
Q 3481 3753 3756 3372 
L 3356 3103 
Q 3119 3491 2825 3853 
z
" transform="scale(0.015625)"/>
       <path id="MicrosoftYaHei-549" d="M 1075 1684 
L 1075 2116 
L 5025 2116 
L 5025 1672 
Q 4478 881 3616 275 
Q 4544 -150 6313 -309 
Q 6125 -566 5975 -847 
Q 4141 -591 3144 -13 
Q 2150 -534 400 -884 
Q 275 -666 106 -416 
Q 1741 -125 2688 297 
Q 1984 850 1506 1684 
L 1075 1684 
z
M 319 3241 
L 4138 3241 
Q 4453 3697 4894 4522 
L 5388 4241 
Q 4978 3644 4675 3241 
L 6075 3241 
L 6075 1959 
L 5569 1959 
L 5569 2803 
L 825 2803 
L 825 1959 
L 319 1959 
L 319 3241 
z
M 625 4484 
Q 588 4703 538 4947 
Q 3550 4978 5669 5134 
L 5744 4672 
Q 3256 4541 625 4484 
z
M 4456 1684 
L 2013 1684 
Q 2459 1009 3153 538 
Q 3941 1016 4456 1684 
z
M 2644 4272 
L 3050 4472 
Q 3356 4028 3588 3566 
L 3131 3347 
Q 2919 3822 2644 4272 
z
M 931 4159 
L 1319 4397 
Q 1656 3953 1906 3547 
L 1463 3291 
Q 1213 3741 931 4159 
z
" transform="scale(0.015625)"/>
       <path id="MicrosoftYaHei-3a" d="M 3550 4284 
L 2153 4284 
L 2153 0 
L 1525 0 
L 1525 4284 
L 134 4284 
L 134 4841 
L 3550 4841 
L 3550 4284 
z
" transform="scale(0.015625)"/>
       <path id="MicrosoftYaHei-36" d="M 1250 1809 
L 1250 0 
L 625 0 
L 625 4841 
L 2000 4841 
Q 2784 4841 3217 4462 
Q 3650 4084 3650 3381 
Q 3650 2669 3144 2226 
Q 2638 1784 1878 1809 
L 1250 1809 
z
M 1250 4291 
L 1250 2359 
L 1828 2359 
Q 2400 2359 2697 2617 
Q 2994 2875 2994 3356 
Q 2994 4291 1888 4291 
L 1250 4291 
z
" transform="scale(0.015625)"/>
       <path id="MicrosoftYaHei-2f" d="M 1250 4841 
L 1250 0 
L 625 0 
L 625 4841 
L 1250 4841 
z
" transform="scale(0.015625)"/>
      </defs>
      <use xlink:href="#MicrosoftYaHei-aa8"/>
      <use xlink:href="#MicrosoftYaHei-a9c" transform="translate(100 0)"/>
      <use xlink:href="#MicrosoftYaHei-8e4" transform="translate(200 0)"/>
      <use xlink:href="#MicrosoftYaHei-287" transform="translate(300 0)"/>
      <use xlink:href="#MicrosoftYaHei-1b" transform="translate(374.171875 0)"/>
      <use xlink:href="#MicrosoftYaHei-b" transform="translate(432.8125 0)"/>
      <use xlink:href="#MicrosoftYaHei-79e" transform="translate(521.78125 0)"/>
      <use xlink:href="#MicrosoftYaHei-833" transform="translate(621.78125 0)"/>
      <use xlink:href="#MicrosoftYaHei-947" transform="translate(721.78125 0)"/>
      <use xlink:href="#MicrosoftYaHei-74e" transform="translate(821.78125 0)"/>
      <use xlink:href="#MicrosoftYaHei-549" transform="translate(921.78125 0)"/>
      <use xlink:href="#MicrosoftYaHei-367" transform="translate(1021.78125 0)"/>
      <use xlink:href="#MicrosoftYaHei-3a" transform="translate(1121.78125 0)"/>
      <use xlink:href="#MicrosoftYaHei-36" transform="translate(1179.109375 0)"/>
      <use xlink:href="#MicrosoftYaHei-2f" transform="translate(1240.296875 0)"/>
      <use xlink:href="#MicrosoftYaHei-38" transform="translate(1269.6875 0)"/>
      <use xlink:href="#MicrosoftYaHei-368" transform="translate(1334.96875 0)"/>
     </g>
    </g>
   </g>
  </g>
 </g>
 <defs>
  <clipPath id="p42952ab698">
   <rect x="50.759785" y="24.099687" width="597.252402" height="289.26582"/>
  </clipPath>
 </defs>
</svg>
