<?xml version="1.0" encoding="utf-8" standalone="no"?>
<!DOCTYPE svg PUBLIC "-//W3C//DTD SVG 1.1//EN"
  "http://www.w3.org/Graphics/SVG/1.1/DTD/svg11.dtd">
<svg xmlns:xlink="http://www.w3.org/1999/xlink" width="510.485156pt" height="295.116875pt" viewBox="0 0 510.485156 295.116875" xmlns="http://www.w3.org/2000/svg" version="1.1">
 <metadata>
  <rdf:RDF xmlns:dc="http://purl.org/dc/elements/1.1/" xmlns:cc="http://creativecommons.org/ns#" xmlns:rdf="http://www.w3.org/1999/02/22-rdf-syntax-ns#">
   <cc:Work>
    <dc:type rdf:resource="http://purl.org/dc/dcmitype/StillImage"/>
    <dc:date>2026-07-14T15:13:45.126624</dc:date>
    <dc:format>image/svg+xml</dc:format>
    <dc:creator>
     <cc:Agent>
      <dc:title>Matplotlib v3.11.0, https://matplotlib.org/</dc:title>
     </cc:Agent>
    </dc:creator>
   </cc:Work>
  </rdf:RDF>
 </metadata>
 <defs>
  <style type="text/css">*{stroke-linejoin: round; stroke-linecap: butt}</style>
 </defs>
 <g id="figure_1">
  <g id="patch_1">
   <path d="M 0 295.116875 
L 510.485156 295.116875 
L 510.485156 0 
L 0 0 
z
" style="fill: #ffffff"/>
  </g>
  <g id="axes_1">
   <g id="patch_2">
    <path d="M 56.752754 270.057695 
L 503.285156 270.057695 
L 503.285156 24.111875 
L 56.752754 24.111875 
z
" style="fill: #ffffff"/>
   </g>
   <g id="patch_3">
    <path d="M 77.049681 270.057695 
L 168.307184 270.057695 
L 168.307184 261.623339 
L 77.049681 261.623339 
z
" clip-path="url(#pcd298122ae)" style="fill: #4c78a8"/>
   </g>
   <g id="patch_4">
    <path d="M 234.390204 270.057695 
L 325.647707 270.057695 
L 325.647707 42.330084 
L 234.390204 42.330084 
z
" clip-path="url(#pcd298122ae)" style="fill: #f58518"/>
   </g>
   <g id="patch_5">
    <path d="M 391.730726 270.057695 
L 482.988229 270.057695 
L 482.988229 76.067508 
L 391.730726 76.067508 
z
" clip-path="url(#pcd298122ae)" style="fill: #54a24b"/>
   </g>
   <g id="matplotlib.axis_1">
    <g id="xtick_1">
     <g id="line2d_1">
      <defs>
       <path id="m5f5dc5e7d6" d="M 0 0 
L 0 3.5 
" style="stroke: #000000; stroke-width: 0.8"/>
      </defs>
      <g>
       <use xlink:href="#m5f5dc5e7d6" x="122.678433" y="270.057695" style="stroke: #000000; stroke-width: 0.8"/>
      </g>
     </g>
     <g id="text_1">
      <!-- 人脸 -->
      <g transform="translate(112.678433 285.226445) scale(0.1 -0.1)">
       <defs>
        <path id="MicrosoftYaHei-44b" d="M 100 -303 
Q 2825 1272 2981 5222 
L 3531 5222 
Q 3497 4553 3400 3947 
Q 4175 822 6313 -166 
Q 6050 -453 5850 -709 
Q 3994 341 3203 3006 
Q 2519 431 494 -778 
Q 325 -547 100 -303 
z
" transform="scale(0.015625)"/>
        <path id="MicrosoftYaHei-a0e" d="M 4650 5228 
L 4544 5047 
Q 5231 3866 6363 3284 
Q 6256 3159 6069 2866 
Q 4969 3534 4275 4653 
Q 3731 3791 2525 2803 
Q 2344 3028 2206 3178 
L 2206 -122 
Q 2206 -747 1600 -747 
Q 1313 -747 1069 -734 
Q 1050 -534 994 -272 
Q 1300 -303 1475 -303 
Q 1756 -303 1756 -9 
L 1756 1409 
L 938 1409 
Q 888 -16 388 -872 
Q 225 -691 31 -547 
Q 494 222 494 1703 
L 494 4978 
L 2206 4978 
L 2206 3209 
Q 3506 4116 4056 5228 
L 4650 5228 
z
M 2425 -91 
L 4625 -91 
Q 5081 1072 5456 2272 
L 5925 2103 
Q 5556 1047 5106 -91 
L 6175 -91 
L 6175 -522 
L 2425 -522 
L 2425 -91 
z
M 2919 3022 
L 5581 3022 
L 5581 2591 
L 2919 2591 
L 2919 3022 
z
M 944 1822 
L 1756 1822 
L 1756 2991 
L 944 2991 
L 944 1822 
z
M 1756 4566 
L 944 4566 
L 944 3403 
L 1756 3403 
L 1756 4566 
z
M 2644 1972 
L 3069 2103 
Q 3381 1184 3600 422 
L 3144 272 
Q 2938 1141 2644 1972 
z
M 3806 2178 
L 4219 2272 
Q 4463 1422 4644 578 
L 4194 472 
Q 4044 1259 3806 2178 
z
" transform="scale(0.015625)"/>
       </defs>
       <use xlink:href="#MicrosoftYaHei-44b"/>
       <use xlink:href="#MicrosoftYaHei-a0e" transform="translate(100 0)"/>
      </g>
     </g>
    </g>
    <g id="xtick_2">
     <g id="line2d_2">
      <g>
       <use xlink:href="#m5f5dc5e7d6" x="280.018955" y="270.057695" style="stroke: #000000; stroke-width: 0.8"/>
      </g>
     </g>
     <g id="text_2">
      <!-- 人形 -->
      <g transform="translate(270.018955 285.265508) scale(0.1 -0.1)">
       <defs>
        <path id="MicrosoftYaHei-6a5" d="M 175 2647 
L 1019 2647 
L 1019 4422 
L 350 4422 
L 350 4872 
L 3775 4872 
L 3775 4422 
L 3006 4422 
L 3006 2647 
L 3975 2647 
L 3975 2197 
L 3006 2197 
L 3006 -791 
L 2525 -791 
L 2525 2197 
L 1497 2197 
Q 1500 128 406 -841 
Q 256 -622 75 -428 
Q 1025 366 1016 2197 
L 175 2197 
L 175 2647 
z
M 1500 2647 
L 2525 2647 
L 2525 4422 
L 1500 4422 
L 1500 2647 
z
M 6319 1353 
Q 5331 166 3738 -834 
Q 3631 -666 3388 -422 
Q 4925 397 5956 1672 
L 6319 1353 
z
M 6138 3172 
Q 5250 2159 4019 1347 
Q 3888 1528 3694 1722 
Q 4856 2441 5775 3484 
L 6138 3172 
z
M 6038 4934 
Q 5194 4009 3988 3266 
Q 3875 3428 3675 3666 
Q 4838 4322 5675 5253 
L 6038 4934 
z
" transform="scale(0.015625)"/>
       </defs>
       <use xlink:href="#MicrosoftYaHei-44b"/>
       <use xlink:href="#MicrosoftYaHei-6a5" transform="translate(100 0)"/>
      </g>
     </g>
    </g>
    <g id="xtick_3">
     <g id="line2d_3">
      <g>
       <use xlink:href="#m5f5dc5e7d6" x="437.359477" y="270.057695" style="stroke: #000000; stroke-width: 0.8"/>
      </g>
     </g>
     <g id="text_3">
      <!-- 步态 -->
      <g transform="translate(427.359477 285.382695) scale(0.1 -0.1)">
       <defs>
        <path id="MicrosoftYaHei-835" d="M 188 2997 
L 1250 2997 
L 1250 4759 
L 1750 4759 
L 1750 2997 
L 3088 2997 
L 3088 5328 
L 3588 5328 
L 3588 4416 
L 5744 4416 
L 5744 3966 
L 3588 3966 
L 3588 2997 
L 6225 2997 
L 6225 2534 
L 188 2534 
L 188 2997 
z
M 188 -441 
Q 3744 -9 5400 1872 
L 5794 1484 
Q 4013 -453 375 -891 
Q 306 -691 188 -441 
z
M 1794 2147 
L 2194 1803 
Q 1369 947 613 322 
Q 469 497 275 691 
Q 1044 1291 1794 2147 
z
M 3038 2378 
L 3538 2378 
L 3538 528 
L 3038 528 
L 3038 2378 
z
" transform="scale(0.015625)"/>
        <path id="MicrosoftYaHei-6c1" d="M 325 4434 
L 2888 4434 
Q 2972 4822 2969 5328 
L 3438 5328 
Q 3444 4841 3372 4434 
L 6075 4434 
L 6075 3991 
L 3528 3991 
Q 4419 2706 6231 2241 
Q 6050 2034 5881 1759 
Q 4041 2394 3172 3772 
Q 2975 3331 2588 2953 
Q 3078 2616 3538 2259 
L 3225 1891 
Q 2828 2244 2259 2675 
Q 1556 2138 388 1703 
Q 294 1922 113 2178 
Q 2250 2866 2750 3991 
L 325 3991 
L 325 4434 
z
M 1713 1547 
L 2200 1547 
L 2200 203 
Q 2200 -172 2575 -172 
L 3763 -172 
Q 4175 -172 4256 134 
Q 4331 428 4381 1028 
Q 4556 953 4863 847 
Q 4763 128 4706 -47 
Q 4563 -616 3869 -616 
L 2488 -616 
Q 1713 -616 1713 172 
L 1713 1547 
z
M 813 1447 
L 1281 1297 
Q 1038 522 663 -297 
Q 463 -203 194 -116 
Q 569 591 813 1447 
z
M 4894 1272 
L 5263 1553 
Q 5781 972 6306 309 
L 5888 -9 
Q 5425 641 4894 1272 
z
M 2594 1503 
L 2913 1809 
Q 3419 1403 3850 991 
L 3488 641 
Q 3094 1059 2594 1503 
z
" transform="scale(0.015625)"/>
       </defs>
       <use xlink:href="#MicrosoftYaHei-835"/>
       <use xlink:href="#MicrosoftYaHei-6c1" transform="translate(100 0)"/>
      </g>
     </g>
    </g>
   </g>
   <g id="matplotlib.axis_2">
    <g id="ytick_1">
     <g id="line2d_4">
      <path d="M 56.752754 270.057695 
L 503.285156 270.057695 
" clip-path="url(#pcd298122ae)" style="fill: none; stroke: #b0b0b0; stroke-opacity: 0.25; stroke-width: 0.8; stroke-linecap: square"/>
     </g>
     <g id="line2d_5">
      <defs>
       <path id="m58983d349a" d="M 0 0 
L -3.5 0 
" style="stroke: #000000; stroke-width: 0.8"/>
      </defs>
      <g>
       <use xlink:href="#m58983d349a" x="56.752754" y="270.057695" style="stroke: #000000; stroke-width: 0.8"/>
      </g>
     </g>
     <g id="text_4">
      <!-- 0% -->
      <g transform="translate(34.991816 274.117754) scale(0.1 -0.1)">
       <defs>
        <path id="MicrosoftYaHei-16" d="M 284 2325 
Q 284 3606 709 4264 
Q 1134 4922 1941 4922 
Q 3478 4922 3478 2441 
Q 3478 1216 3045 567 
Q 2613 -81 1831 -81 
Q 1094 -81 689 534 
Q 284 1150 284 2325 
z
M 909 2353 
Q 909 425 1888 425 
Q 2850 425 2850 2384 
Q 2850 4413 1906 4413 
Q 909 4413 909 2353 
z
" transform="scale(0.015625)"/>
        <path id="MicrosoftYaHei-b" d="M 272 3619 
Q 272 4213 589 4563 
Q 906 4913 1444 4913 
Q 1959 4913 2248 4591 
Q 2538 4269 2538 3694 
Q 2538 3122 2219 2765 
Q 1900 2409 1372 2409 
Q 872 2409 572 2740 
Q 272 3072 272 3619 
z
M 753 3650 
Q 753 3247 928 3028 
Q 1103 2809 1406 2809 
Q 1719 2809 1889 3036 
Q 2059 3263 2059 3675 
Q 2059 4078 1892 4298 
Q 1725 4519 1422 4519 
Q 1113 4519 933 4289 
Q 753 4059 753 3650 
z
M 4647 4841 
L 1538 -31 
L 1016 -31 
L 4125 4841 
L 4647 4841 
z
M 3172 1134 
Q 3172 1728 3489 2083 
Q 3806 2438 4341 2438 
Q 4853 2438 5143 2114 
Q 5434 1791 5434 1203 
Q 5434 634 5112 279 
Q 4791 -75 4272 -75 
Q 3769 -75 3470 261 
Q 3172 597 3172 1134 
z
M 3650 1163 
Q 3650 769 3825 548 
Q 4000 328 4303 328 
Q 4616 328 4786 556 
Q 4956 784 4956 1194 
Q 4956 1600 4786 1815 
Q 4616 2031 4319 2031 
Q 4000 2031 3825 1801 
Q 3650 1572 3650 1163 
z
" transform="scale(0.015625)"/>
       </defs>
       <use xlink:href="#MicrosoftYaHei-16"/>
       <use xlink:href="#MicrosoftYaHei-b" transform="translate(58.640625 0)"/>
      </g>
     </g>
    </g>
    <g id="ytick_2">
     <g id="line2d_6">
      <path d="M 56.752754 224.512173 
L 503.285156 224.512173 
" clip-path="url(#pcd298122ae)" style="fill: none; stroke: #b0b0b0; stroke-opacity: 0.25; stroke-width: 0.8; stroke-linecap: square"/>
     </g>
     <g id="line2d_7">
      <g>
       <use xlink:href="#m58983d349a" x="56.752754" y="224.512173" style="stroke: #000000; stroke-width: 0.8"/>
      </g>
     </g>
     <g id="text_5">
      <!-- 20% -->
      <g transform="translate(29.127754 228.572232) scale(0.1 -0.1)">
       <defs>
        <path id="MicrosoftYaHei-18" d="M 2666 3572 
Q 2666 3963 2419 4186 
Q 2172 4409 1747 4409 
Q 1447 4409 1140 4256 
Q 834 4103 569 3819 
L 569 4413 
Q 806 4659 1107 4790 
Q 1409 4922 1816 4922 
Q 2472 4922 2872 4570 
Q 3272 4219 3272 3619 
Q 3272 3084 3026 2693 
Q 2781 2303 2188 1894 
Q 1581 1475 1376 1294 
Q 1172 1113 1090 947 
Q 1009 781 1009 544 
L 3416 544 
L 3416 0 
L 372 0 
L 372 241 
Q 372 659 486 951 
Q 600 1244 862 1520 
Q 1125 1797 1681 2184 
Q 2250 2584 2458 2886 
Q 2666 3188 2666 3572 
z
" transform="scale(0.015625)"/>
       </defs>
       <use xlink:href="#MicrosoftYaHei-18"/>
       <use xlink:href="#MicrosoftYaHei-16" transform="translate(58.640625 0)"/>
       <use xlink:href="#MicrosoftYaHei-b" transform="translate(117.28125 0)"/>
      </g>
     </g>
    </g>
    <g id="ytick_3">
     <g id="line2d_8">
      <path d="M 56.752754 178.966651 
L 503.285156 178.966651 
" clip-path="url(#pcd298122ae)" style="fill: none; stroke: #b0b0b0; stroke-opacity: 0.25; stroke-width: 0.8; stroke-linecap: square"/>
     </g>
     <g id="line2d_9">
      <g>
       <use xlink:href="#m58983d349a" x="56.752754" y="178.966651" style="stroke: #000000; stroke-width: 0.8"/>
      </g>
     </g>
     <g id="text_6">
      <!-- 40% -->
      <g transform="translate(29.127754 183.026709) scale(0.1 -0.1)">
       <defs>
        <path id="MicrosoftYaHei-1a" d="M 2906 4841 
L 2906 1644 
L 3631 1644 
L 3631 1138 
L 2906 1138 
L 2906 0 
L 2313 0 
L 2313 1138 
L 53 1138 
L 53 1616 
Q 656 2294 1265 3178 
Q 1875 4063 2272 4841 
L 2906 4841 
z
M 741 1644 
L 2313 1644 
L 2313 3950 
Q 1988 3366 1616 2817 
Q 1244 2269 741 1644 
z
" transform="scale(0.015625)"/>
       </defs>
       <use xlink:href="#MicrosoftYaHei-1a"/>
       <use xlink:href="#MicrosoftYaHei-16" transform="translate(58.640625 0)"/>
       <use xlink:href="#MicrosoftYaHei-b" transform="translate(117.28125 0)"/>
      </g>
     </g>
    </g>
    <g id="ytick_4">
     <g id="line2d_10">
      <path d="M 56.752754 133.421128 
L 503.285156 133.421128 
" clip-path="url(#pcd298122ae)" style="fill: none; stroke: #b0b0b0; stroke-opacity: 0.25; stroke-width: 0.8; stroke-linecap: square"/>
     </g>
     <g id="line2d_11">
      <g>
       <use xlink:href="#m58983d349a" x="56.752754" y="133.421128" style="stroke: #000000; stroke-width: 0.8"/>
      </g>
     </g>
     <g id="text_7">
      <!-- 60% -->
      <g transform="translate(29.127754 137.481187) scale(0.1 -0.1)">
       <defs>
        <path id="MicrosoftYaHei-1c" d="M 3181 4219 
Q 2803 4413 2391 4413 
Q 1763 4413 1381 3866 
Q 1000 3319 994 2372 
L 1009 2372 
Q 1353 3038 2106 3038 
Q 2734 3038 3109 2628 
Q 3484 2219 3484 1541 
Q 3484 831 3051 375 
Q 2619 -81 1947 -81 
Q 1209 -81 789 495 
Q 369 1072 369 2131 
Q 369 3413 920 4167 
Q 1472 4922 2372 4922 
Q 2888 4922 3181 4781 
L 3181 4219 
z
M 1031 1584 
Q 1031 1106 1286 765 
Q 1541 425 1963 425 
Q 2363 425 2613 719 
Q 2863 1013 2863 1475 
Q 2863 1975 2627 2253 
Q 2391 2531 1956 2531 
Q 1544 2531 1287 2250 
Q 1031 1969 1031 1584 
z
" transform="scale(0.015625)"/>
       </defs>
       <use xlink:href="#MicrosoftYaHei-1c"/>
       <use xlink:href="#MicrosoftYaHei-16" transform="translate(58.640625 0)"/>
       <use xlink:href="#MicrosoftYaHei-b" transform="translate(117.28125 0)"/>
      </g>
     </g>
    </g>
    <g id="ytick_5">
     <g id="line2d_12">
      <path d="M 56.752754 87.875606 
L 503.285156 87.875606 
" clip-path="url(#pcd298122ae)" style="fill: none; stroke: #b0b0b0; stroke-opacity: 0.25; stroke-width: 0.8; stroke-linecap: square"/>
     </g>
     <g id="line2d_13">
      <g>
       <use xlink:href="#m58983d349a" x="56.752754" y="87.875606" style="stroke: #000000; stroke-width: 0.8"/>
      </g>
     </g>
     <g id="text_8">
      <!-- 80% -->
      <g transform="translate(29.127754 91.935665) scale(0.1 -0.1)">
       <defs>
        <path id="MicrosoftYaHei-1e" d="M 306 1350 
Q 306 1769 556 2122 
Q 806 2475 1200 2625 
Q 884 2803 700 3081 
Q 516 3359 516 3684 
Q 516 4028 692 4312 
Q 869 4597 1183 4759 
Q 1497 4922 1875 4922 
Q 2256 4922 2572 4761 
Q 2888 4600 3063 4315 
Q 3238 4031 3238 3684 
Q 3238 3366 3058 3086 
Q 2878 2806 2559 2625 
Q 2953 2472 3200 2119 
Q 3447 1766 3447 1350 
Q 3447 938 3250 611 
Q 3053 284 2690 103 
Q 2328 -78 1875 -78 
Q 1425 -78 1065 103 
Q 706 284 506 612 
Q 306 941 306 1350 
z
M 906 1378 
Q 906 947 1172 687 
Q 1438 428 1878 428 
Q 2309 428 2582 692 
Q 2856 956 2856 1378 
Q 2856 1778 2579 2051 
Q 2303 2325 1878 2325 
Q 1456 2325 1181 2058 
Q 906 1791 906 1378 
z
M 1081 3634 
Q 1081 3309 1312 3076 
Q 1544 2844 1878 2844 
Q 2206 2844 2445 3078 
Q 2684 3313 2684 3634 
Q 2684 3963 2454 4191 
Q 2225 4419 1878 4419 
Q 1534 4419 1307 4195 
Q 1081 3972 1081 3634 
z
" transform="scale(0.015625)"/>
       </defs>
       <use xlink:href="#MicrosoftYaHei-1e"/>
       <use xlink:href="#MicrosoftYaHei-16" transform="translate(58.640625 0)"/>
       <use xlink:href="#MicrosoftYaHei-b" transform="translate(117.28125 0)"/>
      </g>
     </g>
    </g>
    <g id="ytick_6">
     <g id="line2d_14">
      <path d="M 56.752754 42.330084 
L 503.285156 42.330084 
" clip-path="url(#pcd298122ae)" style="fill: none; stroke: #b0b0b0; stroke-opacity: 0.25; stroke-width: 0.8; stroke-linecap: square"/>
     </g>
     <g id="line2d_15">
      <g>
       <use xlink:href="#m58983d349a" x="56.752754" y="42.330084" style="stroke: #000000; stroke-width: 0.8"/>
      </g>
     </g>
     <g id="text_9">
      <!-- 100% -->
      <g transform="translate(23.263691 46.390143) scale(0.1 -0.1)">
       <defs>
        <path id="MicrosoftYaHei-17" d="M 1781 0 
L 1781 4141 
Q 1638 3997 1295 3819 
Q 953 3641 663 3569 
L 663 4169 
Q 1047 4275 1484 4508 
Q 1922 4741 2156 4947 
L 2388 4947 
L 2388 0 
L 1781 0 
z
" transform="scale(0.015625)"/>
       </defs>
       <use xlink:href="#MicrosoftYaHei-17"/>
       <use xlink:href="#MicrosoftYaHei-16" transform="translate(58.640625 0)"/>
       <use xlink:href="#MicrosoftYaHei-16" transform="translate(117.28125 0)"/>
       <use xlink:href="#MicrosoftYaHei-b" transform="translate(175.921875 0)"/>
      </g>
     </g>
    </g>
    <g id="text_10">
     <!-- 成功建立参考特征的身份比例 -->
     <g transform="translate(16.476094 218.584785) rotate(-90) scale(0.11 -0.11)">
      <defs>
       <path id="MicrosoftYaHei-6e8" d="M 2750 -347 
Q 3472 138 4038 781 
Q 3675 1703 3609 3759 
L 1250 3759 
L 1250 2809 
L 3050 2809 
Q 3013 1616 2950 803 
Q 2875 -59 2113 -59 
Q 1856 -59 1431 -34 
Q 1394 197 1331 484 
Q 1769 422 2063 422 
Q 2425 422 2469 922 
Q 2519 1497 2544 2347 
L 1247 2347 
Q 1197 175 369 -866 
Q 213 -653 44 -434 
Q 750 503 750 2528 
L 750 4222 
L 3591 4222 
Q 3569 4716 3550 5291 
L 4069 5291 
Q 4066 4850 4084 4222 
L 6238 4222 
L 6238 3759 
L 4100 3759 
Q 4163 2078 4409 1247 
Q 5016 2069 5406 3109 
L 5900 2903 
Q 5363 1631 4609 691 
Q 5069 -244 5506 -244 
Q 5666 -244 5750 47 
Q 5838 503 5888 984 
Q 6156 878 6363 809 
Q 6269 141 6156 -284 
Q 6038 -741 5631 -778 
Q 5250 -803 4900 -522 
Q 4522 -231 4256 278 
Q 3728 -291 3106 -722 
Q 2944 -534 2750 -347 
z
M 4544 4984 
L 4806 5309 
Q 5331 5009 5788 4684 
L 5488 4309 
Q 5038 4666 4544 4984 
z
" transform="scale(0.015625)"/>
       <path id="MicrosoftYaHei-505" d="M 2500 3978 
L 3475 3978 
Q 3488 4538 3494 5278 
L 4000 5278 
Q 3991 4531 3975 3978 
L 5969 3978 
Q 5913 1791 5844 291 
Q 5775 -691 4956 -709 
Q 4413 -716 3756 -684 
Q 3713 -397 3656 -122 
Q 4306 -197 4844 -191 
Q 5313 -178 5344 378 
Q 5425 1847 5450 3497 
L 3963 3497 
Q 3950 3003 3931 2734 
Q 3813 266 1938 -847 
Q 1800 -653 1575 -422 
Q 3325 553 3431 2772 
Q 3450 3063 3463 3497 
L 2500 3497 
L 2500 3978 
z
M 81 822 
Q 619 941 1119 1056 
L 1119 4134 
L 169 4134 
L 169 4622 
L 2675 4622 
L 2675 4134 
L 1625 4134 
L 1625 1178 
Q 2166 1313 2656 1447 
Q 2669 1122 2700 947 
Q 1594 672 225 291 
L 81 822 
z
" transform="scale(0.015625)"/>
       <path id="MicrosoftYaHei-68f" d="M 2075 1009 
L 3675 1009 
L 3675 1553 
L 2288 1553 
L 2288 1928 
L 3675 1928 
L 3675 2472 
L 2375 2472 
L 2375 2847 
L 3675 2847 
L 3675 3391 
L 2050 3391 
L 2050 3778 
L 3675 3778 
L 3675 4322 
L 2375 4322 
L 2375 4697 
L 3675 4697 
L 3675 5309 
L 4138 5309 
L 4138 4697 
L 5588 4697 
L 5588 3778 
L 6244 3778 
L 6244 3391 
L 5588 3391 
L 5588 2303 
L 5138 2303 
L 5138 2472 
L 4138 2472 
L 4138 1928 
L 5713 1928 
L 5713 1553 
L 4138 1553 
L 4138 1009 
L 6000 1009 
L 6000 634 
L 4138 634 
L 4138 -9 
L 3675 -9 
L 3675 634 
L 2075 634 
L 2075 1009 
z
M 600 2066 
Q 788 1303 1125 813 
Q 1459 1500 1544 2397 
L 294 2397 
L 294 2853 
L 1444 4272 
L 169 4272 
L 169 4697 
L 2019 4697 
L 2019 4272 
L 844 2822 
L 2013 2822 
L 2013 2453 
Q 1897 1294 1447 444 
Q 2128 -147 3563 -153 
Q 4750 -178 6319 -122 
Q 6213 -378 6113 -616 
Q 4681 -609 3344 -603 
Q 1950 -603 1206 47 
Q 853 -466 350 -847 
Q 250 -666 94 -441 
Q 563 -84 881 391 
Q 463 922 188 1909 
L 600 2066 
z
M 4138 2847 
L 5138 2847 
L 5138 3391 
L 4138 3391 
L 4138 2847 
z
M 5138 4322 
L 4138 4322 
L 4138 3778 
L 5138 3778 
L 5138 4322 
z
" transform="scale(0.015625)"/>
       <path id="MicrosoftYaHei-979" d="M 181 34 
L 3428 34 
Q 4153 1444 4788 3391 
L 5356 3184 
Q 4713 1428 4038 34 
L 6225 34 
L 6225 -447 
L 181 -447 
L 181 34 
z
M 338 4134 
L 6075 4134 
L 6075 3653 
L 338 3653 
L 338 4134 
z
M 1081 3122 
L 1575 3322 
Q 2150 2003 2669 647 
L 2113 416 
Q 1606 1897 1081 3122 
z
M 2525 5141 
L 2981 5397 
Q 3281 4978 3606 4447 
L 3113 4159 
Q 2863 4628 2525 5141 
z
" transform="scale(0.015625)"/>
       <path id="MicrosoftYaHei-540" d="M 256 3159 
L 2234 3159 
Q 2428 3391 2600 3641 
Q 2031 3609 1469 3578 
Q 1288 3566 988 3522 
L 825 4003 
Q 1144 4091 1400 4291 
Q 1944 4697 2606 5372 
L 3100 5109 
Q 2394 4497 1738 4034 
Q 2906 4066 4397 4122 
Q 4072 4388 3744 4628 
L 4050 4947 
Q 5006 4278 5606 3772 
L 5256 3397 
Q 5053 3575 4853 3747 
Q 3778 3700 2719 3647 
L 3069 3497 
Q 2944 3322 2813 3159 
L 6144 3159 
L 6144 2741 
L 4353 2741 
Q 5128 1941 6325 1578 
Q 6119 1297 6000 1109 
Q 4644 1697 3828 2741 
L 2453 2741 
Q 1550 1750 363 1116 
Q 231 1328 56 1509 
Q 1091 2009 1841 2741 
L 256 2741 
L 256 3159 
z
M 4969 1016 
L 5313 697 
Q 3525 -509 1019 -891 
Q 906 -666 781 -478 
Q 3331 -59 4969 1016 
z
M 4231 1703 
L 4525 1353 
Q 2813 391 1119 47 
Q 988 341 913 466 
Q 2694 828 4231 1703 
z
M 3556 2453 
L 3863 2128 
Q 2694 1397 1388 1009 
Q 1288 1216 1150 1422 
Q 2344 1734 3556 2453 
z
" transform="scale(0.015625)"/>
       <path id="MicrosoftYaHei-9f0" d="M 225 3334 
L 2413 3334 
L 2413 4128 
L 738 4128 
L 738 4553 
L 2413 4553 
L 2413 5303 
L 2900 5303 
L 2900 4553 
L 4213 4553 
L 4213 4128 
L 2900 4128 
L 2900 3334 
L 3534 3334 
Q 4500 4041 5325 4884 
L 5706 4559 
Q 5000 3900 4278 3334 
L 6200 3334 
L 6200 2903 
L 3709 2903 
Q 3350 2641 2991 2403 
L 5769 2403 
L 5769 1978 
L 2859 1978 
L 2594 1428 
L 5100 1428 
Q 4975 366 4919 128 
Q 4775 -678 3931 -678 
Q 3300 -678 2563 -653 
Q 2519 -384 2431 -109 
Q 3181 -172 3838 -172 
Q 4325 -172 4431 253 
Q 4488 484 4556 1003 
L 2100 1003 
L 2100 1428 
L 2378 1978 
L 2316 1978 
Q 1353 1403 369 984 
Q 231 1222 69 1434 
Q 1606 2053 2906 2903 
L 225 2903 
L 225 3334 
z
" transform="scale(0.015625)"/>
       <path id="MicrosoftYaHei-8d4" d="M 81 1609 
Q 666 1806 1238 2003 
L 1238 3472 
L 744 3472 
Q 616 2878 431 2384 
Q 238 2522 19 2659 
Q 369 3484 475 4716 
L 925 4641 
Q 884 4250 822 3891 
L 1238 3891 
L 1238 5291 
L 1706 5291 
L 1706 3891 
L 2488 3891 
L 2488 3472 
L 1706 3472 
L 1706 2166 
Q 2059 2291 2406 2416 
Q 2438 2141 2475 1941 
Q 2113 1813 1706 1663 
L 1706 -828 
L 1238 -828 
L 1238 1488 
Q 734 1297 175 1078 
L 81 1609 
z
M 2263 3103 
L 3981 3103 
L 3981 4028 
L 2525 4028 
L 2525 4453 
L 3981 4453 
L 3981 5322 
L 4469 5322 
L 4469 4453 
L 5988 4453 
L 5988 4028 
L 4469 4028 
L 4469 3103 
L 6275 3103 
L 6275 2678 
L 2263 2678 
L 2263 3103 
z
M 2394 1834 
L 4906 1834 
L 4906 2497 
L 5394 2497 
L 5394 1834 
L 6306 1834 
L 6306 1409 
L 5394 1409 
L 5394 34 
Q 5394 -747 4606 -753 
Q 4325 -759 3756 -747 
Q 3719 -503 3663 -209 
Q 4156 -259 4513 -259 
Q 4906 -259 4906 178 
L 4906 1409 
L 2394 1409 
L 2394 1834 
z
M 2744 978 
L 3106 1266 
Q 3556 772 3881 366 
L 3481 59 
Q 3125 541 2744 978 
z
" transform="scale(0.015625)"/>
       <path id="MicrosoftYaHei-6ab" d="M 2013 -59 
L 2656 -59 
L 2656 3141 
L 3144 3141 
L 3144 -59 
L 4231 -59 
L 4231 4453 
L 2438 4453 
L 2438 4922 
L 6175 4922 
L 6175 4453 
L 4719 4453 
L 4719 2559 
L 6050 2559 
L 6050 2097 
L 4719 2097 
L 4719 -59 
L 6269 -59 
L 6269 -522 
L 2013 -522 
L 2013 -59 
z
M 94 1578 
Q 1069 2372 1856 3809 
L 2294 3541 
Q 1975 2991 1619 2506 
L 1619 -816 
L 1100 -816 
L 1100 1863 
Q 725 1434 313 1072 
Q 213 1334 94 1578 
z
M 231 3766 
Q 1225 4503 1656 5222 
L 2106 4947 
Q 1456 4053 481 3284 
Q 369 3522 231 3766 
z
" transform="scale(0.015625)"/>
       <path id="MicrosoftYaHei-919" d="M 356 4284 
L 988 4284 
Q 1219 4853 1369 5322 
L 1894 5172 
Q 1697 4694 1513 4284 
L 2763 4284 
L 2763 -691 
L 2263 -691 
L 2263 -203 
L 856 -203 
L 856 -734 
L 356 -734 
L 356 4284 
z
M 2856 3003 
Q 3444 3934 3850 5322 
L 4375 5191 
Q 4216 4719 4050 4303 
L 6063 4303 
Q 5988 1091 5938 259 
Q 5894 -722 4906 -722 
Q 4338 -722 3750 -684 
Q 3713 -372 3650 -128 
L 3669 -128 
Q 4294 -216 4813 -216 
Q 5381 -216 5425 384 
Q 5494 1316 5525 3834 
L 3850 3834 
Q 3578 3231 3288 2772 
Q 3119 2891 2856 3003 
z
M 856 266 
L 2263 266 
L 2263 1847 
L 856 1847 
L 856 266 
z
M 2263 3816 
L 856 3816 
L 856 2297 
L 2263 2297 
L 2263 3816 
z
M 3406 2578 
L 3788 2859 
Q 4481 2041 4894 1441 
L 4431 1116 
Q 3988 1841 3406 2578 
z
" transform="scale(0.015625)"/>
       <path id="MicrosoftYaHei-aef" d="M 150 1666 
L 1013 1666 
L 1013 4653 
L 2441 4653 
Q 2588 5022 2681 5341 
L 3206 5209 
Q 3088 4941 2953 4653 
L 5219 4653 
L 5219 1997 
Q 5628 2303 6006 2641 
L 6319 2297 
Q 5791 1844 5219 1441 
L 5219 191 
Q 5219 -753 4394 -759 
Q 3881 -772 3356 -747 
Q 3319 -528 3256 -228 
Q 3713 -272 4238 -272 
Q 4725 -272 4725 241 
L 4725 1109 
Q 2819 -116 419 -828 
Q 300 -584 138 -353 
Q 2347 216 4094 1247 
L 150 1247 
L 150 1666 
z
M 1506 1666 
L 4725 1666 
L 4725 2259 
L 1506 2259 
L 1506 1666 
z
M 4725 4234 
L 1506 4234 
L 1506 3647 
L 4725 3647 
L 4725 4234 
z
M 1506 2659 
L 4725 2659 
L 4725 3247 
L 1506 3247 
L 1506 2659 
z
" transform="scale(0.015625)"/>
       <path id="MicrosoftYaHei-461" d="M 2269 2653 
L 5394 2653 
Q 5388 2566 5300 366 
Q 5275 -709 4319 -722 
Q 3806 -722 3425 -703 
Q 3394 -416 3331 -184 
Q 3763 -241 4200 -253 
Q 4806 -297 4813 422 
Q 4863 1259 4888 2216 
L 3481 2216 
Q 3463 1222 3181 572 
Q 2844 -172 2019 -822 
Q 1856 -622 1656 -416 
Q 2450 203 2713 772 
Q 2969 1275 2997 2216 
L 2269 2216 
L 2269 2653 
z
M 75 2353 
Q 969 3534 1525 5284 
L 2013 5116 
Q 1709 4284 1350 3559 
L 1350 -809 
L 875 -809 
L 875 2691 
Q 588 2216 275 1797 
Q 181 2066 75 2353 
z
M 4006 5116 
L 4419 5291 
Q 5038 3703 6325 2972 
Q 6088 2697 5969 2516 
Q 4575 3472 4006 5116 
z
M 1588 2741 
Q 2563 3597 3163 5034 
L 3606 4866 
Q 3025 3409 1963 2397 
Q 1738 2628 1588 2741 
z
" transform="scale(0.015625)"/>
       <path id="MicrosoftYaHei-841" d="M 3225 5316 
L 3744 5316 
L 3744 2672 
Q 4959 3550 5744 4509 
L 6188 4178 
Q 5175 3063 3744 2056 
L 3744 247 
Q 3744 -166 4106 -166 
L 5175 -166 
Q 5588 -166 5650 203 
Q 5725 678 5763 1247 
Q 6025 1147 6300 1066 
Q 6244 484 6150 22 
Q 6019 -622 5319 -622 
L 3944 -622 
Q 3225 -622 3225 159 
L 3225 5316 
z
M 1063 5153 
L 1063 3278 
L 2825 3278 
L 2825 2809 
L 1063 2809 
L 1063 153 
Q 1713 428 2763 928 
Q 2763 634 2788 366 
Q 1869 -3 1231 -328 
Q 956 -472 725 -672 
L 344 -184 
Q 544 -34 544 272 
L 544 5153 
L 1063 5153 
z
" transform="scale(0.015625)"/>
       <path id="MicrosoftYaHei-486" d="M 2381 1841 
L 2631 2191 
Q 2916 1997 3247 1738 
Q 3488 2378 3581 3128 
L 2703 3128 
Q 2350 1984 1831 1291 
Q 1700 1491 1531 1678 
Q 2238 2694 2578 4522 
L 1900 4522 
L 1900 4959 
L 4319 4959 
L 4319 4522 
L 3044 4522 
Q 2947 4009 2828 3559 
L 4044 3559 
L 4044 3128 
Q 3788 666 2038 -822 
Q 1900 -634 1694 -416 
Q 2578 297 3063 1303 
Q 2753 1556 2381 1841 
z
M 88 2291 
Q 894 3659 1281 5322 
L 1744 5234 
Q 1578 4534 1325 3853 
L 1325 -809 
L 900 -809 
L 900 2847 
Q 625 2275 288 1716 
Q 213 1966 88 2291 
z
M 5575 5303 
L 6031 5303 
L 6031 84 
Q 6031 -391 5881 -566 
Q 5750 -728 5356 -734 
Q 5088 -741 4488 -722 
Q 4463 -466 4400 -203 
Q 4881 -253 5188 -253 
Q 5431 -259 5500 -166 
Q 5575 -84 5575 234 
L 5575 5303 
z
M 4913 653 
L 4469 653 
L 4469 4322 
L 4913 4322 
L 4913 653 
z
" transform="scale(0.015625)"/>
      </defs>
      <use xlink:href="#MicrosoftYaHei-6e8"/>
      <use xlink:href="#MicrosoftYaHei-505" transform="translate(100 0)"/>
      <use xlink:href="#MicrosoftYaHei-68f" transform="translate(200 0)"/>
      <use xlink:href="#MicrosoftYaHei-979" transform="translate(300 0)"/>
      <use xlink:href="#MicrosoftYaHei-540" transform="translate(400 0)"/>
      <use xlink:href="#MicrosoftYaHei-9f0" transform="translate(500 0)"/>
      <use xlink:href="#MicrosoftYaHei-8d4" transform="translate(600 0)"/>
      <use xlink:href="#MicrosoftYaHei-6ab" transform="translate(700 0)"/>
      <use xlink:href="#MicrosoftYaHei-919" transform="translate(800 0)"/>
      <use xlink:href="#MicrosoftYaHei-aef" transform="translate(900 0)"/>
      <use xlink:href="#MicrosoftYaHei-461" transform="translate(1000 0)"/>
      <use xlink:href="#MicrosoftYaHei-841" transform="translate(1100 0)"/>
      <use xlink:href="#MicrosoftYaHei-486" transform="translate(1200 0)"/>
     </g>
    </g>
   </g>
   <g id="patch_6">
    <path d="M 56.752754 270.057695 
L 56.752754 24.111875 
" style="fill: none; stroke: #000000; stroke-width: 0.8; stroke-linejoin: miter; stroke-linecap: square"/>
   </g>
   <g id="patch_7">
    <path d="M 503.285156 270.057695 
L 503.285156 24.111875 
" style="fill: none; stroke: #000000; stroke-width: 0.8; stroke-linejoin: miter; stroke-linecap: square"/>
   </g>
   <g id="patch_8">
    <path d="M 56.752754 270.057695 
L 503.285156 270.057695 
" style="fill: none; stroke: #000000; stroke-width: 0.8; stroke-linejoin: miter; stroke-linecap: square"/>
   </g>
   <g id="patch_9">
    <path d="M 56.752754 24.111875 
L 503.285156 24.111875 
" style="fill: none; stroke: #000000; stroke-width: 0.8; stroke-linejoin: miter; stroke-linecap: square"/>
   </g>
   <g id="text_11">
    <!-- 3.7% -->
    <g transform="translate(112.313667 255.926663) scale(0.09 -0.09)">
     <defs>
      <path id="MicrosoftYaHei-19" d="M 447 809 
Q 944 425 1569 425 
Q 2069 425 2361 670 
Q 2653 916 2653 1328 
Q 2653 2247 1338 2247 
L 934 2247 
L 934 2753 
L 1319 2753 
Q 2484 2753 2484 3616 
Q 2484 4413 1594 4413 
Q 1084 4413 634 4069 
L 634 4647 
Q 1109 4922 1744 4922 
Q 2363 4922 2738 4598 
Q 3113 4275 3113 3759 
Q 3113 2809 2144 2538 
L 2144 2525 
Q 2669 2469 2973 2155 
Q 3278 1841 3278 1372 
Q 3278 719 2808 319 
Q 2338 -81 1556 -81 
Q 869 -81 447 175 
L 447 809 
z
" transform="scale(0.015625)"/>
      <path id="MicrosoftYaHei-14" d="M 372 322 
Q 372 491 487 606 
Q 603 722 775 722 
Q 950 722 1065 605 
Q 1181 488 1181 322 
Q 1181 159 1065 42 
Q 950 -75 772 -75 
Q 600 -75 486 42 
Q 372 159 372 322 
z
" transform="scale(0.015625)"/>
      <path id="MicrosoftYaHei-1d" d="M 3422 4463 
Q 2659 3131 2223 1998 
Q 1788 866 1684 0 
L 1047 0 
Q 1163 853 1594 1947 
Q 2025 3041 2747 4300 
L 347 4300 
L 347 4841 
L 3422 4841 
L 3422 4463 
z
" transform="scale(0.015625)"/>
     </defs>
     <use xlink:href="#MicrosoftYaHei-19"/>
     <use xlink:href="#MicrosoftYaHei-14" transform="translate(58.640625 0)"/>
     <use xlink:href="#MicrosoftYaHei-1d" transform="translate(82.71875 0)"/>
     <use xlink:href="#MicrosoftYaHei-b" transform="translate(141.359375 0)"/>
    </g>
   </g>
   <g id="text_12">
    <!-- 100.0% -->
    <g transform="translate(264.376533 36.633408) scale(0.09 -0.09)">
     <use xlink:href="#MicrosoftYaHei-17"/>
     <use xlink:href="#MicrosoftYaHei-16" transform="translate(58.640625 0)"/>
     <use xlink:href="#MicrosoftYaHei-16" transform="translate(117.28125 0)"/>
     <use xlink:href="#MicrosoftYaHei-14" transform="translate(175.921875 0)"/>
     <use xlink:href="#MicrosoftYaHei-16" transform="translate(200 0)"/>
     <use xlink:href="#MicrosoftYaHei-b" transform="translate(258.640625 0)"/>
    </g>
   </g>
   <g id="text_13">
    <!-- 85.2% -->
    <g transform="translate(424.355884 70.370832) scale(0.09 -0.09)">
     <defs>
      <path id="MicrosoftYaHei-1b" d="M 3294 1494 
Q 3294 784 2823 350 
Q 2353 -84 1559 -84 
Q 878 -84 544 119 
L 544 744 
Q 1034 425 1544 425 
Q 2050 425 2361 704 
Q 2672 984 2672 1447 
Q 2672 1909 2348 2167 
Q 2025 2425 1434 2425 
Q 978 2425 613 2384 
L 791 4841 
L 3053 4841 
L 3053 4303 
L 1306 4303 
L 1206 2931 
L 1647 2950 
Q 2416 2950 2855 2567 
Q 3294 2184 3294 1494 
z
" transform="scale(0.015625)"/>
     </defs>
     <use xlink:href="#MicrosoftYaHei-1e"/>
     <use xlink:href="#MicrosoftYaHei-1b" transform="translate(58.640625 0)"/>
     <use xlink:href="#MicrosoftYaHei-14" transform="translate(117.28125 0)"/>
     <use xlink:href="#MicrosoftYaHei-18" transform="translate(141.359375 0)"/>
     <use xlink:href="#MicrosoftYaHei-b" transform="translate(200 0)"/>
    </g>
   </g>
   <g id="text_14">
    <!-- 1/27 -->
    <g style="fill: #ffffff" transform="translate(111.06437 265.840517) scale(0.1 -0.1)">
     <defs>
      <path id="MicrosoftYaHei-Bold-17" d="M 2716 4947 
L 2716 0 
L 1700 0 
L 1700 3809 
Q 1513 3647 1188 3517 
Q 863 3388 591 3356 
L 591 4222 
Q 1447 4472 2072 4947 
L 2716 4947 
z
" transform="scale(0.015625)"/>
      <path id="MicrosoftYaHei-Bold-15" d="M 3100 4841 
L 747 -803 
L -156 -803 
L 2188 4841 
L 3100 4841 
z
" transform="scale(0.015625)"/>
      <path id="MicrosoftYaHei-Bold-18" d="M 1500 841 
L 3553 841 
L 3553 0 
L 334 0 
L 334 359 
Q 334 738 473 1050 
Q 613 1363 856 1633 
Q 1100 1903 1613 2266 
Q 2081 2616 2268 2886 
Q 2456 3156 2456 3459 
Q 2456 4113 1744 4113 
Q 1119 4113 550 3613 
L 550 4513 
Q 1184 4922 1975 4922 
Q 2700 4922 3122 4551 
Q 3544 4181 3544 3531 
Q 3544 3169 3422 2876 
Q 3300 2584 3069 2328 
Q 2838 2072 2328 1713 
Q 1838 1363 1669 1172 
Q 1500 981 1500 841 
z
" transform="scale(0.015625)"/>
      <path id="MicrosoftYaHei-Bold-1d" d="M 3675 4225 
Q 3088 3172 2798 2528 
Q 2509 1884 2328 1275 
Q 2147 666 2050 0 
L 966 0 
Q 1122 947 1517 1917 
Q 1913 2888 2609 4009 
L 300 4009 
L 300 4841 
L 3675 4841 
L 3675 4225 
z
" transform="scale(0.015625)"/>
     </defs>
     <use xlink:href="#MicrosoftYaHei-Bold-17"/>
     <use xlink:href="#MicrosoftYaHei-Bold-15" transform="translate(61.671875 0)"/>
     <use xlink:href="#MicrosoftYaHei-Bold-18" transform="translate(108.9375 0)"/>
     <use xlink:href="#MicrosoftYaHei-Bold-1d" transform="translate(170.609375 0)"/>
    </g>
   </g>
   <g id="text_15">
    <!-- 27/27 -->
    <g style="fill: #ffffff" transform="translate(265.321299 156.19389) scale(0.1 -0.1)">
     <use xlink:href="#MicrosoftYaHei-Bold-18"/>
     <use xlink:href="#MicrosoftYaHei-Bold-1d" transform="translate(61.671875 0)"/>
     <use xlink:href="#MicrosoftYaHei-Bold-15" transform="translate(123.34375 0)"/>
     <use xlink:href="#MicrosoftYaHei-Bold-18" transform="translate(170.609375 0)"/>
     <use xlink:href="#MicrosoftYaHei-Bold-1d" transform="translate(232.28125 0)"/>
    </g>
   </g>
   <g id="text_16">
    <!-- 23/27 -->
    <g style="fill: #ffffff" transform="translate(422.661821 173.062602) scale(0.1 -0.1)">
     <defs>
      <path id="MicrosoftYaHei-Bold-19" d="M 494 1053 
Q 978 691 1625 691 
Q 2034 691 2275 872 
Q 2516 1053 2516 1388 
Q 2516 1731 2230 1912 
Q 1944 2094 1428 2094 
L 997 2094 
L 997 2872 
L 1394 2872 
Q 2369 2872 2369 3528 
Q 2369 4147 1622 4147 
Q 1134 4147 675 3828 
L 675 4663 
Q 1175 4922 1853 4922 
Q 2541 4922 2969 4605 
Q 3397 4288 3397 3725 
Q 3397 2775 2434 2531 
L 2434 2516 
Q 2941 2459 3244 2145 
Q 3547 1831 3547 1381 
Q 3547 691 3042 303 
Q 2538 -84 1697 -84 
Q 950 -84 494 163 
L 494 1053 
z
" transform="scale(0.015625)"/>
     </defs>
     <use xlink:href="#MicrosoftYaHei-Bold-18"/>
     <use xlink:href="#MicrosoftYaHei-Bold-19" transform="translate(61.671875 0)"/>
     <use xlink:href="#MicrosoftYaHei-Bold-15" transform="translate(123.34375 0)"/>
     <use xlink:href="#MicrosoftYaHei-Bold-18" transform="translate(170.609375 0)"/>
     <use xlink:href="#MicrosoftYaHei-Bold-1d" transform="translate(232.28125 0)"/>
    </g>
   </g>
   <g id="text_17">
    <!-- 协议A：严格质量门控后的建档覆盖率 -->
    <g transform="translate(171.445596 18.111875) scale(0.13 -0.13)">
     <defs>
      <path id="MicrosoftYaHei-523" d="M 2206 4022 
L 3291 4022 
Q 3313 4659 3313 5278 
L 3800 5278 
Q 3794 4697 3772 4022 
L 5294 4022 
Q 5231 1716 5150 172 
Q 5113 -691 4281 -691 
Q 4075 -691 3594 -678 
Q 3550 -391 3488 -134 
Q 3894 -191 4200 -191 
Q 4650 -197 4675 291 
Q 4750 1784 4794 3534 
L 3756 3534 
Q 3722 2138 3538 1322 
Q 3219 84 2225 -778 
Q 2069 -603 1863 -409 
Q 2756 378 3056 1453 
Q 3250 2184 3278 3534 
L 2206 3534 
L 2206 4022 
z
M 94 3484 
L 775 3484 
L 775 5272 
L 1256 5272 
L 1256 3484 
L 1863 3484 
L 1863 3028 
L 1256 3028 
L 1256 -803 
L 775 -803 
L 775 3028 
L 94 3028 
L 94 3484 
z
M 2394 2916 
L 2813 2759 
Q 2500 1934 2088 997 
Q 1894 1103 1669 1191 
Q 2075 1978 2394 2916 
z
M 5331 2791 
L 5750 2922 
Q 6063 2047 6319 1278 
L 5863 1122 
Q 5600 2053 5331 2791 
z
" transform="scale(0.015625)"/>
      <path id="MicrosoftYaHei-a91" d="M 5813 4841 
Q 5447 2288 4309 909 
Q 5119 156 6288 -272 
Q 6056 -547 5888 -791 
Q 4719 -234 3941 516 
Q 3100 -300 1969 -847 
Q 1831 -647 1613 -372 
Q 2772 131 3575 909 
Q 2384 2338 2119 4841 
L 2606 4916 
Q 2809 2638 3938 1300 
Q 5041 2647 5313 4928 
L 5813 4841 
z
M 2181 1222 
Q 2200 953 2250 678 
Q 1819 359 1313 -47 
Q 1156 -178 1025 -341 
L 663 47 
Q 856 253 856 653 
L 856 2772 
L 94 2772 
L 94 3234 
L 1331 3234 
L 1331 553 
Q 1763 884 2181 1222 
z
M 3250 5103 
L 3650 5316 
Q 4050 4703 4425 4016 
L 3981 3759 
Q 3569 4584 3250 5103 
z
M 788 5172 
Q 1238 4722 1700 4191 
L 1281 3834 
Q 813 4434 425 4866 
L 788 5172 
z
" transform="scale(0.015625)"/>
      <path id="MicrosoftYaHei-27" d="M 4428 0 
L 3738 0 
L 3244 1325 
L 1228 1325 
L 763 0 
L 72 0 
L 1916 4841 
L 2584 4841 
L 4428 0 
z
M 3050 1872 
L 2319 3884 
Q 2284 3981 2244 4222 
L 2228 4222 
Q 2194 4003 2150 3884 
L 1425 1872 
L 3050 1872 
z
" transform="scale(0.015625)"/>
      <path id="MicrosoftYaHei-379" d="M 1606 3531 
Q 1772 3531 1890 3415 
Q 2009 3300 2009 3138 
Q 2009 2975 1893 2858 
Q 1778 2741 1606 2741 
Q 1434 2741 1318 2858 
Q 1203 2975 1203 3138 
Q 1203 3300 1322 3415 
Q 1441 3531 1606 3531 
z
M 1606 716 
Q 1772 716 1890 600 
Q 2009 484 2009 319 
Q 2009 150 1890 36 
Q 1772 -78 1606 -78 
Q 1441 -78 1322 36 
Q 1203 150 1203 319 
Q 1203 484 1322 600 
Q 1441 716 1606 716 
z
" transform="scale(0.015625)"/>
      <path id="MicrosoftYaHei-415" d="M 1219 2022 
Q 1219 216 431 -822 
Q 269 -609 75 -391 
Q 700 472 700 1934 
L 700 2797 
L 2288 2797 
L 2288 4522 
L 238 4522 
L 238 4984 
L 6225 4984 
L 6225 4522 
L 4238 4522 
L 4238 2797 
L 6213 2797 
L 6213 2334 
L 1219 2334 
L 1219 2022 
z
M 2800 2797 
L 3725 2797 
L 3725 4522 
L 2800 4522 
L 2800 2797 
z
M 4581 3316 
Q 5050 3828 5419 4334 
L 5844 4022 
Q 5269 3328 4944 3016 
L 4581 3316 
z
M 731 4084 
L 1106 4347 
Q 1581 3828 1875 3384 
L 1450 3072 
Q 1119 3591 731 4084 
z
" transform="scale(0.015625)"/>
      <path id="MicrosoftYaHei-800" d="M 2250 3278 
Q 3063 4309 3438 5341 
L 3906 5184 
Q 3788 4903 3644 4628 
L 5906 4628 
L 5906 4184 
Q 5481 3447 4731 2809 
Q 5450 2409 6313 2247 
Q 6169 1947 6106 1703 
Q 5163 1991 4313 2503 
Q 3481 1972 2306 1528 
Q 2206 1759 2094 1966 
Q 3088 2284 3919 2816 
Q 3450 3253 3163 3791 
Q 2888 3366 2563 2947 
Q 2444 3084 2250 3278 
z
M 2713 1559 
L 5800 1559 
L 5800 -872 
L 5319 -872 
L 5319 -559 
L 3194 -559 
L 3194 -872 
L 2713 -872 
L 2713 1559 
z
M 88 1378 
Q 756 2422 1025 3641 
L 131 3641 
L 131 4078 
L 1031 4078 
L 1031 5297 
L 1500 5297 
L 1500 4078 
L 2300 4078 
L 2300 3641 
L 1500 3641 
L 1500 2953 
L 1675 3122 
Q 2013 2797 2419 2384 
L 2094 2078 
Q 1763 2466 1500 2747 
L 1500 -866 
L 1031 -866 
L 1031 2453 
Q 713 1422 288 828 
Q 206 1097 88 1378 
z
M 5319 1109 
L 3194 1109 
L 3194 -109 
L 5319 -109 
L 5319 1109 
z
M 5338 4203 
L 3413 4203 
Q 3775 3491 4300 3078 
Q 4938 3566 5338 4203 
z
" transform="scale(0.015625)"/>
      <path id="MicrosoftYaHei-ac5" d="M 1838 2628 
L 3500 2628 
L 3500 3353 
L 1450 3353 
L 1450 3791 
L 3500 3791 
L 3500 4472 
L 4000 4472 
L 4000 3791 
L 6125 3791 
L 6125 3353 
L 4000 3353 
L 4000 2628 
L 5681 2628 
L 5681 428 
L 5194 428 
L 5194 2191 
L 2325 2191 
L 2325 428 
L 1838 428 
L 1838 2628 
z
M 713 4934 
Q 3744 4947 5988 5197 
L 6163 4709 
Q 3813 4541 1213 4497 
L 1213 2578 
Q 1213 178 406 -872 
Q 219 -653 31 -466 
Q 713 372 713 2534 
L 713 4934 
z
M 4000 1866 
Q 4013 1053 3919 691 
Q 5063 191 6263 -403 
L 5994 -866 
Q 4794 -203 3763 272 
Q 3275 -559 1344 -884 
Q 1238 -684 1075 -428 
Q 3019 -128 3350 534 
Q 3525 822 3513 1866 
L 4000 1866 
z
" transform="scale(0.015625)"/>
      <path id="MicrosoftYaHei-b4f" d="M 113 -278 
L 2981 -278 
L 2981 78 
L 475 78 
L 475 403 
L 2981 403 
L 2981 759 
L 1494 759 
L 1494 597 
L 1069 597 
L 1069 2516 
L 5350 2516 
L 5350 597 
L 4925 597 
L 4925 759 
L 3419 759 
L 3419 403 
L 5931 403 
L 5931 78 
L 3419 78 
L 3419 -278 
L 6288 -278 
L 6288 -616 
L 113 -616 
L 113 -278 
z
M 1119 5072 
L 5306 5072 
L 5306 3284 
L 4881 3284 
L 4881 3453 
L 1544 3453 
L 1544 3284 
L 1119 3284 
L 1119 5072 
z
M 163 3153 
L 6263 3153 
L 6263 2816 
L 163 2816 
L 163 3153 
z
M 1544 3778 
L 4881 3778 
L 4881 4116 
L 1544 4116 
L 1544 3778 
z
M 4881 4747 
L 1544 4747 
L 1544 4416 
L 4881 4416 
L 4881 4747 
z
M 3419 1084 
L 4925 1084 
L 4925 1491 
L 3419 1491 
L 3419 1084 
z
M 1494 1084 
L 2981 1084 
L 2981 1491 
L 1494 1491 
L 1494 1084 
z
M 4925 2191 
L 3419 2191 
L 3419 1791 
L 4925 1791 
L 4925 2191 
z
M 1494 1791 
L 2981 1791 
L 2981 2191 
L 1494 2191 
L 1494 1791 
z
" transform="scale(0.015625)"/>
      <path id="MicrosoftYaHei-b79" d="M 2463 4403 
L 2463 4878 
L 5850 4878 
L 5850 166 
Q 5850 -728 4994 -728 
Q 4606 -728 4000 -716 
Q 3969 -503 3900 -197 
Q 4475 -234 4894 -234 
Q 5350 -234 5350 241 
L 5350 4403 
L 2463 4403 
z
M 575 4053 
L 1075 4053 
L 1075 -797 
L 575 -797 
L 575 4053 
z
M 856 5028 
L 1213 5347 
Q 1631 4953 2094 4472 
L 1688 4116 
Q 1256 4609 856 5028 
z
" transform="scale(0.015625)"/>
      <path id="MicrosoftYaHei-74f" d="M 88 1978 
Q 550 2091 975 2200 
L 975 3647 
L 119 3647 
L 119 4097 
L 975 4097 
L 975 5309 
L 1463 5309 
L 1463 4097 
L 2100 4097 
L 2100 3647 
L 1463 3647 
L 1463 2328 
Q 1788 2416 2088 2503 
Q 2100 2216 2131 2016 
Q 1784 1919 1463 1825 
L 1463 -103 
Q 1463 -766 869 -766 
Q 663 -766 225 -753 
Q 200 -497 144 -234 
Q 513 -278 694 -278 
Q 975 -278 975 16 
L 975 1684 
Q 534 1556 150 1441 
L 88 1978 
z
M 2425 1884 
L 5975 1884 
L 5975 1447 
L 4438 1447 
L 4438 -109 
L 6275 -109 
L 6275 -572 
L 2013 -572 
L 2013 -109 
L 3950 -109 
L 3950 1447 
L 2425 1447 
L 2425 1884 
z
M 2331 4372 
L 4125 4372 
Q 3894 4738 3613 5103 
L 4013 5359 
Q 4363 4928 4606 4578 
L 4297 4372 
L 6100 4372 
L 6100 3247 
L 5613 3247 
L 5613 3916 
L 2819 3916 
L 2819 3247 
L 2331 3247 
L 2331 4372 
z
M 4506 3166 
L 4838 3491 
Q 5669 2884 6244 2372 
L 5894 1978 
Q 5325 2541 4506 3166 
z
M 3919 3159 
Q 3188 2503 2531 1984 
L 2188 2359 
Q 2950 2909 3563 3503 
L 3919 3159 
z
" transform="scale(0.015625)"/>
      <path id="MicrosoftYaHei-565" d="M 1888 1984 
L 5688 1984 
L 5688 -828 
L 5188 -828 
L 5188 -403 
L 2388 -403 
L 2388 -828 
L 1888 -828 
L 1888 1984 
z
M 1313 2991 
Q 1313 1272 1138 672 
Q 963 -16 394 -847 
Q 250 -634 50 -409 
Q 494 222 650 859 
Q 806 1472 806 2659 
L 806 4766 
Q 3544 4853 5631 5141 
L 5931 4622 
Q 3344 4359 1313 4284 
L 1313 3459 
L 6263 3459 
L 6263 2991 
L 1313 2991 
z
M 5188 1528 
L 2388 1528 
L 2388 41 
L 5188 41 
L 5188 1528 
z
" transform="scale(0.015625)"/>
      <path id="MicrosoftYaHei-808" d="M 2225 -34 
L 5575 -34 
L 5575 1066 
L 2494 1066 
L 2494 1497 
L 5575 1497 
L 5575 2547 
L 2388 2547 
L 2388 2991 
L 3981 2991 
L 3981 5259 
L 4456 5259 
L 4456 2991 
L 6050 2991 
L 6050 -828 
L 5575 -828 
L 5575 -478 
L 2225 -478 
L 2225 -34 
z
M 25 1303 
Q 681 2272 1025 3572 
L 88 3572 
L 88 3997 
L 1038 3997 
L 1038 5253 
L 1506 5253 
L 1506 3997 
L 2381 3997 
L 2381 3572 
L 1506 3572 
L 1506 2628 
L 1706 2822 
Q 2225 2303 2606 1897 
L 2231 1559 
Q 1894 1978 1506 2397 
L 1506 -809 
L 1038 -809 
L 1038 2397 
Q 700 1416 244 759 
Q 144 1022 25 1303 
z
M 4950 3603 
Q 5381 4197 5794 4953 
L 6250 4684 
Q 5775 3916 5344 3316 
L 4950 3603 
z
M 2263 4697 
L 2650 4941 
Q 3119 4297 3556 3622 
L 3113 3334 
Q 2713 4034 2263 4697 
z
" transform="scale(0.015625)"/>
      <path id="MicrosoftYaHei-a7e" d="M 1706 191 
Q 2394 572 2869 1028 
L 2363 1028 
L 2363 2247 
Q 2231 2097 2094 1953 
Q 1975 2122 1825 2259 
Q 2319 2703 2619 3272 
L 3050 3272 
Q 2988 3153 2925 3041 
L 5950 3041 
L 5950 2753 
L 2744 2753 
Q 2644 2603 2525 2453 
L 5638 2453 
L 5638 922 
L 5238 922 
L 5238 1028 
L 3344 1028 
Q 3194 866 3038 722 
L 5588 722 
L 5588 447 
Q 5094 72 4538 -184 
Q 5288 -341 6306 -372 
Q 6269 -447 6106 -766 
Q 4856 -684 3981 -403 
Q 3094 -709 1981 -866 
Q 1906 -684 1750 -484 
Q 2706 -384 3450 -184 
Q 3000 47 2650 378 
Q 2325 122 1981 -78 
Q 1963 -59 1706 191 
z
M 631 4353 
L 2225 4353 
L 2225 4722 
L 300 4722 
L 300 5059 
L 6113 5059 
L 6113 4722 
L 4181 4722 
L 4181 4353 
L 5775 4353 
L 5775 3234 
L 5363 3234 
L 5363 3347 
L 1044 3347 
L 1044 3234 
L 631 3234 
L 631 4353 
z
M 1563 2084 
L 1925 1884 
Q 1656 1497 1375 1166 
L 1375 -834 
L 975 -834 
L 975 734 
Q 713 478 444 266 
Q 281 453 150 566 
Q 944 1166 1563 2084 
z
M 2763 1309 
L 5238 1309 
L 5238 1609 
L 2763 1609 
L 2763 1309 
z
M 5238 2172 
L 2763 2172 
L 2763 1872 
L 5238 1872 
L 5238 2172 
z
M 1388 3191 
L 1744 2991 
Q 1156 2209 475 1641 
Q 344 1778 156 1941 
Q 844 2428 1388 3191 
z
M 5363 4059 
L 4181 4059 
L 4181 3641 
L 5363 3641 
L 5363 4059 
z
M 2613 3641 
L 3794 3641 
L 3794 4059 
L 2613 4059 
L 2613 3641 
z
M 1044 3641 
L 2225 3641 
L 2225 4059 
L 1044 4059 
L 1044 3641 
z
M 4981 447 
L 3088 447 
Q 3481 147 3969 -22 
Q 4506 159 4981 447 
z
M 2613 4353 
L 3794 4353 
L 3794 4722 
L 2613 4722 
L 2613 4353 
z
" transform="scale(0.015625)"/>
      <path id="MicrosoftYaHei-924" d="M 138 -172 
L 800 -172 
L 800 1578 
L 5569 1578 
L 5569 -172 
L 6269 -172 
L 6269 -609 
L 138 -609 
L 138 -172 
z
M 250 2534 
L 2956 2534 
L 2956 3103 
L 600 3103 
L 600 3509 
L 2956 3509 
L 2956 4072 
L 325 4072 
L 325 4491 
L 2081 4491 
Q 1866 4794 1631 5091 
L 2013 5359 
Q 2319 5016 2556 4722 
L 2228 4491 
L 3725 4491 
Q 4053 4931 4306 5353 
L 4794 5053 
Q 4556 4775 4306 4491 
L 6075 4491 
L 6075 4072 
L 3425 4072 
L 3425 3509 
L 5800 3509 
L 5800 3103 
L 3425 3103 
L 3425 2534 
L 6150 2534 
L 6150 2116 
L 250 2116 
L 250 2534 
z
M 5100 1172 
L 4119 1172 
L 4119 -172 
L 5100 -172 
L 5100 1172 
z
M 1269 -172 
L 2238 -172 
L 2238 1172 
L 1269 1172 
L 1269 -172 
z
M 2694 -172 
L 3663 -172 
L 3663 1172 
L 2694 1172 
L 2694 -172 
z
" transform="scale(0.015625)"/>
      <path id="MicrosoftYaHei-8e4" d="M 2525 2009 
Q 2622 2016 3928 2081 
Q 3772 2300 3625 2491 
L 3963 2703 
Q 4413 2203 4794 1653 
L 4394 1403 
Q 4284 1569 4178 1725 
Q 2991 1659 2213 1597 
Q 2075 1584 1881 1541 
L 1725 1966 
Q 1913 2028 2006 2084 
Q 2534 2441 3050 2913 
Q 2597 2894 2275 2866 
Q 2144 2847 1988 2809 
L 1800 3191 
Q 1956 3247 2088 3366 
Q 2509 3722 2875 4228 
L 231 4228 
L 231 4666 
L 3031 4666 
Q 2878 4944 2744 5153 
L 3194 5372 
Q 3438 5000 3616 4666 
L 6175 4666 
L 6175 4228 
L 3053 4228 
L 3350 4072 
Q 2844 3553 2494 3247 
Q 2850 3256 3425 3269 
Q 3675 3519 3925 3797 
L 4356 3547 
Q 3363 2603 2525 2009 
z
M 144 991 
L 2994 991 
L 2994 1541 
L 3488 1541 
L 3488 991 
L 6275 991 
L 6275 553 
L 3488 553 
L 3488 -853 
L 2994 -853 
L 2994 553 
L 144 553 
L 144 991 
z
M 1719 2672 
L 1944 2303 
Q 1200 1866 425 1409 
L 163 1828 
Q 813 2134 1719 2672 
z
M 4856 2678 
Q 5750 2172 6250 1816 
L 5975 1409 
Q 5331 1909 4600 2341 
L 4856 2678 
z
M 5994 3591 
Q 5519 3178 4963 2809 
L 4644 3141 
Q 5244 3534 5638 3928 
L 5994 3591 
z
M 363 3634 
L 681 3941 
Q 1200 3528 1588 3159 
L 1238 2816 
Q 875 3197 363 3634 
z
" transform="scale(0.015625)"/>
     </defs>
     <use xlink:href="#MicrosoftYaHei-523"/>
     <use xlink:href="#MicrosoftYaHei-a91" transform="translate(100 0)"/>
     <use xlink:href="#MicrosoftYaHei-27" transform="translate(200 0)"/>
     <use xlink:href="#MicrosoftYaHei-379" transform="translate(270.359375 0)"/>
     <use xlink:href="#MicrosoftYaHei-415" transform="translate(370.359375 0)"/>
     <use xlink:href="#MicrosoftYaHei-800" transform="translate(470.359375 0)"/>
     <use xlink:href="#MicrosoftYaHei-ac5" transform="translate(570.359375 0)"/>
     <use xlink:href="#MicrosoftYaHei-b4f" transform="translate(670.359375 0)"/>
     <use xlink:href="#MicrosoftYaHei-b79" transform="translate(770.359375 0)"/>
     <use xlink:href="#MicrosoftYaHei-74f" transform="translate(870.359375 0)"/>
     <use xlink:href="#MicrosoftYaHei-565" transform="translate(970.359375 0)"/>
     <use xlink:href="#MicrosoftYaHei-919" transform="translate(1070.359375 0)"/>
     <use xlink:href="#MicrosoftYaHei-68f" transform="translate(1170.359375 0)"/>
     <use xlink:href="#MicrosoftYaHei-808" transform="translate(1270.359375 0)"/>
     <use xlink:href="#MicrosoftYaHei-a7e" transform="translate(1370.359375 0)"/>
     <use xlink:href="#MicrosoftYaHei-924" transform="translate(1470.359375 0)"/>
     <use xlink:href="#MicrosoftYaHei-8e4" transform="translate(1570.359375 0)"/>
    </g>
   </g>
  </g>
 </g>
 <defs>
  <clipPath id="pcd298122ae">
   <rect x="56.752754" y="24.111875" width="446.532402" height="245.94582"/>
  </clipPath>
 </defs>
</svg>
