<?xml version="1.0" encoding="utf-8" standalone="no"?>
<!DOCTYPE svg PUBLIC "-//W3C//DTD SVG 1.1//EN"
  "http://www.w3.org/Graphics/SVG/1.1/DTD/svg11.dtd">
<svg xmlns:xlink="http://www.w3.org/1999/xlink" width="626.610469pt" height="316.4525pt" viewBox="0 0 626.610469 316.4525" xmlns="http://www.w3.org/2000/svg" version="1.1">
 <metadata>
  <rdf:RDF xmlns:dc="http://purl.org/dc/elements/1.1/" xmlns:cc="http://creativecommons.org/ns#" xmlns:rdf="http://www.w3.org/1999/02/22-rdf-syntax-ns#">
   <cc:Work>
    <dc:type rdf:resource="http://purl.org/dc/dcmitype/StillImage"/>
    <dc:date>2026-07-14T15:13:47.525664</dc:date>
    <dc:format>image/svg+xml</dc:format>
    <dc:creator>
     <cc:Agent>
      <dc:title>Matplotlib v3.11.0, https://matplotlib.org/</dc:title>
     </cc:Agent>
    </dc:creator>
   </cc:Work>
  </rdf:RDF>
 </metadata>
 <defs>
  <style type="text/css">*{stroke-linejoin: round; stroke-linecap: butt}</style>
 </defs>
 <g id="figure_1">
  <g id="patch_1">
   <path d="M 0 316.4525 
L 626.610469 316.4525 
L 626.610469 0 
L 0 0 
z
" style="fill: #ffffff"/>
  </g>
  <g id="axes_1">
   <g id="patch_2">
    <path d="M 44.238066 291.285508 
L 619.410469 291.285508 
L 619.410469 24.099688 
L 44.238066 24.099688 
z
" style="fill: #ffffff"/>
   </g>
   <g id="patch_3">
    <path d="M 70.382267 291.285508 
L 157.5296 291.285508 
L 157.5296 77.536852 
L 70.382267 77.536852 
z
" clip-path="url(#p361d24909e)" style="fill: #9d9d9d"/>
   </g>
   <g id="patch_4">
    <path d="M 179.316434 291.285508 
L 266.463767 291.285508 
L 266.463767 77.536852 
L 179.316434 77.536852 
z
" clip-path="url(#p361d24909e)" style="fill: #72b7b2"/>
   </g>
   <g id="patch_5">
    <path d="M 288.250601 291.285508 
L 375.397934 291.285508 
L 375.397934 148.786404 
L 288.250601 148.786404 
z
" clip-path="url(#p361d24909e)" style="fill: #f2cf5b"/>
   </g>
   <g id="patch_6">
    <path d="M 397.184768 291.285508 
L 484.332102 291.285508 
L 484.332102 291.285508 
L 397.184768 291.285508 
z
" clip-path="url(#p361d24909e)" style="fill: #54a24b"/>
   </g>
   <g id="patch_7">
    <path d="M 506.118935 291.285508 
L 593.266269 291.285508 
L 593.266269 291.285508 
L 506.118935 291.285508 
z
" clip-path="url(#p361d24909e)" style="fill: #e45756"/>
   </g>
   <g id="matplotlib.axis_1">
    <g id="xtick_1">
     <g id="line2d_1">
      <defs>
       <path id="mc8e6c48ea2" d="M 0 0 
L 0 3.5 
" style="stroke: #000000; stroke-width: 0.8"/>
      </defs>
      <g>
       <use xlink:href="#mc8e6c48ea2" x="113.955933" y="291.285508" style="stroke: #000000; stroke-width: 0.8"/>
      </g>
     </g>
     <g id="text_1">
      <!-- 独立尝试帧 -->
      <g transform="translate(88.955933 306.71832) scale(0.1 -0.1)">
       <defs>
        <path id="MicrosoftYaHei-8de" d="M 5050 1034 
L 5463 1216 
Q 5975 266 6319 -522 
L 5844 -734 
Q 5716 -425 5591 -131 
Q 4169 -278 2206 -503 
L 2113 -3 
Q 3103 72 3938 144 
L 3938 1666 
L 2956 1666 
L 2956 1397 
L 2500 1397 
L 2500 4116 
L 3938 4116 
L 3938 5284 
L 4406 5284 
L 4406 4116 
L 5844 4116 
L 5844 1666 
L 4406 1666 
L 4406 184 
Q 4944 231 5409 275 
Q 5231 669 5050 1034 
z
M 100 1291 
Q 888 1878 1394 2641 
Q 1325 3128 1163 3478 
Q 800 3125 431 2853 
Q 325 3003 119 3197 
Q 553 3509 953 3903 
Q 669 4403 213 4859 
L 563 5116 
Q 997 4700 1284 4250 
Q 1613 4622 1919 5053 
L 2306 4803 
Q 1916 4272 1513 3838 
Q 1988 2866 1963 809 
Q 1950 -622 994 -622 
Q 694 -622 306 -597 
Q 281 -334 225 -59 
Q 619 -134 931 -134 
Q 1506 -134 1513 872 
Q 1525 1497 1475 2044 
Q 1028 1438 425 941 
Q 313 1091 100 1291 
z
M 5388 2103 
L 5388 3678 
L 4406 3678 
L 4406 2103 
L 5388 2103 
z
M 2956 2103 
L 3938 2103 
L 3938 3678 
L 2956 3678 
L 2956 2103 
z
" transform="scale(0.015625)"/>
        <path id="MicrosoftYaHei-979" d="M 181 34 
L 3428 34 
Q 4153 1444 4788 3391 
L 5356 3184 
Q 4713 1428 4038 34 
L 6225 34 
L 6225 -447 
L 181 -447 
L 181 34 
z
M 338 4134 
L 6075 4134 
L 6075 3653 
L 338 3653 
L 338 4134 
z
M 1081 3122 
L 1575 3322 
Q 2150 2003 2669 647 
L 2113 416 
Q 1606 1897 1081 3122 
z
M 2525 5141 
L 2981 5397 
Q 3281 4978 3606 4447 
L 3113 4159 
Q 2863 4628 2525 5141 
z
" transform="scale(0.015625)"/>
        <path id="MicrosoftYaHei-63a" d="M 4256 928 
Q 5063 209 5725 -516 
L 5306 -853 
Q 5109 -622 4881 -369 
Q 3059 -431 1488 -553 
Q 1238 -578 956 -653 
L 700 -159 
Q 1075 -34 1306 153 
Q 1725 541 2175 1134 
L 163 1134 
L 163 1591 
L 6238 1591 
L 6238 1134 
L 2853 1134 
Q 2313 497 1756 -53 
Q 3669 0 4513 28 
Q 4219 338 3881 672 
L 4256 928 
z
M 356 3884 
L 2950 3884 
L 2950 5303 
L 3456 5303 
L 3456 3884 
L 6056 3884 
L 6056 2709 
L 5563 2709 
L 5563 3428 
L 850 3428 
L 850 2709 
L 356 2709 
L 356 3884 
z
M 5369 2284 
L 1056 2284 
L 1056 2741 
L 5369 2741 
L 5369 2284 
z
M 5431 4909 
Q 5113 4534 4544 3991 
L 4169 4309 
Q 4669 4778 5013 5222 
L 5431 4909 
z
M 975 4909 
L 1319 5209 
Q 1750 4834 2206 4334 
L 1813 3991 
Q 1394 4497 975 4909 
z
" transform="scale(0.015625)"/>
        <path id="MicrosoftYaHei-aa1" d="M 1913 4078 
L 4194 4078 
Q 4188 4656 4188 5334 
L 4681 5334 
Q 4669 4591 4675 4078 
L 6219 4078 
L 6219 3622 
L 4684 3622 
Q 4747 978 5275 22 
Q 5469 -303 5600 -303 
Q 5706 -303 5750 -53 
Q 5813 328 5844 941 
Q 6113 834 6313 778 
Q 6231 72 6156 -297 
Q 6056 -822 5631 -822 
Q 5281 -822 4938 -341 
Q 4300 584 4206 3622 
L 1913 3622 
L 1913 4078 
z
M 1800 66 
Q 2272 128 2788 209 
L 2788 2147 
L 1894 2147 
L 1894 2591 
L 4056 2591 
L 4056 2147 
L 3250 2147 
L 3250 281 
Q 3741 363 4269 459 
Q 4256 209 4256 -28 
Q 2888 -247 1925 -422 
L 1800 66 
z
M 2038 1334 
Q 2069 984 2106 728 
Q 1688 328 1269 -103 
Q 1075 -303 944 -484 
L 594 -84 
Q 813 159 813 516 
L 813 2816 
L 88 2816 
L 88 3259 
L 1288 3259 
L 1288 572 
Q 1625 897 2038 1334 
z
M 700 5172 
Q 1263 4622 1688 4134 
L 1275 3778 
Q 881 4297 344 4853 
L 700 5172 
z
M 4919 4897 
L 5206 5197 
Q 5706 4828 6000 4547 
L 5656 4197 
Q 5313 4566 4919 4897 
z
" transform="scale(0.015625)"/>
        <path id="MicrosoftYaHei-66c" d="M 375 4109 
L 1213 4109 
L 1213 5284 
L 1650 5284 
L 1650 4109 
L 2500 4109 
L 2500 1059 
Q 2500 559 1800 597 
Q 1756 784 1669 1047 
Q 2069 972 2075 1197 
L 2075 3684 
L 1650 3684 
L 1650 -866 
L 1213 -866 
L 1213 3684 
L 800 3684 
L 800 584 
L 375 584 
L 375 4109 
z
M 2969 3484 
L 4138 3484 
L 4138 5284 
L 4613 5284 
L 4613 4622 
L 6300 4622 
L 6300 4184 
L 4613 4184 
L 4613 3484 
L 5919 3484 
L 5919 478 
L 5463 478 
L 5463 3059 
L 3425 3059 
L 3425 478 
L 2969 478 
L 2969 3484 
z
M 4213 2728 
L 4669 2728 
Q 4675 1466 4575 978 
Q 4544 822 4488 672 
Q 5394 147 6275 -472 
L 5950 -872 
Q 5113 -197 4313 291 
Q 3831 -484 2588 -922 
Q 2456 -728 2263 -484 
Q 3900 -59 4138 1097 
Q 4219 1484 4213 2728 
z
" transform="scale(0.015625)"/>
       </defs>
       <use xlink:href="#MicrosoftYaHei-8de"/>
       <use xlink:href="#MicrosoftYaHei-979" transform="translate(100 0)"/>
       <use xlink:href="#MicrosoftYaHei-63a" transform="translate(200 0)"/>
       <use xlink:href="#MicrosoftYaHei-aa1" transform="translate(300 0)"/>
       <use xlink:href="#MicrosoftYaHei-66c" transform="translate(400 0)"/>
      </g>
     </g>
    </g>
    <g id="xtick_2">
     <g id="line2d_2">
      <g>
       <use xlink:href="#mc8e6c48ea2" x="222.8901" y="291.285508" style="stroke: #000000; stroke-width: 0.8"/>
      </g>
     </g>
     <g id="text_2">
      <!-- 独立增强帧 -->
      <g transform="translate(197.8901 306.71832) scale(0.1 -0.1)">
       <defs>
        <path id="MicrosoftYaHei-5cd" d="M 2188 4459 
L 3259 4459 
Q 3041 4781 2775 5116 
L 3131 5366 
Q 3456 4991 3694 4666 
L 3403 4459 
L 4453 4459 
Q 4759 4888 5050 5372 
L 5500 5116 
Q 5234 4772 4978 4459 
L 6038 4459 
L 6038 2122 
L 5600 2122 
L 5600 2309 
L 2625 2309 
L 2625 2122 
L 2188 2122 
L 2188 4459 
z
M 2438 1797 
L 5788 1797 
L 5788 -847 
L 5338 -847 
L 5338 -547 
L 2888 -547 
L 2888 -847 
L 2438 -847 
L 2438 1797 
z
M 81 428 
Q 466 538 894 672 
L 894 3253 
L 144 3253 
L 144 3697 
L 894 3697 
L 894 5259 
L 1356 5259 
L 1356 3697 
L 2000 3697 
L 2000 3253 
L 1356 3253 
L 1356 819 
Q 1709 931 2094 1059 
Q 2106 759 2125 553 
Q 1306 316 250 -53 
L 81 428 
z
M 5600 4084 
L 4325 4084 
L 4325 2684 
L 5600 2684 
L 5600 4084 
z
M 2625 2684 
L 3894 2684 
L 3894 4084 
L 2625 4084 
L 2625 2684 
z
M 5338 1409 
L 2888 1409 
L 2888 809 
L 5338 809 
L 5338 1409 
z
M 2888 -159 
L 5338 -159 
L 5338 434 
L 2888 434 
L 2888 -159 
z
M 5350 3609 
Q 5006 3066 4856 2884 
L 4519 3084 
Q 4744 3391 4981 3828 
L 5350 3609 
z
M 2863 3597 
L 3181 3803 
Q 3463 3441 3669 3122 
L 3319 2897 
Q 3119 3228 2863 3597 
z
" transform="scale(0.015625)"/>
        <path id="MicrosoftYaHei-6a0" d="M 5250 466 
L 5669 666 
Q 6031 28 6363 -641 
L 5894 -878 
Q 5794 -641 5688 -416 
Q 3750 -547 2219 -653 
L 2150 -134 
Q 3088 -97 3969 -59 
L 3969 866 
L 2894 866 
L 2894 622 
L 2431 622 
L 2431 2616 
L 3969 2616 
L 3969 3297 
L 3144 3297 
L 3144 3047 
L 2681 3047 
L 2681 4972 
L 5731 4972 
L 5731 3047 
L 5269 3047 
L 5269 3297 
L 4444 3297 
L 4444 2616 
L 5988 2616 
L 5988 866 
L 4444 866 
L 4444 -41 
Q 4975 -22 5488 3 
Q 5369 241 5250 466 
z
M 425 3466 
L 1650 3466 
L 1650 4516 
L 238 4516 
L 238 4941 
L 2113 4941 
L 2113 2772 
L 1650 2772 
L 1650 3041 
L 831 3041 
L 719 2072 
L 2056 2072 
Q 1994 741 1944 128 
Q 1888 -722 1100 -722 
Q 819 -722 425 -716 
Q 388 -484 325 -216 
Q 731 -247 1019 -247 
Q 1444 -247 1475 191 
Q 1525 828 1563 1647 
L 225 1647 
L 425 3466 
z
M 5269 4547 
L 3144 4547 
L 3144 3722 
L 5269 3722 
L 5269 4547 
z
M 5525 1291 
L 5525 2191 
L 4444 2191 
L 4444 1291 
L 5525 1291 
z
M 2894 1291 
L 3969 1291 
L 3969 2191 
L 2894 2191 
L 2894 1291 
z
" transform="scale(0.015625)"/>
       </defs>
       <use xlink:href="#MicrosoftYaHei-8de"/>
       <use xlink:href="#MicrosoftYaHei-979" transform="translate(100 0)"/>
       <use xlink:href="#MicrosoftYaHei-5cd" transform="translate(200 0)"/>
       <use xlink:href="#MicrosoftYaHei-6a0" transform="translate(300 0)"/>
       <use xlink:href="#MicrosoftYaHei-66c" transform="translate(400 0)"/>
      </g>
     </g>
    </g>
    <g id="xtick_3">
     <g id="line2d_3">
      <g>
       <use xlink:href="#mc8e6c48ea2" x="331.824268" y="291.285508" style="stroke: #000000; stroke-width: 0.8"/>
      </g>
     </g>
     <g id="text_3">
      <!-- 5次划分中预测变化 -->
      <g transform="translate(288.892236 306.658945) scale(0.1 -0.1)">
       <defs>
        <path id="MicrosoftYaHei-1b" d="M 3294 1494 
Q 3294 784 2823 350 
Q 2353 -84 1559 -84 
Q 878 -84 544 119 
L 544 744 
Q 1034 425 1544 425 
Q 2050 425 2361 704 
Q 2672 984 2672 1447 
Q 2672 1909 2348 2167 
Q 2025 2425 1434 2425 
Q 978 2425 613 2384 
L 791 4841 
L 3053 4841 
L 3053 4303 
L 1306 4303 
L 1206 2931 
L 1647 2950 
Q 2416 2950 2855 2567 
Q 3294 2184 3294 1494 
z
" transform="scale(0.015625)"/>
        <path id="MicrosoftYaHei-829" d="M 4119 3472 
Q 4113 3159 4091 2856 
Q 4509 728 6319 -284 
Q 6063 -559 5913 -772 
Q 4344 331 3900 1944 
Q 3491 200 1650 -866 
Q 1525 -672 1306 -422 
Q 3225 591 3525 2428 
Q 3613 2878 3619 3472 
L 4119 3472 
z
M 4944 2647 
Q 5225 3166 5450 3766 
L 2991 3766 
Q 2719 3144 2388 2572 
Q 2163 2734 1938 2841 
Q 2669 4034 3000 5309 
L 3506 5166 
Q 3356 4675 3175 4209 
L 5988 4209 
L 5988 3766 
Q 5731 3072 5425 2466 
Q 5213 2572 4944 2647 
z
M 1388 2622 
Q 1675 2403 1875 2284 
Q 1075 859 575 -178 
L 69 153 
Q 713 1128 1388 2622 
z
M 644 4916 
Q 1150 4409 1781 3672 
L 1375 3297 
Q 769 4097 281 4591 
L 644 4916 
z
" transform="scale(0.015625)"/>
        <path id="MicrosoftYaHei-4e6" d="M 75 -28 
Q 881 394 1547 975 
Q 1297 1694 1209 3053 
L 256 2884 
L 181 3328 
L 1184 3503 
Q 1144 4291 1113 5266 
L 1613 5266 
Q 1628 4341 1659 3584 
L 3688 3941 
L 3744 3503 
L 1681 3138 
Q 1753 1975 1934 1331 
Q 2622 2019 3144 2897 
L 3563 2634 
Q 2913 1609 2100 831 
Q 2391 91 2850 -191 
Q 3188 -391 3281 -9 
Q 3363 422 3425 953 
Q 3725 828 3919 772 
Q 3800 66 3700 -291 
Q 3575 -791 3131 -791 
Q 2781 -791 2456 -547 
Q 2019 -178 1728 494 
Q 1122 -25 431 -422 
Q 300 -259 75 -28 
z
M 5425 5272 
L 5919 5272 
L 5919 53 
Q 5919 -728 5194 -734 
Q 4856 -741 4256 -728 
Q 4225 -441 4156 -197 
Q 4619 -241 5031 -247 
Q 5425 -253 5425 172 
L 5425 5272 
z
M 4594 853 
L 4113 853 
L 4113 4672 
L 4594 4672 
L 4594 853 
z
M 2000 4803 
L 2288 5109 
Q 2719 4797 3131 4441 
L 2800 4084 
Q 2463 4428 2000 4803 
z
" transform="scale(0.015625)"/>
        <path id="MicrosoftYaHei-4e3" d="M 900 2559 
L 5056 2559 
Q 5025 1497 4963 484 
Q 4888 -684 3856 -678 
Q 3350 -684 2788 -647 
Q 2750 -384 2700 -116 
Q 3181 -184 3775 -191 
Q 4400 -203 4463 541 
Q 4513 1216 4538 2097 
L 2616 2097 
Q 2541 1053 2181 416 
Q 1706 -422 588 -878 
Q 425 -666 231 -459 
Q 1269 -72 1725 666 
Q 2053 1225 2103 2097 
L 900 2097 
L 900 2559 
z
M 3488 5159 
L 3938 5353 
Q 4625 3678 6350 2847 
Q 6069 2553 5944 2372 
Q 4225 3366 3488 5159 
z
M 50 2766 
Q 1338 3678 2250 5253 
L 2694 5009 
Q 1744 3347 413 2341 
Q 281 2534 50 2766 
z
" transform="scale(0.015625)"/>
        <path id="MicrosoftYaHei-418" d="M 525 3972 
L 2931 3972 
L 2931 5334 
L 3469 5334 
L 3469 3972 
L 5900 3972 
L 5900 1122 
L 5388 1122 
L 5388 1459 
L 3469 1459 
L 3469 -866 
L 2931 -866 
L 2931 1459 
L 1038 1459 
L 1038 1122 
L 525 1122 
L 525 3972 
z
M 5388 3509 
L 3469 3509 
L 3469 1922 
L 5388 1922 
L 5388 3509 
z
M 1038 1922 
L 2931 1922 
L 2931 3509 
L 1038 3509 
L 1038 1922 
z
" transform="scale(0.015625)"/>
        <path id="MicrosoftYaHei-bc4" d="M 531 3872 
L 844 4147 
Q 1069 3947 1275 3747 
L 1938 4553 
L 175 4553 
L 175 4991 
L 2513 4991 
L 2513 4553 
L 1588 3434 
Q 1694 3322 1794 3216 
L 1544 2997 
L 2681 2997 
L 2681 2578 
Q 2581 2097 2369 1466 
Q 2175 1534 1938 1609 
Q 2094 2003 2213 2559 
L 1588 2559 
L 1588 -72 
Q 1588 -784 888 -784 
L 225 -784 
Q 194 -559 138 -278 
Q 450 -316 769 -316 
Q 1119 -316 1119 84 
L 1119 2559 
L 113 2559 
L 113 2997 
L 1344 2997 
Q 938 3484 531 3872 
z
M 2969 3716 
L 4025 3716 
L 4181 4572 
L 2744 4572 
L 2744 5009 
L 6294 5009 
L 6294 4572 
L 4688 4572 
L 4506 3716 
L 6006 3716 
L 6006 641 
L 5550 641 
L 5550 3284 
L 3425 3284 
L 3425 641 
L 2969 641 
L 2969 3716 
z
M 4244 3028 
L 4706 3028 
L 4706 2097 
Q 4706 1366 4519 841 
Q 5500 184 6306 -441 
L 5963 -847 
Q 5200 -197 4325 428 
Q 4263 334 4200 247 
Q 3694 -397 2613 -897 
Q 2413 -641 2263 -484 
Q 3381 -22 3831 572 
Q 4244 1109 4244 2128 
L 4244 3028 
z
" transform="scale(0.015625)"/>
        <path id="MicrosoftYaHei-879" d="M 875 1753 
Q 1175 1597 1369 1522 
Q 950 -41 763 -784 
L 250 -547 
Q 619 497 875 1753 
z
M 638 5166 
Q 1019 4847 1588 4303 
Q 1381 4103 1213 3928 
Q 756 4434 313 4853 
L 638 5166 
z
M 356 3559 
Q 881 3134 1350 2716 
Q 1188 2547 988 2322 
Q 425 2878 50 3216 
L 356 3559 
z
M 5575 5284 
L 6031 5284 
L 6031 -34 
Q 6031 -753 5338 -753 
Q 5038 -753 4625 -741 
Q 4600 -509 4538 -228 
Q 4938 -272 5219 -272 
Q 5575 -272 5575 84 
L 5575 5284 
z
M 5038 634 
L 4600 634 
L 4600 4778 
L 5038 4778 
L 5038 634 
z
M 1706 4941 
L 4063 4941 
L 4063 991 
L 3613 991 
L 3613 4503 
L 2156 4503 
L 2156 991 
L 1706 991 
L 1706 4941 
z
M 2681 3966 
L 3138 3966 
L 3138 2416 
Q 3138 1466 2963 891 
Q 3775 266 4375 -234 
L 4038 -616 
Q 3538 -141 2800 472 
Q 2413 -297 1406 -884 
Q 1269 -684 1100 -484 
Q 2031 53 2375 709 
Q 2681 1278 2681 2403 
L 2681 3966 
z
" transform="scale(0.015625)"/>
        <path id="MicrosoftYaHei-54a" d="M 838 1634 
L 838 2066 
L 5088 2066 
L 5088 1634 
Q 4494 853 3659 309 
Q 4675 -178 6313 -297 
Q 6088 -609 5950 -822 
Q 4275 -594 3178 34 
Q 2122 -509 425 -866 
Q 269 -622 106 -403 
Q 1741 -122 2728 328 
Q 2047 838 1553 1634 
L 838 1634 
z
M 231 4534 
L 3081 4534 
Q 2888 4884 2725 5141 
L 3175 5359 
Q 3481 4884 3600 4659 
L 3359 4534 
L 6200 4534 
L 6200 4091 
L 4181 4091 
L 4181 2353 
L 3700 2353 
L 3700 4091 
L 2694 4091 
L 2694 2341 
L 2213 2341 
L 2213 4091 
L 231 4091 
L 231 4534 
z
M 4475 1634 
L 2116 1634 
Q 2575 953 3197 572 
Q 3947 1016 4475 1634 
z
M 4556 3434 
L 4900 3728 
Q 5700 3009 6213 2459 
L 5825 2116 
Q 5219 2797 4556 3434 
z
M 1381 3741 
L 1756 3422 
Q 1119 2691 500 2097 
Q 344 2272 138 2447 
Q 794 3009 1381 3741 
z
" transform="scale(0.015625)"/>
        <path id="MicrosoftYaHei-517" d="M 1844 1453 
Q 2663 1834 3375 2331 
L 3375 5197 
L 3913 5197 
L 3913 2734 
Q 4869 3506 5613 4516 
L 6069 4184 
Q 5159 2975 3913 2069 
L 3913 303 
Q 3913 -122 4363 -122 
L 5156 -122 
Q 5581 -122 5650 284 
Q 5738 709 5763 1266 
Q 6025 1166 6313 1084 
Q 6263 559 6181 122 
Q 6063 -597 5281 -597 
L 4225 -597 
Q 3375 -597 3375 241 
L 3375 1703 
Q 2791 1328 2144 1016 
Q 2013 1222 1844 1453 
z
M 88 2222 
Q 1175 3666 1688 5291 
L 2231 5134 
Q 1934 4359 1588 3675 
L 1588 -797 
L 1063 -797 
L 1063 2734 
Q 716 2172 325 1678 
Q 219 1947 88 2222 
z
" transform="scale(0.015625)"/>
       </defs>
       <use xlink:href="#MicrosoftYaHei-1b"/>
       <use xlink:href="#MicrosoftYaHei-829" transform="translate(58.640625 0)"/>
       <use xlink:href="#MicrosoftYaHei-4e6" transform="translate(158.640625 0)"/>
       <use xlink:href="#MicrosoftYaHei-4e3" transform="translate(258.640625 0)"/>
       <use xlink:href="#MicrosoftYaHei-418" transform="translate(358.640625 0)"/>
       <use xlink:href="#MicrosoftYaHei-bc4" transform="translate(458.640625 0)"/>
       <use xlink:href="#MicrosoftYaHei-879" transform="translate(558.640625 0)"/>
       <use xlink:href="#MicrosoftYaHei-54a" transform="translate(658.640625 0)"/>
       <use xlink:href="#MicrosoftYaHei-517" transform="translate(758.640625 0)"/>
      </g>
     </g>
    </g>
    <g id="xtick_4">
     <g id="line2d_4">
      <g>
       <use xlink:href="#mc8e6c48ea2" x="440.758435" y="291.285508" style="stroke: #000000; stroke-width: 0.8"/>
      </g>
     </g>
     <g id="text_4">
      <!-- 由错变对 -->
      <g transform="translate(420.758435 306.658945) scale(0.1 -0.1)">
       <defs>
        <path id="MicrosoftYaHei-902" d="M 638 -734 
L 638 4141 
L 2950 4141 
L 2950 5328 
L 3475 5328 
L 3475 4141 
L 5788 4141 
L 5788 -734 
L 5275 -734 
L 5275 -372 
L 1150 -372 
L 1150 -734 
L 638 -734 
z
M 1150 91 
L 2950 91 
L 2950 1678 
L 1150 1678 
L 1150 91 
z
M 3475 91 
L 5275 91 
L 5275 1678 
L 3475 1678 
L 3475 91 
z
M 1150 2128 
L 2950 2128 
L 2950 3678 
L 1150 3678 
L 1150 2128 
z
M 5275 3678 
L 3475 3678 
L 3475 2128 
L 5275 2128 
L 5275 3678 
z
" transform="scale(0.015625)"/>
        <path id="MicrosoftYaHei-b6a" d="M 2625 2172 
L 5806 2172 
L 5806 -847 
L 5331 -847 
L 5331 -484 
L 3100 -484 
L 3100 -847 
L 2625 -847 
L 2625 2172 
z
M 2206 3128 
L 3125 3128 
L 3125 3966 
L 2394 3966 
L 2394 4391 
L 3125 4391 
L 3125 5291 
L 3600 5291 
L 3600 4391 
L 4738 4391 
L 4738 5291 
L 5213 5291 
L 5213 4391 
L 6094 4391 
L 6094 3966 
L 5213 3966 
L 5213 3128 
L 6275 3128 
L 6275 2703 
L 2206 2703 
L 2206 3128 
z
M 2081 847 
Q 2138 566 2188 378 
Q 1600 -178 1256 -528 
Q 1206 -591 1081 -759 
L 738 -372 
Q 913 -178 913 197 
L 913 1566 
L 113 1566 
L 113 2003 
L 913 2003 
L 913 2778 
L 644 2778 
L 644 3216 
L 1981 3216 
L 1981 2778 
L 1369 2778 
L 1369 2003 
L 2150 2003 
L 2150 1566 
L 1369 1566 
L 1369 178 
Q 1763 534 2081 847 
z
M 75 3166 
Q 613 4041 881 5316 
L 1350 5216 
Q 1241 4769 1103 4359 
L 2175 4359 
L 2175 3922 
L 944 3922 
Q 681 3244 331 2678 
Q 213 2916 75 3166 
z
M 3100 -72 
L 5331 -72 
L 5331 647 
L 3100 647 
L 3100 -72 
z
M 5331 1759 
L 3100 1759 
L 3100 1047 
L 5331 1047 
L 5331 1759 
z
M 3600 3128 
L 4738 3128 
L 4738 3966 
L 3600 3966 
L 3600 3128 
z
" transform="scale(0.015625)"/>
        <path id="MicrosoftYaHei-62b" d="M 694 3691 
Q 1234 2909 1741 2166 
Q 2113 3081 2213 4147 
L 250 4147 
L 250 4622 
L 2725 4622 
L 2725 4166 
Q 2553 2809 2059 1700 
Q 2569 953 3044 247 
L 2594 -53 
Q 2203 563 1803 1181 
Q 1247 163 388 -622 
Q 263 -428 81 -166 
Q 975 638 1500 1647 
Q 919 2538 319 3434 
L 694 3691 
z
M 2975 3941 
L 5056 3941 
L 5056 5278 
L 5563 5278 
L 5563 3941 
L 6325 3941 
L 6325 3466 
L 5563 3466 
L 5563 191 
Q 5563 -716 4669 -716 
Q 4388 -716 3744 -709 
Q 3713 -478 3644 -147 
Q 4263 -197 4588 -197 
Q 5056 -197 5056 278 
L 5056 3466 
L 2975 3466 
L 2975 3941 
z
M 3088 2684 
L 3494 2928 
Q 4000 2184 4388 1484 
L 3919 1216 
Q 3550 1922 3088 2684 
z
" transform="scale(0.015625)"/>
       </defs>
       <use xlink:href="#MicrosoftYaHei-902"/>
       <use xlink:href="#MicrosoftYaHei-b6a" transform="translate(100 0)"/>
       <use xlink:href="#MicrosoftYaHei-54a" transform="translate(200 0)"/>
       <use xlink:href="#MicrosoftYaHei-62b" transform="translate(300 0)"/>
      </g>
     </g>
    </g>
    <g id="xtick_5">
     <g id="line2d_5">
      <g>
       <use xlink:href="#mc8e6c48ea2" x="549.692602" y="291.285508" style="stroke: #000000; stroke-width: 0.8"/>
      </g>
     </g>
     <g id="text_5">
      <!-- 由对变错 -->
      <g transform="translate(529.692602 306.658945) scale(0.1 -0.1)">
       <use xlink:href="#MicrosoftYaHei-902"/>
       <use xlink:href="#MicrosoftYaHei-62b" transform="translate(100 0)"/>
       <use xlink:href="#MicrosoftYaHei-54a" transform="translate(200 0)"/>
       <use xlink:href="#MicrosoftYaHei-b6a" transform="translate(300 0)"/>
      </g>
     </g>
    </g>
   </g>
   <g id="matplotlib.axis_2">
    <g id="ytick_1">
     <g id="line2d_6">
      <path d="M 44.238066 291.285508 
L 619.410469 291.285508 
" clip-path="url(#p361d24909e)" style="fill: none; stroke: #b0b0b0; stroke-opacity: 0.22; stroke-width: 0.8; stroke-linecap: square"/>
     </g>
     <g id="line2d_7">
      <defs>
       <path id="m3912ec9ac3" d="M 0 0 
L -3.5 0 
" style="stroke: #000000; stroke-width: 0.8"/>
      </defs>
      <g>
       <use xlink:href="#m3912ec9ac3" x="44.238066" y="291.285508" style="stroke: #000000; stroke-width: 0.8"/>
      </g>
     </g>
     <g id="text_6">
      <!-- 0.0 -->
      <g transform="translate(23.102129 295.345566) scale(0.1 -0.1)">
       <defs>
        <path id="MicrosoftYaHei-16" d="M 284 2325 
Q 284 3606 709 4264 
Q 1134 4922 1941 4922 
Q 3478 4922 3478 2441 
Q 3478 1216 3045 567 
Q 2613 -81 1831 -81 
Q 1094 -81 689 534 
Q 284 1150 284 2325 
z
M 909 2353 
Q 909 425 1888 425 
Q 2850 425 2850 2384 
Q 2850 4413 1906 4413 
Q 909 4413 909 2353 
z
" transform="scale(0.015625)"/>
        <path id="MicrosoftYaHei-14" d="M 372 322 
Q 372 491 487 606 
Q 603 722 775 722 
Q 950 722 1065 605 
Q 1181 488 1181 322 
Q 1181 159 1065 42 
Q 950 -75 772 -75 
Q 600 -75 486 42 
Q 372 159 372 322 
z
" transform="scale(0.015625)"/>
       </defs>
       <use xlink:href="#MicrosoftYaHei-16"/>
       <use xlink:href="#MicrosoftYaHei-14" transform="translate(58.640625 0)"/>
       <use xlink:href="#MicrosoftYaHei-16" transform="translate(82.71875 0)"/>
      </g>
     </g>
    </g>
    <g id="ytick_2">
     <g id="line2d_8">
      <path d="M 44.238066 255.660732 
L 619.410469 255.660732 
" clip-path="url(#p361d24909e)" style="fill: none; stroke: #b0b0b0; stroke-opacity: 0.22; stroke-width: 0.8; stroke-linecap: square"/>
     </g>
     <g id="line2d_9">
      <g>
       <use xlink:href="#m3912ec9ac3" x="44.238066" y="255.660732" style="stroke: #000000; stroke-width: 0.8"/>
      </g>
     </g>
     <g id="text_7">
      <!-- 0.5 -->
      <g transform="translate(23.102129 259.72079) scale(0.1 -0.1)">
       <use xlink:href="#MicrosoftYaHei-16"/>
       <use xlink:href="#MicrosoftYaHei-14" transform="translate(58.640625 0)"/>
       <use xlink:href="#MicrosoftYaHei-1b" transform="translate(82.71875 0)"/>
      </g>
     </g>
    </g>
    <g id="ytick_3">
     <g id="line2d_10">
      <path d="M 44.238066 220.035956 
L 619.410469 220.035956 
" clip-path="url(#p361d24909e)" style="fill: none; stroke: #b0b0b0; stroke-opacity: 0.22; stroke-width: 0.8; stroke-linecap: square"/>
     </g>
     <g id="line2d_11">
      <g>
       <use xlink:href="#m3912ec9ac3" x="44.238066" y="220.035956" style="stroke: #000000; stroke-width: 0.8"/>
      </g>
     </g>
     <g id="text_8">
      <!-- 1.0 -->
      <g transform="translate(23.102129 224.096014) scale(0.1 -0.1)">
       <defs>
        <path id="MicrosoftYaHei-17" d="M 1781 0 
L 1781 4141 
Q 1638 3997 1295 3819 
Q 953 3641 663 3569 
L 663 4169 
Q 1047 4275 1484 4508 
Q 1922 4741 2156 4947 
L 2388 4947 
L 2388 0 
L 1781 0 
z
" transform="scale(0.015625)"/>
       </defs>
       <use xlink:href="#MicrosoftYaHei-17"/>
       <use xlink:href="#MicrosoftYaHei-14" transform="translate(58.640625 0)"/>
       <use xlink:href="#MicrosoftYaHei-16" transform="translate(82.71875 0)"/>
      </g>
     </g>
    </g>
    <g id="ytick_4">
     <g id="line2d_12">
      <path d="M 44.238066 184.41118 
L 619.410469 184.41118 
" clip-path="url(#p361d24909e)" style="fill: none; stroke: #b0b0b0; stroke-opacity: 0.22; stroke-width: 0.8; stroke-linecap: square"/>
     </g>
     <g id="line2d_13">
      <g>
       <use xlink:href="#m3912ec9ac3" x="44.238066" y="184.41118" style="stroke: #000000; stroke-width: 0.8"/>
      </g>
     </g>
     <g id="text_9">
      <!-- 1.5 -->
      <g transform="translate(23.102129 188.471238) scale(0.1 -0.1)">
       <use xlink:href="#MicrosoftYaHei-17"/>
       <use xlink:href="#MicrosoftYaHei-14" transform="translate(58.640625 0)"/>
       <use xlink:href="#MicrosoftYaHei-1b" transform="translate(82.71875 0)"/>
      </g>
     </g>
    </g>
    <g id="ytick_5">
     <g id="line2d_14">
      <path d="M 44.238066 148.786404 
L 619.410469 148.786404 
" clip-path="url(#p361d24909e)" style="fill: none; stroke: #b0b0b0; stroke-opacity: 0.22; stroke-width: 0.8; stroke-linecap: square"/>
     </g>
     <g id="line2d_15">
      <g>
       <use xlink:href="#m3912ec9ac3" x="44.238066" y="148.786404" style="stroke: #000000; stroke-width: 0.8"/>
      </g>
     </g>
     <g id="text_10">
      <!-- 2.0 -->
      <g transform="translate(23.102129 152.846462) scale(0.1 -0.1)">
       <defs>
        <path id="MicrosoftYaHei-18" d="M 2666 3572 
Q 2666 3963 2419 4186 
Q 2172 4409 1747 4409 
Q 1447 4409 1140 4256 
Q 834 4103 569 3819 
L 569 4413 
Q 806 4659 1107 4790 
Q 1409 4922 1816 4922 
Q 2472 4922 2872 4570 
Q 3272 4219 3272 3619 
Q 3272 3084 3026 2693 
Q 2781 2303 2188 1894 
Q 1581 1475 1376 1294 
Q 1172 1113 1090 947 
Q 1009 781 1009 544 
L 3416 544 
L 3416 0 
L 372 0 
L 372 241 
Q 372 659 486 951 
Q 600 1244 862 1520 
Q 1125 1797 1681 2184 
Q 2250 2584 2458 2886 
Q 2666 3188 2666 3572 
z
" transform="scale(0.015625)"/>
       </defs>
       <use xlink:href="#MicrosoftYaHei-18"/>
       <use xlink:href="#MicrosoftYaHei-14" transform="translate(58.640625 0)"/>
       <use xlink:href="#MicrosoftYaHei-16" transform="translate(82.71875 0)"/>
      </g>
     </g>
    </g>
    <g id="ytick_6">
     <g id="line2d_16">
      <path d="M 44.238066 113.161628 
L 619.410469 113.161628 
" clip-path="url(#p361d24909e)" style="fill: none; stroke: #b0b0b0; stroke-opacity: 0.22; stroke-width: 0.8; stroke-linecap: square"/>
     </g>
     <g id="line2d_17">
      <g>
       <use xlink:href="#m3912ec9ac3" x="44.238066" y="113.161628" style="stroke: #000000; stroke-width: 0.8"/>
      </g>
     </g>
     <g id="text_11">
      <!-- 2.5 -->
      <g transform="translate(23.102129 117.221686) scale(0.1 -0.1)">
       <use xlink:href="#MicrosoftYaHei-18"/>
       <use xlink:href="#MicrosoftYaHei-14" transform="translate(58.640625 0)"/>
       <use xlink:href="#MicrosoftYaHei-1b" transform="translate(82.71875 0)"/>
      </g>
     </g>
    </g>
    <g id="ytick_7">
     <g id="line2d_18">
      <path d="M 44.238066 77.536852 
L 619.410469 77.536852 
" clip-path="url(#p361d24909e)" style="fill: none; stroke: #b0b0b0; stroke-opacity: 0.22; stroke-width: 0.8; stroke-linecap: square"/>
     </g>
     <g id="line2d_19">
      <g>
       <use xlink:href="#m3912ec9ac3" x="44.238066" y="77.536852" style="stroke: #000000; stroke-width: 0.8"/>
      </g>
     </g>
     <g id="text_12">
      <!-- 3.0 -->
      <g transform="translate(23.102129 81.59691) scale(0.1 -0.1)">
       <defs>
        <path id="MicrosoftYaHei-19" d="M 447 809 
Q 944 425 1569 425 
Q 2069 425 2361 670 
Q 2653 916 2653 1328 
Q 2653 2247 1338 2247 
L 934 2247 
L 934 2753 
L 1319 2753 
Q 2484 2753 2484 3616 
Q 2484 4413 1594 4413 
Q 1084 4413 634 4069 
L 634 4647 
Q 1109 4922 1744 4922 
Q 2363 4922 2738 4598 
Q 3113 4275 3113 3759 
Q 3113 2809 2144 2538 
L 2144 2525 
Q 2669 2469 2973 2155 
Q 3278 1841 3278 1372 
Q 3278 719 2808 319 
Q 2338 -81 1556 -81 
Q 869 -81 447 175 
L 447 809 
z
" transform="scale(0.015625)"/>
       </defs>
       <use xlink:href="#MicrosoftYaHei-19"/>
       <use xlink:href="#MicrosoftYaHei-14" transform="translate(58.640625 0)"/>
       <use xlink:href="#MicrosoftYaHei-16" transform="translate(82.71875 0)"/>
      </g>
     </g>
    </g>
    <g id="ytick_8">
     <g id="line2d_20">
      <path d="M 44.238066 41.912076 
L 619.410469 41.912076 
" clip-path="url(#p361d24909e)" style="fill: none; stroke: #b0b0b0; stroke-opacity: 0.22; stroke-width: 0.8; stroke-linecap: square"/>
     </g>
     <g id="line2d_21">
      <g>
       <use xlink:href="#m3912ec9ac3" x="44.238066" y="41.912076" style="stroke: #000000; stroke-width: 0.8"/>
      </g>
     </g>
     <g id="text_13">
      <!-- 3.5 -->
      <g transform="translate(23.102129 45.972134) scale(0.1 -0.1)">
       <use xlink:href="#MicrosoftYaHei-19"/>
       <use xlink:href="#MicrosoftYaHei-14" transform="translate(58.640625 0)"/>
       <use xlink:href="#MicrosoftYaHei-1b" transform="translate(82.71875 0)"/>
      </g>
     </g>
    </g>
    <g id="text_14">
     <!-- 数量 -->
     <g transform="translate(16.314531 168.692598) rotate(-90) scale(0.11 -0.11)">
      <defs>
       <path id="MicrosoftYaHei-783" d="M 4175 5303 
L 4675 5228 
Q 4544 4622 4369 4097 
L 6281 4097 
L 6281 3672 
L 5888 3672 
Q 5731 1834 5088 753 
Q 5594 66 6375 -372 
Q 6175 -647 6038 -866 
Q 5275 -372 4769 309 
Q 4194 -403 3400 -928 
Q 3263 -747 3044 -534 
Q 3919 41 4463 772 
Q 3956 1647 3794 2791 
Q 3663 2559 3519 2359 
Q 3394 2541 3206 2759 
Q 3931 3803 4175 5303 
z
M 150 1697 
L 1100 1697 
Q 1238 1934 1369 2184 
L 1819 2041 
Q 1719 1866 1619 1697 
L 3150 1697 
L 3150 1291 
Q 2913 678 2431 216 
Q 2775 53 3131 -109 
L 2856 -541 
Q 2469 -322 2050 -103 
Q 1344 -609 269 -903 
Q 169 -703 56 -466 
Q 969 -259 1600 128 
Q 1063 403 475 691 
Q 675 978 863 1284 
L 150 1284 
L 150 1697 
z
M 219 3847 
L 1656 3847 
L 1656 5247 
L 2119 5247 
L 2119 3847 
L 3319 3847 
L 3319 3434 
L 2119 3434 
L 2119 3053 
L 2306 3266 
Q 2888 2841 3281 2516 
L 2981 2166 
Q 2638 2491 2119 2897 
L 2119 2184 
L 1656 2184 
L 1656 3059 
Q 1088 2466 331 2016 
Q 213 2197 63 2397 
Q 850 2822 1506 3434 
L 219 3434 
L 219 3847 
z
M 5388 3672 
L 4219 3672 
Q 4188 3591 4150 3516 
Q 4263 2191 4775 1247 
Q 5275 2159 5388 3672 
z
M 1088 834 
Q 1531 634 2000 416 
Q 2431 784 2675 1284 
L 1375 1284 
Q 1231 1053 1088 834 
z
M 3038 5091 
L 3425 4834 
Q 3081 4384 2738 4003 
Q 2594 4128 2400 4266 
Q 2725 4647 3038 5091 
z
M 381 4816 
L 738 5059 
Q 1019 4716 1319 4322 
L 931 4047 
Q 656 4453 381 4816 
z
" transform="scale(0.015625)"/>
       <path id="MicrosoftYaHei-b4f" d="M 113 -278 
L 2981 -278 
L 2981 78 
L 475 78 
L 475 403 
L 2981 403 
L 2981 759 
L 1494 759 
L 1494 597 
L 1069 597 
L 1069 2516 
L 5350 2516 
L 5350 597 
L 4925 597 
L 4925 759 
L 3419 759 
L 3419 403 
L 5931 403 
L 5931 78 
L 3419 78 
L 3419 -278 
L 6288 -278 
L 6288 -616 
L 113 -616 
L 113 -278 
z
M 1119 5072 
L 5306 5072 
L 5306 3284 
L 4881 3284 
L 4881 3453 
L 1544 3453 
L 1544 3284 
L 1119 3284 
L 1119 5072 
z
M 163 3153 
L 6263 3153 
L 6263 2816 
L 163 2816 
L 163 3153 
z
M 1544 3778 
L 4881 3778 
L 4881 4116 
L 1544 4116 
L 1544 3778 
z
M 4881 4747 
L 1544 4747 
L 1544 4416 
L 4881 4416 
L 4881 4747 
z
M 3419 1084 
L 4925 1084 
L 4925 1491 
L 3419 1491 
L 3419 1084 
z
M 1494 1084 
L 2981 1084 
L 2981 1491 
L 1494 1491 
L 1494 1084 
z
M 4925 2191 
L 3419 2191 
L 3419 1791 
L 4925 1791 
L 4925 2191 
z
M 1494 1791 
L 2981 1791 
L 2981 2191 
L 1494 2191 
L 1494 1791 
z
" transform="scale(0.015625)"/>
      </defs>
      <use xlink:href="#MicrosoftYaHei-783"/>
      <use xlink:href="#MicrosoftYaHei-b4f" transform="translate(100 0)"/>
     </g>
    </g>
   </g>
   <g id="patch_8">
    <path d="M 44.238066 291.285508 
L 44.238066 24.099688 
" style="fill: none; stroke: #000000; stroke-width: 0.8; stroke-linejoin: miter; stroke-linecap: square"/>
   </g>
   <g id="patch_9">
    <path d="M 619.410469 291.285508 
L 619.410469 24.099688 
" style="fill: none; stroke: #000000; stroke-width: 0.8; stroke-linejoin: miter; stroke-linecap: square"/>
   </g>
   <g id="patch_10">
    <path d="M 44.238066 291.285508 
L 619.410469 291.285508 
" style="fill: none; stroke: #000000; stroke-width: 0.8; stroke-linejoin: miter; stroke-linecap: square"/>
   </g>
   <g id="patch_11">
    <path d="M 44.238066 24.099688 
L 619.410469 24.099688 
" style="fill: none; stroke: #000000; stroke-width: 0.8; stroke-linejoin: miter; stroke-linecap: square"/>
   </g>
   <g id="text_15">
    <!-- 3 -->
    <g transform="translate(111.023902 52.599508) scale(0.1 -0.1)">
     <use xlink:href="#MicrosoftYaHei-19"/>
    </g>
   </g>
   <g id="text_16">
    <!-- 3 -->
    <g transform="translate(219.958069 52.599508) scale(0.1 -0.1)">
     <use xlink:href="#MicrosoftYaHei-19"/>
    </g>
   </g>
   <g id="text_17">
    <!-- 2 -->
    <g transform="translate(328.892236 123.84906) scale(0.1 -0.1)">
     <use xlink:href="#MicrosoftYaHei-18"/>
    </g>
   </g>
   <g id="text_18">
    <!-- 0 -->
    <g transform="translate(437.826403 266.348165) scale(0.1 -0.1)">
     <use xlink:href="#MicrosoftYaHei-16"/>
    </g>
   </g>
   <g id="text_19">
    <!-- 0 -->
    <g transform="translate(546.760571 266.348165) scale(0.1 -0.1)">
     <use xlink:href="#MicrosoftYaHei-16"/>
    </g>
   </g>
   <g id="text_20">
    <!-- 协议B3：GFPGAN实际触发及对识别结果的影响 -->
    <g transform="translate(193.013721 18.099688) scale(0.13 -0.13)">
     <defs>
      <path id="MicrosoftYaHei-523" d="M 2206 4022 
L 3291 4022 
Q 3313 4659 3313 5278 
L 3800 5278 
Q 3794 4697 3772 4022 
L 5294 4022 
Q 5231 1716 5150 172 
Q 5113 -691 4281 -691 
Q 4075 -691 3594 -678 
Q 3550 -391 3488 -134 
Q 3894 -191 4200 -191 
Q 4650 -197 4675 291 
Q 4750 1784 4794 3534 
L 3756 3534 
Q 3722 2138 3538 1322 
Q 3219 84 2225 -778 
Q 2069 -603 1863 -409 
Q 2756 378 3056 1453 
Q 3250 2184 3278 3534 
L 2206 3534 
L 2206 4022 
z
M 94 3484 
L 775 3484 
L 775 5272 
L 1256 5272 
L 1256 3484 
L 1863 3484 
L 1863 3028 
L 1256 3028 
L 1256 -803 
L 775 -803 
L 775 3028 
L 94 3028 
L 94 3484 
z
M 2394 2916 
L 2813 2759 
Q 2500 1934 2088 997 
Q 1894 1103 1669 1191 
Q 2075 1978 2394 2916 
z
M 5331 2791 
L 5750 2922 
Q 6063 2047 6319 1278 
L 5863 1122 
Q 5600 2053 5331 2791 
z
" transform="scale(0.015625)"/>
      <path id="MicrosoftYaHei-a91" d="M 5813 4841 
Q 5447 2288 4309 909 
Q 5119 156 6288 -272 
Q 6056 -547 5888 -791 
Q 4719 -234 3941 516 
Q 3100 -300 1969 -847 
Q 1831 -647 1613 -372 
Q 2772 131 3575 909 
Q 2384 2338 2119 4841 
L 2606 4916 
Q 2809 2638 3938 1300 
Q 5041 2647 5313 4928 
L 5813 4841 
z
M 2181 1222 
Q 2200 953 2250 678 
Q 1819 359 1313 -47 
Q 1156 -178 1025 -341 
L 663 47 
Q 856 253 856 653 
L 856 2772 
L 94 2772 
L 94 3234 
L 1331 3234 
L 1331 553 
Q 1763 884 2181 1222 
z
M 3250 5103 
L 3650 5316 
Q 4050 4703 4425 4016 
L 3981 3759 
Q 3569 4584 3250 5103 
z
M 788 5172 
Q 1238 4722 1700 4191 
L 1281 3834 
Q 813 4434 425 4866 
L 788 5172 
z
" transform="scale(0.015625)"/>
      <path id="MicrosoftYaHei-28" d="M 625 0 
L 625 4841 
L 2047 4841 
Q 2684 4841 3065 4536 
Q 3447 4231 3447 3728 
Q 3447 3328 3220 3022 
Q 2994 2716 2597 2588 
L 2597 2575 
Q 3091 2519 3386 2201 
Q 3681 1884 3681 1397 
Q 3681 772 3232 386 
Q 2784 0 2084 0 
L 625 0 
z
M 1250 4294 
L 1250 2778 
L 1819 2778 
Q 2272 2778 2530 2998 
Q 2788 3219 2788 3609 
Q 2788 4294 1875 4294 
L 1250 4294 
z
M 1250 2234 
L 1250 547 
L 2000 547 
Q 2491 547 2758 773 
Q 3025 1000 3025 1403 
Q 3025 2234 1897 2234 
L 1250 2234 
z
" transform="scale(0.015625)"/>
      <path id="MicrosoftYaHei-379" d="M 1606 3531 
Q 1772 3531 1890 3415 
Q 2009 3300 2009 3138 
Q 2009 2975 1893 2858 
Q 1778 2741 1606 2741 
Q 1434 2741 1318 2858 
Q 1203 2975 1203 3138 
Q 1203 3300 1322 3415 
Q 1441 3531 1606 3531 
z
M 1606 716 
Q 1772 716 1890 600 
Q 2009 484 2009 319 
Q 2009 150 1890 36 
Q 1772 -78 1606 -78 
Q 1441 -78 1322 36 
Q 1203 150 1203 319 
Q 1203 484 1322 600 
Q 1441 716 1606 716 
z
" transform="scale(0.015625)"/>
      <path id="MicrosoftYaHei-2d" d="M 4284 331 
Q 3559 -81 2647 -81 
Q 1597 -81 955 583 
Q 313 1247 313 2356 
Q 313 3478 1022 4200 
Q 1731 4922 2841 4922 
Q 3625 4922 4169 4672 
L 4169 3997 
Q 3588 4363 2784 4363 
Q 1994 4363 1481 3822 
Q 969 3281 969 2397 
Q 969 1488 1441 981 
Q 1913 475 2716 475 
Q 3269 475 3656 688 
L 3656 1997 
L 2606 1997 
L 2606 2550 
L 4284 2550 
L 4284 331 
z
" transform="scale(0.015625)"/>
      <path id="MicrosoftYaHei-2c" d="M 3119 4284 
L 1250 4284 
L 1250 2666 
L 2981 2666 
L 2981 2116 
L 1250 2116 
L 1250 0 
L 625 0 
L 625 4841 
L 3119 4841 
L 3119 4284 
z
" transform="scale(0.015625)"/>
      <path id="MicrosoftYaHei-36" d="M 1250 1809 
L 1250 0 
L 625 0 
L 625 4841 
L 2000 4841 
Q 2784 4841 3217 4462 
Q 3650 4084 3650 3381 
Q 3650 2669 3144 2226 
Q 2638 1784 1878 1809 
L 1250 1809 
z
M 1250 4291 
L 1250 2359 
L 1828 2359 
Q 2400 2359 2697 2617 
Q 2994 2875 2994 3356 
Q 2994 4291 1888 4291 
L 1250 4291 
z
" transform="scale(0.015625)"/>
      <path id="MicrosoftYaHei-27" d="M 4428 0 
L 3738 0 
L 3244 1325 
L 1228 1325 
L 763 0 
L 72 0 
L 1916 4841 
L 2584 4841 
L 4428 0 
z
M 3050 1872 
L 2319 3884 
Q 2284 3981 2244 4222 
L 2228 4222 
Q 2194 4003 2150 3884 
L 1425 1872 
L 3050 1872 
z
" transform="scale(0.015625)"/>
      <path id="MicrosoftYaHei-34" d="M 4578 0 
L 3838 0 
L 1403 3766 
Q 1300 3925 1238 4081 
L 1219 4081 
Q 1244 3919 1244 3403 
L 1244 0 
L 625 0 
L 625 4841 
L 1409 4841 
L 3778 1141 
Q 3947 878 3978 806 
L 3991 806 
Q 3959 1013 3959 1513 
L 3959 4841 
L 4578 4841 
L 4578 0 
z
" transform="scale(0.015625)"/>
      <path id="MicrosoftYaHei-618" d="M 113 -397 
Q 2419 34 3081 972 
L 213 972 
L 213 1434 
L 3313 1434 
Q 3525 2084 3506 3703 
L 4031 3703 
Q 4031 2097 3856 1434 
L 6225 1434 
L 6225 972 
L 3681 972 
Q 3631 872 3563 759 
Q 4900 197 6181 -403 
L 5906 -878 
Q 4569 -197 3263 391 
Q 2413 -441 413 -891 
Q 269 -616 113 -397 
z
M 331 4422 
L 3194 4422 
Q 3038 4703 2775 5078 
L 3231 5334 
Q 3438 5059 3731 4609 
L 3388 4422 
L 6063 4422 
L 6063 3303 
L 5563 3303 
L 5563 3959 
L 831 3959 
L 831 3303 
L 331 3303 
L 331 4422 
z
M 1100 2734 
Q 1819 2409 2450 2053 
L 2181 1622 
Q 1556 2003 863 2334 
L 1100 2734 
z
M 1663 3691 
Q 2388 3341 2981 2984 
L 2700 2559 
Q 2119 2934 1419 3322 
L 1663 3691 
z
" transform="scale(0.015625)"/>
      <path id="MicrosoftYaHei-b8e" d="M 2256 1678 
Q 2419 503 1656 334 
Q 1413 284 1025 328 
Q 975 584 888 834 
Q 1219 753 1469 784 
Q 1906 834 1763 1678 
Q 1675 2166 1169 2828 
Q 1425 3591 1681 4491 
L 850 4491 
L 850 -841 
L 375 -841 
L 375 4953 
L 2200 4953 
L 2200 4503 
Q 1913 3572 1694 2884 
Q 2194 2203 2256 1678 
z
M 2150 3228 
L 6225 3228 
L 6225 2766 
L 4425 2766 
L 4425 16 
Q 4425 -747 3688 -747 
Q 3394 -747 2938 -741 
Q 2881 -403 2838 -209 
Q 3313 -259 3575 -259 
Q 3938 -259 3938 122 
L 3938 2766 
L 2150 2766 
L 2150 3228 
z
M 2488 4803 
L 5888 4803 
L 5888 4341 
L 2488 4341 
L 2488 4803 
z
M 2969 2097 
L 3431 1928 
Q 2988 747 2481 -222 
Q 2206 -72 2038 -3 
Q 2594 1003 2969 2097 
z
M 4900 1872 
L 5331 2084 
Q 5844 1041 6300 53 
L 5844 -166 
Q 5494 641 4900 1872 
z
" transform="scale(0.015625)"/>
      <path id="MicrosoftYaHei-a87" d="M 75 3541 
Q 694 4309 1150 5341 
L 1588 5222 
Q 1475 4972 1356 4741 
L 2575 4741 
L 2575 4359 
L 2094 3666 
L 2888 3666 
L 2888 -128 
Q 2888 -759 2238 -759 
Q 2006 -759 1706 -747 
Q 1681 -547 1638 -328 
Q 1938 -359 2150 -359 
Q 2481 -359 2481 -72 
L 2481 928 
L 1881 928 
L 1881 -266 
L 1475 -266 
L 1475 928 
L 900 928 
Q 850 -297 425 -872 
Q 281 -709 75 -553 
Q 500 16 500 1278 
L 500 3378 
Q 438 3303 381 3228 
Q 256 3372 75 3541 
z
M 5219 809 
L 5600 978 
Q 5994 216 6319 -622 
L 5875 -822 
Q 5775 -528 5669 -247 
Q 4394 -397 3119 -566 
L 3063 -78 
Q 3713 -28 4456 34 
L 4456 1616 
L 3763 1616 
L 3763 1303 
L 3338 1303 
L 3338 4053 
L 4456 4053 
L 4456 5259 
L 4894 5259 
L 4894 4053 
L 6013 4053 
L 6013 1616 
L 4894 1616 
L 4894 78 
Q 5194 109 5513 147 
Q 5369 484 5219 809 
z
M 3763 2016 
L 4456 2016 
L 4456 3653 
L 3763 3653 
L 3763 2016 
z
M 5588 3653 
L 4894 3653 
L 4894 2016 
L 5588 2016 
L 5588 3653 
z
M 706 3666 
L 1594 3666 
L 2063 4366 
L 1150 4366 
Q 944 3997 706 3666 
z
M 1881 1297 
L 2481 1297 
L 2481 2116 
L 1881 2116 
L 1881 1297 
z
M 2481 3297 
L 1881 3297 
L 1881 2484 
L 2481 2484 
L 2481 3297 
z
M 906 1297 
L 1475 1297 
L 1475 2116 
L 906 2116 
L 906 1297 
z
M 906 2484 
L 1475 2484 
L 1475 3297 
L 906 3297 
L 906 2484 
z
" transform="scale(0.015625)"/>
      <path id="MicrosoftYaHei-547" d="M 944 3909 
L 2266 3909 
Q 2419 4563 2525 5334 
L 3056 5266 
Q 2950 4556 2797 3909 
L 6250 3909 
L 6250 3447 
L 2678 3447 
Q 2566 3034 2431 2653 
L 5531 2653 
L 5531 2222 
Q 5119 1200 4247 456 
Q 5125 -75 6294 -291 
Q 6013 -603 5856 -816 
Q 4856 -484 3844 153 
Q 3031 -381 1519 -859 
Q 1344 -609 1144 -397 
Q 2681 3 3441 450 
Q 2619 1153 2269 2222 
Q 1584 509 406 -591 
Q 238 -353 75 -166 
Q 1484 1106 2147 3447 
L 413 3447 
L 413 3916 
Q 669 4509 881 5109 
L 1388 4972 
Q 1169 4422 944 3909 
z
M 4981 2222 
L 2722 2222 
Q 3003 1356 3838 731 
Q 4647 1400 4981 2222 
z
M 4019 4903 
L 4294 5253 
Q 4906 4866 5469 4447 
L 5131 4041 
Q 4588 4503 4019 4903 
z
" transform="scale(0.015625)"/>
      <path id="MicrosoftYaHei-543" d="M 1819 1397 
Q 1500 309 475 -791 
Q 325 -591 100 -353 
Q 1038 628 1325 1622 
Q 1606 2475 1656 4416 
L 388 4416 
L 388 4884 
L 4981 4884 
L 4981 4409 
L 4375 3191 
L 5531 3191 
L 5531 2747 
Q 5038 1500 4209 653 
Q 5138 -9 6306 -234 
Q 6088 -541 5981 -772 
Q 4622 -341 3816 294 
Q 2969 -397 1719 -866 
Q 1619 -684 1406 -409 
Q 2619 -6 3428 644 
Q 2575 1506 2084 2784 
Q 1991 1953 1819 1397 
z
M 3769 3128 
L 4413 4416 
L 2181 4416 
Q 2175 4069 2159 3750 
Q 2781 1956 3809 981 
Q 4591 1741 4963 2722 
L 3769 2722 
L 3769 3128 
z
" transform="scale(0.015625)"/>
      <path id="MicrosoftYaHei-a9c" d="M 2431 4884 
L 5875 4884 
L 5875 1597 
L 5394 1597 
L 5394 1972 
L 2913 1972 
L 2913 1597 
L 2431 1597 
L 2431 4884 
z
M 5394 4447 
L 2913 4447 
L 2913 2409 
L 5394 2409 
L 5394 4447 
z
M 2313 1309 
Q 2344 1047 2394 791 
Q 1831 372 1325 -41 
Q 1200 -153 1050 -328 
L 681 59 
Q 881 259 881 609 
L 881 2772 
L 88 2772 
L 88 3222 
L 1363 3222 
L 1363 566 
Q 1875 947 2313 1309 
z
M 4469 997 
L 4875 1297 
Q 5619 503 6381 -422 
L 5931 -759 
Q 5225 153 4469 997 
z
M 3306 1322 
L 3725 1022 
Q 2981 116 2063 -784 
Q 1906 -634 1681 -447 
Q 2544 334 3306 1322 
z
M 1025 5203 
Q 1638 4578 2000 4172 
L 1569 3816 
Q 1088 4434 656 4891 
L 1025 5203 
z
" transform="scale(0.015625)"/>
      <path id="MicrosoftYaHei-4f0" d="M 538 4959 
L 3375 4959 
L 3375 2772 
L 2888 2772 
L 2888 3028 
L 1025 3028 
L 1025 2772 
L 538 2772 
L 538 4959 
z
M 300 2116 
L 1316 2116 
Q 1331 2431 1338 2822 
L 1825 2822 
Q 1816 2431 1797 2116 
L 3431 2116 
Q 3413 1028 3363 328 
Q 3319 -684 2431 -678 
Q 2006 -678 1563 -641 
Q 1531 -347 1469 -122 
Q 1963 -203 2350 -203 
Q 2850 -209 2875 378 
Q 2925 891 2938 1666 
L 1769 1666 
Q 1688 53 431 -859 
Q 300 -666 88 -441 
Q 1238 366 1288 1666 
L 300 1666 
L 300 2116 
z
M 5425 5278 
L 5944 5278 
L 5944 53 
Q 5944 -747 5163 -747 
Q 4756 -747 4175 -741 
Q 4138 -484 4081 -178 
Q 4725 -228 4994 -228 
Q 5425 -228 5425 191 
L 5425 5278 
z
M 4138 4647 
L 4644 4647 
L 4644 666 
L 4138 666 
L 4138 4647 
z
M 2888 4509 
L 1025 4509 
L 1025 3478 
L 2888 3478 
L 2888 4509 
z
" transform="scale(0.015625)"/>
      <path id="MicrosoftYaHei-9c8" d="M 2625 1709 
L 5925 1709 
L 5925 -828 
L 5438 -828 
L 5438 -441 
L 3113 -441 
L 3113 -828 
L 2625 -828 
L 2625 1709 
z
M 2500 2897 
L 4025 2897 
L 4025 3872 
L 2294 3872 
L 2294 4322 
L 4025 4322 
L 4025 5322 
L 4525 5322 
L 4525 4322 
L 6275 4322 
L 6275 3872 
L 4525 3872 
L 4525 2897 
L 6056 2897 
L 6056 2447 
L 2500 2447 
L 2500 2897 
z
M 894 1566 
Q 1725 1684 2269 1778 
Q 2231 1534 2213 1303 
Q 1519 1203 319 1009 
L 219 1472 
Q 619 1888 1172 2791 
Q 647 2756 219 2722 
L 100 3147 
Q 675 3916 1294 5366 
L 1769 5178 
Q 1094 3853 663 3184 
Q 1025 3194 1419 3206 
Q 1631 3569 1863 3997 
L 2325 3766 
Q 1613 2578 894 1566 
z
M 5438 1272 
L 3113 1272 
L 3113 -3 
L 5438 -3 
L 5438 1272 
z
M 75 91 
Q 1231 316 2331 584 
Q 2313 334 2313 109 
Q 1300 -103 213 -391 
L 75 91 
z
" transform="scale(0.015625)"/>
      <path id="MicrosoftYaHei-7e7" d="M 6338 -53 
Q 6100 -309 5944 -522 
Q 4425 -41 3438 1181 
L 3438 -841 
L 2963 -841 
L 2963 1188 
Q 2084 172 450 -603 
Q 300 -416 75 -203 
Q 1550 363 2472 1259 
L 213 1259 
L 213 1709 
L 2963 1709 
L 2963 2384 
L 1306 2384 
L 1306 2141 
L 831 2141 
L 831 5016 
L 5569 5016 
L 5569 2141 
L 5094 2141 
L 5094 2384 
L 3438 2384 
L 3438 1709 
L 6200 1709 
L 6200 1259 
L 3856 1259 
Q 4769 294 6338 -53 
z
M 3438 2809 
L 5094 2809 
L 5094 3497 
L 3438 3497 
L 3438 2809 
z
M 5094 4591 
L 3438 4591 
L 3438 3903 
L 5094 3903 
L 5094 4591 
z
M 1306 2809 
L 2963 2809 
L 2963 3497 
L 1306 3497 
L 1306 2809 
z
M 1306 3903 
L 2963 3903 
L 2963 4591 
L 1306 4591 
L 1306 3903 
z
" transform="scale(0.015625)"/>
      <path id="MicrosoftYaHei-919" d="M 356 4284 
L 988 4284 
Q 1219 4853 1369 5322 
L 1894 5172 
Q 1697 4694 1513 4284 
L 2763 4284 
L 2763 -691 
L 2263 -691 
L 2263 -203 
L 856 -203 
L 856 -734 
L 356 -734 
L 356 4284 
z
M 2856 3003 
Q 3444 3934 3850 5322 
L 4375 5191 
Q 4216 4719 4050 4303 
L 6063 4303 
Q 5988 1091 5938 259 
Q 5894 -722 4906 -722 
Q 4338 -722 3750 -684 
Q 3713 -372 3650 -128 
L 3669 -128 
Q 4294 -216 4813 -216 
Q 5381 -216 5425 384 
Q 5494 1316 5525 3834 
L 3850 3834 
Q 3578 3231 3288 2772 
Q 3119 2891 2856 3003 
z
M 856 266 
L 2263 266 
L 2263 1847 
L 856 1847 
L 856 266 
z
M 2263 3816 
L 856 3816 
L 856 2297 
L 2263 2297 
L 2263 3816 
z
M 3406 2578 
L 3788 2859 
Q 4481 2041 4894 1441 
L 4431 1116 
Q 3988 1841 3406 2578 
z
" transform="scale(0.015625)"/>
      <path id="MicrosoftYaHei-6a7" d="M 119 2734 
L 1803 2734 
Q 1713 2903 1613 3053 
L 1897 3191 
L 875 3191 
L 875 3028 
L 450 3028 
L 450 5041 
L 3563 5041 
L 3563 3028 
L 3138 3028 
L 3138 3191 
L 2047 3191 
Q 2188 2972 2303 2734 
L 3969 2734 
L 3969 2372 
L 119 2372 
L 119 2734 
z
M 550 2016 
L 3475 2016 
L 3475 703 
L 3050 703 
L 3050 797 
L 2275 797 
L 2275 -72 
Q 2275 -791 1625 -791 
Q 1406 -791 1050 -784 
Q 1025 -559 969 -341 
Q 1288 -384 1513 -384 
Q 1844 -384 1844 -22 
L 1844 797 
L 975 797 
L 975 703 
L 550 703 
L 550 2016 
z
M 3600 -497 
Q 5038 378 5913 1734 
L 6300 1447 
Q 5319 -9 3931 -866 
Q 3763 -634 3600 -497 
z
M 3825 1784 
Q 4913 2522 5756 3634 
L 6144 3328 
Q 5200 2178 4150 1409 
Q 3981 1628 3825 1784 
z
M 3756 3616 
Q 4681 4203 5469 5222 
L 5856 4934 
Q 5075 3928 4088 3259 
Q 3906 3478 3756 3616 
z
M 3050 1678 
L 975 1678 
L 975 1134 
L 3050 1134 
L 3050 1678 
z
M 3138 4691 
L 875 4691 
L 875 4278 
L 3138 4278 
L 3138 4691 
z
M 875 3541 
L 3138 3541 
L 3138 3953 
L 875 3953 
L 875 3541 
z
M 81 -347 
Q 525 22 1019 609 
L 1381 359 
Q 838 -278 400 -634 
L 81 -347 
z
M 2575 372 
L 2869 641 
Q 3225 359 3675 -47 
L 3350 -366 
Q 3019 3 2575 372 
z
" transform="scale(0.015625)"/>
      <path id="MicrosoftYaHei-580" d="M 2425 4441 
L 3525 4441 
Q 3700 4884 3838 5316 
L 4344 5197 
Q 4181 4803 4019 4441 
L 5875 4441 
L 5875 -59 
Q 5875 -766 5225 -772 
Q 4900 -778 4444 -772 
Q 4413 -547 4356 -284 
Q 4781 -322 5100 -322 
Q 5438 -322 5438 72 
L 5438 4016 
L 2863 4016 
L 2863 -859 
L 2425 -859 
L 2425 4441 
z
M 413 4484 
L 1925 4484 
L 1925 166 
L 1488 166 
L 1488 641 
L 850 641 
L 850 72 
L 413 72 
L 413 4484 
z
M 3325 3191 
L 4975 3191 
L 4975 741 
L 3750 741 
L 3750 466 
L 3325 466 
L 3325 3191 
z
M 1488 4053 
L 850 4053 
L 850 1072 
L 1488 1072 
L 1488 4053 
z
M 4550 2803 
L 3750 2803 
L 3750 1128 
L 4550 1128 
L 4550 2803 
z
" transform="scale(0.015625)"/>
     </defs>
     <use xlink:href="#MicrosoftYaHei-523"/>
     <use xlink:href="#MicrosoftYaHei-a91" transform="translate(100 0)"/>
     <use xlink:href="#MicrosoftYaHei-28" transform="translate(200 0)"/>
     <use xlink:href="#MicrosoftYaHei-19" transform="translate(262.75 0)"/>
     <use xlink:href="#MicrosoftYaHei-379" transform="translate(321.390625 0)"/>
     <use xlink:href="#MicrosoftYaHei-2d" transform="translate(421.390625 0)"/>
     <use xlink:href="#MicrosoftYaHei-2c" transform="translate(495.75 0)"/>
     <use xlink:href="#MicrosoftYaHei-36" transform="translate(548.875 0)"/>
     <use xlink:href="#MicrosoftYaHei-2d" transform="translate(609.53125 0)"/>
     <use xlink:href="#MicrosoftYaHei-27" transform="translate(683.890625 0)"/>
     <use xlink:href="#MicrosoftYaHei-34" transform="translate(754.25 0)"/>
     <use xlink:href="#MicrosoftYaHei-618" transform="translate(835.546875 0)"/>
     <use xlink:href="#MicrosoftYaHei-b8e" transform="translate(935.546875 0)"/>
     <use xlink:href="#MicrosoftYaHei-a87" transform="translate(1035.546875 0)"/>
     <use xlink:href="#MicrosoftYaHei-547" transform="translate(1135.546875 0)"/>
     <use xlink:href="#MicrosoftYaHei-543" transform="translate(1235.546875 0)"/>
     <use xlink:href="#MicrosoftYaHei-62b" transform="translate(1335.546875 0)"/>
     <use xlink:href="#MicrosoftYaHei-a9c" transform="translate(1435.546875 0)"/>
     <use xlink:href="#MicrosoftYaHei-4f0" transform="translate(1535.546875 0)"/>
     <use xlink:href="#MicrosoftYaHei-9c8" transform="translate(1635.546875 0)"/>
     <use xlink:href="#MicrosoftYaHei-7e7" transform="translate(1735.546875 0)"/>
     <use xlink:href="#MicrosoftYaHei-919" transform="translate(1835.546875 0)"/>
     <use xlink:href="#MicrosoftYaHei-6a7" transform="translate(1935.546875 0)"/>
     <use xlink:href="#MicrosoftYaHei-580" transform="translate(2035.546875 0)"/>
    </g>
   </g>
  </g>
 </g>
 <defs>
  <clipPath id="p361d24909e">
   <rect x="44.238066" y="24.099688" width="575.172402" height="267.18582"/>
  </clipPath>
 </defs>
</svg>
