<?xml version="1.0" encoding="utf-8" standalone="no"?>
<!DOCTYPE svg PUBLIC "-//W3C//DTD SVG 1.1//EN"
  "http://www.w3.org/Graphics/SVG/1.1/DTD/svg11.dtd">
<svg xmlns:xlink="http://www.w3.org/1999/xlink" width="856.681719pt" height="314.874188pt" viewBox="0 0 856.681719 314.874188" xmlns="http://www.w3.org/2000/svg" version="1.1">
 <metadata>
  <rdf:RDF xmlns:dc="http://purl.org/dc/elements/1.1/" xmlns:cc="http://creativecommons.org/ns#" xmlns:rdf="http://www.w3.org/1999/02/22-rdf-syntax-ns#">
   <cc:Work>
    <dc:type rdf:resource="http://purl.org/dc/dcmitype/StillImage"/>
    <dc:date>2026-07-14T15:13:45.973853</dc:date>
    <dc:format>image/svg+xml</dc:format>
    <dc:creator>
     <cc:Agent>
      <dc:title>Matplotlib v3.11.0, https://matplotlib.org/</dc:title>
     </cc:Agent>
    </dc:creator>
   </cc:Work>
  </rdf:RDF>
 </metadata>
 <defs>
  <style type="text/css">*{stroke-linejoin: round; stroke-linecap: butt}</style>
 </defs>
 <g id="figure_1">
  <g id="patch_1">
   <path d="M -0 314.874188 
L 856.681719 314.874188 
L 856.681719 0 
L -0 0 
z
" style="fill: #ffffff"/>
  </g>
  <g id="axes_1">
   <g id="patch_2">
    <path d="M 44.389316 289.69782 
L 303.220117 289.69782 
L 303.220117 69.246434 
L 44.389316 69.246434 
z
" style="fill: #ffffff"/>
   </g>
   <g id="matplotlib.axis_1">
    <g id="xtick_1">
     <g id="line2d_1">
      <defs>
       <path id="m5435839b2c" d="M 0 0 
L 0 3.5 
" style="stroke: #000000; stroke-width: 0.8"/>
      </defs>
      <g>
       <use xlink:href="#m5435839b2c" x="109.097017" y="289.69782" style="stroke: #000000; stroke-width: 0.8"/>
      </g>
     </g>
     <g id="text_1">
      <!-- 库内同人 -->
      <g transform="translate(89.097017 305.140008) scale(0.1 -0.1)">
       <defs>
        <path id="MicrosoftYaHei-680" d="M 1338 778 
L 3706 778 
L 3706 1441 
L 1800 1441 
L 1800 1897 
Q 2125 2369 2409 2922 
L 1500 2922 
L 1500 3372 
L 2628 3372 
Q 2784 3706 2925 4066 
L 3438 3928 
Q 3309 3641 3178 3372 
L 5913 3372 
L 5913 2922 
L 2953 2922 
Q 2666 2366 2369 1891 
L 3706 1891 
L 3706 2684 
L 4206 2684 
L 4206 1891 
L 5919 1891 
L 5919 1441 
L 4206 1441 
L 4206 778 
L 6225 778 
L 6225 328 
L 4206 328 
L 4206 -828 
L 3706 -828 
L 3706 328 
L 1338 328 
L 1338 778 
z
M 2981 5122 
L 3363 5403 
Q 3663 5116 3919 4778 
L 3653 4584 
L 6238 4584 
L 6238 4134 
L 1206 4134 
L 1206 2353 
Q 1213 203 388 -878 
Q 231 -678 31 -453 
Q 713 441 706 2266 
L 706 4584 
L 3416 4584 
Q 3213 4856 2981 5122 
z
" transform="scale(0.015625)"/>
        <path id="MicrosoftYaHei-4c4" d="M 638 4184 
L 2944 4184 
L 2944 5259 
L 3456 5259 
L 3456 4184 
L 5750 4184 
L 5750 59 
Q 5750 -734 4969 -728 
Q 4556 -728 3956 -716 
Q 3938 -503 3863 -172 
Q 4456 -222 4850 -228 
Q 5244 -241 5244 166 
L 5244 3709 
L 3444 3709 
Q 3419 3141 3306 2697 
Q 4413 1809 5094 1134 
L 4713 728 
Q 4044 1459 3156 2247 
Q 2731 1328 1538 647 
Q 1275 1009 1188 1097 
Q 2206 1634 2581 2291 
Q 2881 2772 2931 3709 
L 1144 3709 
L 1144 -784 
L 638 -784 
L 638 4184 
z
" transform="scale(0.015625)"/>
        <path id="MicrosoftYaHei-563" d="M 1013 -772 
L 531 -772 
L 531 4959 
L 5856 4959 
L 5856 -47 
Q 5856 -741 5125 -741 
Q 4669 -741 4088 -716 
Q 4056 -497 4000 -216 
Q 4619 -272 5025 -272 
Q 5375 -272 5375 78 
L 5375 4497 
L 1013 4497 
L 1013 -772 
z
M 1875 2566 
L 4506 2566 
L 4506 597 
L 2338 597 
L 2338 272 
L 1875 272 
L 1875 2566 
z
M 4044 2116 
L 2338 2116 
L 2338 1047 
L 4044 1047 
L 4044 2116 
z
M 1363 3734 
L 5025 3734 
L 5025 3284 
L 1363 3284 
L 1363 3734 
z
" transform="scale(0.015625)"/>
        <path id="MicrosoftYaHei-44b" d="M 100 -303 
Q 2825 1272 2981 5222 
L 3531 5222 
Q 3497 4553 3400 3947 
Q 4175 822 6313 -166 
Q 6050 -453 5850 -709 
Q 3994 341 3203 3006 
Q 2519 431 494 -778 
Q 325 -547 100 -303 
z
" transform="scale(0.015625)"/>
       </defs>
       <use xlink:href="#MicrosoftYaHei-680"/>
       <use xlink:href="#MicrosoftYaHei-4c4" transform="translate(100 0)"/>
       <use xlink:href="#MicrosoftYaHei-563" transform="translate(200 0)"/>
       <use xlink:href="#MicrosoftYaHei-44b" transform="translate(300 0)"/>
      </g>
     </g>
    </g>
    <g id="xtick_2">
     <g id="line2d_2">
      <g>
       <use xlink:href="#m5435839b2c" x="238.512417" y="289.69782" style="stroke: #000000; stroke-width: 0.8"/>
      </g>
     </g>
     <g id="text_2">
      <!-- 库外陌生人 -->
      <g transform="translate(213.512417 305.140008) scale(0.1 -0.1)">
       <defs>
        <path id="MicrosoftYaHei-5d9" d="M 38 2084 
Q 969 3503 1438 5316 
L 1950 5172 
Q 1800 4666 1638 4197 
L 3375 4197 
L 3375 3734 
Q 3044 628 569 -822 
Q 438 -616 244 -378 
Q 1456 341 2106 1422 
Q 1669 1791 1125 2172 
L 1444 2553 
Q 1975 2166 2350 1872 
Q 2738 2678 2850 3722 
L 1456 3722 
Q 1019 2616 325 1553 
Q 200 1809 38 2084 
z
M 3988 5266 
L 4513 5266 
L 4513 3116 
L 4763 3397 
Q 5656 2703 6356 2128 
L 6000 1666 
Q 5338 2278 4513 2972 
L 4513 -859 
L 3988 -859 
L 3988 5266 
z
" transform="scale(0.015625)"/>
        <path id="MicrosoftYaHei-6670" d="M 2588 3572 
L 3744 3572 
L 3919 4422 
L 2400 4422 
L 2400 4872 
L 6244 4872 
L 6244 4422 
L 4425 4422 
L 4225 3572 
L 5906 3572 
L 5906 -816 
L 5431 -816 
L 5431 -341 
L 3063 -341 
L 3063 -816 
L 2588 -816 
L 2588 3572 
z
M 1694 2797 
Q 2288 2091 2288 1184 
Q 2288 234 1400 234 
Q 1213 234 1044 247 
Q 994 484 906 772 
Q 1181 709 1363 709 
Q 1806 709 1806 1241 
Q 1806 1984 1206 2716 
Q 1475 3597 1719 4497 
L 869 4497 
L 869 -847 
L 400 -847 
L 400 4934 
L 2238 4934 
L 2238 4497 
Q 1825 3209 1694 2797 
z
M 5431 3122 
L 3063 3122 
L 3063 1841 
L 5431 1841 
L 5431 3122 
z
M 3063 109 
L 5431 109 
L 5431 1391 
L 3063 1391 
L 3063 109 
z
" transform="scale(0.015625)"/>
        <path id="MicrosoftYaHei-8ff" d="M 125 16 
L 3025 16 
L 3025 1609 
L 813 1609 
L 813 2091 
L 3025 2091 
L 3025 3534 
L 1375 3534 
Q 959 2784 419 2178 
Q 288 2384 81 2616 
Q 963 3603 1475 5028 
L 1988 4891 
Q 1822 4434 1622 4016 
L 3025 4016 
L 3025 5341 
L 3563 5341 
L 3563 4016 
L 5950 4016 
L 5950 3534 
L 3563 3534 
L 3563 2091 
L 5775 2091 
L 5775 1609 
L 3563 1609 
L 3563 16 
L 6288 16 
L 6288 -453 
L 125 -453 
L 125 16 
z
" transform="scale(0.015625)"/>
       </defs>
       <use xlink:href="#MicrosoftYaHei-680"/>
       <use xlink:href="#MicrosoftYaHei-5d9" transform="translate(100 0)"/>
       <use xlink:href="#MicrosoftYaHei-6670" transform="translate(200 0)"/>
       <use xlink:href="#MicrosoftYaHei-8ff" transform="translate(300 0)"/>
       <use xlink:href="#MicrosoftYaHei-44b" transform="translate(400 0)"/>
      </g>
     </g>
    </g>
   </g>
   <g id="matplotlib.axis_2">
    <g id="ytick_1">
     <g id="line2d_3">
      <path d="M 44.389316 289.69782 
L 303.220117 289.69782 
" clip-path="url(#p9c068eb487)" style="fill: none; stroke: #b0b0b0; stroke-opacity: 0.25; stroke-width: 0.8; stroke-linecap: square"/>
     </g>
     <g id="line2d_4">
      <defs>
       <path id="mee7cca6ab2" d="M 0 0 
L -3.5 0 
" style="stroke: #000000; stroke-width: 0.8"/>
      </defs>
      <g>
       <use xlink:href="#mee7cca6ab2" x="44.389316" y="289.69782" style="stroke: #000000; stroke-width: 0.8"/>
      </g>
     </g>
     <g id="text_3">
      <!-- 0.0 -->
      <g transform="translate(23.253379 293.757879) scale(0.1 -0.1)">
       <defs>
        <path id="MicrosoftYaHei-16" d="M 284 2325 
Q 284 3606 709 4264 
Q 1134 4922 1941 4922 
Q 3478 4922 3478 2441 
Q 3478 1216 3045 567 
Q 2613 -81 1831 -81 
Q 1094 -81 689 534 
Q 284 1150 284 2325 
z
M 909 2353 
Q 909 425 1888 425 
Q 2850 425 2850 2384 
Q 2850 4413 1906 4413 
Q 909 4413 909 2353 
z
" transform="scale(0.015625)"/>
        <path id="MicrosoftYaHei-14" d="M 372 322 
Q 372 491 487 606 
Q 603 722 775 722 
Q 950 722 1065 605 
Q 1181 488 1181 322 
Q 1181 159 1065 42 
Q 950 -75 772 -75 
Q 600 -75 486 42 
Q 372 159 372 322 
z
" transform="scale(0.015625)"/>
       </defs>
       <use xlink:href="#MicrosoftYaHei-16"/>
       <use xlink:href="#MicrosoftYaHei-14" transform="translate(58.640625 0)"/>
       <use xlink:href="#MicrosoftYaHei-16" transform="translate(82.71875 0)"/>
      </g>
     </g>
    </g>
    <g id="ytick_2">
     <g id="line2d_5">
      <path d="M 44.389316 246.891726 
L 303.220117 246.891726 
" clip-path="url(#p9c068eb487)" style="fill: none; stroke: #b0b0b0; stroke-opacity: 0.25; stroke-width: 0.8; stroke-linecap: square"/>
     </g>
     <g id="line2d_6">
      <g>
       <use xlink:href="#mee7cca6ab2" x="44.389316" y="246.891726" style="stroke: #000000; stroke-width: 0.8"/>
      </g>
     </g>
     <g id="text_4">
      <!-- 0.2 -->
      <g transform="translate(23.253379 250.951784) scale(0.1 -0.1)">
       <defs>
        <path id="MicrosoftYaHei-18" d="M 2666 3572 
Q 2666 3963 2419 4186 
Q 2172 4409 1747 4409 
Q 1447 4409 1140 4256 
Q 834 4103 569 3819 
L 569 4413 
Q 806 4659 1107 4790 
Q 1409 4922 1816 4922 
Q 2472 4922 2872 4570 
Q 3272 4219 3272 3619 
Q 3272 3084 3026 2693 
Q 2781 2303 2188 1894 
Q 1581 1475 1376 1294 
Q 1172 1113 1090 947 
Q 1009 781 1009 544 
L 3416 544 
L 3416 0 
L 372 0 
L 372 241 
Q 372 659 486 951 
Q 600 1244 862 1520 
Q 1125 1797 1681 2184 
Q 2250 2584 2458 2886 
Q 2666 3188 2666 3572 
z
" transform="scale(0.015625)"/>
       </defs>
       <use xlink:href="#MicrosoftYaHei-16"/>
       <use xlink:href="#MicrosoftYaHei-14" transform="translate(58.640625 0)"/>
       <use xlink:href="#MicrosoftYaHei-18" transform="translate(82.71875 0)"/>
      </g>
     </g>
    </g>
    <g id="ytick_3">
     <g id="line2d_7">
      <path d="M 44.389316 204.085631 
L 303.220117 204.085631 
" clip-path="url(#p9c068eb487)" style="fill: none; stroke: #b0b0b0; stroke-opacity: 0.25; stroke-width: 0.8; stroke-linecap: square"/>
     </g>
     <g id="line2d_8">
      <g>
       <use xlink:href="#mee7cca6ab2" x="44.389316" y="204.085631" style="stroke: #000000; stroke-width: 0.8"/>
      </g>
     </g>
     <g id="text_5">
      <!-- 0.4 -->
      <g transform="translate(23.253379 208.14569) scale(0.1 -0.1)">
       <defs>
        <path id="MicrosoftYaHei-1a" d="M 2906 4841 
L 2906 1644 
L 3631 1644 
L 3631 1138 
L 2906 1138 
L 2906 0 
L 2313 0 
L 2313 1138 
L 53 1138 
L 53 1616 
Q 656 2294 1265 3178 
Q 1875 4063 2272 4841 
L 2906 4841 
z
M 741 1644 
L 2313 1644 
L 2313 3950 
Q 1988 3366 1616 2817 
Q 1244 2269 741 1644 
z
" transform="scale(0.015625)"/>
       </defs>
       <use xlink:href="#MicrosoftYaHei-16"/>
       <use xlink:href="#MicrosoftYaHei-14" transform="translate(58.640625 0)"/>
       <use xlink:href="#MicrosoftYaHei-1a" transform="translate(82.71875 0)"/>
      </g>
     </g>
    </g>
    <g id="ytick_4">
     <g id="line2d_9">
      <path d="M 44.389316 161.279537 
L 303.220117 161.279537 
" clip-path="url(#p9c068eb487)" style="fill: none; stroke: #b0b0b0; stroke-opacity: 0.25; stroke-width: 0.8; stroke-linecap: square"/>
     </g>
     <g id="line2d_10">
      <g>
       <use xlink:href="#mee7cca6ab2" x="44.389316" y="161.279537" style="stroke: #000000; stroke-width: 0.8"/>
      </g>
     </g>
     <g id="text_6">
      <!-- 0.6 -->
      <g transform="translate(23.253379 165.339595) scale(0.1 -0.1)">
       <defs>
        <path id="MicrosoftYaHei-1c" d="M 3181 4219 
Q 2803 4413 2391 4413 
Q 1763 4413 1381 3866 
Q 1000 3319 994 2372 
L 1009 2372 
Q 1353 3038 2106 3038 
Q 2734 3038 3109 2628 
Q 3484 2219 3484 1541 
Q 3484 831 3051 375 
Q 2619 -81 1947 -81 
Q 1209 -81 789 495 
Q 369 1072 369 2131 
Q 369 3413 920 4167 
Q 1472 4922 2372 4922 
Q 2888 4922 3181 4781 
L 3181 4219 
z
M 1031 1584 
Q 1031 1106 1286 765 
Q 1541 425 1963 425 
Q 2363 425 2613 719 
Q 2863 1013 2863 1475 
Q 2863 1975 2627 2253 
Q 2391 2531 1956 2531 
Q 1544 2531 1287 2250 
Q 1031 1969 1031 1584 
z
" transform="scale(0.015625)"/>
       </defs>
       <use xlink:href="#MicrosoftYaHei-16"/>
       <use xlink:href="#MicrosoftYaHei-14" transform="translate(58.640625 0)"/>
       <use xlink:href="#MicrosoftYaHei-1c" transform="translate(82.71875 0)"/>
      </g>
     </g>
    </g>
    <g id="ytick_5">
     <g id="line2d_11">
      <path d="M 44.389316 118.473442 
L 303.220117 118.473442 
" clip-path="url(#p9c068eb487)" style="fill: none; stroke: #b0b0b0; stroke-opacity: 0.25; stroke-width: 0.8; stroke-linecap: square"/>
     </g>
     <g id="line2d_12">
      <g>
       <use xlink:href="#mee7cca6ab2" x="44.389316" y="118.473442" style="stroke: #000000; stroke-width: 0.8"/>
      </g>
     </g>
     <g id="text_7">
      <!-- 0.8 -->
      <g transform="translate(23.253379 122.533501) scale(0.1 -0.1)">
       <defs>
        <path id="MicrosoftYaHei-1e" d="M 306 1350 
Q 306 1769 556 2122 
Q 806 2475 1200 2625 
Q 884 2803 700 3081 
Q 516 3359 516 3684 
Q 516 4028 692 4312 
Q 869 4597 1183 4759 
Q 1497 4922 1875 4922 
Q 2256 4922 2572 4761 
Q 2888 4600 3063 4315 
Q 3238 4031 3238 3684 
Q 3238 3366 3058 3086 
Q 2878 2806 2559 2625 
Q 2953 2472 3200 2119 
Q 3447 1766 3447 1350 
Q 3447 938 3250 611 
Q 3053 284 2690 103 
Q 2328 -78 1875 -78 
Q 1425 -78 1065 103 
Q 706 284 506 612 
Q 306 941 306 1350 
z
M 906 1378 
Q 906 947 1172 687 
Q 1438 428 1878 428 
Q 2309 428 2582 692 
Q 2856 956 2856 1378 
Q 2856 1778 2579 2051 
Q 2303 2325 1878 2325 
Q 1456 2325 1181 2058 
Q 906 1791 906 1378 
z
M 1081 3634 
Q 1081 3309 1312 3076 
Q 1544 2844 1878 2844 
Q 2206 2844 2445 3078 
Q 2684 3313 2684 3634 
Q 2684 3963 2454 4191 
Q 2225 4419 1878 4419 
Q 1534 4419 1307 4195 
Q 1081 3972 1081 3634 
z
" transform="scale(0.015625)"/>
       </defs>
       <use xlink:href="#MicrosoftYaHei-16"/>
       <use xlink:href="#MicrosoftYaHei-14" transform="translate(58.640625 0)"/>
       <use xlink:href="#MicrosoftYaHei-1e" transform="translate(82.71875 0)"/>
      </g>
     </g>
    </g>
    <g id="ytick_6">
     <g id="line2d_13">
      <path d="M 44.389316 75.667348 
L 303.220117 75.667348 
" clip-path="url(#p9c068eb487)" style="fill: none; stroke: #b0b0b0; stroke-opacity: 0.25; stroke-width: 0.8; stroke-linecap: square"/>
     </g>
     <g id="line2d_14">
      <g>
       <use xlink:href="#mee7cca6ab2" x="44.389316" y="75.667348" style="stroke: #000000; stroke-width: 0.8"/>
      </g>
     </g>
     <g id="text_8">
      <!-- 1.0 -->
      <g transform="translate(23.253379 79.727406) scale(0.1 -0.1)">
       <defs>
        <path id="MicrosoftYaHei-17" d="M 1781 0 
L 1781 4141 
Q 1638 3997 1295 3819 
Q 953 3641 663 3569 
L 663 4169 
Q 1047 4275 1484 4508 
Q 1922 4741 2156 4947 
L 2388 4947 
L 2388 0 
L 1781 0 
z
" transform="scale(0.015625)"/>
       </defs>
       <use xlink:href="#MicrosoftYaHei-17"/>
       <use xlink:href="#MicrosoftYaHei-14" transform="translate(58.640625 0)"/>
       <use xlink:href="#MicrosoftYaHei-16" transform="translate(82.71875 0)"/>
      </g>
     </g>
    </g>
    <g id="text_9">
     <!-- 相似度 -->
     <g transform="translate(16.465781 195.972127) rotate(-90) scale(0.11 -0.11)">
      <defs>
       <path id="MicrosoftYaHei-92c" d="M 2738 4891 
L 6025 4891 
L 6025 -822 
L 5550 -822 
L 5550 -397 
L 3213 -397 
L 3213 -822 
L 2738 -822 
L 2738 4891 
z
M 94 1409 
Q 784 2372 1128 3622 
L 169 3622 
L 169 4041 
L 1138 4041 
L 1138 5284 
L 1594 5284 
L 1594 4041 
L 2506 4041 
L 2506 3622 
L 1594 3622 
L 1594 2534 
L 1844 2791 
Q 2275 2372 2638 1984 
L 2300 1653 
Q 1956 2059 1594 2444 
L 1594 -809 
L 1138 -809 
L 1138 2444 
Q 800 1516 319 866 
Q 225 1134 94 1409 
z
M 3213 28 
L 5550 28 
L 5550 1241 
L 3213 1241 
L 3213 28 
z
M 5550 4466 
L 3213 4466 
L 3213 3266 
L 5550 3266 
L 5550 4466 
z
M 3213 1653 
L 5550 1653 
L 5550 2853 
L 3213 2853 
L 3213 1653 
z
" transform="scale(0.015625)"/>
       <path id="MicrosoftYaHei-477" d="M 5138 5128 
L 5638 5128 
Q 5638 3153 5500 2178 
Q 5416 1556 5181 1025 
Q 5841 241 6319 -353 
L 5869 -703 
Q 5469 -97 4953 581 
Q 4447 -266 3500 -847 
Q 3338 -653 3113 -434 
Q 4731 428 5013 2253 
Q 5138 3041 5138 5128 
z
M 81 2278 
Q 925 3709 1244 5316 
L 1706 5216 
Q 1550 4544 1331 3916 
L 1331 -828 
L 844 -828 
L 844 2747 
Q 594 2231 294 1747 
Q 194 2016 81 2278 
z
M 4163 1903 
Q 4188 1534 4213 1316 
Q 3506 866 2588 234 
Q 2419 109 2263 -28 
L 1913 397 
Q 2138 597 2138 966 
L 2138 4634 
L 2625 4634 
L 2625 891 
Q 3288 1316 4163 1903 
z
M 3163 5053 
L 3594 5278 
Q 4113 4372 4469 3684 
L 3975 3428 
Q 3550 4353 3163 5053 
z
" transform="scale(0.015625)"/>
       <path id="MicrosoftYaHei-686" d="M 1550 1216 
L 1550 1628 
L 5469 1628 
L 5469 1222 
Q 4903 613 4147 163 
Q 5050 -200 6263 -309 
L 6019 -797 
Q 4625 -603 3644 -109 
Q 2600 -619 1250 -866 
Q 1150 -666 994 -416 
Q 2231 -222 3166 166 
Q 2497 600 2066 1216 
L 1550 1216 
z
M 1363 3541 
L 2294 3541 
L 2294 4066 
L 2769 4066 
L 2769 3541 
L 4538 3541 
L 4538 4072 
L 5013 4072 
L 5013 3541 
L 6150 3541 
L 6150 3128 
L 5013 3128 
L 5013 1928 
L 4538 1928 
L 4538 2147 
L 2769 2147 
L 2769 1922 
L 2294 1922 
L 2294 3128 
L 1363 3128 
L 1363 3541 
z
M 3025 5172 
L 3481 5391 
Q 3694 5056 3909 4634 
L 6213 4634 
L 6213 4197 
L 1225 4197 
L 1225 2316 
Q 1225 178 394 -872 
Q 238 -666 38 -447 
Q 725 397 738 2347 
L 738 4634 
L 3331 4634 
Q 3188 4909 3025 5172 
z
M 2769 2547 
L 4538 2547 
L 4538 3128 
L 2769 3128 
L 2769 2547 
z
M 4819 1216 
L 2588 1216 
Q 3031 728 3656 391 
Q 4334 741 4819 1216 
z
" transform="scale(0.015625)"/>
      </defs>
      <use xlink:href="#MicrosoftYaHei-92c"/>
      <use xlink:href="#MicrosoftYaHei-477" transform="translate(100 0)"/>
      <use xlink:href="#MicrosoftYaHei-686" transform="translate(200 0)"/>
     </g>
    </g>
   </g>
   <g id="patch_3">
    <path d="M 73.507781 287.325614 
L 144.686252 287.325614 
L 144.686252 277.528957 
L 73.507781 277.528957 
L 73.507781 287.325614 
z
" clip-path="url(#p9c068eb487)" style="fill: #4c78a8; opacity: 0.75; stroke: #000000; stroke-linejoin: miter"/>
   </g>
   <g id="line2d_15">
    <path d="M 109.097017 287.325614 
L 109.097017 289.110949 
" clip-path="url(#p9c068eb487)" style="fill: none; stroke: #000000; stroke-linecap: square"/>
   </g>
   <g id="line2d_16">
    <path d="M 109.097017 277.528957 
L 109.097017 269.05822 
" clip-path="url(#p9c068eb487)" style="fill: none; stroke: #000000; stroke-linecap: square"/>
   </g>
   <g id="line2d_17">
    <path d="M 91.302399 289.110949 
L 126.891634 289.110949 
" clip-path="url(#p9c068eb487)" style="fill: none; stroke: #000000; stroke-linecap: square"/>
   </g>
   <g id="line2d_18">
    <path d="M 91.302399 269.05822 
L 126.891634 269.05822 
" clip-path="url(#p9c068eb487)" style="fill: none; stroke: #000000; stroke-linecap: square"/>
   </g>
   <g id="patch_4">
    <path d="M 202.923182 284.860946 
L 274.101652 284.860946 
L 274.101652 274.887982 
L 202.923182 274.887982 
L 202.923182 284.860946 
z
" clip-path="url(#p9c068eb487)" style="fill: #e45756; opacity: 0.75; stroke: #000000; stroke-linejoin: miter"/>
   </g>
   <g id="line2d_19">
    <path d="M 238.512417 284.860946 
L 238.512417 289.390901 
" clip-path="url(#p9c068eb487)" style="fill: none; stroke: #000000; stroke-linecap: square"/>
   </g>
   <g id="line2d_20">
    <path d="M 238.512417 274.887982 
L 238.512417 263.860918 
" clip-path="url(#p9c068eb487)" style="fill: none; stroke: #000000; stroke-linecap: square"/>
   </g>
   <g id="line2d_21">
    <path d="M 220.717799 289.390901 
L 256.307035 289.390901 
" clip-path="url(#p9c068eb487)" style="fill: none; stroke: #000000; stroke-linecap: square"/>
   </g>
   <g id="line2d_22">
    <path d="M 220.717799 263.860918 
L 256.307035 263.860918 
" clip-path="url(#p9c068eb487)" style="fill: none; stroke: #000000; stroke-linecap: square"/>
   </g>
   <g id="line2d_23">
    <path d="M 73.507781 282.134733 
L 144.686252 282.134733 
" clip-path="url(#p9c068eb487)" style="fill: none; stroke: #ff7f0e"/>
   </g>
   <g id="line2d_24">
    <path d="M 202.923182 280.081645 
L 274.101652 280.081645 
" clip-path="url(#p9c068eb487)" style="fill: none; stroke: #ff7f0e"/>
   </g>
   <g id="patch_5">
    <path d="M 44.389316 289.69782 
L 44.389316 69.246434 
" style="fill: none; stroke: #000000; stroke-width: 0.8; stroke-linejoin: miter; stroke-linecap: square"/>
   </g>
   <g id="patch_6">
    <path d="M 303.220117 289.69782 
L 303.220117 69.246434 
" style="fill: none; stroke: #000000; stroke-width: 0.8; stroke-linejoin: miter; stroke-linecap: square"/>
   </g>
   <g id="patch_7">
    <path d="M 44.389316 289.69782 
L 303.220117 289.69782 
" style="fill: none; stroke: #000000; stroke-width: 0.8; stroke-linejoin: miter; stroke-linecap: square"/>
   </g>
   <g id="patch_8">
    <path d="M 44.389316 69.246434 
L 303.220117 69.246434 
" style="fill: none; stroke: #000000; stroke-width: 0.8; stroke-linejoin: miter; stroke-linecap: square"/>
   </g>
   <g id="text_10">
    <!-- 人脸最高相似度 -->
    <g transform="translate(128.304717 63.246434) scale(0.13 -0.13)">
     <defs>
      <path id="MicrosoftYaHei-a0e" d="M 4650 5228 
L 4544 5047 
Q 5231 3866 6363 3284 
Q 6256 3159 6069 2866 
Q 4969 3534 4275 4653 
Q 3731 3791 2525 2803 
Q 2344 3028 2206 3178 
L 2206 -122 
Q 2206 -747 1600 -747 
Q 1313 -747 1069 -734 
Q 1050 -534 994 -272 
Q 1300 -303 1475 -303 
Q 1756 -303 1756 -9 
L 1756 1409 
L 938 1409 
Q 888 -16 388 -872 
Q 225 -691 31 -547 
Q 494 222 494 1703 
L 494 4978 
L 2206 4978 
L 2206 3209 
Q 3506 4116 4056 5228 
L 4650 5228 
z
M 2425 -91 
L 4625 -91 
Q 5081 1072 5456 2272 
L 5925 2103 
Q 5556 1047 5106 -91 
L 6175 -91 
L 6175 -522 
L 2425 -522 
L 2425 -91 
z
M 2919 3022 
L 5581 3022 
L 5581 2591 
L 2919 2591 
L 2919 3022 
z
M 944 1822 
L 1756 1822 
L 1756 2991 
L 944 2991 
L 944 1822 
z
M 1756 4566 
L 944 4566 
L 944 3403 
L 1756 3403 
L 1756 4566 
z
M 2644 1972 
L 3069 2103 
Q 3381 1184 3600 422 
L 3144 272 
Q 2938 1141 2644 1972 
z
M 3806 2178 
L 4219 2272 
Q 4463 1422 4644 578 
L 4194 472 
Q 4044 1259 3806 2178 
z
" transform="scale(0.015625)"/>
      <path id="MicrosoftYaHei-7c2" d="M 169 -28 
Q 475 3 781 38 
L 781 2416 
L 94 2416 
L 94 2791 
L 6288 2791 
L 6288 2416 
L 3025 2416 
L 3025 331 
Q 3325 375 3625 422 
Q 3619 309 3631 22 
Q 3338 -19 3025 -63 
L 3025 -859 
L 2600 -859 
L 2600 -125 
Q 1525 -278 281 -472 
L 169 -28 
z
M 1038 5053 
L 5363 5053 
L 5363 3047 
L 4925 3047 
L 4925 3191 
L 1475 3191 
L 1475 3047 
L 1038 3047 
L 1038 5053 
z
M 3338 1609 
L 3338 1972 
L 5819 1972 
L 5819 1609 
Q 5500 844 4981 278 
Q 5516 -113 6306 -316 
Q 6144 -553 6025 -753 
Q 5219 -488 4666 -34 
Q 4128 -516 3413 -822 
Q 3306 -634 3125 -428 
Q 3834 -156 4347 266 
Q 3825 825 3603 1609 
L 3338 1609 
z
M 1475 3553 
L 4925 3553 
L 4925 3953 
L 1475 3953 
L 1475 3553 
z
M 4925 4691 
L 1475 4691 
L 1475 4291 
L 4925 4291 
L 4925 4691 
z
M 5344 1609 
L 4025 1609 
Q 4222 994 4659 556 
Q 5094 1013 5344 1609 
z
M 2600 269 
L 2600 691 
L 1206 691 
L 1206 88 
Q 1913 172 2600 269 
z
M 1206 1916 
L 2600 1916 
L 2600 2416 
L 1206 2416 
L 1206 1916 
z
M 1206 1053 
L 2600 1053 
L 2600 1553 
L 1206 1553 
L 1206 1053 
z
" transform="scale(0.015625)"/>
      <path id="MicrosoftYaHei-be4" d="M 1194 3922 
L 5250 3922 
L 5250 2397 
L 4775 2397 
L 4775 2597 
L 1669 2597 
L 1669 2403 
L 1194 2403 
L 1194 3922 
z
M 969 -784 
L 494 -784 
L 494 2147 
L 5956 2147 
L 5956 22 
Q 5956 -747 5231 -747 
Q 4825 -747 4319 -734 
Q 4281 -522 4219 -241 
Q 4794 -284 5100 -284 
Q 5481 -284 5481 97 
L 5481 1747 
L 969 1747 
L 969 -784 
z
M 1813 1334 
L 4638 1334 
L 4638 28 
L 2263 28 
L 2263 -241 
L 1813 -241 
L 1813 1334 
z
M 125 4747 
L 2988 4747 
Q 2850 5013 2725 5216 
L 3194 5403 
Q 3372 5094 3541 4747 
L 6275 4747 
L 6275 4334 
L 125 4334 
L 125 4747 
z
M 4775 3534 
L 1669 3534 
L 1669 2984 
L 4775 2984 
L 4775 3534 
z
M 4188 416 
L 4188 947 
L 2263 947 
L 2263 416 
L 4188 416 
z
" transform="scale(0.015625)"/>
     </defs>
     <use xlink:href="#MicrosoftYaHei-44b"/>
     <use xlink:href="#MicrosoftYaHei-a0e" transform="translate(100 0)"/>
     <use xlink:href="#MicrosoftYaHei-7c2" transform="translate(200 0)"/>
     <use xlink:href="#MicrosoftYaHei-be4" transform="translate(300 0)"/>
     <use xlink:href="#MicrosoftYaHei-92c" transform="translate(400 0)"/>
     <use xlink:href="#MicrosoftYaHei-477" transform="translate(500 0)"/>
     <use xlink:href="#MicrosoftYaHei-686" transform="translate(600 0)"/>
    </g>
   </g>
  </g>
  <g id="axes_2">
   <g id="patch_9">
    <path d="M 317.520117 289.69782 
L 576.350918 289.69782 
L 576.350918 69.246434 
L 317.520117 69.246434 
z
" style="fill: #ffffff"/>
   </g>
   <g id="matplotlib.axis_3">
    <g id="xtick_3">
     <g id="line2d_25">
      <g>
       <use xlink:href="#m5435839b2c" x="382.227817" y="289.69782" style="stroke: #000000; stroke-width: 0.8"/>
      </g>
     </g>
     <g id="text_11">
      <!-- 库内同人 -->
      <g transform="translate(362.227817 305.140008) scale(0.1 -0.1)">
       <use xlink:href="#MicrosoftYaHei-680"/>
       <use xlink:href="#MicrosoftYaHei-4c4" transform="translate(100 0)"/>
       <use xlink:href="#MicrosoftYaHei-563" transform="translate(200 0)"/>
       <use xlink:href="#MicrosoftYaHei-44b" transform="translate(300 0)"/>
      </g>
     </g>
    </g>
    <g id="xtick_4">
     <g id="line2d_26">
      <g>
       <use xlink:href="#m5435839b2c" x="511.643218" y="289.69782" style="stroke: #000000; stroke-width: 0.8"/>
      </g>
     </g>
     <g id="text_12">
      <!-- 库外陌生人 -->
      <g transform="translate(486.643218 305.140008) scale(0.1 -0.1)">
       <use xlink:href="#MicrosoftYaHei-680"/>
       <use xlink:href="#MicrosoftYaHei-5d9" transform="translate(100 0)"/>
       <use xlink:href="#MicrosoftYaHei-6670" transform="translate(200 0)"/>
       <use xlink:href="#MicrosoftYaHei-8ff" transform="translate(300 0)"/>
       <use xlink:href="#MicrosoftYaHei-44b" transform="translate(400 0)"/>
      </g>
     </g>
    </g>
   </g>
   <g id="matplotlib.axis_4">
    <g id="ytick_7">
     <g id="line2d_27">
      <path d="M 317.520117 289.69782 
L 576.350918 289.69782 
" clip-path="url(#p67c35cb71a)" style="fill: none; stroke: #b0b0b0; stroke-opacity: 0.25; stroke-width: 0.8; stroke-linecap: square"/>
     </g>
     <g id="line2d_28">
      <g>
       <use xlink:href="#mee7cca6ab2" x="317.520117" y="289.69782" style="stroke: #000000; stroke-width: 0.8"/>
      </g>
     </g>
    </g>
    <g id="ytick_8">
     <g id="line2d_29">
      <path d="M 317.520117 246.891726 
L 576.350918 246.891726 
" clip-path="url(#p67c35cb71a)" style="fill: none; stroke: #b0b0b0; stroke-opacity: 0.25; stroke-width: 0.8; stroke-linecap: square"/>
     </g>
     <g id="line2d_30">
      <g>
       <use xlink:href="#mee7cca6ab2" x="317.520117" y="246.891726" style="stroke: #000000; stroke-width: 0.8"/>
      </g>
     </g>
    </g>
    <g id="ytick_9">
     <g id="line2d_31">
      <path d="M 317.520117 204.085631 
L 576.350918 204.085631 
" clip-path="url(#p67c35cb71a)" style="fill: none; stroke: #b0b0b0; stroke-opacity: 0.25; stroke-width: 0.8; stroke-linecap: square"/>
     </g>
     <g id="line2d_32">
      <g>
       <use xlink:href="#mee7cca6ab2" x="317.520117" y="204.085631" style="stroke: #000000; stroke-width: 0.8"/>
      </g>
     </g>
    </g>
    <g id="ytick_10">
     <g id="line2d_33">
      <path d="M 317.520117 161.279537 
L 576.350918 161.279537 
" clip-path="url(#p67c35cb71a)" style="fill: none; stroke: #b0b0b0; stroke-opacity: 0.25; stroke-width: 0.8; stroke-linecap: square"/>
     </g>
     <g id="line2d_34">
      <g>
       <use xlink:href="#mee7cca6ab2" x="317.520117" y="161.279537" style="stroke: #000000; stroke-width: 0.8"/>
      </g>
     </g>
    </g>
    <g id="ytick_11">
     <g id="line2d_35">
      <path d="M 317.520117 118.473442 
L 576.350918 118.473442 
" clip-path="url(#p67c35cb71a)" style="fill: none; stroke: #b0b0b0; stroke-opacity: 0.25; stroke-width: 0.8; stroke-linecap: square"/>
     </g>
     <g id="line2d_36">
      <g>
       <use xlink:href="#mee7cca6ab2" x="317.520117" y="118.473442" style="stroke: #000000; stroke-width: 0.8"/>
      </g>
     </g>
    </g>
    <g id="ytick_12">
     <g id="line2d_37">
      <path d="M 317.520117 75.667348 
L 576.350918 75.667348 
" clip-path="url(#p67c35cb71a)" style="fill: none; stroke: #b0b0b0; stroke-opacity: 0.25; stroke-width: 0.8; stroke-linecap: square"/>
     </g>
     <g id="line2d_38">
      <g>
       <use xlink:href="#mee7cca6ab2" x="317.520117" y="75.667348" style="stroke: #000000; stroke-width: 0.8"/>
      </g>
     </g>
    </g>
   </g>
   <g id="patch_10">
    <path d="M 346.638582 131.906637 
L 417.817052 131.906637 
L 417.817052 105.178725 
L 346.638582 105.178725 
L 346.638582 131.906637 
z
" clip-path="url(#p67c35cb71a)" style="fill: #4c78a8; opacity: 0.75; stroke: #000000; stroke-linejoin: miter"/>
   </g>
   <g id="line2d_39">
    <path d="M 382.227817 131.906637 
L 382.227817 158.171386 
" clip-path="url(#p67c35cb71a)" style="fill: none; stroke: #000000; stroke-linecap: square"/>
   </g>
   <g id="line2d_40">
    <path d="M 382.227817 105.178725 
L 382.227817 91.34401 
" clip-path="url(#p67c35cb71a)" style="fill: none; stroke: #000000; stroke-linecap: square"/>
   </g>
   <g id="line2d_41">
    <path d="M 364.4332 158.171386 
L 400.022435 158.171386 
" clip-path="url(#p67c35cb71a)" style="fill: none; stroke: #000000; stroke-linecap: square"/>
   </g>
   <g id="line2d_42">
    <path d="M 364.4332 91.34401 
L 400.022435 91.34401 
" clip-path="url(#p67c35cb71a)" style="fill: none; stroke: #000000; stroke-linecap: square"/>
   </g>
   <g id="patch_11">
    <path d="M 476.053983 141.100744 
L 547.232453 141.100744 
L 547.232453 119.702512 
L 476.053983 119.702512 
L 476.053983 141.100744 
z
" clip-path="url(#p67c35cb71a)" style="fill: #e45756; opacity: 0.75; stroke: #000000; stroke-linejoin: miter"/>
   </g>
   <g id="line2d_43">
    <path d="M 511.643218 141.100744 
L 511.643218 161.32748 
" clip-path="url(#p67c35cb71a)" style="fill: none; stroke: #000000; stroke-linecap: square"/>
   </g>
   <g id="line2d_44">
    <path d="M 511.643218 119.702512 
L 511.643218 99.450842 
" clip-path="url(#p67c35cb71a)" style="fill: none; stroke: #000000; stroke-linecap: square"/>
   </g>
   <g id="line2d_45">
    <path d="M 493.8486 161.32748 
L 529.437835 161.32748 
" clip-path="url(#p67c35cb71a)" style="fill: none; stroke: #000000; stroke-linecap: square"/>
   </g>
   <g id="line2d_46">
    <path d="M 493.8486 99.450842 
L 529.437835 99.450842 
" clip-path="url(#p67c35cb71a)" style="fill: none; stroke: #000000; stroke-linecap: square"/>
   </g>
   <g id="line2d_47">
    <path d="M 346.638582 118.966783 
L 417.817052 118.966783 
" clip-path="url(#p67c35cb71a)" style="fill: none; stroke: #ff7f0e"/>
   </g>
   <g id="line2d_48">
    <path d="M 476.053983 131.796839 
L 547.232453 131.796839 
" clip-path="url(#p67c35cb71a)" style="fill: none; stroke: #ff7f0e"/>
   </g>
   <g id="patch_12">
    <path d="M 317.520117 289.69782 
L 317.520117 69.246434 
" style="fill: none; stroke: #000000; stroke-width: 0.8; stroke-linejoin: miter; stroke-linecap: square"/>
   </g>
   <g id="patch_13">
    <path d="M 576.350918 289.69782 
L 576.350918 69.246434 
" style="fill: none; stroke: #000000; stroke-width: 0.8; stroke-linejoin: miter; stroke-linecap: square"/>
   </g>
   <g id="patch_14">
    <path d="M 317.520117 289.69782 
L 576.350918 289.69782 
" style="fill: none; stroke: #000000; stroke-width: 0.8; stroke-linejoin: miter; stroke-linecap: square"/>
   </g>
   <g id="patch_15">
    <path d="M 317.520117 69.246434 
L 576.350918 69.246434 
" style="fill: none; stroke: #000000; stroke-width: 0.8; stroke-linejoin: miter; stroke-linecap: square"/>
   </g>
   <g id="text_13">
    <!-- 人形最高相似度 -->
    <g transform="translate(401.435518 63.246434) scale(0.13 -0.13)">
     <defs>
      <path id="MicrosoftYaHei-6a5" d="M 175 2647 
L 1019 2647 
L 1019 4422 
L 350 4422 
L 350 4872 
L 3775 4872 
L 3775 4422 
L 3006 4422 
L 3006 2647 
L 3975 2647 
L 3975 2197 
L 3006 2197 
L 3006 -791 
L 2525 -791 
L 2525 2197 
L 1497 2197 
Q 1500 128 406 -841 
Q 256 -622 75 -428 
Q 1025 366 1016 2197 
L 175 2197 
L 175 2647 
z
M 1500 2647 
L 2525 2647 
L 2525 4422 
L 1500 4422 
L 1500 2647 
z
M 6319 1353 
Q 5331 166 3738 -834 
Q 3631 -666 3388 -422 
Q 4925 397 5956 1672 
L 6319 1353 
z
M 6138 3172 
Q 5250 2159 4019 1347 
Q 3888 1528 3694 1722 
Q 4856 2441 5775 3484 
L 6138 3172 
z
M 6038 4934 
Q 5194 4009 3988 3266 
Q 3875 3428 3675 3666 
Q 4838 4322 5675 5253 
L 6038 4934 
z
" transform="scale(0.015625)"/>
     </defs>
     <use xlink:href="#MicrosoftYaHei-44b"/>
     <use xlink:href="#MicrosoftYaHei-6a5" transform="translate(100 0)"/>
     <use xlink:href="#MicrosoftYaHei-7c2" transform="translate(200 0)"/>
     <use xlink:href="#MicrosoftYaHei-be4" transform="translate(300 0)"/>
     <use xlink:href="#MicrosoftYaHei-92c" transform="translate(400 0)"/>
     <use xlink:href="#MicrosoftYaHei-477" transform="translate(500 0)"/>
     <use xlink:href="#MicrosoftYaHei-686" transform="translate(600 0)"/>
    </g>
   </g>
  </g>
  <g id="axes_3">
   <g id="patch_16">
    <path d="M 590.650918 289.69782 
L 849.481719 289.69782 
L 849.481719 69.246434 
L 590.650918 69.246434 
z
" style="fill: #ffffff"/>
   </g>
   <g id="matplotlib.axis_5">
    <g id="xtick_5">
     <g id="line2d_49">
      <g>
       <use xlink:href="#m5435839b2c" x="655.358618" y="289.69782" style="stroke: #000000; stroke-width: 0.8"/>
      </g>
     </g>
     <g id="text_14">
      <!-- 库内同人 -->
      <g transform="translate(635.358618 305.140008) scale(0.1 -0.1)">
       <use xlink:href="#MicrosoftYaHei-680"/>
       <use xlink:href="#MicrosoftYaHei-4c4" transform="translate(100 0)"/>
       <use xlink:href="#MicrosoftYaHei-563" transform="translate(200 0)"/>
       <use xlink:href="#MicrosoftYaHei-44b" transform="translate(300 0)"/>
      </g>
     </g>
    </g>
    <g id="xtick_6">
     <g id="line2d_50">
      <g>
       <use xlink:href="#m5435839b2c" x="784.774019" y="289.69782" style="stroke: #000000; stroke-width: 0.8"/>
      </g>
     </g>
     <g id="text_15">
      <!-- 库外陌生人 -->
      <g transform="translate(759.774019 305.140008) scale(0.1 -0.1)">
       <use xlink:href="#MicrosoftYaHei-680"/>
       <use xlink:href="#MicrosoftYaHei-5d9" transform="translate(100 0)"/>
       <use xlink:href="#MicrosoftYaHei-6670" transform="translate(200 0)"/>
       <use xlink:href="#MicrosoftYaHei-8ff" transform="translate(300 0)"/>
       <use xlink:href="#MicrosoftYaHei-44b" transform="translate(400 0)"/>
      </g>
     </g>
    </g>
   </g>
   <g id="matplotlib.axis_6">
    <g id="ytick_13">
     <g id="line2d_51">
      <path d="M 590.650918 289.69782 
L 849.481719 289.69782 
" clip-path="url(#pe8cd090326)" style="fill: none; stroke: #b0b0b0; stroke-opacity: 0.25; stroke-width: 0.8; stroke-linecap: square"/>
     </g>
     <g id="line2d_52">
      <g>
       <use xlink:href="#mee7cca6ab2" x="590.650918" y="289.69782" style="stroke: #000000; stroke-width: 0.8"/>
      </g>
     </g>
    </g>
    <g id="ytick_14">
     <g id="line2d_53">
      <path d="M 590.650918 246.891726 
L 849.481719 246.891726 
" clip-path="url(#pe8cd090326)" style="fill: none; stroke: #b0b0b0; stroke-opacity: 0.25; stroke-width: 0.8; stroke-linecap: square"/>
     </g>
     <g id="line2d_54">
      <g>
       <use xlink:href="#mee7cca6ab2" x="590.650918" y="246.891726" style="stroke: #000000; stroke-width: 0.8"/>
      </g>
     </g>
    </g>
    <g id="ytick_15">
     <g id="line2d_55">
      <path d="M 590.650918 204.085631 
L 849.481719 204.085631 
" clip-path="url(#pe8cd090326)" style="fill: none; stroke: #b0b0b0; stroke-opacity: 0.25; stroke-width: 0.8; stroke-linecap: square"/>
     </g>
     <g id="line2d_56">
      <g>
       <use xlink:href="#mee7cca6ab2" x="590.650918" y="204.085631" style="stroke: #000000; stroke-width: 0.8"/>
      </g>
     </g>
    </g>
    <g id="ytick_16">
     <g id="line2d_57">
      <path d="M 590.650918 161.279537 
L 849.481719 161.279537 
" clip-path="url(#pe8cd090326)" style="fill: none; stroke: #b0b0b0; stroke-opacity: 0.25; stroke-width: 0.8; stroke-linecap: square"/>
     </g>
     <g id="line2d_58">
      <g>
       <use xlink:href="#mee7cca6ab2" x="590.650918" y="161.279537" style="stroke: #000000; stroke-width: 0.8"/>
      </g>
     </g>
    </g>
    <g id="ytick_17">
     <g id="line2d_59">
      <path d="M 590.650918 118.473442 
L 849.481719 118.473442 
" clip-path="url(#pe8cd090326)" style="fill: none; stroke: #b0b0b0; stroke-opacity: 0.25; stroke-width: 0.8; stroke-linecap: square"/>
     </g>
     <g id="line2d_60">
      <g>
       <use xlink:href="#mee7cca6ab2" x="590.650918" y="118.473442" style="stroke: #000000; stroke-width: 0.8"/>
      </g>
     </g>
    </g>
    <g id="ytick_18">
     <g id="line2d_61">
      <path d="M 590.650918 75.667348 
L 849.481719 75.667348 
" clip-path="url(#pe8cd090326)" style="fill: none; stroke: #b0b0b0; stroke-opacity: 0.25; stroke-width: 0.8; stroke-linecap: square"/>
     </g>
     <g id="line2d_62">
      <g>
       <use xlink:href="#mee7cca6ab2" x="590.650918" y="75.667348" style="stroke: #000000; stroke-width: 0.8"/>
      </g>
     </g>
    </g>
   </g>
   <g id="patch_17">
    <path d="M 619.769383 83.293896 
L 690.947853 83.293896 
L 690.947853 79.129291 
L 619.769383 79.129291 
L 619.769383 83.293896 
z
" clip-path="url(#pe8cd090326)" style="fill: #4c78a8; opacity: 0.75; stroke: #000000; stroke-linejoin: miter"/>
   </g>
   <g id="line2d_63">
    <path d="M 655.358618 83.293896 
L 655.358618 87.604041 
" clip-path="url(#pe8cd090326)" style="fill: none; stroke: #000000; stroke-linecap: square"/>
   </g>
   <g id="line2d_64">
    <path d="M 655.358618 79.129291 
L 655.358618 77.97481 
" clip-path="url(#pe8cd090326)" style="fill: none; stroke: #000000; stroke-linecap: square"/>
   </g>
   <g id="line2d_65">
    <path d="M 637.564001 87.604041 
L 673.153236 87.604041 
" clip-path="url(#pe8cd090326)" style="fill: none; stroke: #000000; stroke-linecap: square"/>
   </g>
   <g id="line2d_66">
    <path d="M 637.564001 77.97481 
L 673.153236 77.97481 
" clip-path="url(#pe8cd090326)" style="fill: none; stroke: #000000; stroke-linecap: square"/>
   </g>
   <g id="patch_18">
    <path d="M 749.184783 82.795847 
L 820.363254 82.795847 
L 820.363254 79.724295 
L 749.184783 79.724295 
L 749.184783 82.795847 
z
" clip-path="url(#pe8cd090326)" style="fill: #e45756; opacity: 0.75; stroke: #000000; stroke-linejoin: miter"/>
   </g>
   <g id="line2d_67">
    <path d="M 784.774019 82.795847 
L 784.774019 85.795056 
" clip-path="url(#pe8cd090326)" style="fill: none; stroke: #000000; stroke-linecap: square"/>
   </g>
   <g id="line2d_68">
    <path d="M 784.774019 79.724295 
L 784.774019 78.184774 
" clip-path="url(#pe8cd090326)" style="fill: none; stroke: #000000; stroke-linecap: square"/>
   </g>
   <g id="line2d_69">
    <path d="M 766.979401 85.795056 
L 802.568636 85.795056 
" clip-path="url(#pe8cd090326)" style="fill: none; stroke: #000000; stroke-linecap: square"/>
   </g>
   <g id="line2d_70">
    <path d="M 766.979401 78.184774 
L 802.568636 78.184774 
" clip-path="url(#pe8cd090326)" style="fill: none; stroke: #000000; stroke-linecap: square"/>
   </g>
   <g id="line2d_71">
    <path d="M 619.769383 80.858657 
L 690.947853 80.858657 
" clip-path="url(#pe8cd090326)" style="fill: none; stroke: #ff7f0e"/>
   </g>
   <g id="line2d_72">
    <path d="M 749.184783 80.774971 
L 820.363254 80.774971 
" clip-path="url(#pe8cd090326)" style="fill: none; stroke: #ff7f0e"/>
   </g>
   <g id="patch_19">
    <path d="M 590.650918 289.69782 
L 590.650918 69.246434 
" style="fill: none; stroke: #000000; stroke-width: 0.8; stroke-linejoin: miter; stroke-linecap: square"/>
   </g>
   <g id="patch_20">
    <path d="M 849.481719 289.69782 
L 849.481719 69.246434 
" style="fill: none; stroke: #000000; stroke-width: 0.8; stroke-linejoin: miter; stroke-linecap: square"/>
   </g>
   <g id="patch_21">
    <path d="M 590.650918 289.69782 
L 849.481719 289.69782 
" style="fill: none; stroke: #000000; stroke-width: 0.8; stroke-linejoin: miter; stroke-linecap: square"/>
   </g>
   <g id="patch_22">
    <path d="M 590.650918 69.246434 
L 849.481719 69.246434 
" style="fill: none; stroke: #000000; stroke-width: 0.8; stroke-linejoin: miter; stroke-linecap: square"/>
   </g>
   <g id="text_16">
    <!-- 步态最高相似度 -->
    <g transform="translate(674.566318 63.246434) scale(0.13 -0.13)">
     <defs>
      <path id="MicrosoftYaHei-835" d="M 188 2997 
L 1250 2997 
L 1250 4759 
L 1750 4759 
L 1750 2997 
L 3088 2997 
L 3088 5328 
L 3588 5328 
L 3588 4416 
L 5744 4416 
L 5744 3966 
L 3588 3966 
L 3588 2997 
L 6225 2997 
L 6225 2534 
L 188 2534 
L 188 2997 
z
M 188 -441 
Q 3744 -9 5400 1872 
L 5794 1484 
Q 4013 -453 375 -891 
Q 306 -691 188 -441 
z
M 1794 2147 
L 2194 1803 
Q 1369 947 613 322 
Q 469 497 275 691 
Q 1044 1291 1794 2147 
z
M 3038 2378 
L 3538 2378 
L 3538 528 
L 3038 528 
L 3038 2378 
z
" transform="scale(0.015625)"/>
      <path id="MicrosoftYaHei-6c1" d="M 325 4434 
L 2888 4434 
Q 2972 4822 2969 5328 
L 3438 5328 
Q 3444 4841 3372 4434 
L 6075 4434 
L 6075 3991 
L 3528 3991 
Q 4419 2706 6231 2241 
Q 6050 2034 5881 1759 
Q 4041 2394 3172 3772 
Q 2975 3331 2588 2953 
Q 3078 2616 3538 2259 
L 3225 1891 
Q 2828 2244 2259 2675 
Q 1556 2138 388 1703 
Q 294 1922 113 2178 
Q 2250 2866 2750 3991 
L 325 3991 
L 325 4434 
z
M 1713 1547 
L 2200 1547 
L 2200 203 
Q 2200 -172 2575 -172 
L 3763 -172 
Q 4175 -172 4256 134 
Q 4331 428 4381 1028 
Q 4556 953 4863 847 
Q 4763 128 4706 -47 
Q 4563 -616 3869 -616 
L 2488 -616 
Q 1713 -616 1713 172 
L 1713 1547 
z
M 813 1447 
L 1281 1297 
Q 1038 522 663 -297 
Q 463 -203 194 -116 
Q 569 591 813 1447 
z
M 4894 1272 
L 5263 1553 
Q 5781 972 6306 309 
L 5888 -9 
Q 5425 641 4894 1272 
z
M 2594 1503 
L 2913 1809 
Q 3419 1403 3850 991 
L 3488 641 
Q 3094 1059 2594 1503 
z
" transform="scale(0.015625)"/>
     </defs>
     <use xlink:href="#MicrosoftYaHei-835"/>
     <use xlink:href="#MicrosoftYaHei-6c1" transform="translate(100 0)"/>
     <use xlink:href="#MicrosoftYaHei-7c2" transform="translate(200 0)"/>
     <use xlink:href="#MicrosoftYaHei-be4" transform="translate(300 0)"/>
     <use xlink:href="#MicrosoftYaHei-92c" transform="translate(400 0)"/>
     <use xlink:href="#MicrosoftYaHei-477" transform="translate(500 0)"/>
     <use xlink:href="#MicrosoftYaHei-686" transform="translate(600 0)"/>
    </g>
   </g>
  </g>
  <g id="text_17">
   <!-- 协议A：库内同人与库外陌生人的分数是否能分开 -->
   <g transform="translate(287.208359 18.174844) scale(0.13 -0.13)">
    <defs>
     <path id="MicrosoftYaHei-523" d="M 2206 4022 
L 3291 4022 
Q 3313 4659 3313 5278 
L 3800 5278 
Q 3794 4697 3772 4022 
L 5294 4022 
Q 5231 1716 5150 172 
Q 5113 -691 4281 -691 
Q 4075 -691 3594 -678 
Q 3550 -391 3488 -134 
Q 3894 -191 4200 -191 
Q 4650 -197 4675 291 
Q 4750 1784 4794 3534 
L 3756 3534 
Q 3722 2138 3538 1322 
Q 3219 84 2225 -778 
Q 2069 -603 1863 -409 
Q 2756 378 3056 1453 
Q 3250 2184 3278 3534 
L 2206 3534 
L 2206 4022 
z
M 94 3484 
L 775 3484 
L 775 5272 
L 1256 5272 
L 1256 3484 
L 1863 3484 
L 1863 3028 
L 1256 3028 
L 1256 -803 
L 775 -803 
L 775 3028 
L 94 3028 
L 94 3484 
z
M 2394 2916 
L 2813 2759 
Q 2500 1934 2088 997 
Q 1894 1103 1669 1191 
Q 2075 1978 2394 2916 
z
M 5331 2791 
L 5750 2922 
Q 6063 2047 6319 1278 
L 5863 1122 
Q 5600 2053 5331 2791 
z
" transform="scale(0.015625)"/>
     <path id="MicrosoftYaHei-a91" d="M 5813 4841 
Q 5447 2288 4309 909 
Q 5119 156 6288 -272 
Q 6056 -547 5888 -791 
Q 4719 -234 3941 516 
Q 3100 -300 1969 -847 
Q 1831 -647 1613 -372 
Q 2772 131 3575 909 
Q 2384 2338 2119 4841 
L 2606 4916 
Q 2809 2638 3938 1300 
Q 5041 2647 5313 4928 
L 5813 4841 
z
M 2181 1222 
Q 2200 953 2250 678 
Q 1819 359 1313 -47 
Q 1156 -178 1025 -341 
L 663 47 
Q 856 253 856 653 
L 856 2772 
L 94 2772 
L 94 3234 
L 1331 3234 
L 1331 553 
Q 1763 884 2181 1222 
z
M 3250 5103 
L 3650 5316 
Q 4050 4703 4425 4016 
L 3981 3759 
Q 3569 4584 3250 5103 
z
M 788 5172 
Q 1238 4722 1700 4191 
L 1281 3834 
Q 813 4434 425 4866 
L 788 5172 
z
" transform="scale(0.015625)"/>
     <path id="MicrosoftYaHei-27" d="M 4428 0 
L 3738 0 
L 3244 1325 
L 1228 1325 
L 763 0 
L 72 0 
L 1916 4841 
L 2584 4841 
L 4428 0 
z
M 3050 1872 
L 2319 3884 
Q 2284 3981 2244 4222 
L 2228 4222 
Q 2194 4003 2150 3884 
L 1425 1872 
L 3050 1872 
z
" transform="scale(0.015625)"/>
     <path id="MicrosoftYaHei-379" d="M 1606 3531 
Q 1772 3531 1890 3415 
Q 2009 3300 2009 3138 
Q 2009 2975 1893 2858 
Q 1778 2741 1606 2741 
Q 1434 2741 1318 2858 
Q 1203 2975 1203 3138 
Q 1203 3300 1322 3415 
Q 1441 3531 1606 3531 
z
M 1606 716 
Q 1772 716 1890 600 
Q 2009 484 2009 319 
Q 2009 150 1890 36 
Q 1772 -78 1606 -78 
Q 1441 -78 1322 36 
Q 1203 150 1203 319 
Q 1203 484 1322 600 
Q 1441 716 1606 716 
z
" transform="scale(0.015625)"/>
     <path id="MicrosoftYaHei-40a" d="M 1163 2384 
L 1163 2859 
L 1413 5328 
L 1931 5328 
L 1834 4334 
L 6269 4334 
L 6269 3859 
L 1791 3859 
L 1694 2859 
L 5813 2859 
Q 5738 1547 5644 416 
Q 5556 -247 5263 -478 
Q 4981 -703 4322 -703 
Q 3706 -697 2900 -678 
Q 2863 -466 2794 -134 
Q 3744 -203 4213 -209 
Q 5050 -266 5125 447 
Q 5206 1278 5263 2384 
L 1163 2384 
z
M 106 1409 
L 4738 1409 
L 4738 934 
L 106 934 
L 106 1409 
z
" transform="scale(0.015625)"/>
     <path id="MicrosoftYaHei-919" d="M 356 4284 
L 988 4284 
Q 1219 4853 1369 5322 
L 1894 5172 
Q 1697 4694 1513 4284 
L 2763 4284 
L 2763 -691 
L 2263 -691 
L 2263 -203 
L 856 -203 
L 856 -734 
L 356 -734 
L 356 4284 
z
M 2856 3003 
Q 3444 3934 3850 5322 
L 4375 5191 
Q 4216 4719 4050 4303 
L 6063 4303 
Q 5988 1091 5938 259 
Q 5894 -722 4906 -722 
Q 4338 -722 3750 -684 
Q 3713 -372 3650 -128 
L 3669 -128 
Q 4294 -216 4813 -216 
Q 5381 -216 5425 384 
Q 5494 1316 5525 3834 
L 3850 3834 
Q 3578 3231 3288 2772 
Q 3119 2891 2856 3003 
z
M 856 266 
L 2263 266 
L 2263 1847 
L 856 1847 
L 856 266 
z
M 2263 3816 
L 856 3816 
L 856 2297 
L 2263 2297 
L 2263 3816 
z
M 3406 2578 
L 3788 2859 
Q 4481 2041 4894 1441 
L 4431 1116 
Q 3988 1841 3406 2578 
z
" transform="scale(0.015625)"/>
     <path id="MicrosoftYaHei-4e3" d="M 900 2559 
L 5056 2559 
Q 5025 1497 4963 484 
Q 4888 -684 3856 -678 
Q 3350 -684 2788 -647 
Q 2750 -384 2700 -116 
Q 3181 -184 3775 -191 
Q 4400 -203 4463 541 
Q 4513 1216 4538 2097 
L 2616 2097 
Q 2541 1053 2181 416 
Q 1706 -422 588 -878 
Q 425 -666 231 -459 
Q 1269 -72 1725 666 
Q 2053 1225 2103 2097 
L 900 2097 
L 900 2559 
z
M 3488 5159 
L 3938 5353 
Q 4625 3678 6350 2847 
Q 6069 2553 5944 2372 
Q 4225 3366 3488 5159 
z
M 50 2766 
Q 1338 3678 2250 5253 
L 2694 5009 
Q 1744 3347 413 2341 
Q 281 2534 50 2766 
z
" transform="scale(0.015625)"/>
     <path id="MicrosoftYaHei-783" d="M 4175 5303 
L 4675 5228 
Q 4544 4622 4369 4097 
L 6281 4097 
L 6281 3672 
L 5888 3672 
Q 5731 1834 5088 753 
Q 5594 66 6375 -372 
Q 6175 -647 6038 -866 
Q 5275 -372 4769 309 
Q 4194 -403 3400 -928 
Q 3263 -747 3044 -534 
Q 3919 41 4463 772 
Q 3956 1647 3794 2791 
Q 3663 2559 3519 2359 
Q 3394 2541 3206 2759 
Q 3931 3803 4175 5303 
z
M 150 1697 
L 1100 1697 
Q 1238 1934 1369 2184 
L 1819 2041 
Q 1719 1866 1619 1697 
L 3150 1697 
L 3150 1291 
Q 2913 678 2431 216 
Q 2775 53 3131 -109 
L 2856 -541 
Q 2469 -322 2050 -103 
Q 1344 -609 269 -903 
Q 169 -703 56 -466 
Q 969 -259 1600 128 
Q 1063 403 475 691 
Q 675 978 863 1284 
L 150 1284 
L 150 1697 
z
M 219 3847 
L 1656 3847 
L 1656 5247 
L 2119 5247 
L 2119 3847 
L 3319 3847 
L 3319 3434 
L 2119 3434 
L 2119 3053 
L 2306 3266 
Q 2888 2841 3281 2516 
L 2981 2166 
Q 2638 2491 2119 2897 
L 2119 2184 
L 1656 2184 
L 1656 3059 
Q 1088 2466 331 2016 
Q 213 2197 63 2397 
Q 850 2822 1506 3434 
L 219 3434 
L 219 3847 
z
M 5388 3672 
L 4219 3672 
Q 4188 3591 4150 3516 
Q 4263 2191 4775 1247 
Q 5275 2159 5388 3672 
z
M 1088 834 
Q 1531 634 2000 416 
Q 2431 784 2675 1284 
L 1375 1284 
Q 1231 1053 1088 834 
z
M 3038 5091 
L 3425 4834 
Q 3081 4384 2738 4003 
Q 2594 4128 2400 4266 
Q 2725 4647 3038 5091 
z
M 381 4816 
L 738 5059 
Q 1019 4716 1319 4322 
L 931 4047 
Q 656 4453 381 4816 
z
" transform="scale(0.015625)"/>
     <path id="MicrosoftYaHei-7a9" d="M 1088 5078 
L 5338 5078 
L 5338 2472 
L 4863 2472 
L 4863 2722 
L 1563 2722 
L 1563 2472 
L 1088 2472 
L 1088 5078 
z
M 1400 1553 
L 1875 1409 
Q 1775 1081 1647 788 
Q 2122 19 3063 -134 
L 3063 1747 
L 213 1747 
L 213 2184 
L 6225 2184 
L 6225 1747 
L 3563 1747 
L 3563 1122 
L 5788 1122 
L 5788 697 
L 3563 697 
L 3563 -172 
Q 4763 -197 6344 -147 
Q 6244 -416 6169 -641 
Q 4331 -647 3344 -622 
Q 2022 -606 1434 359 
Q 1006 -413 350 -891 
Q 225 -703 44 -484 
Q 1050 191 1400 1553 
z
M 1563 3147 
L 4863 3147 
L 4863 3697 
L 1563 3697 
L 1563 3147 
z
M 4863 4653 
L 1563 4653 
L 1563 4109 
L 4863 4109 
L 4863 4653 
z
" transform="scale(0.015625)"/>
     <path id="MicrosoftYaHei-56b" d="M 938 1959 
L 5463 1959 
L 5463 -816 
L 4956 -816 
L 4956 -397 
L 1444 -397 
L 1444 -828 
L 938 -828 
L 938 1959 
z
M 350 4959 
L 6050 4959 
L 6050 4509 
L 3713 4509 
Q 3494 4247 3219 3984 
L 3488 3984 
L 3488 2166 
L 2981 2166 
L 2981 3772 
Q 1813 2803 419 2159 
Q 313 2347 100 2616 
Q 1875 3378 3113 4509 
L 350 4509 
L 350 4959 
z
M 4956 1509 
L 1444 1509 
L 1444 41 
L 4956 41 
L 4956 1509 
z
M 3619 3622 
L 3888 3984 
Q 5244 3297 6313 2603 
L 5981 2172 
Q 4913 2916 3619 3622 
z
" transform="scale(0.015625)"/>
     <path id="MicrosoftYaHei-a08" d="M 950 -759 
L 463 -759 
L 463 2928 
L 3000 2928 
L 3000 -28 
Q 3000 -703 2375 -703 
Q 2100 -709 1669 -709 
Q 1638 -516 1575 -234 
Q 1969 -266 2206 -266 
Q 2513 -266 2513 53 
L 2513 572 
L 950 572 
L 950 -759 
z
M 3606 2253 
L 4094 2253 
L 4094 1222 
Q 4981 1553 5950 2091 
L 6231 1659 
Q 5209 1122 4094 706 
L 4094 166 
Q 4094 -228 4400 -228 
L 5319 -228 
Q 5638 -228 5688 78 
Q 5731 353 5763 897 
Q 6000 803 6250 722 
Q 6200 172 6144 -109 
Q 6063 -659 5363 -659 
L 4319 -659 
Q 3606 -659 3606 72 
L 3606 2253 
z
M 3619 5303 
L 4106 5303 
L 4106 4231 
Q 4966 4572 5813 5053 
L 6094 4622 
Q 5119 4128 4106 3719 
L 4106 3359 
Q 4106 2941 4438 2941 
L 5231 2941 
Q 5625 2941 5675 3266 
Q 5719 3534 5750 4047 
Q 5988 3953 6238 3866 
Q 6188 3366 6131 3053 
Q 6038 2509 5288 2509 
L 4375 2509 
Q 3619 2509 3619 3259 
L 3619 5303 
z
M 2463 4772 
Q 3031 4034 3450 3353 
Q 3213 3191 3019 3066 
Q 2897 3281 2759 3506 
Q 1231 3394 313 3303 
L 113 3828 
Q 388 3978 719 4391 
Q 1063 4841 1394 5397 
L 1888 5216 
Q 1369 4466 794 3797 
Q 1731 3856 2497 3919 
Q 2300 4216 2075 4528 
L 2463 4772 
z
M 950 947 
L 2513 947 
L 2513 1553 
L 950 1553 
L 950 947 
z
M 2513 2528 
L 950 2528 
L 950 1928 
L 2513 1928 
L 2513 2528 
z
" transform="scale(0.015625)"/>
     <path id="MicrosoftYaHei-690" d="M 125 2553 
L 1756 2553 
L 1756 4372 
L 400 4372 
L 400 4866 
L 6006 4866 
L 6006 4372 
L 4731 4372 
L 4731 2553 
L 6275 2553 
L 6275 2059 
L 4731 2059 
L 4731 -791 
L 4219 -791 
L 4219 2059 
L 2266 2059 
Q 2244 916 1938 359 
Q 1631 -253 531 -872 
Q 369 -647 175 -434 
Q 1131 53 1450 584 
Q 1734 1013 1753 2059 
L 125 2059 
L 125 2553 
z
M 2269 2553 
L 4219 2553 
L 4219 4372 
L 2269 4372 
L 2269 2553 
z
" transform="scale(0.015625)"/>
    </defs>
    <use xlink:href="#MicrosoftYaHei-523"/>
    <use xlink:href="#MicrosoftYaHei-a91" transform="translate(100 0)"/>
    <use xlink:href="#MicrosoftYaHei-27" transform="translate(200 0)"/>
    <use xlink:href="#MicrosoftYaHei-379" transform="translate(270.359375 0)"/>
    <use xlink:href="#MicrosoftYaHei-680" transform="translate(370.359375 0)"/>
    <use xlink:href="#MicrosoftYaHei-4c4" transform="translate(470.359375 0)"/>
    <use xlink:href="#MicrosoftYaHei-563" transform="translate(570.359375 0)"/>
    <use xlink:href="#MicrosoftYaHei-44b" transform="translate(670.359375 0)"/>
    <use xlink:href="#MicrosoftYaHei-40a" transform="translate(770.359375 0)"/>
    <use xlink:href="#MicrosoftYaHei-680" transform="translate(870.359375 0)"/>
    <use xlink:href="#MicrosoftYaHei-5d9" transform="translate(970.359375 0)"/>
    <use xlink:href="#MicrosoftYaHei-6670" transform="translate(1070.359375 0)"/>
    <use xlink:href="#MicrosoftYaHei-8ff" transform="translate(1170.359375 0)"/>
    <use xlink:href="#MicrosoftYaHei-44b" transform="translate(1270.359375 0)"/>
    <use xlink:href="#MicrosoftYaHei-919" transform="translate(1370.359375 0)"/>
    <use xlink:href="#MicrosoftYaHei-4e3" transform="translate(1470.359375 0)"/>
    <use xlink:href="#MicrosoftYaHei-783" transform="translate(1570.359375 0)"/>
    <use xlink:href="#MicrosoftYaHei-7a9" transform="translate(1670.359375 0)"/>
    <use xlink:href="#MicrosoftYaHei-56b" transform="translate(1770.359375 0)"/>
    <use xlink:href="#MicrosoftYaHei-a08" transform="translate(1870.359375 0)"/>
    <use xlink:href="#MicrosoftYaHei-4e3" transform="translate(1970.359375 0)"/>
    <use xlink:href="#MicrosoftYaHei-690" transform="translate(2070.359375 0)"/>
   </g>
  </g>
 </g>
 <defs>
  <clipPath id="p9c068eb487">
   <rect x="44.389316" y="69.246434" width="258.830801" height="220.451387"/>
  </clipPath>
  <clipPath id="p67c35cb71a">
   <rect x="317.520117" y="69.246434" width="258.830801" height="220.451387"/>
  </clipPath>
  <clipPath id="pe8cd090326">
   <rect x="590.650918" y="69.246434" width="258.830801" height="220.451387"/>
  </clipPath>
 </defs>
</svg>
