<?xml version="1.0" encoding="utf-8" standalone="no"?>
<!DOCTYPE svg PUBLIC "-//W3C//DTD SVG 1.1//EN"
  "http://www.w3.org/Graphics/SVG/1.1/DTD/svg11.dtd">
<svg xmlns:xlink="http://www.w3.org/1999/xlink" width="582.795781pt" height="337.751992pt" viewBox="0 0 582.795781 337.751992" xmlns="http://www.w3.org/2000/svg" version="1.1">
 <metadata>
  <rdf:RDF xmlns:dc="http://purl.org/dc/elements/1.1/" xmlns:cc="http://creativecommons.org/ns#" xmlns:rdf="http://www.w3.org/1999/02/22-rdf-syntax-ns#">
   <cc:Work>
    <dc:type rdf:resource="http://purl.org/dc/dcmitype/StillImage"/>
    <dc:date>2026-07-14T15:13:46.194586</dc:date>
    <dc:format>image/svg+xml</dc:format>
    <dc:creator>
     <cc:Agent>
      <dc:title>Matplotlib v3.11.0, https://matplotlib.org/</dc:title>
     </cc:Agent>
    </dc:creator>
   </cc:Work>
  </rdf:RDF>
 </metadata>
 <defs>
  <style type="text/css">*{stroke-linejoin: round; stroke-linecap: butt}</style>
 </defs>
 <g id="figure_1">
  <g id="patch_1">
   <path d="M 0 337.751992 
L 582.795781 337.751992 
L 582.795781 0 
L 0 0 
z
" style="fill: #ffffff"/>
  </g>
  <g id="axes_1">
   <g id="patch_2">
    <path d="M 50.823379 302.155508 
L 575.595781 302.155508 
L 575.595781 24.111875 
L 50.823379 24.111875 
z
" style="fill: #ffffff"/>
   </g>
   <g id="patch_3">
    <path d="M 74.67667 302.155508 
L 156.384076 302.155508 
L 156.384076 122.828371 
L 74.67667 122.828371 
z
" clip-path="url(#p5310b18490)" style="fill: #4c78a8"/>
   </g>
   <g id="patch_4">
    <path d="M 206.462808 302.155508 
L 288.170214 302.155508 
L 288.170214 130.621702 
L 206.462808 130.621702 
z
" clip-path="url(#p5310b18490)" style="fill: #e45756"/>
   </g>
   <g id="patch_5">
    <path d="M 338.248946 302.155508 
L 419.956352 302.155508 
L 419.956352 122.828371 
L 338.248946 122.828371 
z
" clip-path="url(#p5310b18490)" style="fill: #72b7b2"/>
   </g>
   <g id="patch_6">
    <path d="M 470.035085 302.155508 
L 551.74249 302.155508 
L 551.74249 130.621702 
L 470.035085 130.621702 
z
" clip-path="url(#p5310b18490)" style="fill: #b279a2"/>
   </g>
   <g id="matplotlib.axis_1">
    <g id="xtick_1">
     <g id="line2d_1">
      <defs>
       <path id="m9ae2ac64d1" d="M 0 0 
L 0 3.5 
" style="stroke: #000000; stroke-width: 0.8"/>
      </defs>
      <g>
       <use xlink:href="#m9ae2ac64d1" x="115.530373" y="302.155508" style="stroke: #000000; stroke-width: 0.8"/>
      </g>
     </g>
     <g id="text_1">
      <!-- ArcFace -->
      <g transform="translate(97.103029 317.275625) scale(0.1 -0.1)">
       <defs>
        <path id="MicrosoftYaHei-27" d="M 4428 0 
L 3738 0 
L 3244 1325 
L 1228 1325 
L 763 0 
L 72 0 
L 1916 4841 
L 2584 4841 
L 4428 0 
z
M 3050 1872 
L 2319 3884 
Q 2284 3981 2244 4222 
L 2228 4222 
Q 2194 4003 2150 3884 
L 1425 1872 
L 3050 1872 
z
" transform="scale(0.015625)"/>
        <path id="MicrosoftYaHei-58" d="M 2400 2850 
Q 2247 2959 1978 2959 
Q 1622 2959 1390 2626 
Q 1159 2294 1159 1750 
L 1159 0 
L 547 0 
L 547 3456 
L 1159 3456 
L 1159 2753 
L 1172 2753 
Q 1434 3516 2078 3516 
Q 2288 3516 2400 3469 
L 2400 2850 
z
" transform="scale(0.015625)"/>
        <path id="MicrosoftYaHei-49" d="M 2934 156 
Q 2538 -81 1978 -81 
Q 1228 -81 772 400 
Q 316 881 316 1647 
Q 316 2497 808 3017 
Q 1300 3538 2125 3538 
Q 2600 3538 2938 3369 
L 2938 2763 
Q 2572 3031 2125 3031 
Q 1600 3031 1270 2667 
Q 941 2303 941 1697 
Q 941 1100 1252 762 
Q 1563 425 2091 425 
Q 2538 425 2934 719 
L 2934 156 
z
" transform="scale(0.015625)"/>
        <path id="MicrosoftYaHei-2c" d="M 3119 4284 
L 1250 4284 
L 1250 2666 
L 2981 2666 
L 2981 2116 
L 1250 2116 
L 1250 0 
L 625 0 
L 625 4841 
L 3119 4841 
L 3119 4284 
z
" transform="scale(0.015625)"/>
        <path id="MicrosoftYaHei-47" d="M 628 3216 
Q 1144 3538 1819 3538 
Q 3069 3538 3069 2225 
L 3069 0 
L 2463 0 
L 2463 534 
L 2447 534 
Q 2088 -81 1388 -81 
Q 884 -81 587 191 
Q 291 463 291 925 
Q 291 1894 1438 2053 
L 2463 2197 
Q 2463 3044 1763 3044 
Q 1141 3044 628 2625 
L 628 3216 
z
M 1653 1625 
Q 1228 1569 1067 1412 
Q 906 1256 906 975 
Q 906 728 1081 572 
Q 1256 416 1544 416 
Q 1944 416 2203 697 
Q 2463 978 2463 1403 
L 2463 1734 
L 1653 1625 
z
" transform="scale(0.015625)"/>
        <path id="MicrosoftYaHei-4b" d="M 3363 1572 
L 944 1572 
Q 959 1019 1246 717 
Q 1534 416 2050 416 
Q 2631 416 3116 788 
L 3116 241 
Q 2659 -81 1906 -81 
Q 1156 -81 736 394 
Q 316 869 316 1713 
Q 316 2506 777 3022 
Q 1238 3538 1922 3538 
Q 2600 3538 2981 3102 
Q 3363 2666 3363 1881 
L 3363 1572 
z
M 2750 2063 
Q 2747 2531 2528 2787 
Q 2309 3044 1913 3044 
Q 1547 3044 1280 2772 
Q 1013 2500 944 2063 
L 2750 2063 
z
" transform="scale(0.015625)"/>
       </defs>
       <use xlink:href="#MicrosoftYaHei-27"/>
       <use xlink:href="#MicrosoftYaHei-58" transform="translate(70.359375 0)"/>
       <use xlink:href="#MicrosoftYaHei-49" transform="translate(107.125 0)"/>
       <use xlink:href="#MicrosoftYaHei-2c" transform="translate(157.265625 0)"/>
       <use xlink:href="#MicrosoftYaHei-47" transform="translate(206.390625 0)"/>
       <use xlink:href="#MicrosoftYaHei-49" transform="translate(261.671875 0)"/>
       <use xlink:href="#MicrosoftYaHei-4b" transform="translate(311.8125 0)"/>
      </g>
     </g>
    </g>
    <g id="xtick_2">
     <g id="line2d_2">
      <g>
       <use xlink:href="#m9ae2ac64d1" x="247.316511" y="302.155508" style="stroke: #000000; stroke-width: 0.8"/>
      </g>
     </g>
     <g id="text_2">
      <!-- AdaFace -->
      <g transform="translate(227.27198 317.275625) scale(0.1 -0.1)">
       <defs>
        <path id="MicrosoftYaHei-4a" d="M 3547 0 
L 2934 0 
L 2934 575 
L 2922 575 
Q 2544 -81 1747 -81 
Q 1091 -81 703 386 
Q 316 853 316 1647 
Q 316 2503 753 3020 
Q 1191 3538 1897 3538 
Q 2603 3538 2922 2988 
L 2934 2988 
L 2934 5116 
L 3547 5116 
L 3547 0 
z
M 2938 2056 
Q 2938 2472 2664 2751 
Q 2391 3031 1991 3031 
Q 1503 3031 1222 2667 
Q 941 2303 941 1675 
Q 941 1097 1211 761 
Q 1481 425 1931 425 
Q 2375 425 2656 754 
Q 2938 1084 2938 1575 
L 2938 2056 
z
" transform="scale(0.015625)"/>
       </defs>
       <use xlink:href="#MicrosoftYaHei-27"/>
       <use xlink:href="#MicrosoftYaHei-4a" transform="translate(70.359375 0)"/>
       <use xlink:href="#MicrosoftYaHei-47" transform="translate(134.328125 0)"/>
       <use xlink:href="#MicrosoftYaHei-2c" transform="translate(189.609375 0)"/>
       <use xlink:href="#MicrosoftYaHei-47" transform="translate(238.734375 0)"/>
       <use xlink:href="#MicrosoftYaHei-49" transform="translate(294.015625 0)"/>
       <use xlink:href="#MicrosoftYaHei-4b" transform="translate(344.15625 0)"/>
      </g>
     </g>
    </g>
    <g id="xtick_3">
     <g id="line2d_3">
      <g>
       <use xlink:href="#m9ae2ac64d1" x="379.102649" y="302.155508" style="stroke: #000000; stroke-width: 0.8"/>
      </g>
     </g>
     <g id="text_3">
      <!-- ArcFace+ -->
      <g transform="translate(356.966712 317.297598) scale(0.1 -0.1)">
       <defs>
        <path id="MicrosoftYaHei-11" d="M 3972 1772 
L 2613 1772 
L 2613 419 
L 2141 419 
L 2141 1772 
L 788 1772 
L 788 2250 
L 2141 2250 
L 2141 3603 
L 2613 3603 
L 2613 2250 
L 3972 2250 
L 3972 1772 
z
" transform="scale(0.015625)"/>
       </defs>
       <use xlink:href="#MicrosoftYaHei-27"/>
       <use xlink:href="#MicrosoftYaHei-58" transform="translate(70.359375 0)"/>
       <use xlink:href="#MicrosoftYaHei-49" transform="translate(107.125 0)"/>
       <use xlink:href="#MicrosoftYaHei-2c" transform="translate(157.265625 0)"/>
       <use xlink:href="#MicrosoftYaHei-47" transform="translate(206.390625 0)"/>
       <use xlink:href="#MicrosoftYaHei-49" transform="translate(261.671875 0)"/>
       <use xlink:href="#MicrosoftYaHei-4b" transform="translate(311.8125 0)"/>
       <use xlink:href="#MicrosoftYaHei-11" transform="translate(368.546875 0)"/>
      </g>
      <!-- GFPGAN -->
      <g transform="translate(358.394837 327.99584) scale(0.1 -0.1)">
       <defs>
        <path id="MicrosoftYaHei-2d" d="M 4284 331 
Q 3559 -81 2647 -81 
Q 1597 -81 955 583 
Q 313 1247 313 2356 
Q 313 3478 1022 4200 
Q 1731 4922 2841 4922 
Q 3625 4922 4169 4672 
L 4169 3997 
Q 3588 4363 2784 4363 
Q 1994 4363 1481 3822 
Q 969 3281 969 2397 
Q 969 1488 1441 981 
Q 1913 475 2716 475 
Q 3269 475 3656 688 
L 3656 1997 
L 2606 1997 
L 2606 2550 
L 4284 2550 
L 4284 331 
z
" transform="scale(0.015625)"/>
        <path id="MicrosoftYaHei-36" d="M 1250 1809 
L 1250 0 
L 625 0 
L 625 4841 
L 2000 4841 
Q 2784 4841 3217 4462 
Q 3650 4084 3650 3381 
Q 3650 2669 3144 2226 
Q 2638 1784 1878 1809 
L 1250 1809 
z
M 1250 4291 
L 1250 2359 
L 1828 2359 
Q 2400 2359 2697 2617 
Q 2994 2875 2994 3356 
Q 2994 4291 1888 4291 
L 1250 4291 
z
" transform="scale(0.015625)"/>
        <path id="MicrosoftYaHei-34" d="M 4578 0 
L 3838 0 
L 1403 3766 
Q 1300 3925 1238 4081 
L 1219 4081 
Q 1244 3919 1244 3403 
L 1244 0 
L 625 0 
L 625 4841 
L 1409 4841 
L 3778 1141 
Q 3947 878 3978 806 
L 3991 806 
Q 3959 1013 3959 1513 
L 3959 4841 
L 4578 4841 
L 4578 0 
z
" transform="scale(0.015625)"/>
       </defs>
       <use xlink:href="#MicrosoftYaHei-2d"/>
       <use xlink:href="#MicrosoftYaHei-2c" transform="translate(74.359375 0)"/>
       <use xlink:href="#MicrosoftYaHei-36" transform="translate(127.484375 0)"/>
       <use xlink:href="#MicrosoftYaHei-2d" transform="translate(188.140625 0)"/>
       <use xlink:href="#MicrosoftYaHei-27" transform="translate(262.5 0)"/>
       <use xlink:href="#MicrosoftYaHei-34" transform="translate(332.859375 0)"/>
      </g>
     </g>
    </g>
    <g id="xtick_4">
     <g id="line2d_4">
      <g>
       <use xlink:href="#m9ae2ac64d1" x="510.888787" y="302.155508" style="stroke: #000000; stroke-width: 0.8"/>
      </g>
     </g>
     <g id="text_4">
      <!-- AdaFace+ -->
      <g transform="translate(487.135662 317.297598) scale(0.1 -0.1)">
       <use xlink:href="#MicrosoftYaHei-27"/>
       <use xlink:href="#MicrosoftYaHei-4a" transform="translate(70.359375 0)"/>
       <use xlink:href="#MicrosoftYaHei-47" transform="translate(134.328125 0)"/>
       <use xlink:href="#MicrosoftYaHei-2c" transform="translate(189.609375 0)"/>
       <use xlink:href="#MicrosoftYaHei-47" transform="translate(238.734375 0)"/>
       <use xlink:href="#MicrosoftYaHei-49" transform="translate(294.015625 0)"/>
       <use xlink:href="#MicrosoftYaHei-4b" transform="translate(344.15625 0)"/>
       <use xlink:href="#MicrosoftYaHei-11" transform="translate(400.890625 0)"/>
      </g>
      <!-- GFPGAN -->
      <g transform="translate(490.180975 327.99584) scale(0.1 -0.1)">
       <use xlink:href="#MicrosoftYaHei-2d"/>
       <use xlink:href="#MicrosoftYaHei-2c" transform="translate(74.359375 0)"/>
       <use xlink:href="#MicrosoftYaHei-36" transform="translate(127.484375 0)"/>
       <use xlink:href="#MicrosoftYaHei-2d" transform="translate(188.140625 0)"/>
       <use xlink:href="#MicrosoftYaHei-27" transform="translate(262.5 0)"/>
       <use xlink:href="#MicrosoftYaHei-34" transform="translate(332.859375 0)"/>
      </g>
     </g>
    </g>
   </g>
   <g id="matplotlib.axis_2">
    <g id="ytick_1">
     <g id="line2d_5">
      <path d="M 50.823379 302.155508 
L 575.595781 302.155508 
" clip-path="url(#p5310b18490)" style="fill: none; stroke: #b0b0b0; stroke-opacity: 0.25; stroke-width: 0.8; stroke-linecap: square"/>
     </g>
     <g id="line2d_6">
      <defs>
       <path id="mf1ce6ef59b" d="M 0 0 
L -3.5 0 
" style="stroke: #000000; stroke-width: 0.8"/>
      </defs>
      <g>
       <use xlink:href="#mf1ce6ef59b" x="50.823379" y="302.155508" style="stroke: #000000; stroke-width: 0.8"/>
      </g>
     </g>
     <g id="text_5">
      <!-- 0% -->
      <g transform="translate(29.062441 306.215566) scale(0.1 -0.1)">
       <defs>
        <path id="MicrosoftYaHei-16" d="M 284 2325 
Q 284 3606 709 4264 
Q 1134 4922 1941 4922 
Q 3478 4922 3478 2441 
Q 3478 1216 3045 567 
Q 2613 -81 1831 -81 
Q 1094 -81 689 534 
Q 284 1150 284 2325 
z
M 909 2353 
Q 909 425 1888 425 
Q 2850 425 2850 2384 
Q 2850 4413 1906 4413 
Q 909 4413 909 2353 
z
" transform="scale(0.015625)"/>
        <path id="MicrosoftYaHei-b" d="M 272 3619 
Q 272 4213 589 4563 
Q 906 4913 1444 4913 
Q 1959 4913 2248 4591 
Q 2538 4269 2538 3694 
Q 2538 3122 2219 2765 
Q 1900 2409 1372 2409 
Q 872 2409 572 2740 
Q 272 3072 272 3619 
z
M 753 3650 
Q 753 3247 928 3028 
Q 1103 2809 1406 2809 
Q 1719 2809 1889 3036 
Q 2059 3263 2059 3675 
Q 2059 4078 1892 4298 
Q 1725 4519 1422 4519 
Q 1113 4519 933 4289 
Q 753 4059 753 3650 
z
M 4647 4841 
L 1538 -31 
L 1016 -31 
L 4125 4841 
L 4647 4841 
z
M 3172 1134 
Q 3172 1728 3489 2083 
Q 3806 2438 4341 2438 
Q 4853 2438 5143 2114 
Q 5434 1791 5434 1203 
Q 5434 634 5112 279 
Q 4791 -75 4272 -75 
Q 3769 -75 3470 261 
Q 3172 597 3172 1134 
z
M 3650 1163 
Q 3650 769 3825 548 
Q 4000 328 4303 328 
Q 4616 328 4786 556 
Q 4956 784 4956 1194 
Q 4956 1600 4786 1815 
Q 4616 2031 4319 2031 
Q 4000 2031 3825 1801 
Q 3650 1572 3650 1163 
z
" transform="scale(0.015625)"/>
       </defs>
       <use xlink:href="#MicrosoftYaHei-16"/>
       <use xlink:href="#MicrosoftYaHei-b" transform="translate(58.640625 0)"/>
      </g>
     </g>
    </g>
    <g id="ytick_2">
     <g id="line2d_7">
      <path d="M 50.823379 244.229751 
L 575.595781 244.229751 
" clip-path="url(#p5310b18490)" style="fill: none; stroke: #b0b0b0; stroke-opacity: 0.25; stroke-width: 0.8; stroke-linecap: square"/>
     </g>
     <g id="line2d_8">
      <g>
       <use xlink:href="#mf1ce6ef59b" x="50.823379" y="244.229751" style="stroke: #000000; stroke-width: 0.8"/>
      </g>
     </g>
     <g id="text_6">
      <!-- 10% -->
      <g transform="translate(23.198379 248.28981) scale(0.1 -0.1)">
       <defs>
        <path id="MicrosoftYaHei-17" d="M 1781 0 
L 1781 4141 
Q 1638 3997 1295 3819 
Q 953 3641 663 3569 
L 663 4169 
Q 1047 4275 1484 4508 
Q 1922 4741 2156 4947 
L 2388 4947 
L 2388 0 
L 1781 0 
z
" transform="scale(0.015625)"/>
       </defs>
       <use xlink:href="#MicrosoftYaHei-17"/>
       <use xlink:href="#MicrosoftYaHei-16" transform="translate(58.640625 0)"/>
       <use xlink:href="#MicrosoftYaHei-b" transform="translate(117.28125 0)"/>
      </g>
     </g>
    </g>
    <g id="ytick_3">
     <g id="line2d_9">
      <path d="M 50.823379 186.303994 
L 575.595781 186.303994 
" clip-path="url(#p5310b18490)" style="fill: none; stroke: #b0b0b0; stroke-opacity: 0.25; stroke-width: 0.8; stroke-linecap: square"/>
     </g>
     <g id="line2d_10">
      <g>
       <use xlink:href="#mf1ce6ef59b" x="50.823379" y="186.303994" style="stroke: #000000; stroke-width: 0.8"/>
      </g>
     </g>
     <g id="text_7">
      <!-- 20% -->
      <g transform="translate(23.198379 190.364053) scale(0.1 -0.1)">
       <defs>
        <path id="MicrosoftYaHei-18" d="M 2666 3572 
Q 2666 3963 2419 4186 
Q 2172 4409 1747 4409 
Q 1447 4409 1140 4256 
Q 834 4103 569 3819 
L 569 4413 
Q 806 4659 1107 4790 
Q 1409 4922 1816 4922 
Q 2472 4922 2872 4570 
Q 3272 4219 3272 3619 
Q 3272 3084 3026 2693 
Q 2781 2303 2188 1894 
Q 1581 1475 1376 1294 
Q 1172 1113 1090 947 
Q 1009 781 1009 544 
L 3416 544 
L 3416 0 
L 372 0 
L 372 241 
Q 372 659 486 951 
Q 600 1244 862 1520 
Q 1125 1797 1681 2184 
Q 2250 2584 2458 2886 
Q 2666 3188 2666 3572 
z
" transform="scale(0.015625)"/>
       </defs>
       <use xlink:href="#MicrosoftYaHei-18"/>
       <use xlink:href="#MicrosoftYaHei-16" transform="translate(58.640625 0)"/>
       <use xlink:href="#MicrosoftYaHei-b" transform="translate(117.28125 0)"/>
      </g>
     </g>
    </g>
    <g id="ytick_4">
     <g id="line2d_11">
      <path d="M 50.823379 128.378237 
L 575.595781 128.378237 
" clip-path="url(#p5310b18490)" style="fill: none; stroke: #b0b0b0; stroke-opacity: 0.25; stroke-width: 0.8; stroke-linecap: square"/>
     </g>
     <g id="line2d_12">
      <g>
       <use xlink:href="#mf1ce6ef59b" x="50.823379" y="128.378237" style="stroke: #000000; stroke-width: 0.8"/>
      </g>
     </g>
     <g id="text_8">
      <!-- 30% -->
      <g transform="translate(23.198379 132.438296) scale(0.1 -0.1)">
       <defs>
        <path id="MicrosoftYaHei-19" d="M 447 809 
Q 944 425 1569 425 
Q 2069 425 2361 670 
Q 2653 916 2653 1328 
Q 2653 2247 1338 2247 
L 934 2247 
L 934 2753 
L 1319 2753 
Q 2484 2753 2484 3616 
Q 2484 4413 1594 4413 
Q 1084 4413 634 4069 
L 634 4647 
Q 1109 4922 1744 4922 
Q 2363 4922 2738 4598 
Q 3113 4275 3113 3759 
Q 3113 2809 2144 2538 
L 2144 2525 
Q 2669 2469 2973 2155 
Q 3278 1841 3278 1372 
Q 3278 719 2808 319 
Q 2338 -81 1556 -81 
Q 869 -81 447 175 
L 447 809 
z
" transform="scale(0.015625)"/>
       </defs>
       <use xlink:href="#MicrosoftYaHei-19"/>
       <use xlink:href="#MicrosoftYaHei-16" transform="translate(58.640625 0)"/>
       <use xlink:href="#MicrosoftYaHei-b" transform="translate(117.28125 0)"/>
      </g>
     </g>
    </g>
    <g id="ytick_5">
     <g id="line2d_13">
      <path d="M 50.823379 70.45248 
L 575.595781 70.45248 
" clip-path="url(#p5310b18490)" style="fill: none; stroke: #b0b0b0; stroke-opacity: 0.25; stroke-width: 0.8; stroke-linecap: square"/>
     </g>
     <g id="line2d_14">
      <g>
       <use xlink:href="#mf1ce6ef59b" x="50.823379" y="70.45248" style="stroke: #000000; stroke-width: 0.8"/>
      </g>
     </g>
     <g id="text_9">
      <!-- 40% -->
      <g transform="translate(23.198379 74.512539) scale(0.1 -0.1)">
       <defs>
        <path id="MicrosoftYaHei-1a" d="M 2906 4841 
L 2906 1644 
L 3631 1644 
L 3631 1138 
L 2906 1138 
L 2906 0 
L 2313 0 
L 2313 1138 
L 53 1138 
L 53 1616 
Q 656 2294 1265 3178 
Q 1875 4063 2272 4841 
L 2906 4841 
z
M 741 1644 
L 2313 1644 
L 2313 3950 
Q 1988 3366 1616 2817 
Q 1244 2269 741 1644 
z
" transform="scale(0.015625)"/>
       </defs>
       <use xlink:href="#MicrosoftYaHei-1a"/>
       <use xlink:href="#MicrosoftYaHei-16" transform="translate(58.640625 0)"/>
       <use xlink:href="#MicrosoftYaHei-b" transform="translate(117.28125 0)"/>
      </g>
     </g>
    </g>
    <g id="text_10">
     <!-- 成功提取人脸后，第一名身份正确的比例 -->
     <g transform="translate(16.410781 262.133691) rotate(-90) scale(0.11 -0.11)">
      <defs>
       <path id="MicrosoftYaHei-6e8" d="M 2750 -347 
Q 3472 138 4038 781 
Q 3675 1703 3609 3759 
L 1250 3759 
L 1250 2809 
L 3050 2809 
Q 3013 1616 2950 803 
Q 2875 -59 2113 -59 
Q 1856 -59 1431 -34 
Q 1394 197 1331 484 
Q 1769 422 2063 422 
Q 2425 422 2469 922 
Q 2519 1497 2544 2347 
L 1247 2347 
Q 1197 175 369 -866 
Q 213 -653 44 -434 
Q 750 503 750 2528 
L 750 4222 
L 3591 4222 
Q 3569 4716 3550 5291 
L 4069 5291 
Q 4066 4850 4084 4222 
L 6238 4222 
L 6238 3759 
L 4100 3759 
Q 4163 2078 4409 1247 
Q 5016 2069 5406 3109 
L 5900 2903 
Q 5363 1631 4609 691 
Q 5069 -244 5506 -244 
Q 5666 -244 5750 47 
Q 5838 503 5888 984 
Q 6156 878 6363 809 
Q 6269 141 6156 -284 
Q 6038 -741 5631 -778 
Q 5250 -803 4900 -522 
Q 4522 -231 4256 278 
Q 3728 -291 3106 -722 
Q 2944 -534 2750 -347 
z
M 4544 4984 
L 4806 5309 
Q 5331 5009 5788 4684 
L 5488 4309 
Q 5038 4666 4544 4984 
z
" transform="scale(0.015625)"/>
       <path id="MicrosoftYaHei-505" d="M 2500 3978 
L 3475 3978 
Q 3488 4538 3494 5278 
L 4000 5278 
Q 3991 4531 3975 3978 
L 5969 3978 
Q 5913 1791 5844 291 
Q 5775 -691 4956 -709 
Q 4413 -716 3756 -684 
Q 3713 -397 3656 -122 
Q 4306 -197 4844 -191 
Q 5313 -178 5344 378 
Q 5425 1847 5450 3497 
L 3963 3497 
Q 3950 3003 3931 2734 
Q 3813 266 1938 -847 
Q 1800 -653 1575 -422 
Q 3325 553 3431 2772 
Q 3450 3063 3463 3497 
L 2500 3497 
L 2500 3978 
z
M 81 822 
Q 619 941 1119 1056 
L 1119 4134 
L 169 4134 
L 169 4622 
L 2675 4622 
L 2675 4134 
L 1625 4134 
L 1625 1178 
Q 2166 1313 2656 1447 
Q 2669 1122 2700 947 
Q 1594 672 225 291 
L 81 822 
z
" transform="scale(0.015625)"/>
       <path id="MicrosoftYaHei-755" d="M 2569 5041 
L 5688 5041 
L 5688 2572 
L 5238 2572 
L 5238 2753 
L 3019 2753 
L 3019 2572 
L 2569 2572 
L 2569 5041 
z
M 1594 -559 
Q 2475 178 2581 1553 
L 3050 1553 
Q 3019 1116 2922 734 
Q 3319 128 3956 -84 
L 3956 1797 
L 2025 1797 
L 2025 2209 
L 6238 2209 
L 6238 1797 
L 4425 1797 
L 4425 1097 
L 5994 1097 
L 5994 697 
L 4425 697 
L 4425 -184 
Q 4850 -234 6313 -178 
Q 6300 -209 6169 -641 
Q 5425 -659 4625 -622 
Q 3363 -606 2769 266 
Q 2506 -388 2006 -853 
Q 1819 -697 1594 -559 
z
M 81 2003 
Q 481 2175 888 2366 
L 888 3697 
L 131 3697 
L 131 4122 
L 888 4122 
L 888 5284 
L 1363 5284 
L 1363 4122 
L 2163 4122 
L 2163 3697 
L 1363 3697 
L 1363 2597 
Q 1722 2775 2081 2972 
Q 2100 2728 2131 2472 
Q 1747 2281 1363 2088 
L 1363 -91 
Q 1363 -697 900 -747 
Q 575 -778 169 -766 
Q 131 -503 88 -247 
Q 431 -284 675 -284 
Q 888 -284 888 -53 
L 888 1844 
Q 513 1650 144 1453 
L 81 2003 
z
M 3019 3153 
L 5238 3153 
L 5238 3703 
L 3019 3703 
L 3019 3153 
z
M 5238 4641 
L 3019 4641 
L 3019 4097 
L 5238 4097 
L 5238 4641 
z
" transform="scale(0.015625)"/>
       <path id="MicrosoftYaHei-548" d="M 88 641 
Q 363 675 650 713 
L 650 4578 
L 181 4578 
L 181 5016 
L 3244 5016 
L 3244 4797 
L 5975 4797 
L 5975 4403 
Q 5613 2097 4906 1006 
Q 5497 172 6325 -291 
Q 6150 -472 5944 -753 
Q 5275 -266 4625 609 
Q 3994 -219 3125 -828 
Q 2947 -594 2806 -434 
L 2806 -822 
L 2338 -822 
L 2338 531 
Q 1197 353 156 178 
L 88 641 
z
M 3194 4372 
L 3194 4578 
L 2806 4578 
L 2806 1025 
Q 3156 1081 3519 1141 
Q 3500 884 3500 709 
Q 3147 656 2806 603 
L 2806 -403 
Q 3681 109 4350 1006 
Q 3628 2156 3422 4372 
L 3194 4372 
z
M 5506 4372 
L 3875 4372 
Q 4022 2544 4638 1428 
Q 5181 2344 5506 4372 
z
M 2338 953 
L 2338 1866 
L 1119 1866 
L 1119 775 
Q 1703 859 2338 953 
z
M 1119 2266 
L 2338 2266 
L 2338 3222 
L 1119 3222 
L 1119 2266 
z
M 1119 3622 
L 2338 3622 
L 2338 4578 
L 1119 4578 
L 1119 3622 
z
" transform="scale(0.015625)"/>
       <path id="MicrosoftYaHei-44b" d="M 100 -303 
Q 2825 1272 2981 5222 
L 3531 5222 
Q 3497 4553 3400 3947 
Q 4175 822 6313 -166 
Q 6050 -453 5850 -709 
Q 3994 341 3203 3006 
Q 2519 431 494 -778 
Q 325 -547 100 -303 
z
" transform="scale(0.015625)"/>
       <path id="MicrosoftYaHei-a0e" d="M 4650 5228 
L 4544 5047 
Q 5231 3866 6363 3284 
Q 6256 3159 6069 2866 
Q 4969 3534 4275 4653 
Q 3731 3791 2525 2803 
Q 2344 3028 2206 3178 
L 2206 -122 
Q 2206 -747 1600 -747 
Q 1313 -747 1069 -734 
Q 1050 -534 994 -272 
Q 1300 -303 1475 -303 
Q 1756 -303 1756 -9 
L 1756 1409 
L 938 1409 
Q 888 -16 388 -872 
Q 225 -691 31 -547 
Q 494 222 494 1703 
L 494 4978 
L 2206 4978 
L 2206 3209 
Q 3506 4116 4056 5228 
L 4650 5228 
z
M 2425 -91 
L 4625 -91 
Q 5081 1072 5456 2272 
L 5925 2103 
Q 5556 1047 5106 -91 
L 6175 -91 
L 6175 -522 
L 2425 -522 
L 2425 -91 
z
M 2919 3022 
L 5581 3022 
L 5581 2591 
L 2919 2591 
L 2919 3022 
z
M 944 1822 
L 1756 1822 
L 1756 2991 
L 944 2991 
L 944 1822 
z
M 1756 4566 
L 944 4566 
L 944 3403 
L 1756 3403 
L 1756 4566 
z
M 2644 1972 
L 3069 2103 
Q 3381 1184 3600 422 
L 3144 272 
Q 2938 1141 2644 1972 
z
M 3806 2178 
L 4219 2272 
Q 4463 1422 4644 578 
L 4194 472 
Q 4044 1259 3806 2178 
z
" transform="scale(0.015625)"/>
       <path id="MicrosoftYaHei-565" d="M 1888 1984 
L 5688 1984 
L 5688 -828 
L 5188 -828 
L 5188 -403 
L 2388 -403 
L 2388 -828 
L 1888 -828 
L 1888 1984 
z
M 1313 2991 
Q 1313 1272 1138 672 
Q 963 -16 394 -847 
Q 250 -634 50 -409 
Q 494 222 650 859 
Q 806 1472 806 2659 
L 806 4766 
Q 3544 4853 5631 5141 
L 5931 4622 
Q 3344 4359 1313 4284 
L 1313 3459 
L 6263 3459 
L 6263 2991 
L 1313 2991 
z
M 5188 1528 
L 2388 1528 
L 2388 41 
L 5188 41 
L 5188 1528 
z
" transform="scale(0.015625)"/>
       <path id="MicrosoftYaHei-36b" d="M 1931 775 
L 1403 -891 
L 966 -891 
L 1350 775 
L 1931 775 
z
" transform="scale(0.015625)"/>
       <path id="MicrosoftYaHei-986" d="M 4006 5347 
L 4544 5347 
Q 4406 5038 4256 4759 
L 6225 4759 
L 6225 4372 
L 4650 4372 
Q 4922 4106 5163 3822 
L 4806 3553 
L 5613 3553 
L 5613 1884 
L 5131 1884 
L 5131 2109 
L 3431 2109 
L 3431 1484 
L 5944 1484 
Q 5919 922 5881 416 
Q 5838 -372 5081 -372 
Q 4700 -372 4138 -366 
Q 4094 -134 4031 128 
Q 4644 97 4988 97 
Q 5356 97 5388 466 
Q 5419 759 5431 1059 
L 3431 1059 
L 3431 -853 
L 2931 -853 
L 2931 909 
Q 2059 -147 306 -703 
Q 194 -522 44 -303 
Q 1566 144 2463 1059 
L 563 1059 
L 563 1484 
L 863 2534 
L 2931 2534 
L 2931 3128 
L 744 3128 
L 744 3553 
L 1972 3553 
Q 1713 3891 1456 4184 
L 1706 4372 
L 1247 4372 
Q 875 3875 388 3459 
Q 263 3609 75 3797 
Q 869 4441 1294 5347 
L 1831 5347 
Q 1688 5041 1513 4759 
L 3325 4759 
L 3325 4372 
L 1825 4372 
Q 2075 4119 2331 3828 
L 1981 3553 
L 4794 3553 
Q 4541 3894 4294 4178 
L 4559 4372 
L 4028 4372 
Q 3784 3984 3506 3672 
Q 3369 3809 3125 3978 
Q 3650 4516 4006 5347 
z
M 1075 1484 
L 2931 1484 
L 2931 2109 
L 1250 2109 
L 1075 1484 
z
M 5131 3128 
L 3431 3128 
L 3431 2534 
L 5131 2534 
L 5131 3128 
z
" transform="scale(0.015625)"/>
       <path id="MicrosoftYaHei-25b2" d="M 100 2703 
L 6313 2703 
L 6313 2153 
L 100 2153 
L 100 2703 
z
" transform="scale(0.015625)"/>
       <path id="MicrosoftYaHei-564" d="M 2406 5328 
L 2894 5128 
Q 2688 4853 2475 4603 
L 5669 4603 
L 5669 4159 
Q 4506 2828 2600 1978 
L 5656 1978 
L 5656 -866 
L 5156 -866 
L 5156 -459 
L 1863 -459 
L 1863 -866 
L 1363 -866 
L 1363 1478 
Q 875 1297 350 1122 
Q 213 1359 63 1584 
Q 1463 1966 2588 2516 
Q 2200 2909 1750 3322 
L 2125 3647 
Q 2650 3178 3088 2778 
Q 4188 3384 5000 4172 
L 2094 4172 
Q 1388 3403 481 2753 
Q 306 2984 156 3159 
Q 1394 3966 2406 5328 
z
M 5156 1528 
L 1863 1528 
L 1863 -22 
L 5156 -22 
L 5156 1528 
z
" transform="scale(0.015625)"/>
       <path id="MicrosoftYaHei-aef" d="M 150 1666 
L 1013 1666 
L 1013 4653 
L 2441 4653 
Q 2588 5022 2681 5341 
L 3206 5209 
Q 3088 4941 2953 4653 
L 5219 4653 
L 5219 1997 
Q 5628 2303 6006 2641 
L 6319 2297 
Q 5791 1844 5219 1441 
L 5219 191 
Q 5219 -753 4394 -759 
Q 3881 -772 3356 -747 
Q 3319 -528 3256 -228 
Q 3713 -272 4238 -272 
Q 4725 -272 4725 241 
L 4725 1109 
Q 2819 -116 419 -828 
Q 300 -584 138 -353 
Q 2347 216 4094 1247 
L 150 1247 
L 150 1666 
z
M 1506 1666 
L 4725 1666 
L 4725 2259 
L 1506 2259 
L 1506 1666 
z
M 4725 4234 
L 1506 4234 
L 1506 3647 
L 4725 3647 
L 4725 4234 
z
M 1506 2659 
L 4725 2659 
L 4725 3247 
L 1506 3247 
L 1506 2659 
z
" transform="scale(0.015625)"/>
       <path id="MicrosoftYaHei-461" d="M 2269 2653 
L 5394 2653 
Q 5388 2566 5300 366 
Q 5275 -709 4319 -722 
Q 3806 -722 3425 -703 
Q 3394 -416 3331 -184 
Q 3763 -241 4200 -253 
Q 4806 -297 4813 422 
Q 4863 1259 4888 2216 
L 3481 2216 
Q 3463 1222 3181 572 
Q 2844 -172 2019 -822 
Q 1856 -622 1656 -416 
Q 2450 203 2713 772 
Q 2969 1275 2997 2216 
L 2269 2216 
L 2269 2653 
z
M 75 2353 
Q 969 3534 1525 5284 
L 2013 5116 
Q 1709 4284 1350 3559 
L 1350 -809 
L 875 -809 
L 875 2691 
Q 588 2216 275 1797 
Q 181 2066 75 2353 
z
M 4006 5116 
L 4419 5291 
Q 5038 3703 6325 2972 
Q 6088 2697 5969 2516 
Q 4575 3472 4006 5116 
z
M 1588 2741 
Q 2563 3597 3163 5034 
L 3606 4866 
Q 3025 3409 1963 2397 
Q 1738 2628 1588 2741 
z
" transform="scale(0.015625)"/>
       <path id="MicrosoftYaHei-833" d="M 88 66 
L 1106 66 
L 1106 3416 
L 1644 3416 
L 1644 66 
L 3231 66 
L 3231 4309 
L 375 4309 
L 375 4797 
L 6063 4797 
L 6063 4309 
L 3769 4309 
L 3769 2672 
L 5850 2672 
L 5850 2191 
L 3769 2191 
L 3769 66 
L 6313 66 
L 6313 -422 
L 88 -422 
L 88 66 
z
" transform="scale(0.015625)"/>
       <path id="MicrosoftYaHei-947" d="M 2075 3453 
Q 2956 4334 3456 5359 
L 3931 5272 
Q 3781 4991 3619 4722 
L 5438 4722 
L 5438 4328 
L 4909 3666 
L 6063 3666 
L 6063 -53 
Q 6063 -728 5475 -728 
Q 5144 -728 4906 -716 
Q 4869 -497 4813 -259 
Q 5156 -291 5331 -291 
Q 5619 -291 5619 16 
L 5619 734 
L 4588 734 
L 4588 -659 
L 4144 -659 
L 4144 734 
L 3113 734 
Q 2944 -263 2444 -884 
Q 2288 -703 2081 -509 
Q 2756 291 2756 1841 
L 2756 3506 
Q 2597 3316 2431 3134 
Q 2281 3278 2075 3453 
z
M 31 1691 
Q 741 2834 1066 4291 
L 231 4291 
L 231 4716 
L 2469 4716 
L 2469 4291 
L 1509 4291 
Q 1356 3613 1128 2991 
L 2200 2991 
L 2200 128 
L 1150 128 
L 1150 -347 
L 738 -347 
L 738 2059 
Q 559 1691 350 1347 
Q 225 1497 31 1691 
z
M 1788 541 
L 1788 2578 
L 1150 2578 
L 1150 541 
L 1788 541 
z
M 4875 4322 
L 3366 4322 
Q 3138 3981 2884 3666 
L 4384 3666 
L 4875 4322 
z
M 4588 1134 
L 5619 1134 
L 5619 1991 
L 4588 1991 
L 4588 1134 
z
M 5619 3241 
L 4588 3241 
L 4588 2391 
L 5619 2391 
L 5619 3241 
z
M 3166 1134 
L 4144 1134 
L 4144 1991 
L 3200 1991 
Q 3200 1841 3166 1134 
z
M 3200 2391 
L 4144 2391 
L 4144 3241 
L 3200 3241 
L 3200 2391 
z
" transform="scale(0.015625)"/>
       <path id="MicrosoftYaHei-919" d="M 356 4284 
L 988 4284 
Q 1219 4853 1369 5322 
L 1894 5172 
Q 1697 4694 1513 4284 
L 2763 4284 
L 2763 -691 
L 2263 -691 
L 2263 -203 
L 856 -203 
L 856 -734 
L 356 -734 
L 356 4284 
z
M 2856 3003 
Q 3444 3934 3850 5322 
L 4375 5191 
Q 4216 4719 4050 4303 
L 6063 4303 
Q 5988 1091 5938 259 
Q 5894 -722 4906 -722 
Q 4338 -722 3750 -684 
Q 3713 -372 3650 -128 
L 3669 -128 
Q 4294 -216 4813 -216 
Q 5381 -216 5425 384 
Q 5494 1316 5525 3834 
L 3850 3834 
Q 3578 3231 3288 2772 
Q 3119 2891 2856 3003 
z
M 856 266 
L 2263 266 
L 2263 1847 
L 856 1847 
L 856 266 
z
M 2263 3816 
L 856 3816 
L 856 2297 
L 2263 2297 
L 2263 3816 
z
M 3406 2578 
L 3788 2859 
Q 4481 2041 4894 1441 
L 4431 1116 
Q 3988 1841 3406 2578 
z
" transform="scale(0.015625)"/>
       <path id="MicrosoftYaHei-841" d="M 3225 5316 
L 3744 5316 
L 3744 2672 
Q 4959 3550 5744 4509 
L 6188 4178 
Q 5175 3063 3744 2056 
L 3744 247 
Q 3744 -166 4106 -166 
L 5175 -166 
Q 5588 -166 5650 203 
Q 5725 678 5763 1247 
Q 6025 1147 6300 1066 
Q 6244 484 6150 22 
Q 6019 -622 5319 -622 
L 3944 -622 
Q 3225 -622 3225 159 
L 3225 5316 
z
M 1063 5153 
L 1063 3278 
L 2825 3278 
L 2825 2809 
L 1063 2809 
L 1063 153 
Q 1713 428 2763 928 
Q 2763 634 2788 366 
Q 1869 -3 1231 -328 
Q 956 -472 725 -672 
L 344 -184 
Q 544 -34 544 272 
L 544 5153 
L 1063 5153 
z
" transform="scale(0.015625)"/>
       <path id="MicrosoftYaHei-486" d="M 2381 1841 
L 2631 2191 
Q 2916 1997 3247 1738 
Q 3488 2378 3581 3128 
L 2703 3128 
Q 2350 1984 1831 1291 
Q 1700 1491 1531 1678 
Q 2238 2694 2578 4522 
L 1900 4522 
L 1900 4959 
L 4319 4959 
L 4319 4522 
L 3044 4522 
Q 2947 4009 2828 3559 
L 4044 3559 
L 4044 3128 
Q 3788 666 2038 -822 
Q 1900 -634 1694 -416 
Q 2578 297 3063 1303 
Q 2753 1556 2381 1841 
z
M 88 2291 
Q 894 3659 1281 5322 
L 1744 5234 
Q 1578 4534 1325 3853 
L 1325 -809 
L 900 -809 
L 900 2847 
Q 625 2275 288 1716 
Q 213 1966 88 2291 
z
M 5575 5303 
L 6031 5303 
L 6031 84 
Q 6031 -391 5881 -566 
Q 5750 -728 5356 -734 
Q 5088 -741 4488 -722 
Q 4463 -466 4400 -203 
Q 4881 -253 5188 -253 
Q 5431 -259 5500 -166 
Q 5575 -84 5575 234 
L 5575 5303 
z
M 4913 653 
L 4469 653 
L 4469 4322 
L 4913 4322 
L 4913 653 
z
" transform="scale(0.015625)"/>
      </defs>
      <use xlink:href="#MicrosoftYaHei-6e8"/>
      <use xlink:href="#MicrosoftYaHei-505" transform="translate(100 0)"/>
      <use xlink:href="#MicrosoftYaHei-755" transform="translate(200 0)"/>
      <use xlink:href="#MicrosoftYaHei-548" transform="translate(300 0)"/>
      <use xlink:href="#MicrosoftYaHei-44b" transform="translate(400 0)"/>
      <use xlink:href="#MicrosoftYaHei-a0e" transform="translate(500 0)"/>
      <use xlink:href="#MicrosoftYaHei-565" transform="translate(600 0)"/>
      <use xlink:href="#MicrosoftYaHei-36b" transform="translate(700 0)"/>
      <use xlink:href="#MicrosoftYaHei-986" transform="translate(800 0)"/>
      <use xlink:href="#MicrosoftYaHei-25b2" transform="translate(900 0)"/>
      <use xlink:href="#MicrosoftYaHei-564" transform="translate(1000 0)"/>
      <use xlink:href="#MicrosoftYaHei-aef" transform="translate(1100 0)"/>
      <use xlink:href="#MicrosoftYaHei-461" transform="translate(1200 0)"/>
      <use xlink:href="#MicrosoftYaHei-833" transform="translate(1300 0)"/>
      <use xlink:href="#MicrosoftYaHei-947" transform="translate(1400 0)"/>
      <use xlink:href="#MicrosoftYaHei-919" transform="translate(1500 0)"/>
      <use xlink:href="#MicrosoftYaHei-841" transform="translate(1600 0)"/>
      <use xlink:href="#MicrosoftYaHei-486" transform="translate(1700 0)"/>
     </g>
    </g>
   </g>
   <g id="LineCollection_1">
    <path d="M 115.530373 164.267298 
L 115.530373 81.389443 
" clip-path="url(#p5310b18490)" style="fill: none; stroke: #000000; stroke-width: 1.5"/>
    <path d="M 247.316511 173.931632 
L 247.316511 87.311193 
" clip-path="url(#p5310b18490)" style="fill: none; stroke: #000000; stroke-width: 1.5"/>
    <path d="M 379.102649 164.267298 
L 379.102649 81.389443 
" clip-path="url(#p5310b18490)" style="fill: none; stroke: #000000; stroke-width: 1.5"/>
    <path d="M 510.888787 173.931632 
L 510.888787 87.311193 
" clip-path="url(#p5310b18490)" style="fill: none; stroke: #000000; stroke-width: 1.5"/>
   </g>
   <g id="line2d_15">
    <defs>
     <path id="m137df92cd9" d="M 5 0 
L -5 -0 
" style="stroke: #000000"/>
    </defs>
    <g clip-path="url(#p5310b18490)">
     <use xlink:href="#m137df92cd9" x="115.530373" y="164.267298" style="fill: #1f77b4; stroke: #000000"/>
     <use xlink:href="#m137df92cd9" x="247.316511" y="173.931632" style="fill: #1f77b4; stroke: #000000"/>
     <use xlink:href="#m137df92cd9" x="379.102649" y="164.267298" style="fill: #1f77b4; stroke: #000000"/>
     <use xlink:href="#m137df92cd9" x="510.888787" y="173.931632" style="fill: #1f77b4; stroke: #000000"/>
    </g>
   </g>
   <g id="line2d_16">
    <g clip-path="url(#p5310b18490)">
     <use xlink:href="#m137df92cd9" x="115.530373" y="81.389443" style="fill: #1f77b4; stroke: #000000"/>
     <use xlink:href="#m137df92cd9" x="247.316511" y="87.311193" style="fill: #1f77b4; stroke: #000000"/>
     <use xlink:href="#m137df92cd9" x="379.102649" y="81.389443" style="fill: #1f77b4; stroke: #000000"/>
     <use xlink:href="#m137df92cd9" x="510.888787" y="87.311193" style="fill: #1f77b4; stroke: #000000"/>
    </g>
   </g>
   <g id="patch_7">
    <path d="M 50.823379 302.155508 
L 50.823379 24.111875 
" style="fill: none; stroke: #000000; stroke-width: 0.8; stroke-linejoin: miter; stroke-linecap: square"/>
   </g>
   <g id="patch_8">
    <path d="M 575.595781 302.155508 
L 575.595781 24.111875 
" style="fill: none; stroke: #000000; stroke-width: 0.8; stroke-linejoin: miter; stroke-linecap: square"/>
   </g>
   <g id="patch_9">
    <path d="M 50.823379 302.155508 
L 575.595781 302.155508 
" style="fill: none; stroke: #000000; stroke-width: 0.8; stroke-linejoin: miter; stroke-linecap: square"/>
   </g>
   <g id="patch_10">
    <path d="M 50.823379 24.111875 
L 575.595781 24.111875 
" style="fill: none; stroke: #000000; stroke-width: 0.8; stroke-linejoin: miter; stroke-linecap: square"/>
   </g>
   <g id="text_11">
    <!-- 31.0% -->
    <g transform="translate(102.526779 111.858745) scale(0.09 -0.09)">
     <defs>
      <path id="MicrosoftYaHei-14" d="M 372 322 
Q 372 491 487 606 
Q 603 722 775 722 
Q 950 722 1065 605 
Q 1181 488 1181 322 
Q 1181 159 1065 42 
Q 950 -75 772 -75 
Q 600 -75 486 42 
Q 372 159 372 322 
z
" transform="scale(0.015625)"/>
     </defs>
     <use xlink:href="#MicrosoftYaHei-19"/>
     <use xlink:href="#MicrosoftYaHei-17" transform="translate(58.640625 0)"/>
     <use xlink:href="#MicrosoftYaHei-14" transform="translate(117.28125 0)"/>
     <use xlink:href="#MicrosoftYaHei-16" transform="translate(141.359375 0)"/>
     <use xlink:href="#MicrosoftYaHei-b" transform="translate(200 0)"/>
    </g>
   </g>
   <g id="text_12">
    <!-- 29.6% -->
    <g transform="translate(234.312917 119.652077) scale(0.09 -0.09)">
     <defs>
      <path id="MicrosoftYaHei-1f" d="M 578 656 
Q 978 425 1441 425 
Q 2091 425 2448 937 
Q 2806 1450 2806 2394 
Q 2800 2388 2794 2394 
Q 2475 1788 1722 1788 
Q 1113 1788 713 2206 
Q 313 2625 313 3294 
Q 313 4006 750 4464 
Q 1188 4922 1884 4922 
Q 2606 4922 3012 4355 
Q 3419 3788 3419 2703 
Q 3419 1363 2894 641 
Q 2369 -81 1441 -81 
Q 931 -81 578 84 
L 578 656 
z
M 931 3372 
Q 931 2884 1181 2598 
Q 1431 2313 1872 2313 
Q 2253 2313 2512 2573 
Q 2772 2834 2772 3206 
Q 2772 3728 2514 4070 
Q 2256 4413 1834 4413 
Q 1444 4413 1187 4116 
Q 931 3819 931 3372 
z
" transform="scale(0.015625)"/>
      <path id="MicrosoftYaHei-1c" d="M 3181 4219 
Q 2803 4413 2391 4413 
Q 1763 4413 1381 3866 
Q 1000 3319 994 2372 
L 1009 2372 
Q 1353 3038 2106 3038 
Q 2734 3038 3109 2628 
Q 3484 2219 3484 1541 
Q 3484 831 3051 375 
Q 2619 -81 1947 -81 
Q 1209 -81 789 495 
Q 369 1072 369 2131 
Q 369 3413 920 4167 
Q 1472 4922 2372 4922 
Q 2888 4922 3181 4781 
L 3181 4219 
z
M 1031 1584 
Q 1031 1106 1286 765 
Q 1541 425 1963 425 
Q 2363 425 2613 719 
Q 2863 1013 2863 1475 
Q 2863 1975 2627 2253 
Q 2391 2531 1956 2531 
Q 1544 2531 1287 2250 
Q 1031 1969 1031 1584 
z
" transform="scale(0.015625)"/>
     </defs>
     <use xlink:href="#MicrosoftYaHei-18"/>
     <use xlink:href="#MicrosoftYaHei-1f" transform="translate(58.640625 0)"/>
     <use xlink:href="#MicrosoftYaHei-14" transform="translate(117.28125 0)"/>
     <use xlink:href="#MicrosoftYaHei-1c" transform="translate(141.359375 0)"/>
     <use xlink:href="#MicrosoftYaHei-b" transform="translate(200 0)"/>
    </g>
   </g>
   <g id="text_13">
    <!-- 31.0% -->
    <g transform="translate(366.099055 111.858745) scale(0.09 -0.09)">
     <use xlink:href="#MicrosoftYaHei-19"/>
     <use xlink:href="#MicrosoftYaHei-17" transform="translate(58.640625 0)"/>
     <use xlink:href="#MicrosoftYaHei-14" transform="translate(117.28125 0)"/>
     <use xlink:href="#MicrosoftYaHei-16" transform="translate(141.359375 0)"/>
     <use xlink:href="#MicrosoftYaHei-b" transform="translate(200 0)"/>
    </g>
   </g>
   <g id="text_14">
    <!-- 29.6% -->
    <g transform="translate(497.885194 119.652077) scale(0.09 -0.09)">
     <use xlink:href="#MicrosoftYaHei-18"/>
     <use xlink:href="#MicrosoftYaHei-1f" transform="translate(58.640625 0)"/>
     <use xlink:href="#MicrosoftYaHei-14" transform="translate(117.28125 0)"/>
     <use xlink:href="#MicrosoftYaHei-1c" transform="translate(141.359375 0)"/>
     <use xlink:href="#MicrosoftYaHei-b" transform="translate(200 0)"/>
    </g>
   </g>
   <g id="text_15">
    <!-- 协议B3：强制选择第一名时的身份正确率（5次划分，95%置信区间） -->
    <g transform="translate(112.601299 18.111875) scale(0.13 -0.13)">
     <defs>
      <path id="MicrosoftYaHei-523" d="M 2206 4022 
L 3291 4022 
Q 3313 4659 3313 5278 
L 3800 5278 
Q 3794 4697 3772 4022 
L 5294 4022 
Q 5231 1716 5150 172 
Q 5113 -691 4281 -691 
Q 4075 -691 3594 -678 
Q 3550 -391 3488 -134 
Q 3894 -191 4200 -191 
Q 4650 -197 4675 291 
Q 4750 1784 4794 3534 
L 3756 3534 
Q 3722 2138 3538 1322 
Q 3219 84 2225 -778 
Q 2069 -603 1863 -409 
Q 2756 378 3056 1453 
Q 3250 2184 3278 3534 
L 2206 3534 
L 2206 4022 
z
M 94 3484 
L 775 3484 
L 775 5272 
L 1256 5272 
L 1256 3484 
L 1863 3484 
L 1863 3028 
L 1256 3028 
L 1256 -803 
L 775 -803 
L 775 3028 
L 94 3028 
L 94 3484 
z
M 2394 2916 
L 2813 2759 
Q 2500 1934 2088 997 
Q 1894 1103 1669 1191 
Q 2075 1978 2394 2916 
z
M 5331 2791 
L 5750 2922 
Q 6063 2047 6319 1278 
L 5863 1122 
Q 5600 2053 5331 2791 
z
" transform="scale(0.015625)"/>
      <path id="MicrosoftYaHei-a91" d="M 5813 4841 
Q 5447 2288 4309 909 
Q 5119 156 6288 -272 
Q 6056 -547 5888 -791 
Q 4719 -234 3941 516 
Q 3100 -300 1969 -847 
Q 1831 -647 1613 -372 
Q 2772 131 3575 909 
Q 2384 2338 2119 4841 
L 2606 4916 
Q 2809 2638 3938 1300 
Q 5041 2647 5313 4928 
L 5813 4841 
z
M 2181 1222 
Q 2200 953 2250 678 
Q 1819 359 1313 -47 
Q 1156 -178 1025 -341 
L 663 47 
Q 856 253 856 653 
L 856 2772 
L 94 2772 
L 94 3234 
L 1331 3234 
L 1331 553 
Q 1763 884 2181 1222 
z
M 3250 5103 
L 3650 5316 
Q 4050 4703 4425 4016 
L 3981 3759 
Q 3569 4584 3250 5103 
z
M 788 5172 
Q 1238 4722 1700 4191 
L 1281 3834 
Q 813 4434 425 4866 
L 788 5172 
z
" transform="scale(0.015625)"/>
      <path id="MicrosoftYaHei-28" d="M 625 0 
L 625 4841 
L 2047 4841 
Q 2684 4841 3065 4536 
Q 3447 4231 3447 3728 
Q 3447 3328 3220 3022 
Q 2994 2716 2597 2588 
L 2597 2575 
Q 3091 2519 3386 2201 
Q 3681 1884 3681 1397 
Q 3681 772 3232 386 
Q 2784 0 2084 0 
L 625 0 
z
M 1250 4294 
L 1250 2778 
L 1819 2778 
Q 2272 2778 2530 2998 
Q 2788 3219 2788 3609 
Q 2788 4294 1875 4294 
L 1250 4294 
z
M 1250 2234 
L 1250 547 
L 2000 547 
Q 2491 547 2758 773 
Q 3025 1000 3025 1403 
Q 3025 2234 1897 2234 
L 1250 2234 
z
" transform="scale(0.015625)"/>
      <path id="MicrosoftYaHei-379" d="M 1606 3531 
Q 1772 3531 1890 3415 
Q 2009 3300 2009 3138 
Q 2009 2975 1893 2858 
Q 1778 2741 1606 2741 
Q 1434 2741 1318 2858 
Q 1203 2975 1203 3138 
Q 1203 3300 1322 3415 
Q 1441 3531 1606 3531 
z
M 1606 716 
Q 1772 716 1890 600 
Q 2009 484 2009 319 
Q 2009 150 1890 36 
Q 1772 -78 1606 -78 
Q 1441 -78 1322 36 
Q 1203 150 1203 319 
Q 1203 484 1322 600 
Q 1441 716 1606 716 
z
" transform="scale(0.015625)"/>
      <path id="MicrosoftYaHei-6a0" d="M 5250 466 
L 5669 666 
Q 6031 28 6363 -641 
L 5894 -878 
Q 5794 -641 5688 -416 
Q 3750 -547 2219 -653 
L 2150 -134 
Q 3088 -97 3969 -59 
L 3969 866 
L 2894 866 
L 2894 622 
L 2431 622 
L 2431 2616 
L 3969 2616 
L 3969 3297 
L 3144 3297 
L 3144 3047 
L 2681 3047 
L 2681 4972 
L 5731 4972 
L 5731 3047 
L 5269 3047 
L 5269 3297 
L 4444 3297 
L 4444 2616 
L 5988 2616 
L 5988 866 
L 4444 866 
L 4444 -41 
Q 4975 -22 5488 3 
Q 5369 241 5250 466 
z
M 425 3466 
L 1650 3466 
L 1650 4516 
L 238 4516 
L 238 4941 
L 2113 4941 
L 2113 2772 
L 1650 2772 
L 1650 3041 
L 831 3041 
L 719 2072 
L 2056 2072 
Q 1994 741 1944 128 
Q 1888 -722 1100 -722 
Q 819 -722 425 -716 
Q 388 -484 325 -216 
Q 731 -247 1019 -247 
Q 1444 -247 1475 191 
Q 1525 828 1563 1647 
L 225 1647 
L 425 3466 
z
M 5269 4547 
L 3144 4547 
L 3144 3722 
L 5269 3722 
L 5269 4547 
z
M 5525 1291 
L 5525 2191 
L 4444 2191 
L 4444 1291 
L 5525 1291 
z
M 2894 1291 
L 3969 1291 
L 3969 2191 
L 2894 2191 
L 2894 1291 
z
" transform="scale(0.015625)"/>
      <path id="MicrosoftYaHei-4f2" d="M 1906 5266 
L 2394 5266 
L 2394 4309 
L 3750 4309 
L 3750 3872 
L 2394 3872 
L 2394 3034 
L 4025 3034 
L 4025 2597 
L 2394 2597 
L 2394 1897 
L 3763 1897 
L 3763 409 
Q 3763 -266 3150 -272 
Q 2956 -278 2631 -272 
Q 2600 -72 2538 178 
Q 2844 159 3038 159 
Q 3300 159 3300 472 
L 3300 1472 
L 2394 1472 
L 2394 -847 
L 1906 -847 
L 1906 1472 
L 1044 1472 
L 1044 -378 
L 581 -378 
L 581 1897 
L 1906 1897 
L 1906 2597 
L 113 2597 
L 113 3034 
L 1906 3034 
L 1906 3872 
L 981 3872 
Q 822 3513 619 3191 
Q 413 3309 194 3428 
Q 688 4172 881 5041 
L 1344 4922 
Q 1263 4603 1159 4309 
L 1906 4309 
L 1906 5266 
z
M 5469 5272 
L 5969 5272 
L 5969 122 
Q 5969 -722 5225 -722 
Q 4981 -722 4388 -716 
Q 4350 -472 4288 -172 
Q 4813 -222 5075 -222 
Q 5469 -222 5469 222 
L 5469 5272 
z
M 4750 822 
L 4269 822 
L 4269 4672 
L 4750 4672 
L 4750 822 
z
" transform="scale(0.015625)"/>
      <path id="MicrosoftYaHei-b23" d="M 1756 2753 
L 3825 2753 
L 3825 3797 
L 2772 3797 
Q 2584 3322 2381 2947 
Q 2219 3053 1944 3172 
Q 2431 4028 2669 5072 
L 3156 4966 
Q 3047 4575 2928 4228 
L 3825 4228 
L 3825 5316 
L 4313 5316 
L 4313 4228 
L 5944 4228 
L 5944 3797 
L 4313 3797 
L 4313 2753 
L 6244 2753 
L 6244 2322 
L 4769 2322 
L 4769 984 
Q 4769 653 5044 653 
L 5344 653 
Q 5631 653 5675 953 
Q 5713 1197 5744 1691 
Q 5938 1603 6219 1509 
Q 6169 1078 6113 784 
Q 6013 228 5400 228 
L 4938 228 
Q 4288 228 4288 934 
L 4288 2322 
L 3447 2322 
Q 3444 2038 3431 1816 
Q 3394 647 2119 84 
Q 1994 266 1806 503 
Q 2906 959 2950 1816 
Q 2963 2003 2972 2322 
L 1756 2322 
L 1756 2753 
z
M 2694 -197 
L 4000 -209 
L 6300 -166 
Q 6231 -372 6125 -659 
L 3947 -684 
L 2638 -666 
Q 1513 -628 1081 91 
Q 825 -147 331 -747 
L 75 -228 
Q 628 306 875 538 
L 875 2641 
L 131 2641 
L 131 3103 
L 1356 3103 
L 1356 431 
Q 1741 -184 2694 -197 
z
M 856 5203 
Q 1175 4816 1731 4022 
L 1288 3709 
Q 781 4503 456 4934 
L 856 5203 
z
" transform="scale(0.015625)"/>
      <path id="MicrosoftYaHei-72b" d="M 2325 4578 
L 2325 5009 
L 5894 5009 
L 5894 4591 
Q 5491 3856 4675 3309 
Q 5366 3025 6319 2903 
Q 6163 2622 6056 2409 
Q 4963 2622 4200 3028 
Q 3409 2613 2325 2334 
Q 2250 2553 2113 2797 
Q 3047 3013 3734 3316 
Q 3013 3831 2688 4578 
L 2325 4578 
z
M 2006 728 
L 3950 728 
L 3950 1453 
L 2388 1453 
L 2388 1903 
L 3950 1903 
L 3950 2616 
L 4425 2616 
L 4425 1903 
L 6025 1903 
L 6025 1453 
L 4425 1453 
L 4425 728 
L 6319 728 
L 6319 278 
L 4425 278 
L 4425 -791 
L 3950 -791 
L 3950 278 
L 2006 278 
L 2006 728 
z
M 88 1953 
Q 544 2056 969 2159 
L 969 3647 
L 144 3647 
L 144 4084 
L 969 4084 
L 969 5303 
L 1438 5303 
L 1438 4084 
L 2238 4084 
L 2238 3647 
L 1438 3647 
L 1438 2278 
Q 1778 2366 2094 2453 
Q 2106 2178 2138 1991 
Q 1772 1894 1438 1800 
L 1438 -66 
Q 1438 -759 806 -759 
Q 656 -759 219 -747 
Q 194 -491 138 -241 
Q 494 -291 694 -291 
Q 969 -291 969 41 
L 969 1672 
Q 531 1550 150 1441 
L 88 1953 
z
M 5338 4578 
L 3159 4578 
Q 3497 3950 4197 3544 
Q 4981 3984 5338 4578 
z
" transform="scale(0.015625)"/>
      <path id="MicrosoftYaHei-79e" d="M 344 4728 
L 2500 4728 
L 2500 -366 
L 2006 -366 
L 2006 153 
L 838 153 
L 838 -441 
L 344 -441 
L 344 4728 
z
M 2706 3941 
L 4925 3941 
L 4925 5322 
L 5425 5322 
L 5425 3941 
L 6313 3941 
L 6313 3478 
L 5425 3478 
L 5425 116 
Q 5425 -722 4625 -722 
Q 4263 -722 3563 -703 
Q 3531 -478 3463 -178 
Q 4119 -228 4488 -228 
Q 4925 -228 4925 216 
L 4925 3478 
L 2706 3478 
L 2706 3941 
z
M 838 616 
L 2006 616 
L 2006 2234 
L 838 2234 
L 838 616 
z
M 2006 4266 
L 838 4266 
L 838 2684 
L 2006 2684 
L 2006 4266 
z
M 3406 2878 
Q 3906 1966 4163 1422 
Q 4000 1347 3663 1172 
Q 3419 1766 2963 2653 
L 3406 2878 
z
" transform="scale(0.015625)"/>
      <path id="MicrosoftYaHei-8e4" d="M 2525 2009 
Q 2622 2016 3928 2081 
Q 3772 2300 3625 2491 
L 3963 2703 
Q 4413 2203 4794 1653 
L 4394 1403 
Q 4284 1569 4178 1725 
Q 2991 1659 2213 1597 
Q 2075 1584 1881 1541 
L 1725 1966 
Q 1913 2028 2006 2084 
Q 2534 2441 3050 2913 
Q 2597 2894 2275 2866 
Q 2144 2847 1988 2809 
L 1800 3191 
Q 1956 3247 2088 3366 
Q 2509 3722 2875 4228 
L 231 4228 
L 231 4666 
L 3031 4666 
Q 2878 4944 2744 5153 
L 3194 5372 
Q 3438 5000 3616 4666 
L 6175 4666 
L 6175 4228 
L 3053 4228 
L 3350 4072 
Q 2844 3553 2494 3247 
Q 2850 3256 3425 3269 
Q 3675 3519 3925 3797 
L 4356 3547 
Q 3363 2603 2525 2009 
z
M 144 991 
L 2994 991 
L 2994 1541 
L 3488 1541 
L 3488 991 
L 6275 991 
L 6275 553 
L 3488 553 
L 3488 -853 
L 2994 -853 
L 2994 553 
L 144 553 
L 144 991 
z
M 1719 2672 
L 1944 2303 
Q 1200 1866 425 1409 
L 163 1828 
Q 813 2134 1719 2672 
z
M 4856 2678 
Q 5750 2172 6250 1816 
L 5975 1409 
Q 5331 1909 4600 2341 
L 4856 2678 
z
M 5994 3591 
Q 5519 3178 4963 2809 
L 4644 3141 
Q 5244 3534 5638 3928 
L 5994 3591 
z
M 363 3634 
L 681 3941 
Q 1200 3528 1588 3159 
L 1238 2816 
Q 875 3197 363 3634 
z
" transform="scale(0.015625)"/>
      <path id="MicrosoftYaHei-367" d="M 5288 -1100 
Q 4172 119 4172 1850 
Q 4172 3603 5288 4838 
L 5825 4838 
Q 4716 3572 4716 1856 
Q 4716 166 5819 -1100 
L 5288 -1100 
z
" transform="scale(0.015625)"/>
      <path id="MicrosoftYaHei-1b" d="M 3294 1494 
Q 3294 784 2823 350 
Q 2353 -84 1559 -84 
Q 878 -84 544 119 
L 544 744 
Q 1034 425 1544 425 
Q 2050 425 2361 704 
Q 2672 984 2672 1447 
Q 2672 1909 2348 2167 
Q 2025 2425 1434 2425 
Q 978 2425 613 2384 
L 791 4841 
L 3053 4841 
L 3053 4303 
L 1306 4303 
L 1206 2931 
L 1647 2950 
Q 2416 2950 2855 2567 
Q 3294 2184 3294 1494 
z
" transform="scale(0.015625)"/>
      <path id="MicrosoftYaHei-829" d="M 4119 3472 
Q 4113 3159 4091 2856 
Q 4509 728 6319 -284 
Q 6063 -559 5913 -772 
Q 4344 331 3900 1944 
Q 3491 200 1650 -866 
Q 1525 -672 1306 -422 
Q 3225 591 3525 2428 
Q 3613 2878 3619 3472 
L 4119 3472 
z
M 4944 2647 
Q 5225 3166 5450 3766 
L 2991 3766 
Q 2719 3144 2388 2572 
Q 2163 2734 1938 2841 
Q 2669 4034 3000 5309 
L 3506 5166 
Q 3356 4675 3175 4209 
L 5988 4209 
L 5988 3766 
Q 5731 3072 5425 2466 
Q 5213 2572 4944 2647 
z
M 1388 2622 
Q 1675 2403 1875 2284 
Q 1075 859 575 -178 
L 69 153 
Q 713 1128 1388 2622 
z
M 644 4916 
Q 1150 4409 1781 3672 
L 1375 3297 
Q 769 4097 281 4591 
L 644 4916 
z
" transform="scale(0.015625)"/>
      <path id="MicrosoftYaHei-4e6" d="M 75 -28 
Q 881 394 1547 975 
Q 1297 1694 1209 3053 
L 256 2884 
L 181 3328 
L 1184 3503 
Q 1144 4291 1113 5266 
L 1613 5266 
Q 1628 4341 1659 3584 
L 3688 3941 
L 3744 3503 
L 1681 3138 
Q 1753 1975 1934 1331 
Q 2622 2019 3144 2897 
L 3563 2634 
Q 2913 1609 2100 831 
Q 2391 91 2850 -191 
Q 3188 -391 3281 -9 
Q 3363 422 3425 953 
Q 3725 828 3919 772 
Q 3800 66 3700 -291 
Q 3575 -791 3131 -791 
Q 2781 -791 2456 -547 
Q 2019 -178 1728 494 
Q 1122 -25 431 -422 
Q 300 -259 75 -28 
z
M 5425 5272 
L 5919 5272 
L 5919 53 
Q 5919 -728 5194 -734 
Q 4856 -741 4256 -728 
Q 4225 -441 4156 -197 
Q 4619 -241 5031 -247 
Q 5425 -253 5425 172 
L 5425 5272 
z
M 4594 853 
L 4113 853 
L 4113 4672 
L 4594 4672 
L 4594 853 
z
M 2000 4803 
L 2288 5109 
Q 2719 4797 3131 4441 
L 2800 4084 
Q 2463 4428 2000 4803 
z
" transform="scale(0.015625)"/>
      <path id="MicrosoftYaHei-4e3" d="M 900 2559 
L 5056 2559 
Q 5025 1497 4963 484 
Q 4888 -684 3856 -678 
Q 3350 -684 2788 -647 
Q 2750 -384 2700 -116 
Q 3181 -184 3775 -191 
Q 4400 -203 4463 541 
Q 4513 1216 4538 2097 
L 2616 2097 
Q 2541 1053 2181 416 
Q 1706 -422 588 -878 
Q 425 -666 231 -459 
Q 1269 -72 1725 666 
Q 2053 1225 2103 2097 
L 900 2097 
L 900 2559 
z
M 3488 5159 
L 3938 5353 
Q 4625 3678 6350 2847 
Q 6069 2553 5944 2372 
Q 4225 3366 3488 5159 
z
M 50 2766 
Q 1338 3678 2250 5253 
L 2694 5009 
Q 1744 3347 413 2341 
Q 281 2534 50 2766 
z
" transform="scale(0.015625)"/>
      <path id="MicrosoftYaHei-9e5" d="M 94 -284 
L 1025 -284 
L 1025 2609 
L 2938 2609 
L 2938 3016 
L 244 3016 
L 244 3366 
L 2938 3366 
L 2938 3697 
L 3388 3697 
L 3388 3366 
L 6150 3366 
L 6150 3016 
L 3388 3016 
L 3388 2609 
L 5431 2609 
L 5431 -284 
L 6294 -284 
L 6294 -647 
L 94 -647 
L 94 -284 
z
M 638 5034 
L 5756 5034 
L 5756 3641 
L 5331 3641 
L 5331 3784 
L 1069 3784 
L 1069 3641 
L 638 3641 
L 638 5034 
z
M 1463 -284 
L 4994 -284 
L 4994 116 
L 1463 116 
L 1463 -284 
z
M 1463 441 
L 4994 441 
L 4994 834 
L 1463 834 
L 1463 441 
z
M 1463 1159 
L 4994 1159 
L 4994 1553 
L 1463 1553 
L 1463 1159 
z
M 4994 2272 
L 1463 2272 
L 1463 1878 
L 4994 1878 
L 4994 2272 
z
M 5331 4697 
L 4181 4697 
L 4181 4122 
L 5331 4122 
L 5331 4697 
z
M 2625 4122 
L 3769 4122 
L 3769 4697 
L 2625 4697 
L 2625 4122 
z
M 1069 4122 
L 2213 4122 
L 2213 4697 
L 1069 4697 
L 1069 4122 
z
" transform="scale(0.015625)"/>
      <path id="MicrosoftYaHei-492" d="M 2300 1434 
L 5856 1434 
L 5856 -853 
L 5375 -853 
L 5375 -478 
L 2781 -478 
L 2781 -853 
L 2300 -853 
L 2300 1434 
z
M 81 2303 
Q 1000 3666 1463 5316 
L 1950 5178 
Q 1678 4338 1356 3628 
L 1356 -853 
L 894 -853 
L 894 2713 
Q 606 2209 288 1791 
Q 188 2053 81 2303 
z
M 5375 1009 
L 2781 1009 
L 2781 -53 
L 5375 -53 
L 5375 1009 
z
M 1888 4472 
L 3928 4472 
Q 3741 4794 3538 5109 
L 3956 5328 
Q 4181 4991 4400 4616 
L 4128 4472 
L 6288 4472 
L 6288 4034 
L 1888 4034 
L 1888 4472 
z
M 2231 3453 
L 5919 3453 
L 5919 3028 
L 2231 3028 
L 2231 3453 
z
M 2231 2447 
L 5919 2447 
L 5919 2022 
L 2231 2022 
L 2231 2447 
z
" transform="scale(0.015625)"/>
      <path id="MicrosoftYaHei-51a" d="M 600 4872 
L 5975 4872 
L 5975 4384 
L 1131 4384 
L 1131 22 
L 6075 22 
L 6075 -453 
L 600 -453 
L 600 4872 
z
M 1613 3697 
L 1963 4028 
Q 2744 3384 3597 2616 
Q 4250 3322 4850 4153 
L 5306 3847 
Q 4650 2997 3975 2272 
Q 4753 1563 5588 753 
L 5156 316 
Q 4400 1106 3600 1878 
Q 2697 963 1763 266 
Q 1613 459 1363 672 
Q 2344 1341 3228 2231 
Q 2444 2972 1613 3697 
z
" transform="scale(0.015625)"/>
      <path id="MicrosoftYaHei-b7f" d="M 1863 3647 
L 4513 3647 
L 4513 553 
L 2313 553 
L 2313 166 
L 1863 166 
L 1863 3647 
z
M 2388 4453 
L 2388 4922 
L 6013 4922 
L 6013 -28 
Q 6013 -816 5119 -816 
Q 4756 -816 4169 -803 
Q 4144 -616 4069 -297 
Q 4588 -334 5056 -334 
Q 5525 -334 5525 122 
L 5525 4453 
L 2388 4453 
z
M 419 4084 
L 906 4084 
L 906 -816 
L 419 -816 
L 419 4084 
z
M 2313 997 
L 4063 997 
L 4063 1884 
L 2313 1884 
L 2313 997 
z
M 4063 3203 
L 2313 3203 
L 2313 2328 
L 4063 2328 
L 4063 3203 
z
M 744 5003 
L 1100 5322 
Q 1575 4872 1981 4447 
L 1575 4091 
Q 1194 4541 744 5003 
z
" transform="scale(0.015625)"/>
      <path id="MicrosoftYaHei-368" d="M 1113 -1100 
L 575 -1100 
Q 1684 163 1684 1888 
Q 1684 3581 581 4838 
L 1113 4838 
Q 2222 3628 2222 1888 
Q 2222 128 1113 -1100 
z
" transform="scale(0.015625)"/>
     </defs>
     <use xlink:href="#MicrosoftYaHei-523"/>
     <use xlink:href="#MicrosoftYaHei-a91" transform="translate(100 0)"/>
     <use xlink:href="#MicrosoftYaHei-28" transform="translate(200 0)"/>
     <use xlink:href="#MicrosoftYaHei-19" transform="translate(262.75 0)"/>
     <use xlink:href="#MicrosoftYaHei-379" transform="translate(321.390625 0)"/>
     <use xlink:href="#MicrosoftYaHei-6a0" transform="translate(421.390625 0)"/>
     <use xlink:href="#MicrosoftYaHei-4f2" transform="translate(521.390625 0)"/>
     <use xlink:href="#MicrosoftYaHei-b23" transform="translate(621.390625 0)"/>
     <use xlink:href="#MicrosoftYaHei-72b" transform="translate(721.390625 0)"/>
     <use xlink:href="#MicrosoftYaHei-986" transform="translate(821.390625 0)"/>
     <use xlink:href="#MicrosoftYaHei-25b2" transform="translate(921.390625 0)"/>
     <use xlink:href="#MicrosoftYaHei-564" transform="translate(1021.390625 0)"/>
     <use xlink:href="#MicrosoftYaHei-79e" transform="translate(1121.390625 0)"/>
     <use xlink:href="#MicrosoftYaHei-919" transform="translate(1221.390625 0)"/>
     <use xlink:href="#MicrosoftYaHei-aef" transform="translate(1321.390625 0)"/>
     <use xlink:href="#MicrosoftYaHei-461" transform="translate(1421.390625 0)"/>
     <use xlink:href="#MicrosoftYaHei-833" transform="translate(1521.390625 0)"/>
     <use xlink:href="#MicrosoftYaHei-947" transform="translate(1621.390625 0)"/>
     <use xlink:href="#MicrosoftYaHei-8e4" transform="translate(1721.390625 0)"/>
     <use xlink:href="#MicrosoftYaHei-367" transform="translate(1821.390625 0)"/>
     <use xlink:href="#MicrosoftYaHei-1b" transform="translate(1921.390625 0)"/>
     <use xlink:href="#MicrosoftYaHei-829" transform="translate(1980.03125 0)"/>
     <use xlink:href="#MicrosoftYaHei-4e6" transform="translate(2080.03125 0)"/>
     <use xlink:href="#MicrosoftYaHei-4e3" transform="translate(2180.03125 0)"/>
     <use xlink:href="#MicrosoftYaHei-36b" transform="translate(2280.03125 0)"/>
     <use xlink:href="#MicrosoftYaHei-1f" transform="translate(2380.03125 0)"/>
     <use xlink:href="#MicrosoftYaHei-1b" transform="translate(2438.671875 0)"/>
     <use xlink:href="#MicrosoftYaHei-b" transform="translate(2497.3125 0)"/>
     <use xlink:href="#MicrosoftYaHei-9e5" transform="translate(2586.28125 0)"/>
     <use xlink:href="#MicrosoftYaHei-492" transform="translate(2686.28125 0)"/>
     <use xlink:href="#MicrosoftYaHei-51a" transform="translate(2786.28125 0)"/>
     <use xlink:href="#MicrosoftYaHei-b7f" transform="translate(2886.28125 0)"/>
     <use xlink:href="#MicrosoftYaHei-368" transform="translate(2986.28125 0)"/>
    </g>
   </g>
  </g>
 </g>
 <defs>
  <clipPath id="p5310b18490">
   <rect x="50.823379" y="24.111875" width="524.772402" height="278.043633"/>
  </clipPath>
 </defs>
</svg>
