<?xml version="1.0" encoding="utf-8" standalone="no"?>
<!DOCTYPE svg PUBLIC "-//W3C//DTD SVG 1.1//EN"
  "http://www.w3.org/Graphics/SVG/1.1/DTD/svg11.dtd">
<svg xmlns:xlink="http://www.w3.org/1999/xlink" width="597.612188pt" height="337.98375pt" viewBox="0 0 597.612188 337.98375" xmlns="http://www.w3.org/2000/svg" version="1.1">
 <metadata>
  <rdf:RDF xmlns:dc="http://purl.org/dc/elements/1.1/" xmlns:cc="http://creativecommons.org/ns#" xmlns:rdf="http://www.w3.org/1999/02/22-rdf-syntax-ns#">
   <cc:Work>
    <dc:type rdf:resource="http://purl.org/dc/dcmitype/StillImage"/>
    <dc:date>2026-07-14T15:13:45.670223</dc:date>
    <dc:format>image/svg+xml</dc:format>
    <dc:creator>
     <cc:Agent>
      <dc:title>Matplotlib v3.11.0, https://matplotlib.org/</dc:title>
     </cc:Agent>
    </dc:creator>
   </cc:Work>
  </rdf:RDF>
 </metadata>
 <defs>
  <style type="text/css">*{stroke-linejoin: round; stroke-linecap: butt}</style>
 </defs>
 <g id="figure_1">
  <g id="patch_1">
   <path d="M 0 337.98375 
L 597.612188 337.98375 
L 597.612188 0 
L 0 0 
z
" style="fill: #ffffff"/>
  </g>
  <g id="axes_1">
   <g id="patch_2">
    <path d="M 50.759785 302.14332 
L 590.412187 302.14332 
L 590.412187 24.099687 
L 50.759785 24.099687 
z
" style="fill: #ffffff"/>
   </g>
   <g id="patch_3">
    <path d="M 75.28944 302.14332 
L 122.766191 302.14332 
L 122.766191 97.699473 
L 75.28944 97.699473 
z
" clip-path="url(#pc06c92fd50)" style="fill: #4c78a8"/>
   </g>
   <g id="patch_4">
    <path d="M 207.169304 302.14332 
L 254.646054 302.14332 
L 254.646054 138.588242 
L 207.169304 138.588242 
z
" clip-path="url(#pc06c92fd50)" style="fill: #4c78a8"/>
   </g>
   <g id="patch_5">
    <path d="M 339.049167 302.14332 
L 386.525918 302.14332 
L 386.525918 76.178895 
L 339.049167 76.178895 
z
" clip-path="url(#pc06c92fd50)" style="fill: #4c78a8"/>
   </g>
   <g id="patch_6">
    <path d="M 470.929031 302.14332 
L 518.405782 302.14332 
L 518.405782 71.488545 
L 470.929031 71.488545 
z
" clip-path="url(#pc06c92fd50)" style="fill: #4c78a8"/>
   </g>
   <g id="patch_7">
    <path d="M 122.766191 302.14332 
L 170.242942 302.14332 
L 170.242942 233.995235 
L 122.766191 233.995235 
z
" clip-path="url(#pc06c92fd50)" style="fill: #f58518"/>
   </g>
   <g id="patch_8">
    <path d="M 254.646054 302.14332 
L 302.122805 302.14332 
L 302.122805 302.14332 
L 254.646054 302.14332 
z
" clip-path="url(#pc06c92fd50)" style="fill: #f58518"/>
   </g>
   <g id="patch_9">
    <path d="M 386.525918 302.14332 
L 434.002669 302.14332 
L 434.002669 205.301541 
L 386.525918 205.301541 
z
" clip-path="url(#pc06c92fd50)" style="fill: #f58518"/>
   </g>
   <g id="patch_10">
    <path d="M 518.405782 302.14332 
L 565.882533 302.14332 
L 565.882533 134.39469 
L 518.405782 134.39469 
z
" clip-path="url(#pc06c92fd50)" style="fill: #f58518"/>
   </g>
   <g id="matplotlib.axis_1">
    <g id="xtick_1">
     <g id="line2d_1">
      <defs>
       <path id="maba8741a31" d="M 0 0 
L 0 3.5 
" style="stroke: #000000; stroke-width: 0.8"/>
      </defs>
      <g>
       <use xlink:href="#maba8741a31" x="122.766191" y="302.14332" style="stroke: #000000; stroke-width: 0.8"/>
      </g>
     </g>
     <g id="text_1">
      <!-- 清晰脸 -->
      <g transform="translate(107.766191 317.529355) scale(0.1 -0.1)">
       <defs>
        <path id="MicrosoftYaHei-88e" d="M 2638 -791 
L 2163 -791 
L 2163 2378 
L 5856 2378 
L 5856 -78 
Q 5856 -741 5188 -741 
L 4150 -741 
Q 4119 -541 4056 -259 
Q 4638 -297 5000 -297 
Q 5381 -297 5381 28 
L 5381 341 
L 2638 341 
L 2638 -791 
z
M 1719 3153 
L 3775 3153 
L 3775 3578 
L 2138 3578 
L 2138 3972 
L 3775 3972 
L 3775 4397 
L 1925 4397 
L 1925 4791 
L 3775 4791 
L 3775 5353 
L 4256 5353 
L 4256 4791 
L 6206 4791 
L 6206 4397 
L 4256 4397 
L 4256 3972 
L 6038 3972 
L 6038 3578 
L 4256 3578 
L 4256 3153 
L 6319 3153 
L 6319 2759 
L 1719 2759 
L 1719 3153 
z
M 288 -609 
Q 663 553 931 1809 
Q 1206 1691 1438 1616 
Q 1138 453 838 -778 
L 288 -609 
z
M 5381 1978 
L 2638 1978 
L 2638 1547 
L 5381 1547 
L 5381 1978 
z
M 2638 728 
L 5381 728 
L 5381 1159 
L 2638 1159 
L 2638 728 
z
M 81 3247 
L 400 3603 
Q 981 3209 1481 2797 
Q 1250 2541 1113 2397 
Q 544 2903 81 3247 
z
M 325 4878 
L 650 5209 
Q 1063 4897 1725 4328 
Q 1513 4122 1350 3959 
Q 706 4566 325 4878 
z
" transform="scale(0.015625)"/>
        <path id="MicrosoftYaHei-7b1" d="M 2119 4016 
L 2769 4016 
L 2769 5253 
L 3200 5253 
L 3200 4016 
L 3863 4016 
L 3863 3597 
L 3200 3597 
L 3200 2572 
L 3400 2747 
Q 3763 2409 4075 2059 
L 3763 1772 
Q 3472 2119 3200 2388 
L 3200 -816 
L 2769 -816 
L 2769 2481 
Q 2466 1388 2094 828 
Q 2000 1116 1906 1347 
L 1906 -153 
L 1481 -153 
L 1481 216 
L 794 216 
L 794 -247 
L 369 -247 
L 369 4728 
L 1906 4728 
L 1906 1397 
Q 2456 2350 2728 3597 
L 2119 3597 
L 2119 4016 
z
M 4113 4766 
Q 5125 4822 6006 5047 
L 6169 4578 
Q 5369 4428 4550 4353 
L 4550 3159 
L 6250 3159 
L 6250 2722 
L 5688 2722 
L 5688 -847 
L 5250 -847 
L 5250 2722 
L 4550 2722 
L 4550 2228 
Q 4550 184 3719 -828 
Q 3569 -597 3400 -416 
Q 4113 466 4113 2159 
L 4113 4766 
z
M 794 628 
L 1481 628 
L 1481 2284 
L 794 2284 
L 794 628 
z
M 1481 4316 
L 794 4316 
L 794 2684 
L 1481 2684 
L 1481 4316 
z
" transform="scale(0.015625)"/>
        <path id="MicrosoftYaHei-a0e" d="M 4650 5228 
L 4544 5047 
Q 5231 3866 6363 3284 
Q 6256 3159 6069 2866 
Q 4969 3534 4275 4653 
Q 3731 3791 2525 2803 
Q 2344 3028 2206 3178 
L 2206 -122 
Q 2206 -747 1600 -747 
Q 1313 -747 1069 -734 
Q 1050 -534 994 -272 
Q 1300 -303 1475 -303 
Q 1756 -303 1756 -9 
L 1756 1409 
L 938 1409 
Q 888 -16 388 -872 
Q 225 -691 31 -547 
Q 494 222 494 1703 
L 494 4978 
L 2206 4978 
L 2206 3209 
Q 3506 4116 4056 5228 
L 4650 5228 
z
M 2425 -91 
L 4625 -91 
Q 5081 1072 5456 2272 
L 5925 2103 
Q 5556 1047 5106 -91 
L 6175 -91 
L 6175 -522 
L 2425 -522 
L 2425 -91 
z
M 2919 3022 
L 5581 3022 
L 5581 2591 
L 2919 2591 
L 2919 3022 
z
M 944 1822 
L 1756 1822 
L 1756 2991 
L 944 2991 
L 944 1822 
z
M 1756 4566 
L 944 4566 
L 944 3403 
L 1756 3403 
L 1756 4566 
z
M 2644 1972 
L 3069 2103 
Q 3381 1184 3600 422 
L 3144 272 
Q 2938 1141 2644 1972 
z
M 3806 2178 
L 4219 2272 
Q 4463 1422 4644 578 
L 4194 472 
Q 4044 1259 3806 2178 
z
" transform="scale(0.015625)"/>
       </defs>
       <use xlink:href="#MicrosoftYaHei-88e"/>
       <use xlink:href="#MicrosoftYaHei-7b1" transform="translate(100 0)"/>
       <use xlink:href="#MicrosoftYaHei-a0e" transform="translate(200 0)"/>
      </g>
      <!-- (n=6) -->
      <g transform="translate(109.703691 328.227598) scale(0.1 -0.1)">
       <defs>
        <path id="MicrosoftYaHei-e" d="M 1531 -1100 
Q 478 100 478 1847 
Q 478 3594 1531 4841 
L 2072 4841 
Q 1016 3544 1016 1853 
Q 1016 166 2066 -1100 
L 1531 -1100 
z
" transform="scale(0.015625)"/>
        <path id="MicrosoftYaHei-54" d="M 3469 0 
L 2859 0 
L 2859 1966 
Q 2859 3031 2081 3031 
Q 1678 3031 1418 2731 
Q 1159 2431 1159 1972 
L 1159 0 
L 547 0 
L 547 3456 
L 1159 3456 
L 1159 2884 
L 1172 2884 
Q 1563 3538 2306 3538 
Q 2875 3538 3172 3173 
Q 3469 2809 3469 2113 
L 3469 0 
z
" transform="scale(0.015625)"/>
        <path id="MicrosoftYaHei-23" d="M 3972 2497 
L 788 2497 
L 788 2969 
L 3972 2969 
L 3972 2497 
z
M 3972 1053 
L 788 1053 
L 788 1525 
L 3972 1525 
L 3972 1053 
z
" transform="scale(0.015625)"/>
        <path id="MicrosoftYaHei-1c" d="M 3181 4219 
Q 2803 4413 2391 4413 
Q 1763 4413 1381 3866 
Q 1000 3319 994 2372 
L 1009 2372 
Q 1353 3038 2106 3038 
Q 2734 3038 3109 2628 
Q 3484 2219 3484 1541 
Q 3484 831 3051 375 
Q 2619 -81 1947 -81 
Q 1209 -81 789 495 
Q 369 1072 369 2131 
Q 369 3413 920 4167 
Q 1472 4922 2372 4922 
Q 2888 4922 3181 4781 
L 3181 4219 
z
M 1031 1584 
Q 1031 1106 1286 765 
Q 1541 425 1963 425 
Q 2363 425 2613 719 
Q 2863 1013 2863 1475 
Q 2863 1975 2627 2253 
Q 2391 2531 1956 2531 
Q 1544 2531 1287 2250 
Q 1031 1969 1031 1584 
z
" transform="scale(0.015625)"/>
        <path id="MicrosoftYaHei-f" d="M 78 -1100 
Q 1131 163 1131 1853 
Q 1131 3547 72 4841 
L 616 4841 
Q 1672 3603 1672 1847 
Q 1672 91 616 -1100 
L 78 -1100 
z
" transform="scale(0.015625)"/>
       </defs>
       <use xlink:href="#MicrosoftYaHei-e"/>
       <use xlink:href="#MicrosoftYaHei-54" transform="translate(33.40625 0)"/>
       <use xlink:href="#MicrosoftYaHei-23" transform="translate(95.03125 0)"/>
       <use xlink:href="#MicrosoftYaHei-1c" transform="translate(169.203125 0)"/>
       <use xlink:href="#MicrosoftYaHei-f" transform="translate(227.84375 0)"/>
      </g>
     </g>
    </g>
    <g id="xtick_2">
     <g id="line2d_2">
      <g>
       <use xlink:href="#maba8741a31" x="254.646054" y="302.14332" style="stroke: #000000; stroke-width: 0.8"/>
      </g>
     </g>
     <g id="text_2">
      <!-- 一般质量 -->
      <g transform="translate(234.646054 317.45123) scale(0.1 -0.1)">
       <defs>
        <path id="MicrosoftYaHei-25b2" d="M 100 2703 
L 6313 2703 
L 6313 2153 
L 100 2153 
L 100 2703 
z
" transform="scale(0.015625)"/>
        <path id="MicrosoftYaHei-a22" d="M 175 2478 
L 556 2478 
L 556 4566 
L 1144 4566 
Q 1247 4891 1350 5303 
L 1800 5203 
Q 1678 4859 1575 4566 
L 2550 4566 
L 2550 -78 
Q 2550 -722 1925 -722 
Q 1650 -722 1331 -709 
Q 1313 -534 1256 -241 
Q 1588 -278 1819 -278 
Q 2113 -278 2113 -22 
L 2113 2053 
L 994 2053 
L 994 1453 
Q 1025 -16 456 -847 
Q 294 -666 69 -497 
Q 556 222 556 1478 
L 556 2053 
L 175 2053 
L 175 2478 
z
M 2900 1972 
L 2900 2422 
L 5725 2422 
L 5725 1959 
Q 5394 1009 4738 341 
Q 5353 -128 6281 -316 
Q 6113 -572 5988 -784 
Q 5025 -531 4378 16 
Q 3734 -503 2844 -816 
Q 2738 -603 2600 -359 
Q 3431 -91 4028 363 
Q 3463 1009 3228 1972 
L 2900 1972 
z
M 5750 3353 
Q 5975 3353 6288 3359 
L 6200 2891 
L 5650 2891 
Q 4925 2891 4925 3628 
L 4925 4522 
L 3881 4522 
Q 3881 3716 3725 3366 
Q 3525 2941 2988 2591 
Q 2831 2784 2663 2978 
Q 3219 3316 3331 3659 
Q 3425 3909 3419 4959 
L 5400 4959 
L 5400 3653 
Q 5400 3353 5750 3353 
z
M 2113 4141 
L 994 4141 
L 994 2478 
L 2113 2478 
L 2113 4141 
z
M 5238 1972 
L 3678 1972 
Q 3891 1191 4381 663 
Q 4944 1213 5238 1972 
z
M 1156 1541 
L 1500 1697 
Q 1750 1166 1919 734 
L 1550 553 
Q 1381 1022 1156 1541 
z
M 1188 3672 
L 1531 3822 
Q 1838 3197 1931 2934 
L 1563 2753 
Q 1506 2934 1188 3672 
z
" transform="scale(0.015625)"/>
        <path id="MicrosoftYaHei-ac5" d="M 1838 2628 
L 3500 2628 
L 3500 3353 
L 1450 3353 
L 1450 3791 
L 3500 3791 
L 3500 4472 
L 4000 4472 
L 4000 3791 
L 6125 3791 
L 6125 3353 
L 4000 3353 
L 4000 2628 
L 5681 2628 
L 5681 428 
L 5194 428 
L 5194 2191 
L 2325 2191 
L 2325 428 
L 1838 428 
L 1838 2628 
z
M 713 4934 
Q 3744 4947 5988 5197 
L 6163 4709 
Q 3813 4541 1213 4497 
L 1213 2578 
Q 1213 178 406 -872 
Q 219 -653 31 -466 
Q 713 372 713 2534 
L 713 4934 
z
M 4000 1866 
Q 4013 1053 3919 691 
Q 5063 191 6263 -403 
L 5994 -866 
Q 4794 -203 3763 272 
Q 3275 -559 1344 -884 
Q 1238 -684 1075 -428 
Q 3019 -128 3350 534 
Q 3525 822 3513 1866 
L 4000 1866 
z
" transform="scale(0.015625)"/>
        <path id="MicrosoftYaHei-b4f" d="M 113 -278 
L 2981 -278 
L 2981 78 
L 475 78 
L 475 403 
L 2981 403 
L 2981 759 
L 1494 759 
L 1494 597 
L 1069 597 
L 1069 2516 
L 5350 2516 
L 5350 597 
L 4925 597 
L 4925 759 
L 3419 759 
L 3419 403 
L 5931 403 
L 5931 78 
L 3419 78 
L 3419 -278 
L 6288 -278 
L 6288 -616 
L 113 -616 
L 113 -278 
z
M 1119 5072 
L 5306 5072 
L 5306 3284 
L 4881 3284 
L 4881 3453 
L 1544 3453 
L 1544 3284 
L 1119 3284 
L 1119 5072 
z
M 163 3153 
L 6263 3153 
L 6263 2816 
L 163 2816 
L 163 3153 
z
M 1544 3778 
L 4881 3778 
L 4881 4116 
L 1544 4116 
L 1544 3778 
z
M 4881 4747 
L 1544 4747 
L 1544 4416 
L 4881 4416 
L 4881 4747 
z
M 3419 1084 
L 4925 1084 
L 4925 1491 
L 3419 1491 
L 3419 1084 
z
M 1494 1084 
L 2981 1084 
L 2981 1491 
L 1494 1491 
L 1494 1084 
z
M 4925 2191 
L 3419 2191 
L 3419 1791 
L 4925 1791 
L 4925 2191 
z
M 1494 1791 
L 2981 1791 
L 2981 2191 
L 1494 2191 
L 1494 1791 
z
" transform="scale(0.015625)"/>
       </defs>
       <use xlink:href="#MicrosoftYaHei-25b2"/>
       <use xlink:href="#MicrosoftYaHei-a22" transform="translate(100 0)"/>
       <use xlink:href="#MicrosoftYaHei-ac5" transform="translate(200 0)"/>
       <use xlink:href="#MicrosoftYaHei-b4f" transform="translate(300 0)"/>
      </g>
      <!-- (n=10) -->
      <g transform="translate(238.651523 328.149473) scale(0.1 -0.1)">
       <defs>
        <path id="MicrosoftYaHei-17" d="M 1781 0 
L 1781 4141 
Q 1638 3997 1295 3819 
Q 953 3641 663 3569 
L 663 4169 
Q 1047 4275 1484 4508 
Q 1922 4741 2156 4947 
L 2388 4947 
L 2388 0 
L 1781 0 
z
" transform="scale(0.015625)"/>
        <path id="MicrosoftYaHei-16" d="M 284 2325 
Q 284 3606 709 4264 
Q 1134 4922 1941 4922 
Q 3478 4922 3478 2441 
Q 3478 1216 3045 567 
Q 2613 -81 1831 -81 
Q 1094 -81 689 534 
Q 284 1150 284 2325 
z
M 909 2353 
Q 909 425 1888 425 
Q 2850 425 2850 2384 
Q 2850 4413 1906 4413 
Q 909 4413 909 2353 
z
" transform="scale(0.015625)"/>
       </defs>
       <use xlink:href="#MicrosoftYaHei-e"/>
       <use xlink:href="#MicrosoftYaHei-54" transform="translate(33.40625 0)"/>
       <use xlink:href="#MicrosoftYaHei-23" transform="translate(95.03125 0)"/>
       <use xlink:href="#MicrosoftYaHei-17" transform="translate(169.203125 0)"/>
       <use xlink:href="#MicrosoftYaHei-16" transform="translate(227.84375 0)"/>
       <use xlink:href="#MicrosoftYaHei-f" transform="translate(286.484375 0)"/>
      </g>
     </g>
    </g>
    <g id="xtick_3">
     <g id="line2d_3">
      <g>
       <use xlink:href="#maba8741a31" x="386.525918" y="302.14332" style="stroke: #000000; stroke-width: 0.8"/>
      </g>
     </g>
     <g id="text_3">
      <!-- 低质量脸 -->
      <g transform="translate(366.525918 317.499668) scale(0.1 -0.1)">
       <defs>
        <path id="MicrosoftYaHei-47a" d="M 2275 4809 
Q 4069 4809 5994 5072 
L 6169 4603 
Q 5306 4522 4497 4469 
Q 4513 3594 4556 2872 
L 6250 2872 
L 6250 2422 
L 4591 2422 
Q 4775 250 5581 -172 
Q 5756 -247 5806 -41 
Q 5863 278 5913 897 
Q 6156 784 6363 728 
Q 6300 141 6225 -241 
Q 6119 -728 5738 -728 
Q 5275 -728 4856 -178 
Q 4259 644 4122 2422 
L 2750 2422 
L 2750 209 
Q 3425 597 3913 878 
Q 3950 591 4006 397 
Q 3206 -59 2744 -353 
Q 2563 -472 2388 -634 
L 2063 -222 
Q 2275 -41 2275 316 
L 2275 4809 
z
M 38 2397 
Q 1000 3697 1531 5334 
L 1988 5172 
Q 1678 4309 1306 3578 
L 1306 -828 
L 856 -828 
L 856 2778 
Q 550 2288 213 1872 
Q 138 2122 38 2397 
z
M 4016 4441 
Q 3366 4403 2750 4384 
L 2750 2872 
L 4094 2872 
Q 4059 3481 4016 4441 
z
M 3531 -116 
L 3856 141 
Q 4206 -191 4544 -566 
L 4181 -859 
Q 3888 -491 3531 -116 
z
" transform="scale(0.015625)"/>
       </defs>
       <use xlink:href="#MicrosoftYaHei-47a"/>
       <use xlink:href="#MicrosoftYaHei-ac5" transform="translate(100 0)"/>
       <use xlink:href="#MicrosoftYaHei-b4f" transform="translate(200 0)"/>
       <use xlink:href="#MicrosoftYaHei-a0e" transform="translate(300 0)"/>
      </g>
      <!-- (n=38) -->
      <g transform="translate(370.531387 328.19791) scale(0.1 -0.1)">
       <defs>
        <path id="MicrosoftYaHei-19" d="M 447 809 
Q 944 425 1569 425 
Q 2069 425 2361 670 
Q 2653 916 2653 1328 
Q 2653 2247 1338 2247 
L 934 2247 
L 934 2753 
L 1319 2753 
Q 2484 2753 2484 3616 
Q 2484 4413 1594 4413 
Q 1084 4413 634 4069 
L 634 4647 
Q 1109 4922 1744 4922 
Q 2363 4922 2738 4598 
Q 3113 4275 3113 3759 
Q 3113 2809 2144 2538 
L 2144 2525 
Q 2669 2469 2973 2155 
Q 3278 1841 3278 1372 
Q 3278 719 2808 319 
Q 2338 -81 1556 -81 
Q 869 -81 447 175 
L 447 809 
z
" transform="scale(0.015625)"/>
        <path id="MicrosoftYaHei-1e" d="M 306 1350 
Q 306 1769 556 2122 
Q 806 2475 1200 2625 
Q 884 2803 700 3081 
Q 516 3359 516 3684 
Q 516 4028 692 4312 
Q 869 4597 1183 4759 
Q 1497 4922 1875 4922 
Q 2256 4922 2572 4761 
Q 2888 4600 3063 4315 
Q 3238 4031 3238 3684 
Q 3238 3366 3058 3086 
Q 2878 2806 2559 2625 
Q 2953 2472 3200 2119 
Q 3447 1766 3447 1350 
Q 3447 938 3250 611 
Q 3053 284 2690 103 
Q 2328 -78 1875 -78 
Q 1425 -78 1065 103 
Q 706 284 506 612 
Q 306 941 306 1350 
z
M 906 1378 
Q 906 947 1172 687 
Q 1438 428 1878 428 
Q 2309 428 2582 692 
Q 2856 956 2856 1378 
Q 2856 1778 2579 2051 
Q 2303 2325 1878 2325 
Q 1456 2325 1181 2058 
Q 906 1791 906 1378 
z
M 1081 3634 
Q 1081 3309 1312 3076 
Q 1544 2844 1878 2844 
Q 2206 2844 2445 3078 
Q 2684 3313 2684 3634 
Q 2684 3963 2454 4191 
Q 2225 4419 1878 4419 
Q 1534 4419 1307 4195 
Q 1081 3972 1081 3634 
z
" transform="scale(0.015625)"/>
       </defs>
       <use xlink:href="#MicrosoftYaHei-e"/>
       <use xlink:href="#MicrosoftYaHei-54" transform="translate(33.40625 0)"/>
       <use xlink:href="#MicrosoftYaHei-23" transform="translate(95.03125 0)"/>
       <use xlink:href="#MicrosoftYaHei-19" transform="translate(169.203125 0)"/>
       <use xlink:href="#MicrosoftYaHei-1e" transform="translate(227.84375 0)"/>
       <use xlink:href="#MicrosoftYaHei-f" transform="translate(286.484375 0)"/>
      </g>
     </g>
    </g>
    <g id="xtick_4">
     <g id="line2d_4">
      <g>
       <use xlink:href="#maba8741a31" x="518.405782" y="302.14332" style="stroke: #000000; stroke-width: 0.8"/>
      </g>
     </g>
     <g id="text_4">
      <!-- 未检测到脸 -->
      <g transform="translate(493.405782 317.480918) scale(0.1 -0.1)">
       <defs>
        <path id="MicrosoftYaHei-7cc" d="M 6325 128 
Q 6150 -84 5975 -334 
Q 4328 488 3444 1791 
L 3444 -822 
L 2956 -822 
L 2956 1784 
Q 2006 525 419 -409 
Q 300 -241 81 9 
Q 1778 900 2763 2153 
L 181 2153 
L 181 2616 
L 2956 2616 
L 2956 3791 
L 550 3791 
L 550 4253 
L 2956 4253 
L 2956 5322 
L 3444 5322 
L 3444 4253 
L 5875 4253 
L 5875 3791 
L 3444 3791 
L 3444 2616 
L 6219 2616 
L 6219 2153 
L 3619 2153 
Q 4625 809 6325 128 
z
" transform="scale(0.015625)"/>
        <path id="MicrosoftYaHei-812" d="M 81 1378 
Q 675 2328 988 3597 
L 144 3597 
L 144 4009 
L 1044 4009 
L 1044 5266 
L 1481 5266 
L 1481 4009 
L 2319 4009 
L 2319 3597 
L 1481 3597 
L 1481 2672 
L 1756 2872 
Q 2094 2459 2350 2097 
L 2006 1828 
Q 1788 2197 1481 2597 
L 1481 -841 
L 1044 -841 
L 1044 2647 
Q 725 1534 281 828 
Q 206 1103 81 1378 
z
M 2163 -122 
L 4544 -122 
Q 4881 791 5244 2203 
L 5750 2059 
Q 5331 741 5013 -122 
L 6188 -122 
L 6188 -566 
L 2163 -566 
L 2163 -122 
z
M 4538 5216 
L 4456 5091 
Q 5119 3891 6344 3166 
Q 6175 2978 6000 2741 
Q 4781 3603 4181 4672 
Q 3438 3466 2475 2666 
Q 2325 2866 2119 3059 
Q 3281 3941 3944 5216 
L 4538 5216 
z
M 2900 2972 
L 5463 2972 
L 5463 2534 
L 2900 2534 
L 2900 2972 
z
M 3656 2197 
L 4094 2303 
Q 4338 1441 4500 578 
L 4031 459 
Q 3875 1441 3656 2197 
z
M 2469 1947 
L 2900 2072 
Q 3138 1378 3388 378 
L 2925 241 
Q 2719 1172 2469 1947 
z
" transform="scale(0.015625)"/>
        <path id="MicrosoftYaHei-879" d="M 875 1753 
Q 1175 1597 1369 1522 
Q 950 -41 763 -784 
L 250 -547 
Q 619 497 875 1753 
z
M 638 5166 
Q 1019 4847 1588 4303 
Q 1381 4103 1213 3928 
Q 756 4434 313 4853 
L 638 5166 
z
M 356 3559 
Q 881 3134 1350 2716 
Q 1188 2547 988 2322 
Q 425 2878 50 3216 
L 356 3559 
z
M 5575 5284 
L 6031 5284 
L 6031 -34 
Q 6031 -753 5338 -753 
Q 5038 -753 4625 -741 
Q 4600 -509 4538 -228 
Q 4938 -272 5219 -272 
Q 5575 -272 5575 84 
L 5575 5284 
z
M 5038 634 
L 4600 634 
L 4600 4778 
L 5038 4778 
L 5038 634 
z
M 1706 4941 
L 4063 4941 
L 4063 991 
L 3613 991 
L 3613 4503 
L 2156 4503 
L 2156 991 
L 1706 991 
L 1706 4941 
z
M 2681 3966 
L 3138 3966 
L 3138 2416 
Q 3138 1466 2963 891 
Q 3775 266 4375 -234 
L 4038 -616 
Q 3538 -141 2800 472 
Q 2413 -297 1406 -884 
Q 1269 -684 1100 -484 
Q 2031 53 2375 709 
Q 2681 1278 2681 2403 
L 2681 3966 
z
" transform="scale(0.015625)"/>
        <path id="MicrosoftYaHei-4f1" d="M 2856 4122 
Q 3356 3384 3794 2584 
Q 3556 2472 3313 2334 
Q 3203 2566 3088 2791 
Q 1741 2659 531 2534 
L 306 3053 
Q 669 3247 931 3672 
Q 1172 4034 1403 4484 
L 238 4484 
L 238 4947 
L 3825 4947 
L 3825 4484 
L 1994 4484 
Q 1528 3694 1050 3047 
Q 1941 3113 2863 3209 
Q 2656 3569 2431 3909 
L 2856 4122 
z
M 281 1734 
L 1750 1734 
L 1750 2509 
L 2250 2509 
L 2250 1734 
L 3681 1734 
L 3681 1272 
L 2250 1272 
L 2250 172 
Q 2988 266 3769 372 
Q 3769 153 3794 -116 
Q 2025 -334 238 -597 
L 94 -72 
Q 891 9 1750 113 
L 1750 1272 
L 281 1272 
L 281 1734 
z
M 5519 5322 
L 6038 5322 
L 6038 34 
Q 6038 -747 5281 -747 
Q 5025 -747 4369 -741 
Q 4331 -484 4275 -178 
Q 4825 -228 5125 -228 
Q 5519 -234 5519 178 
L 5519 5322 
z
M 4163 4647 
L 4669 4647 
L 4669 666 
L 4163 666 
L 4163 4647 
z
" transform="scale(0.015625)"/>
       </defs>
       <use xlink:href="#MicrosoftYaHei-7cc"/>
       <use xlink:href="#MicrosoftYaHei-812" transform="translate(100 0)"/>
       <use xlink:href="#MicrosoftYaHei-879" transform="translate(200 0)"/>
       <use xlink:href="#MicrosoftYaHei-4f1" transform="translate(300 0)"/>
       <use xlink:href="#MicrosoftYaHei-a0e" transform="translate(400 0)"/>
      </g>
      <!-- (n=39) -->
      <g transform="translate(502.411251 328.17916) scale(0.1 -0.1)">
       <defs>
        <path id="MicrosoftYaHei-1f" d="M 578 656 
Q 978 425 1441 425 
Q 2091 425 2448 937 
Q 2806 1450 2806 2394 
Q 2800 2388 2794 2394 
Q 2475 1788 1722 1788 
Q 1113 1788 713 2206 
Q 313 2625 313 3294 
Q 313 4006 750 4464 
Q 1188 4922 1884 4922 
Q 2606 4922 3012 4355 
Q 3419 3788 3419 2703 
Q 3419 1363 2894 641 
Q 2369 -81 1441 -81 
Q 931 -81 578 84 
L 578 656 
z
M 931 3372 
Q 931 2884 1181 2598 
Q 1431 2313 1872 2313 
Q 2253 2313 2512 2573 
Q 2772 2834 2772 3206 
Q 2772 3728 2514 4070 
Q 2256 4413 1834 4413 
Q 1444 4413 1187 4116 
Q 931 3819 931 3372 
z
" transform="scale(0.015625)"/>
       </defs>
       <use xlink:href="#MicrosoftYaHei-e"/>
       <use xlink:href="#MicrosoftYaHei-54" transform="translate(33.40625 0)"/>
       <use xlink:href="#MicrosoftYaHei-23" transform="translate(95.03125 0)"/>
       <use xlink:href="#MicrosoftYaHei-19" transform="translate(169.203125 0)"/>
       <use xlink:href="#MicrosoftYaHei-1f" transform="translate(227.84375 0)"/>
       <use xlink:href="#MicrosoftYaHei-f" transform="translate(286.484375 0)"/>
      </g>
     </g>
    </g>
   </g>
   <g id="matplotlib.axis_2">
    <g id="ytick_1">
     <g id="line2d_5">
      <path d="M 50.759785 302.14332 
L 590.412187 302.14332 
" clip-path="url(#pc06c92fd50)" style="fill: none; stroke: #b0b0b0; stroke-opacity: 0.25; stroke-width: 0.8; stroke-linecap: square"/>
     </g>
     <g id="line2d_6">
      <defs>
       <path id="mcdcd139b44" d="M 0 0 
L -3.5 0 
" style="stroke: #000000; stroke-width: 0.8"/>
      </defs>
      <g>
       <use xlink:href="#mcdcd139b44" x="50.759785" y="302.14332" style="stroke: #000000; stroke-width: 0.8"/>
      </g>
     </g>
     <g id="text_5">
      <!-- 0% -->
      <g transform="translate(28.998848 306.203379) scale(0.1 -0.1)">
       <defs>
        <path id="MicrosoftYaHei-b" d="M 272 3619 
Q 272 4213 589 4563 
Q 906 4913 1444 4913 
Q 1959 4913 2248 4591 
Q 2538 4269 2538 3694 
Q 2538 3122 2219 2765 
Q 1900 2409 1372 2409 
Q 872 2409 572 2740 
Q 272 3072 272 3619 
z
M 753 3650 
Q 753 3247 928 3028 
Q 1103 2809 1406 2809 
Q 1719 2809 1889 3036 
Q 2059 3263 2059 3675 
Q 2059 4078 1892 4298 
Q 1725 4519 1422 4519 
Q 1113 4519 933 4289 
Q 753 4059 753 3650 
z
M 4647 4841 
L 1538 -31 
L 1016 -31 
L 4125 4841 
L 4647 4841 
z
M 3172 1134 
Q 3172 1728 3489 2083 
Q 3806 2438 4341 2438 
Q 4853 2438 5143 2114 
Q 5434 1791 5434 1203 
Q 5434 634 5112 279 
Q 4791 -75 4272 -75 
Q 3769 -75 3470 261 
Q 3172 597 3172 1134 
z
M 3650 1163 
Q 3650 769 3825 548 
Q 4000 328 4303 328 
Q 4616 328 4786 556 
Q 4956 784 4956 1194 
Q 4956 1600 4786 1815 
Q 4616 2031 4319 2031 
Q 4000 2031 3825 1801 
Q 3650 1572 3650 1163 
z
" transform="scale(0.015625)"/>
       </defs>
       <use xlink:href="#MicrosoftYaHei-16"/>
       <use xlink:href="#MicrosoftYaHei-b" transform="translate(58.640625 0)"/>
      </g>
     </g>
    </g>
    <g id="ytick_2">
     <g id="line2d_7">
      <path d="M 50.759785 261.254551 
L 590.412187 261.254551 
" clip-path="url(#pc06c92fd50)" style="fill: none; stroke: #b0b0b0; stroke-opacity: 0.25; stroke-width: 0.8; stroke-linecap: square"/>
     </g>
     <g id="line2d_8">
      <g>
       <use xlink:href="#mcdcd139b44" x="50.759785" y="261.254551" style="stroke: #000000; stroke-width: 0.8"/>
      </g>
     </g>
     <g id="text_6">
      <!-- 10% -->
      <g transform="translate(23.134785 265.314609) scale(0.1 -0.1)">
       <use xlink:href="#MicrosoftYaHei-17"/>
       <use xlink:href="#MicrosoftYaHei-16" transform="translate(58.640625 0)"/>
       <use xlink:href="#MicrosoftYaHei-b" transform="translate(117.28125 0)"/>
      </g>
     </g>
    </g>
    <g id="ytick_3">
     <g id="line2d_9">
      <path d="M 50.759785 220.365781 
L 590.412187 220.365781 
" clip-path="url(#pc06c92fd50)" style="fill: none; stroke: #b0b0b0; stroke-opacity: 0.25; stroke-width: 0.8; stroke-linecap: square"/>
     </g>
     <g id="line2d_10">
      <g>
       <use xlink:href="#mcdcd139b44" x="50.759785" y="220.365781" style="stroke: #000000; stroke-width: 0.8"/>
      </g>
     </g>
     <g id="text_7">
      <!-- 20% -->
      <g transform="translate(23.134785 224.42584) scale(0.1 -0.1)">
       <defs>
        <path id="MicrosoftYaHei-18" d="M 2666 3572 
Q 2666 3963 2419 4186 
Q 2172 4409 1747 4409 
Q 1447 4409 1140 4256 
Q 834 4103 569 3819 
L 569 4413 
Q 806 4659 1107 4790 
Q 1409 4922 1816 4922 
Q 2472 4922 2872 4570 
Q 3272 4219 3272 3619 
Q 3272 3084 3026 2693 
Q 2781 2303 2188 1894 
Q 1581 1475 1376 1294 
Q 1172 1113 1090 947 
Q 1009 781 1009 544 
L 3416 544 
L 3416 0 
L 372 0 
L 372 241 
Q 372 659 486 951 
Q 600 1244 862 1520 
Q 1125 1797 1681 2184 
Q 2250 2584 2458 2886 
Q 2666 3188 2666 3572 
z
" transform="scale(0.015625)"/>
       </defs>
       <use xlink:href="#MicrosoftYaHei-18"/>
       <use xlink:href="#MicrosoftYaHei-16" transform="translate(58.640625 0)"/>
       <use xlink:href="#MicrosoftYaHei-b" transform="translate(117.28125 0)"/>
      </g>
     </g>
    </g>
    <g id="ytick_4">
     <g id="line2d_11">
      <path d="M 50.759785 179.477012 
L 590.412187 179.477012 
" clip-path="url(#pc06c92fd50)" style="fill: none; stroke: #b0b0b0; stroke-opacity: 0.25; stroke-width: 0.8; stroke-linecap: square"/>
     </g>
     <g id="line2d_12">
      <g>
       <use xlink:href="#mcdcd139b44" x="50.759785" y="179.477012" style="stroke: #000000; stroke-width: 0.8"/>
      </g>
     </g>
     <g id="text_8">
      <!-- 30% -->
      <g transform="translate(23.134785 183.53707) scale(0.1 -0.1)">
       <use xlink:href="#MicrosoftYaHei-19"/>
       <use xlink:href="#MicrosoftYaHei-16" transform="translate(58.640625 0)"/>
       <use xlink:href="#MicrosoftYaHei-b" transform="translate(117.28125 0)"/>
      </g>
     </g>
    </g>
    <g id="ytick_5">
     <g id="line2d_13">
      <path d="M 50.759785 138.588242 
L 590.412187 138.588242 
" clip-path="url(#pc06c92fd50)" style="fill: none; stroke: #b0b0b0; stroke-opacity: 0.25; stroke-width: 0.8; stroke-linecap: square"/>
     </g>
     <g id="line2d_14">
      <g>
       <use xlink:href="#mcdcd139b44" x="50.759785" y="138.588242" style="stroke: #000000; stroke-width: 0.8"/>
      </g>
     </g>
     <g id="text_9">
      <!-- 40% -->
      <g transform="translate(23.134785 142.648301) scale(0.1 -0.1)">
       <defs>
        <path id="MicrosoftYaHei-1a" d="M 2906 4841 
L 2906 1644 
L 3631 1644 
L 3631 1138 
L 2906 1138 
L 2906 0 
L 2313 0 
L 2313 1138 
L 53 1138 
L 53 1616 
Q 656 2294 1265 3178 
Q 1875 4063 2272 4841 
L 2906 4841 
z
M 741 1644 
L 2313 1644 
L 2313 3950 
Q 1988 3366 1616 2817 
Q 1244 2269 741 1644 
z
" transform="scale(0.015625)"/>
       </defs>
       <use xlink:href="#MicrosoftYaHei-1a"/>
       <use xlink:href="#MicrosoftYaHei-16" transform="translate(58.640625 0)"/>
       <use xlink:href="#MicrosoftYaHei-b" transform="translate(117.28125 0)"/>
      </g>
     </g>
    </g>
    <g id="ytick_6">
     <g id="line2d_15">
      <path d="M 50.759785 97.699473 
L 590.412187 97.699473 
" clip-path="url(#pc06c92fd50)" style="fill: none; stroke: #b0b0b0; stroke-opacity: 0.25; stroke-width: 0.8; stroke-linecap: square"/>
     </g>
     <g id="line2d_16">
      <g>
       <use xlink:href="#mcdcd139b44" x="50.759785" y="97.699473" style="stroke: #000000; stroke-width: 0.8"/>
      </g>
     </g>
     <g id="text_10">
      <!-- 50% -->
      <g transform="translate(23.134785 101.759531) scale(0.1 -0.1)">
       <defs>
        <path id="MicrosoftYaHei-1b" d="M 3294 1494 
Q 3294 784 2823 350 
Q 2353 -84 1559 -84 
Q 878 -84 544 119 
L 544 744 
Q 1034 425 1544 425 
Q 2050 425 2361 704 
Q 2672 984 2672 1447 
Q 2672 1909 2348 2167 
Q 2025 2425 1434 2425 
Q 978 2425 613 2384 
L 791 4841 
L 3053 4841 
L 3053 4303 
L 1306 4303 
L 1206 2931 
L 1647 2950 
Q 2416 2950 2855 2567 
Q 3294 2184 3294 1494 
z
" transform="scale(0.015625)"/>
       </defs>
       <use xlink:href="#MicrosoftYaHei-1b"/>
       <use xlink:href="#MicrosoftYaHei-16" transform="translate(58.640625 0)"/>
       <use xlink:href="#MicrosoftYaHei-b" transform="translate(117.28125 0)"/>
      </g>
     </g>
    </g>
    <g id="ytick_7">
     <g id="line2d_17">
      <path d="M 50.759785 56.810703 
L 590.412187 56.810703 
" clip-path="url(#pc06c92fd50)" style="fill: none; stroke: #b0b0b0; stroke-opacity: 0.25; stroke-width: 0.8; stroke-linecap: square"/>
     </g>
     <g id="line2d_18">
      <g>
       <use xlink:href="#mcdcd139b44" x="50.759785" y="56.810703" style="stroke: #000000; stroke-width: 0.8"/>
      </g>
     </g>
     <g id="text_11">
      <!-- 60% -->
      <g transform="translate(23.134785 60.870762) scale(0.1 -0.1)">
       <use xlink:href="#MicrosoftYaHei-1c"/>
       <use xlink:href="#MicrosoftYaHei-16" transform="translate(58.640625 0)"/>
       <use xlink:href="#MicrosoftYaHei-b" transform="translate(117.28125 0)"/>
      </g>
     </g>
    </g>
    <g id="text_12">
     <!-- 识别比例 -->
     <g transform="translate(16.347188 185.121504) rotate(-90) scale(0.11 -0.11)">
      <defs>
       <path id="MicrosoftYaHei-a9c" d="M 2431 4884 
L 5875 4884 
L 5875 1597 
L 5394 1597 
L 5394 1972 
L 2913 1972 
L 2913 1597 
L 2431 1597 
L 2431 4884 
z
M 5394 4447 
L 2913 4447 
L 2913 2409 
L 5394 2409 
L 5394 4447 
z
M 2313 1309 
Q 2344 1047 2394 791 
Q 1831 372 1325 -41 
Q 1200 -153 1050 -328 
L 681 59 
Q 881 259 881 609 
L 881 2772 
L 88 2772 
L 88 3222 
L 1363 3222 
L 1363 566 
Q 1875 947 2313 1309 
z
M 4469 997 
L 4875 1297 
Q 5619 503 6381 -422 
L 5931 -759 
Q 5225 153 4469 997 
z
M 3306 1322 
L 3725 1022 
Q 2981 116 2063 -784 
Q 1906 -634 1681 -447 
Q 2544 334 3306 1322 
z
M 1025 5203 
Q 1638 4578 2000 4172 
L 1569 3816 
Q 1088 4434 656 4891 
L 1025 5203 
z
" transform="scale(0.015625)"/>
       <path id="MicrosoftYaHei-4f0" d="M 538 4959 
L 3375 4959 
L 3375 2772 
L 2888 2772 
L 2888 3028 
L 1025 3028 
L 1025 2772 
L 538 2772 
L 538 4959 
z
M 300 2116 
L 1316 2116 
Q 1331 2431 1338 2822 
L 1825 2822 
Q 1816 2431 1797 2116 
L 3431 2116 
Q 3413 1028 3363 328 
Q 3319 -684 2431 -678 
Q 2006 -678 1563 -641 
Q 1531 -347 1469 -122 
Q 1963 -203 2350 -203 
Q 2850 -209 2875 378 
Q 2925 891 2938 1666 
L 1769 1666 
Q 1688 53 431 -859 
Q 300 -666 88 -441 
Q 1238 366 1288 1666 
L 300 1666 
L 300 2116 
z
M 5425 5278 
L 5944 5278 
L 5944 53 
Q 5944 -747 5163 -747 
Q 4756 -747 4175 -741 
Q 4138 -484 4081 -178 
Q 4725 -228 4994 -228 
Q 5425 -228 5425 191 
L 5425 5278 
z
M 4138 4647 
L 4644 4647 
L 4644 666 
L 4138 666 
L 4138 4647 
z
M 2888 4509 
L 1025 4509 
L 1025 3478 
L 2888 3478 
L 2888 4509 
z
" transform="scale(0.015625)"/>
       <path id="MicrosoftYaHei-841" d="M 3225 5316 
L 3744 5316 
L 3744 2672 
Q 4959 3550 5744 4509 
L 6188 4178 
Q 5175 3063 3744 2056 
L 3744 247 
Q 3744 -166 4106 -166 
L 5175 -166 
Q 5588 -166 5650 203 
Q 5725 678 5763 1247 
Q 6025 1147 6300 1066 
Q 6244 484 6150 22 
Q 6019 -622 5319 -622 
L 3944 -622 
Q 3225 -622 3225 159 
L 3225 5316 
z
M 1063 5153 
L 1063 3278 
L 2825 3278 
L 2825 2809 
L 1063 2809 
L 1063 153 
Q 1713 428 2763 928 
Q 2763 634 2788 366 
Q 1869 -3 1231 -328 
Q 956 -472 725 -672 
L 344 -184 
Q 544 -34 544 272 
L 544 5153 
L 1063 5153 
z
" transform="scale(0.015625)"/>
       <path id="MicrosoftYaHei-486" d="M 2381 1841 
L 2631 2191 
Q 2916 1997 3247 1738 
Q 3488 2378 3581 3128 
L 2703 3128 
Q 2350 1984 1831 1291 
Q 1700 1491 1531 1678 
Q 2238 2694 2578 4522 
L 1900 4522 
L 1900 4959 
L 4319 4959 
L 4319 4522 
L 3044 4522 
Q 2947 4009 2828 3559 
L 4044 3559 
L 4044 3128 
Q 3788 666 2038 -822 
Q 1900 -634 1694 -416 
Q 2578 297 3063 1303 
Q 2753 1556 2381 1841 
z
M 88 2291 
Q 894 3659 1281 5322 
L 1744 5234 
Q 1578 4534 1325 3853 
L 1325 -809 
L 900 -809 
L 900 2847 
Q 625 2275 288 1716 
Q 213 1966 88 2291 
z
M 5575 5303 
L 6031 5303 
L 6031 84 
Q 6031 -391 5881 -566 
Q 5750 -728 5356 -734 
Q 5088 -741 4488 -722 
Q 4463 -466 4400 -203 
Q 4881 -253 5188 -253 
Q 5431 -259 5500 -166 
Q 5575 -84 5575 234 
L 5575 5303 
z
M 4913 653 
L 4469 653 
L 4469 4322 
L 4913 4322 
L 4913 653 
z
" transform="scale(0.015625)"/>
      </defs>
      <use xlink:href="#MicrosoftYaHei-a9c"/>
      <use xlink:href="#MicrosoftYaHei-4f0" transform="translate(100 0)"/>
      <use xlink:href="#MicrosoftYaHei-841" transform="translate(200 0)"/>
      <use xlink:href="#MicrosoftYaHei-486" transform="translate(300 0)"/>
     </g>
    </g>
   </g>
   <g id="patch_11">
    <path d="M 50.759785 302.14332 
L 50.759785 24.099687 
" style="fill: none; stroke: #000000; stroke-width: 0.8; stroke-linejoin: miter; stroke-linecap: square"/>
   </g>
   <g id="patch_12">
    <path d="M 590.412187 302.14332 
L 590.412187 24.099687 
" style="fill: none; stroke: #000000; stroke-width: 0.8; stroke-linejoin: miter; stroke-linecap: square"/>
   </g>
   <g id="patch_13">
    <path d="M 50.759785 302.14332 
L 590.412187 302.14332 
" style="fill: none; stroke: #000000; stroke-width: 0.8; stroke-linejoin: miter; stroke-linecap: square"/>
   </g>
   <g id="patch_14">
    <path d="M 50.759785 24.099687 
L 590.412187 24.099687 
" style="fill: none; stroke: #000000; stroke-width: 0.8; stroke-linejoin: miter; stroke-linecap: square"/>
   </g>
   <g id="text_13">
    <!-- 50.0% -->
    <g transform="translate(86.024222 89.285396) scale(0.09 -0.09)">
     <defs>
      <path id="MicrosoftYaHei-14" d="M 372 322 
Q 372 491 487 606 
Q 603 722 775 722 
Q 950 722 1065 605 
Q 1181 488 1181 322 
Q 1181 159 1065 42 
Q 950 -75 772 -75 
Q 600 -75 486 42 
Q 372 159 372 322 
z
" transform="scale(0.015625)"/>
     </defs>
     <use xlink:href="#MicrosoftYaHei-1b"/>
     <use xlink:href="#MicrosoftYaHei-16" transform="translate(58.640625 0)"/>
     <use xlink:href="#MicrosoftYaHei-14" transform="translate(117.28125 0)"/>
     <use xlink:href="#MicrosoftYaHei-16" transform="translate(141.359375 0)"/>
     <use xlink:href="#MicrosoftYaHei-b" transform="translate(200 0)"/>
    </g>
   </g>
   <g id="text_14">
    <!-- 40.0% -->
    <g transform="translate(217.904085 130.174165) scale(0.09 -0.09)">
     <use xlink:href="#MicrosoftYaHei-1a"/>
     <use xlink:href="#MicrosoftYaHei-16" transform="translate(58.640625 0)"/>
     <use xlink:href="#MicrosoftYaHei-14" transform="translate(117.28125 0)"/>
     <use xlink:href="#MicrosoftYaHei-16" transform="translate(141.359375 0)"/>
     <use xlink:href="#MicrosoftYaHei-b" transform="translate(200 0)"/>
    </g>
   </g>
   <g id="text_15">
    <!-- 55.3% -->
    <g transform="translate(349.783949 67.764818) scale(0.09 -0.09)">
     <use xlink:href="#MicrosoftYaHei-1b"/>
     <use xlink:href="#MicrosoftYaHei-1b" transform="translate(58.640625 0)"/>
     <use xlink:href="#MicrosoftYaHei-14" transform="translate(117.28125 0)"/>
     <use xlink:href="#MicrosoftYaHei-19" transform="translate(141.359375 0)"/>
     <use xlink:href="#MicrosoftYaHei-b" transform="translate(200 0)"/>
    </g>
   </g>
   <g id="text_16">
    <!-- 56.4% -->
    <g transform="translate(481.663813 63.074468) scale(0.09 -0.09)">
     <use xlink:href="#MicrosoftYaHei-1b"/>
     <use xlink:href="#MicrosoftYaHei-1c" transform="translate(58.640625 0)"/>
     <use xlink:href="#MicrosoftYaHei-14" transform="translate(117.28125 0)"/>
     <use xlink:href="#MicrosoftYaHei-1a" transform="translate(141.359375 0)"/>
     <use xlink:href="#MicrosoftYaHei-b" transform="translate(200 0)"/>
    </g>
   </g>
   <g id="text_17">
    <!-- 16.7% -->
    <g transform="translate(133.500972 225.581158) scale(0.09 -0.09)">
     <defs>
      <path id="MicrosoftYaHei-1d" d="M 3422 4463 
Q 2659 3131 2223 1998 
Q 1788 866 1684 0 
L 1047 0 
Q 1163 853 1594 1947 
Q 2025 3041 2747 4300 
L 347 4300 
L 347 4841 
L 3422 4841 
L 3422 4463 
z
" transform="scale(0.015625)"/>
     </defs>
     <use xlink:href="#MicrosoftYaHei-17"/>
     <use xlink:href="#MicrosoftYaHei-1c" transform="translate(58.640625 0)"/>
     <use xlink:href="#MicrosoftYaHei-14" transform="translate(117.28125 0)"/>
     <use xlink:href="#MicrosoftYaHei-1d" transform="translate(141.359375 0)"/>
     <use xlink:href="#MicrosoftYaHei-b" transform="translate(200 0)"/>
    </g>
   </g>
   <g id="text_18">
    <!-- 0.0% -->
    <g transform="translate(268.019664 293.729243) scale(0.09 -0.09)">
     <use xlink:href="#MicrosoftYaHei-16"/>
     <use xlink:href="#MicrosoftYaHei-14" transform="translate(58.640625 0)"/>
     <use xlink:href="#MicrosoftYaHei-16" transform="translate(82.71875 0)"/>
     <use xlink:href="#MicrosoftYaHei-b" transform="translate(141.359375 0)"/>
    </g>
   </g>
   <g id="text_19">
    <!-- 23.7% -->
    <g transform="translate(397.2607 196.887464) scale(0.09 -0.09)">
     <use xlink:href="#MicrosoftYaHei-18"/>
     <use xlink:href="#MicrosoftYaHei-19" transform="translate(58.640625 0)"/>
     <use xlink:href="#MicrosoftYaHei-14" transform="translate(117.28125 0)"/>
     <use xlink:href="#MicrosoftYaHei-1d" transform="translate(141.359375 0)"/>
     <use xlink:href="#MicrosoftYaHei-b" transform="translate(200 0)"/>
    </g>
   </g>
   <g id="text_20">
    <!-- 41.0% -->
    <g transform="translate(529.140564 125.980613) scale(0.09 -0.09)">
     <use xlink:href="#MicrosoftYaHei-1a"/>
     <use xlink:href="#MicrosoftYaHei-17" transform="translate(58.640625 0)"/>
     <use xlink:href="#MicrosoftYaHei-14" transform="translate(117.28125 0)"/>
     <use xlink:href="#MicrosoftYaHei-16" transform="translate(141.359375 0)"/>
     <use xlink:href="#MicrosoftYaHei-b" transform="translate(200 0)"/>
    </g>
   </g>
   <g id="text_21">
    <!-- 协议A：人形路线在不同人脸质量场景中的表现 -->
    <g transform="translate(186.012627 18.099687) scale(0.13 -0.13)">
     <defs>
      <path id="MicrosoftYaHei-523" d="M 2206 4022 
L 3291 4022 
Q 3313 4659 3313 5278 
L 3800 5278 
Q 3794 4697 3772 4022 
L 5294 4022 
Q 5231 1716 5150 172 
Q 5113 -691 4281 -691 
Q 4075 -691 3594 -678 
Q 3550 -391 3488 -134 
Q 3894 -191 4200 -191 
Q 4650 -197 4675 291 
Q 4750 1784 4794 3534 
L 3756 3534 
Q 3722 2138 3538 1322 
Q 3219 84 2225 -778 
Q 2069 -603 1863 -409 
Q 2756 378 3056 1453 
Q 3250 2184 3278 3534 
L 2206 3534 
L 2206 4022 
z
M 94 3484 
L 775 3484 
L 775 5272 
L 1256 5272 
L 1256 3484 
L 1863 3484 
L 1863 3028 
L 1256 3028 
L 1256 -803 
L 775 -803 
L 775 3028 
L 94 3028 
L 94 3484 
z
M 2394 2916 
L 2813 2759 
Q 2500 1934 2088 997 
Q 1894 1103 1669 1191 
Q 2075 1978 2394 2916 
z
M 5331 2791 
L 5750 2922 
Q 6063 2047 6319 1278 
L 5863 1122 
Q 5600 2053 5331 2791 
z
" transform="scale(0.015625)"/>
      <path id="MicrosoftYaHei-a91" d="M 5813 4841 
Q 5447 2288 4309 909 
Q 5119 156 6288 -272 
Q 6056 -547 5888 -791 
Q 4719 -234 3941 516 
Q 3100 -300 1969 -847 
Q 1831 -647 1613 -372 
Q 2772 131 3575 909 
Q 2384 2338 2119 4841 
L 2606 4916 
Q 2809 2638 3938 1300 
Q 5041 2647 5313 4928 
L 5813 4841 
z
M 2181 1222 
Q 2200 953 2250 678 
Q 1819 359 1313 -47 
Q 1156 -178 1025 -341 
L 663 47 
Q 856 253 856 653 
L 856 2772 
L 94 2772 
L 94 3234 
L 1331 3234 
L 1331 553 
Q 1763 884 2181 1222 
z
M 3250 5103 
L 3650 5316 
Q 4050 4703 4425 4016 
L 3981 3759 
Q 3569 4584 3250 5103 
z
M 788 5172 
Q 1238 4722 1700 4191 
L 1281 3834 
Q 813 4434 425 4866 
L 788 5172 
z
" transform="scale(0.015625)"/>
      <path id="MicrosoftYaHei-27" d="M 4428 0 
L 3738 0 
L 3244 1325 
L 1228 1325 
L 763 0 
L 72 0 
L 1916 4841 
L 2584 4841 
L 4428 0 
z
M 3050 1872 
L 2319 3884 
Q 2284 3981 2244 4222 
L 2228 4222 
Q 2194 4003 2150 3884 
L 1425 1872 
L 3050 1872 
z
" transform="scale(0.015625)"/>
      <path id="MicrosoftYaHei-379" d="M 1606 3531 
Q 1772 3531 1890 3415 
Q 2009 3300 2009 3138 
Q 2009 2975 1893 2858 
Q 1778 2741 1606 2741 
Q 1434 2741 1318 2858 
Q 1203 2975 1203 3138 
Q 1203 3300 1322 3415 
Q 1441 3531 1606 3531 
z
M 1606 716 
Q 1772 716 1890 600 
Q 2009 484 2009 319 
Q 2009 150 1890 36 
Q 1772 -78 1606 -78 
Q 1441 -78 1322 36 
Q 1203 150 1203 319 
Q 1203 484 1322 600 
Q 1441 716 1606 716 
z
" transform="scale(0.015625)"/>
      <path id="MicrosoftYaHei-44b" d="M 100 -303 
Q 2825 1272 2981 5222 
L 3531 5222 
Q 3497 4553 3400 3947 
Q 4175 822 6313 -166 
Q 6050 -453 5850 -709 
Q 3994 341 3203 3006 
Q 2519 431 494 -778 
Q 325 -547 100 -303 
z
" transform="scale(0.015625)"/>
      <path id="MicrosoftYaHei-6a5" d="M 175 2647 
L 1019 2647 
L 1019 4422 
L 350 4422 
L 350 4872 
L 3775 4872 
L 3775 4422 
L 3006 4422 
L 3006 2647 
L 3975 2647 
L 3975 2197 
L 3006 2197 
L 3006 -791 
L 2525 -791 
L 2525 2197 
L 1497 2197 
Q 1500 128 406 -841 
Q 256 -622 75 -428 
Q 1025 366 1016 2197 
L 175 2197 
L 175 2647 
z
M 1500 2647 
L 2525 2647 
L 2525 4422 
L 1500 4422 
L 1500 2647 
z
M 6319 1353 
Q 5331 166 3738 -834 
Q 3631 -666 3388 -422 
Q 4925 397 5956 1672 
L 6319 1353 
z
M 6138 3172 
Q 5250 2159 4019 1347 
Q 3888 1528 3694 1722 
Q 4856 2441 5775 3484 
L 6138 3172 
z
M 6038 4934 
Q 5194 4009 3988 3266 
Q 3875 3428 3675 3666 
Q 4838 4322 5675 5253 
L 6038 4934 
z
" transform="scale(0.015625)"/>
      <path id="MicrosoftYaHei-ae8" d="M 481 2416 
L 894 2416 
L 894 106 
Q 1147 144 1413 184 
L 1413 3041 
L 913 3041 
L 913 2834 
L 463 2834 
L 463 4953 
L 2513 4953 
L 2513 3041 
L 1850 3041 
L 1850 1984 
L 2500 1984 
L 2500 1559 
L 1850 1559 
L 1850 250 
Q 2241 313 2650 384 
Q 2638 172 2638 -72 
Q 1419 -278 225 -484 
L 100 3 
Q 288 25 481 50 
L 481 2416 
z
M 2575 3428 
Q 3231 4234 3713 5359 
L 4175 5191 
Q 4041 4909 3906 4653 
L 5881 4653 
L 5881 4234 
Q 5472 3463 4797 2809 
Q 5413 2388 6313 2178 
Q 6188 1903 6106 1659 
Q 5125 1994 4441 2500 
Q 3759 1972 2788 1559 
Q 2725 1684 2538 2003 
Q 3384 2306 4072 2816 
Q 3694 3191 3391 3756 
Q 3138 3366 2888 3059 
Q 2738 3259 2575 3428 
z
M 3038 1584 
L 5756 1584 
L 5756 -847 
L 5288 -847 
L 5288 -547 
L 3506 -547 
L 3506 -847 
L 3038 -847 
L 3038 1584 
z
M 5288 1147 
L 3506 1147 
L 3506 -109 
L 5288 -109 
L 5288 1147 
z
M 2063 3466 
L 2063 4528 
L 913 4528 
L 913 3466 
L 2063 3466 
z
M 5344 4228 
L 3675 4228 
Q 3656 4197 3638 4166 
Q 3953 3531 4425 3103 
Q 4988 3606 5344 4228 
z
" transform="scale(0.015625)"/>
      <path id="MicrosoftYaHei-9bf" d="M 1969 -347 
Q 3144 75 4003 631 
Q 3781 1197 3653 1972 
L 2319 1784 
L 2244 2234 
L 3591 2422 
Q 3538 2859 3513 3356 
L 2381 3228 
L 2306 3678 
L 3488 3809 
Q 3453 4459 3425 5303 
L 3938 5303 
Q 3953 4497 3978 3866 
L 6069 4103 
L 6125 3659 
L 3997 3413 
Q 4019 2919 4069 2488 
L 6225 2791 
L 6281 2347 
L 4128 2041 
Q 4234 1394 4416 916 
Q 5078 1416 5519 2009 
L 5925 1703 
Q 5363 1025 4619 475 
Q 4859 44 5194 -184 
Q 5606 -428 5725 66 
Q 5806 466 5856 953 
Q 6144 828 6338 772 
Q 6231 97 6125 -247 
Q 5944 -778 5506 -778 
Q 5050 -778 4663 -403 
Q 4409 -163 4209 194 
Q 3350 -363 2281 -772 
Q 2169 -597 1969 -347 
z
M 900 1541 
Q 1456 1622 2213 1753 
Q 2175 1522 2156 1272 
Q 1113 1109 325 978 
L 225 1447 
Q 659 1913 1178 2775 
Q 672 2747 225 2703 
L 106 3128 
Q 688 3922 1300 5353 
L 1775 5166 
Q 1131 3897 669 3166 
Q 1041 3178 1422 3194 
Q 1638 3578 1869 4028 
L 2331 3797 
Q 1569 2478 900 1541 
z
M 106 97 
Q 1206 334 2331 616 
Q 2313 366 2313 141 
Q 1269 -103 244 -378 
L 106 97 
z
M 4463 4972 
L 4731 5284 
Q 5175 5003 5681 4609 
L 5381 4247 
Q 4863 4691 4463 4972 
z
" transform="scale(0.015625)"/>
      <path id="MicrosoftYaHei-5a8" d="M 250 4553 
L 2088 4553 
Q 2241 4931 2363 5328 
L 2881 5197 
Q 2772 4869 2647 4553 
L 6275 4553 
L 6275 4091 
L 2450 4091 
Q 2078 3256 1581 2519 
L 1581 -791 
L 1094 -791 
L 1094 1853 
Q 756 1431 375 1047 
Q 244 1266 75 1497 
Q 1225 2691 1884 4091 
L 250 4091 
L 250 4553 
z
M 1800 109 
L 3756 109 
L 3756 1978 
L 2131 1978 
L 2131 2428 
L 3756 2428 
L 3756 3684 
L 4269 3684 
L 4269 2428 
L 5919 2428 
L 5919 1978 
L 4269 1978 
L 4269 109 
L 6275 109 
L 6275 -328 
L 1800 -328 
L 1800 109 
z
" transform="scale(0.015625)"/>
      <path id="MicrosoftYaHei-409" d="M 225 4772 
L 6181 4772 
L 6181 4284 
L 3881 4284 
Q 3581 3766 3081 3053 
L 3444 3053 
L 3444 -866 
L 2906 -866 
L 2906 2859 
Q 1838 1541 388 609 
Q 231 834 38 1059 
Q 2006 2291 3213 4284 
L 225 4284 
L 225 4772 
z
M 4069 2859 
Q 5238 2147 6325 1409 
L 5969 916 
Q 4681 1872 3763 2434 
L 4069 2859 
z
" transform="scale(0.015625)"/>
      <path id="MicrosoftYaHei-563" d="M 1013 -772 
L 531 -772 
L 531 4959 
L 5856 4959 
L 5856 -47 
Q 5856 -741 5125 -741 
Q 4669 -741 4088 -716 
Q 4056 -497 4000 -216 
Q 4619 -272 5025 -272 
Q 5375 -272 5375 78 
L 5375 4497 
L 1013 4497 
L 1013 -772 
z
M 1875 2566 
L 4506 2566 
L 4506 597 
L 2338 597 
L 2338 272 
L 1875 272 
L 1875 2566 
z
M 4044 2116 
L 2338 2116 
L 2338 1047 
L 4044 1047 
L 4044 2116 
z
M 1363 3734 
L 5025 3734 
L 5025 3284 
L 1363 3284 
L 1363 3734 
z
" transform="scale(0.015625)"/>
      <path id="MicrosoftYaHei-5ab" d="M 4800 4491 
L 2363 4491 
L 2363 4941 
L 5688 4941 
L 5688 4484 
L 3225 2928 
L 6063 2928 
Q 5988 1197 5919 253 
Q 5838 -703 5038 -703 
Q 4763 -703 4194 -684 
Q 4150 -372 4088 -141 
Q 4519 -209 4962 -209 
Q 5406 -209 5450 322 
Q 5513 1103 5575 2478 
L 4906 2478 
Q 4628 375 2963 -853 
Q 2788 -634 2613 -472 
Q 4163 600 4441 2478 
L 3641 2478 
Q 3281 913 1863 -103 
Q 1713 78 1538 259 
Q 2831 1144 3175 2478 
L 2431 2478 
L 2431 2953 
L 4800 4491 
z
M 94 703 
Q 547 888 1006 1088 
L 1006 3247 
L 169 3247 
L 169 3697 
L 1006 3697 
L 1006 5259 
L 1469 5259 
L 1469 3697 
L 2231 3697 
L 2231 3247 
L 1469 3247 
L 1469 1294 
Q 1819 1453 2175 1622 
Q 2188 1359 2231 1153 
Q 1319 741 288 222 
L 94 703 
z
" transform="scale(0.015625)"/>
      <path id="MicrosoftYaHei-7b0" d="M 900 5084 
L 5500 5084 
L 5500 2984 
L 5050 2984 
L 5050 3209 
L 1350 3209 
L 1350 2984 
L 900 2984 
L 900 5084 
z
M 1013 2003 
L 5438 2003 
L 5438 566 
L 4988 566 
L 4988 766 
L 3481 766 
L 3481 -103 
Q 3488 -766 2825 -766 
Q 2406 -766 2131 -759 
Q 2119 -666 2038 -266 
Q 2431 -303 2713 -303 
Q 3013 -303 3019 9 
L 3019 766 
L 1463 766 
L 1463 566 
L 1013 566 
L 1013 2003 
z
M 338 2759 
L 2950 2759 
Q 2878 2888 2800 3022 
L 3219 3197 
Q 3350 2969 3459 2759 
L 6075 2759 
L 6075 2372 
L 338 2372 
L 338 2759 
z
M 4988 1628 
L 1463 1628 
L 1463 1141 
L 4988 1141 
L 4988 1628 
z
M 1350 3584 
L 5050 3584 
L 5050 3966 
L 1350 3966 
L 1350 3584 
z
M 5050 4709 
L 1350 4709 
L 1350 4328 
L 5050 4328 
L 5050 4709 
z
M 4000 103 
L 4213 497 
Q 5181 134 6113 -247 
L 5881 -678 
Q 5025 -278 4000 103 
z
M 2175 503 
L 2438 122 
Q 1531 -322 588 -741 
Q 494 -559 338 -341 
Q 1406 97 2175 503 
z
" transform="scale(0.015625)"/>
      <path id="MicrosoftYaHei-418" d="M 525 3972 
L 2931 3972 
L 2931 5334 
L 3469 5334 
L 3469 3972 
L 5900 3972 
L 5900 1122 
L 5388 1122 
L 5388 1459 
L 3469 1459 
L 3469 -866 
L 2931 -866 
L 2931 1459 
L 1038 1459 
L 1038 1122 
L 525 1122 
L 525 3972 
z
M 5388 3509 
L 3469 3509 
L 3469 1922 
L 5388 1922 
L 5388 3509 
z
M 1038 1922 
L 2931 1922 
L 2931 3509 
L 1038 3509 
L 1038 1922 
z
" transform="scale(0.015625)"/>
      <path id="MicrosoftYaHei-919" d="M 356 4284 
L 988 4284 
Q 1219 4853 1369 5322 
L 1894 5172 
Q 1697 4694 1513 4284 
L 2763 4284 
L 2763 -691 
L 2263 -691 
L 2263 -203 
L 856 -203 
L 856 -734 
L 356 -734 
L 356 4284 
z
M 2856 3003 
Q 3444 3934 3850 5322 
L 4375 5191 
Q 4216 4719 4050 4303 
L 6063 4303 
Q 5988 1091 5938 259 
Q 5894 -722 4906 -722 
Q 4338 -722 3750 -684 
Q 3713 -372 3650 -128 
L 3669 -128 
Q 4294 -216 4813 -216 
Q 5381 -216 5425 384 
Q 5494 1316 5525 3834 
L 3850 3834 
Q 3578 3231 3288 2772 
Q 3119 2891 2856 3003 
z
M 856 266 
L 2263 266 
L 2263 1847 
L 856 1847 
L 856 266 
z
M 2263 3816 
L 856 3816 
L 856 2297 
L 2263 2297 
L 2263 3816 
z
M 3406 2578 
L 3788 2859 
Q 4481 2041 4894 1441 
L 4431 1116 
Q 3988 1841 3406 2578 
z
" transform="scale(0.015625)"/>
      <path id="MicrosoftYaHei-a6e" d="M 5519 1891 
L 5863 1459 
L 4466 759 
Q 5200 159 6306 -34 
Q 6094 -309 5956 -534 
Q 3941 -53 3066 1944 
Q 2747 1538 2338 1172 
L 2338 -166 
Q 3163 103 3869 397 
Q 3863 122 3875 -147 
Q 3125 -403 2325 -709 
Q 2156 -778 1994 -872 
L 1700 -416 
Q 1875 -291 1875 -66 
L 1875 794 
Q 1228 309 406 -84 
Q 269 134 88 347 
Q 1703 1009 2625 2122 
L 156 2122 
L 156 2553 
L 2956 2553 
L 2956 3191 
L 600 3191 
L 600 3622 
L 2956 3622 
L 2956 4234 
L 350 4234 
L 350 4666 
L 2956 4666 
L 2956 5366 
L 3450 5366 
L 3450 4666 
L 6069 4666 
L 6069 4234 
L 3450 4234 
L 3450 3622 
L 5800 3622 
L 5800 3191 
L 3450 3191 
L 3450 2553 
L 6244 2553 
L 6244 2122 
L 3466 2122 
Q 3728 1513 4141 1066 
Q 4769 1378 5519 1891 
z
" transform="scale(0.015625)"/>
      <path id="MicrosoftYaHei-8eb" d="M 3900 4141 
L 4388 4141 
L 4388 3091 
Q 4388 2288 4250 1678 
L 4663 1678 
L 4663 103 
Q 4663 -228 5025 -228 
L 5325 -228 
Q 5700 -228 5738 109 
Q 5775 397 5800 928 
Q 6013 841 6313 734 
Q 6263 184 6213 -91 
Q 6119 -666 5394 -666 
L 4931 -666 
Q 4188 -666 4188 41 
L 4188 1425 
Q 4059 981 3850 653 
Q 3319 -203 2094 -834 
Q 1931 -603 1756 -422 
Q 2975 166 3450 941 
Q 3900 1641 3900 3053 
L 3900 4141 
z
M 2588 5034 
L 5781 5034 
L 5781 1284 
L 5294 1284 
L 5294 4572 
L 3075 4572 
L 3075 1197 
L 2588 1197 
L 2588 5034 
z
M 81 384 
Q 531 506 1025 647 
L 1025 2466 
L 200 2466 
L 200 2916 
L 1025 2916 
L 1025 4366 
L 150 4366 
L 150 4816 
L 2400 4816 
L 2400 4366 
L 1513 4366 
L 1513 2916 
L 2313 2916 
L 2313 2466 
L 1513 2466 
L 1513 791 
Q 1956 925 2431 1072 
Q 2444 834 2475 603 
Q 1400 272 256 -97 
L 81 384 
z
" transform="scale(0.015625)"/>
     </defs>
     <use xlink:href="#MicrosoftYaHei-523"/>
     <use xlink:href="#MicrosoftYaHei-a91" transform="translate(100 0)"/>
     <use xlink:href="#MicrosoftYaHei-27" transform="translate(200 0)"/>
     <use xlink:href="#MicrosoftYaHei-379" transform="translate(270.359375 0)"/>
     <use xlink:href="#MicrosoftYaHei-44b" transform="translate(370.359375 0)"/>
     <use xlink:href="#MicrosoftYaHei-6a5" transform="translate(470.359375 0)"/>
     <use xlink:href="#MicrosoftYaHei-ae8" transform="translate(570.359375 0)"/>
     <use xlink:href="#MicrosoftYaHei-9bf" transform="translate(670.359375 0)"/>
     <use xlink:href="#MicrosoftYaHei-5a8" transform="translate(770.359375 0)"/>
     <use xlink:href="#MicrosoftYaHei-409" transform="translate(870.359375 0)"/>
     <use xlink:href="#MicrosoftYaHei-563" transform="translate(970.359375 0)"/>
     <use xlink:href="#MicrosoftYaHei-44b" transform="translate(1070.359375 0)"/>
     <use xlink:href="#MicrosoftYaHei-a0e" transform="translate(1170.359375 0)"/>
     <use xlink:href="#MicrosoftYaHei-ac5" transform="translate(1270.359375 0)"/>
     <use xlink:href="#MicrosoftYaHei-b4f" transform="translate(1370.359375 0)"/>
     <use xlink:href="#MicrosoftYaHei-5ab" transform="translate(1470.359375 0)"/>
     <use xlink:href="#MicrosoftYaHei-7b0" transform="translate(1570.359375 0)"/>
     <use xlink:href="#MicrosoftYaHei-418" transform="translate(1670.359375 0)"/>
     <use xlink:href="#MicrosoftYaHei-919" transform="translate(1770.359375 0)"/>
     <use xlink:href="#MicrosoftYaHei-a6e" transform="translate(1870.359375 0)"/>
     <use xlink:href="#MicrosoftYaHei-8eb" transform="translate(1970.359375 0)"/>
    </g>
   </g>
   <g id="legend_1">
    <g id="patch_15">
     <path d="M 57.059785 60.013555 
L 285.820098 60.013555 
Q 287.620098 60.013555 287.620098 58.213555 
L 287.620098 30.399687 
Q 287.620098 28.599687 285.820098 28.599687 
L 57.059785 28.599687 
Q 55.259785 28.599687 55.259785 30.399687 
L 55.259785 58.213555 
Q 55.259785 60.013555 57.059785 60.013555 
z
" style="fill: #ffffff; opacity: 0.8; stroke: #cccccc; stroke-linejoin: miter"/>
    </g>
    <g id="patch_16">
     <path d="M 58.859785 39.754062 
L 76.859785 39.754062 
L 76.859785 33.454062 
L 58.859785 33.454062 
z
" style="fill: #4c78a8"/>
    </g>
    <g id="text_22">
     <!-- 强制选择第一名时的身份正确率 -->
     <g transform="translate(84.059785 39.754062) scale(0.09 -0.09)">
      <defs>
       <path id="MicrosoftYaHei-6a0" d="M 5250 466 
L 5669 666 
Q 6031 28 6363 -641 
L 5894 -878 
Q 5794 -641 5688 -416 
Q 3750 -547 2219 -653 
L 2150 -134 
Q 3088 -97 3969 -59 
L 3969 866 
L 2894 866 
L 2894 622 
L 2431 622 
L 2431 2616 
L 3969 2616 
L 3969 3297 
L 3144 3297 
L 3144 3047 
L 2681 3047 
L 2681 4972 
L 5731 4972 
L 5731 3047 
L 5269 3047 
L 5269 3297 
L 4444 3297 
L 4444 2616 
L 5988 2616 
L 5988 866 
L 4444 866 
L 4444 -41 
Q 4975 -22 5488 3 
Q 5369 241 5250 466 
z
M 425 3466 
L 1650 3466 
L 1650 4516 
L 238 4516 
L 238 4941 
L 2113 4941 
L 2113 2772 
L 1650 2772 
L 1650 3041 
L 831 3041 
L 719 2072 
L 2056 2072 
Q 1994 741 1944 128 
Q 1888 -722 1100 -722 
Q 819 -722 425 -716 
Q 388 -484 325 -216 
Q 731 -247 1019 -247 
Q 1444 -247 1475 191 
Q 1525 828 1563 1647 
L 225 1647 
L 425 3466 
z
M 5269 4547 
L 3144 4547 
L 3144 3722 
L 5269 3722 
L 5269 4547 
z
M 5525 1291 
L 5525 2191 
L 4444 2191 
L 4444 1291 
L 5525 1291 
z
M 2894 1291 
L 3969 1291 
L 3969 2191 
L 2894 2191 
L 2894 1291 
z
" transform="scale(0.015625)"/>
       <path id="MicrosoftYaHei-4f2" d="M 1906 5266 
L 2394 5266 
L 2394 4309 
L 3750 4309 
L 3750 3872 
L 2394 3872 
L 2394 3034 
L 4025 3034 
L 4025 2597 
L 2394 2597 
L 2394 1897 
L 3763 1897 
L 3763 409 
Q 3763 -266 3150 -272 
Q 2956 -278 2631 -272 
Q 2600 -72 2538 178 
Q 2844 159 3038 159 
Q 3300 159 3300 472 
L 3300 1472 
L 2394 1472 
L 2394 -847 
L 1906 -847 
L 1906 1472 
L 1044 1472 
L 1044 -378 
L 581 -378 
L 581 1897 
L 1906 1897 
L 1906 2597 
L 113 2597 
L 113 3034 
L 1906 3034 
L 1906 3872 
L 981 3872 
Q 822 3513 619 3191 
Q 413 3309 194 3428 
Q 688 4172 881 5041 
L 1344 4922 
Q 1263 4603 1159 4309 
L 1906 4309 
L 1906 5266 
z
M 5469 5272 
L 5969 5272 
L 5969 122 
Q 5969 -722 5225 -722 
Q 4981 -722 4388 -716 
Q 4350 -472 4288 -172 
Q 4813 -222 5075 -222 
Q 5469 -222 5469 222 
L 5469 5272 
z
M 4750 822 
L 4269 822 
L 4269 4672 
L 4750 4672 
L 4750 822 
z
" transform="scale(0.015625)"/>
       <path id="MicrosoftYaHei-b23" d="M 1756 2753 
L 3825 2753 
L 3825 3797 
L 2772 3797 
Q 2584 3322 2381 2947 
Q 2219 3053 1944 3172 
Q 2431 4028 2669 5072 
L 3156 4966 
Q 3047 4575 2928 4228 
L 3825 4228 
L 3825 5316 
L 4313 5316 
L 4313 4228 
L 5944 4228 
L 5944 3797 
L 4313 3797 
L 4313 2753 
L 6244 2753 
L 6244 2322 
L 4769 2322 
L 4769 984 
Q 4769 653 5044 653 
L 5344 653 
Q 5631 653 5675 953 
Q 5713 1197 5744 1691 
Q 5938 1603 6219 1509 
Q 6169 1078 6113 784 
Q 6013 228 5400 228 
L 4938 228 
Q 4288 228 4288 934 
L 4288 2322 
L 3447 2322 
Q 3444 2038 3431 1816 
Q 3394 647 2119 84 
Q 1994 266 1806 503 
Q 2906 959 2950 1816 
Q 2963 2003 2972 2322 
L 1756 2322 
L 1756 2753 
z
M 2694 -197 
L 4000 -209 
L 6300 -166 
Q 6231 -372 6125 -659 
L 3947 -684 
L 2638 -666 
Q 1513 -628 1081 91 
Q 825 -147 331 -747 
L 75 -228 
Q 628 306 875 538 
L 875 2641 
L 131 2641 
L 131 3103 
L 1356 3103 
L 1356 431 
Q 1741 -184 2694 -197 
z
M 856 5203 
Q 1175 4816 1731 4022 
L 1288 3709 
Q 781 4503 456 4934 
L 856 5203 
z
" transform="scale(0.015625)"/>
       <path id="MicrosoftYaHei-72b" d="M 2325 4578 
L 2325 5009 
L 5894 5009 
L 5894 4591 
Q 5491 3856 4675 3309 
Q 5366 3025 6319 2903 
Q 6163 2622 6056 2409 
Q 4963 2622 4200 3028 
Q 3409 2613 2325 2334 
Q 2250 2553 2113 2797 
Q 3047 3013 3734 3316 
Q 3013 3831 2688 4578 
L 2325 4578 
z
M 2006 728 
L 3950 728 
L 3950 1453 
L 2388 1453 
L 2388 1903 
L 3950 1903 
L 3950 2616 
L 4425 2616 
L 4425 1903 
L 6025 1903 
L 6025 1453 
L 4425 1453 
L 4425 728 
L 6319 728 
L 6319 278 
L 4425 278 
L 4425 -791 
L 3950 -791 
L 3950 278 
L 2006 278 
L 2006 728 
z
M 88 1953 
Q 544 2056 969 2159 
L 969 3647 
L 144 3647 
L 144 4084 
L 969 4084 
L 969 5303 
L 1438 5303 
L 1438 4084 
L 2238 4084 
L 2238 3647 
L 1438 3647 
L 1438 2278 
Q 1778 2366 2094 2453 
Q 2106 2178 2138 1991 
Q 1772 1894 1438 1800 
L 1438 -66 
Q 1438 -759 806 -759 
Q 656 -759 219 -747 
Q 194 -491 138 -241 
Q 494 -291 694 -291 
Q 969 -291 969 41 
L 969 1672 
Q 531 1550 150 1441 
L 88 1953 
z
M 5338 4578 
L 3159 4578 
Q 3497 3950 4197 3544 
Q 4981 3984 5338 4578 
z
" transform="scale(0.015625)"/>
       <path id="MicrosoftYaHei-986" d="M 4006 5347 
L 4544 5347 
Q 4406 5038 4256 4759 
L 6225 4759 
L 6225 4372 
L 4650 4372 
Q 4922 4106 5163 3822 
L 4806 3553 
L 5613 3553 
L 5613 1884 
L 5131 1884 
L 5131 2109 
L 3431 2109 
L 3431 1484 
L 5944 1484 
Q 5919 922 5881 416 
Q 5838 -372 5081 -372 
Q 4700 -372 4138 -366 
Q 4094 -134 4031 128 
Q 4644 97 4988 97 
Q 5356 97 5388 466 
Q 5419 759 5431 1059 
L 3431 1059 
L 3431 -853 
L 2931 -853 
L 2931 909 
Q 2059 -147 306 -703 
Q 194 -522 44 -303 
Q 1566 144 2463 1059 
L 563 1059 
L 563 1484 
L 863 2534 
L 2931 2534 
L 2931 3128 
L 744 3128 
L 744 3553 
L 1972 3553 
Q 1713 3891 1456 4184 
L 1706 4372 
L 1247 4372 
Q 875 3875 388 3459 
Q 263 3609 75 3797 
Q 869 4441 1294 5347 
L 1831 5347 
Q 1688 5041 1513 4759 
L 3325 4759 
L 3325 4372 
L 1825 4372 
Q 2075 4119 2331 3828 
L 1981 3553 
L 4794 3553 
Q 4541 3894 4294 4178 
L 4559 4372 
L 4028 4372 
Q 3784 3984 3506 3672 
Q 3369 3809 3125 3978 
Q 3650 4516 4006 5347 
z
M 1075 1484 
L 2931 1484 
L 2931 2109 
L 1250 2109 
L 1075 1484 
z
M 5131 3128 
L 3431 3128 
L 3431 2534 
L 5131 2534 
L 5131 3128 
z
" transform="scale(0.015625)"/>
       <path id="MicrosoftYaHei-564" d="M 2406 5328 
L 2894 5128 
Q 2688 4853 2475 4603 
L 5669 4603 
L 5669 4159 
Q 4506 2828 2600 1978 
L 5656 1978 
L 5656 -866 
L 5156 -866 
L 5156 -459 
L 1863 -459 
L 1863 -866 
L 1363 -866 
L 1363 1478 
Q 875 1297 350 1122 
Q 213 1359 63 1584 
Q 1463 1966 2588 2516 
Q 2200 2909 1750 3322 
L 2125 3647 
Q 2650 3178 3088 2778 
Q 4188 3384 5000 4172 
L 2094 4172 
Q 1388 3403 481 2753 
Q 306 2984 156 3159 
Q 1394 3966 2406 5328 
z
M 5156 1528 
L 1863 1528 
L 1863 -22 
L 5156 -22 
L 5156 1528 
z
" transform="scale(0.015625)"/>
       <path id="MicrosoftYaHei-79e" d="M 344 4728 
L 2500 4728 
L 2500 -366 
L 2006 -366 
L 2006 153 
L 838 153 
L 838 -441 
L 344 -441 
L 344 4728 
z
M 2706 3941 
L 4925 3941 
L 4925 5322 
L 5425 5322 
L 5425 3941 
L 6313 3941 
L 6313 3478 
L 5425 3478 
L 5425 116 
Q 5425 -722 4625 -722 
Q 4263 -722 3563 -703 
Q 3531 -478 3463 -178 
Q 4119 -228 4488 -228 
Q 4925 -228 4925 216 
L 4925 3478 
L 2706 3478 
L 2706 3941 
z
M 838 616 
L 2006 616 
L 2006 2234 
L 838 2234 
L 838 616 
z
M 2006 4266 
L 838 4266 
L 838 2684 
L 2006 2684 
L 2006 4266 
z
M 3406 2878 
Q 3906 1966 4163 1422 
Q 4000 1347 3663 1172 
Q 3419 1766 2963 2653 
L 3406 2878 
z
" transform="scale(0.015625)"/>
       <path id="MicrosoftYaHei-aef" d="M 150 1666 
L 1013 1666 
L 1013 4653 
L 2441 4653 
Q 2588 5022 2681 5341 
L 3206 5209 
Q 3088 4941 2953 4653 
L 5219 4653 
L 5219 1997 
Q 5628 2303 6006 2641 
L 6319 2297 
Q 5791 1844 5219 1441 
L 5219 191 
Q 5219 -753 4394 -759 
Q 3881 -772 3356 -747 
Q 3319 -528 3256 -228 
Q 3713 -272 4238 -272 
Q 4725 -272 4725 241 
L 4725 1109 
Q 2819 -116 419 -828 
Q 300 -584 138 -353 
Q 2347 216 4094 1247 
L 150 1247 
L 150 1666 
z
M 1506 1666 
L 4725 1666 
L 4725 2259 
L 1506 2259 
L 1506 1666 
z
M 4725 4234 
L 1506 4234 
L 1506 3647 
L 4725 3647 
L 4725 4234 
z
M 1506 2659 
L 4725 2659 
L 4725 3247 
L 1506 3247 
L 1506 2659 
z
" transform="scale(0.015625)"/>
       <path id="MicrosoftYaHei-461" d="M 2269 2653 
L 5394 2653 
Q 5388 2566 5300 366 
Q 5275 -709 4319 -722 
Q 3806 -722 3425 -703 
Q 3394 -416 3331 -184 
Q 3763 -241 4200 -253 
Q 4806 -297 4813 422 
Q 4863 1259 4888 2216 
L 3481 2216 
Q 3463 1222 3181 572 
Q 2844 -172 2019 -822 
Q 1856 -622 1656 -416 
Q 2450 203 2713 772 
Q 2969 1275 2997 2216 
L 2269 2216 
L 2269 2653 
z
M 75 2353 
Q 969 3534 1525 5284 
L 2013 5116 
Q 1709 4284 1350 3559 
L 1350 -809 
L 875 -809 
L 875 2691 
Q 588 2216 275 1797 
Q 181 2066 75 2353 
z
M 4006 5116 
L 4419 5291 
Q 5038 3703 6325 2972 
Q 6088 2697 5969 2516 
Q 4575 3472 4006 5116 
z
M 1588 2741 
Q 2563 3597 3163 5034 
L 3606 4866 
Q 3025 3409 1963 2397 
Q 1738 2628 1588 2741 
z
" transform="scale(0.015625)"/>
       <path id="MicrosoftYaHei-833" d="M 88 66 
L 1106 66 
L 1106 3416 
L 1644 3416 
L 1644 66 
L 3231 66 
L 3231 4309 
L 375 4309 
L 375 4797 
L 6063 4797 
L 6063 4309 
L 3769 4309 
L 3769 2672 
L 5850 2672 
L 5850 2191 
L 3769 2191 
L 3769 66 
L 6313 66 
L 6313 -422 
L 88 -422 
L 88 66 
z
" transform="scale(0.015625)"/>
       <path id="MicrosoftYaHei-947" d="M 2075 3453 
Q 2956 4334 3456 5359 
L 3931 5272 
Q 3781 4991 3619 4722 
L 5438 4722 
L 5438 4328 
L 4909 3666 
L 6063 3666 
L 6063 -53 
Q 6063 -728 5475 -728 
Q 5144 -728 4906 -716 
Q 4869 -497 4813 -259 
Q 5156 -291 5331 -291 
Q 5619 -291 5619 16 
L 5619 734 
L 4588 734 
L 4588 -659 
L 4144 -659 
L 4144 734 
L 3113 734 
Q 2944 -263 2444 -884 
Q 2288 -703 2081 -509 
Q 2756 291 2756 1841 
L 2756 3506 
Q 2597 3316 2431 3134 
Q 2281 3278 2075 3453 
z
M 31 1691 
Q 741 2834 1066 4291 
L 231 4291 
L 231 4716 
L 2469 4716 
L 2469 4291 
L 1509 4291 
Q 1356 3613 1128 2991 
L 2200 2991 
L 2200 128 
L 1150 128 
L 1150 -347 
L 738 -347 
L 738 2059 
Q 559 1691 350 1347 
Q 225 1497 31 1691 
z
M 1788 541 
L 1788 2578 
L 1150 2578 
L 1150 541 
L 1788 541 
z
M 4875 4322 
L 3366 4322 
Q 3138 3981 2884 3666 
L 4384 3666 
L 4875 4322 
z
M 4588 1134 
L 5619 1134 
L 5619 1991 
L 4588 1991 
L 4588 1134 
z
M 5619 3241 
L 4588 3241 
L 4588 2391 
L 5619 2391 
L 5619 3241 
z
M 3166 1134 
L 4144 1134 
L 4144 1991 
L 3200 1991 
Q 3200 1841 3166 1134 
z
M 3200 2391 
L 4144 2391 
L 4144 3241 
L 3200 3241 
L 3200 2391 
z
" transform="scale(0.015625)"/>
       <path id="MicrosoftYaHei-8e4" d="M 2525 2009 
Q 2622 2016 3928 2081 
Q 3772 2300 3625 2491 
L 3963 2703 
Q 4413 2203 4794 1653 
L 4394 1403 
Q 4284 1569 4178 1725 
Q 2991 1659 2213 1597 
Q 2075 1584 1881 1541 
L 1725 1966 
Q 1913 2028 2006 2084 
Q 2534 2441 3050 2913 
Q 2597 2894 2275 2866 
Q 2144 2847 1988 2809 
L 1800 3191 
Q 1956 3247 2088 3366 
Q 2509 3722 2875 4228 
L 231 4228 
L 231 4666 
L 3031 4666 
Q 2878 4944 2744 5153 
L 3194 5372 
Q 3438 5000 3616 4666 
L 6175 4666 
L 6175 4228 
L 3053 4228 
L 3350 4072 
Q 2844 3553 2494 3247 
Q 2850 3256 3425 3269 
Q 3675 3519 3925 3797 
L 4356 3547 
Q 3363 2603 2525 2009 
z
M 144 991 
L 2994 991 
L 2994 1541 
L 3488 1541 
L 3488 991 
L 6275 991 
L 6275 553 
L 3488 553 
L 3488 -853 
L 2994 -853 
L 2994 553 
L 144 553 
L 144 991 
z
M 1719 2672 
L 1944 2303 
Q 1200 1866 425 1409 
L 163 1828 
Q 813 2134 1719 2672 
z
M 4856 2678 
Q 5750 2172 6250 1816 
L 5975 1409 
Q 5331 1909 4600 2341 
L 4856 2678 
z
M 5994 3591 
Q 5519 3178 4963 2809 
L 4644 3141 
Q 5244 3534 5638 3928 
L 5994 3591 
z
M 363 3634 
L 681 3941 
Q 1200 3528 1588 3159 
L 1238 2816 
Q 875 3197 363 3634 
z
" transform="scale(0.015625)"/>
      </defs>
      <use xlink:href="#MicrosoftYaHei-6a0"/>
      <use xlink:href="#MicrosoftYaHei-4f2" transform="translate(100 0)"/>
      <use xlink:href="#MicrosoftYaHei-b23" transform="translate(200 0)"/>
      <use xlink:href="#MicrosoftYaHei-72b" transform="translate(300 0)"/>
      <use xlink:href="#MicrosoftYaHei-986" transform="translate(400 0)"/>
      <use xlink:href="#MicrosoftYaHei-25b2" transform="translate(500 0)"/>
      <use xlink:href="#MicrosoftYaHei-564" transform="translate(600 0)"/>
      <use xlink:href="#MicrosoftYaHei-79e" transform="translate(700 0)"/>
      <use xlink:href="#MicrosoftYaHei-919" transform="translate(800 0)"/>
      <use xlink:href="#MicrosoftYaHei-aef" transform="translate(900 0)"/>
      <use xlink:href="#MicrosoftYaHei-461" transform="translate(1000 0)"/>
      <use xlink:href="#MicrosoftYaHei-833" transform="translate(1100 0)"/>
      <use xlink:href="#MicrosoftYaHei-947" transform="translate(1200 0)"/>
      <use xlink:href="#MicrosoftYaHei-8e4" transform="translate(1300 0)"/>
     </g>
    </g>
    <g id="patch_17">
     <path d="M 58.859785 54.132793 
L 76.859785 54.132793 
L 76.859785 47.832793 
L 58.859785 47.832793 
z
" style="fill: #f58518"/>
    </g>
    <g id="text_23">
     <!-- 陌生人误识率≤5%时，库内人员正确识别并接受率 -->
     <g transform="translate(84.059785 54.132793) scale(0.09 -0.09)">
      <defs>
       <path id="MicrosoftYaHei-6670" d="M 2588 3572 
L 3744 3572 
L 3919 4422 
L 2400 4422 
L 2400 4872 
L 6244 4872 
L 6244 4422 
L 4425 4422 
L 4225 3572 
L 5906 3572 
L 5906 -816 
L 5431 -816 
L 5431 -341 
L 3063 -341 
L 3063 -816 
L 2588 -816 
L 2588 3572 
z
M 1694 2797 
Q 2288 2091 2288 1184 
Q 2288 234 1400 234 
Q 1213 234 1044 247 
Q 994 484 906 772 
Q 1181 709 1363 709 
Q 1806 709 1806 1241 
Q 1806 1984 1206 2716 
Q 1475 3597 1719 4497 
L 869 4497 
L 869 -847 
L 400 -847 
L 400 4934 
L 2238 4934 
L 2238 4497 
Q 1825 3209 1694 2797 
z
M 5431 3122 
L 3063 3122 
L 3063 1841 
L 5431 1841 
L 5431 3122 
z
M 3063 109 
L 5431 109 
L 5431 1391 
L 3063 1391 
L 3063 109 
z
" transform="scale(0.015625)"/>
       <path id="MicrosoftYaHei-8ff" d="M 125 16 
L 3025 16 
L 3025 1609 
L 813 1609 
L 813 2091 
L 3025 2091 
L 3025 3534 
L 1375 3534 
Q 959 2784 419 2178 
Q 288 2384 81 2616 
Q 963 3603 1475 5028 
L 1988 4891 
Q 1822 4434 1622 4016 
L 3025 4016 
L 3025 5341 
L 3563 5341 
L 3563 4016 
L 5950 4016 
L 5950 3534 
L 3563 3534 
L 3563 2091 
L 5775 2091 
L 5775 1609 
L 3563 1609 
L 3563 16 
L 6288 16 
L 6288 -453 
L 125 -453 
L 125 16 
z
" transform="scale(0.015625)"/>
       <path id="MicrosoftYaHei-aa8" d="M 1819 1484 
L 3706 1484 
Q 3750 1769 3756 2222 
L 2044 2222 
L 2044 2659 
L 6069 2659 
L 6069 2222 
L 4244 2222 
Q 4234 1753 4203 1484 
L 6288 1484 
L 6288 1047 
L 4356 1047 
Q 4913 -53 6363 -359 
Q 6138 -628 5981 -828 
Q 4538 -406 3984 850 
Q 3569 -272 1969 -847 
Q 1819 -653 1631 -441 
Q 3188 53 3588 1047 
L 1819 1047 
L 1819 1484 
z
M 2325 5034 
L 5750 5034 
L 5750 2991 
L 5275 2991 
L 5275 3272 
L 2800 3272 
L 2800 2991 
L 2325 2991 
L 2325 5034 
z
M 2044 784 
Q 2063 459 2088 247 
Q 1294 -272 925 -584 
L 631 -166 
Q 844 9 844 378 
L 844 2716 
L 100 2716 
L 100 3166 
L 1325 3166 
L 1325 284 
Q 1763 578 2044 784 
z
M 5275 4616 
L 2800 4616 
L 2800 3691 
L 5275 3691 
L 5275 4616 
z
M 831 5153 
Q 1281 4697 1725 4184 
L 1294 3822 
Q 881 4347 450 4822 
L 831 5153 
z
" transform="scale(0.015625)"/>
       <path id="MicrosoftYaHei-287" d="M 3844 853 
L 909 2306 
L 909 2547 
L 3844 4144 
L 3844 3606 
L 1663 2447 
L 1663 2434 
L 3844 1400 
L 3844 853 
z
M 3969 0 
L 784 0 
L 784 475 
L 3969 475 
L 3969 0 
z
" transform="scale(0.015625)"/>
       <path id="MicrosoftYaHei-36b" d="M 1931 775 
L 1403 -891 
L 966 -891 
L 1350 775 
L 1931 775 
z
" transform="scale(0.015625)"/>
       <path id="MicrosoftYaHei-680" d="M 1338 778 
L 3706 778 
L 3706 1441 
L 1800 1441 
L 1800 1897 
Q 2125 2369 2409 2922 
L 1500 2922 
L 1500 3372 
L 2628 3372 
Q 2784 3706 2925 4066 
L 3438 3928 
Q 3309 3641 3178 3372 
L 5913 3372 
L 5913 2922 
L 2953 2922 
Q 2666 2366 2369 1891 
L 3706 1891 
L 3706 2684 
L 4206 2684 
L 4206 1891 
L 5919 1891 
L 5919 1441 
L 4206 1441 
L 4206 778 
L 6225 778 
L 6225 328 
L 4206 328 
L 4206 -828 
L 3706 -828 
L 3706 328 
L 1338 328 
L 1338 778 
z
M 2981 5122 
L 3363 5403 
Q 3663 5116 3919 4778 
L 3653 4584 
L 6238 4584 
L 6238 4134 
L 1206 4134 
L 1206 2353 
Q 1213 203 388 -878 
Q 231 -678 31 -453 
Q 713 441 706 2266 
L 706 4584 
L 3416 4584 
Q 3213 4856 2981 5122 
z
" transform="scale(0.015625)"/>
       <path id="MicrosoftYaHei-4c4" d="M 638 4184 
L 2944 4184 
L 2944 5259 
L 3456 5259 
L 3456 4184 
L 5750 4184 
L 5750 59 
Q 5750 -734 4969 -728 
Q 4556 -728 3956 -716 
Q 3938 -503 3863 -172 
Q 4456 -222 4850 -228 
Q 5244 -241 5244 166 
L 5244 3709 
L 3444 3709 
Q 3419 3141 3306 2697 
Q 4413 1809 5094 1134 
L 4713 728 
Q 4044 1459 3156 2247 
Q 2731 1328 1538 647 
Q 1275 1009 1188 1097 
Q 2206 1634 2581 2291 
Q 2881 2772 2931 3709 
L 1144 3709 
L 1144 -784 
L 638 -784 
L 638 4184 
z
" transform="scale(0.015625)"/>
       <path id="MicrosoftYaHei-574" d="M 1100 5041 
L 5300 5041 
L 5300 3097 
L 4800 3097 
L 4800 3328 
L 1600 3328 
L 1600 3097 
L 1100 3097 
L 1100 5041 
z
M 2913 2116 
L 3419 2116 
Q 3425 1778 3400 1384 
Q 3381 1103 3325 866 
Q 4675 334 6275 -409 
L 5994 -878 
Q 4775 -247 3163 434 
Q 3050 209 2875 41 
Q 2150 -634 425 -909 
Q 319 -647 150 -434 
Q 1906 -166 2475 397 
Q 2856 747 2894 1428 
Q 2919 1778 2913 2116 
z
M 756 2741 
L 5650 2741 
L 5650 459 
L 5150 459 
L 5150 2303 
L 1256 2303 
L 1256 422 
L 756 422 
L 756 2741 
z
M 4800 3766 
L 4800 4603 
L 1600 4603 
L 1600 3766 
L 4800 3766 
z
" transform="scale(0.015625)"/>
       <path id="MicrosoftYaHei-677" d="M 125 2172 
L 1778 2172 
Q 1781 2272 1781 3684 
L 394 3684 
L 394 4172 
L 2169 4172 
Q 1772 4697 1438 5059 
L 1813 5341 
Q 2325 4828 2619 4447 
L 2222 4172 
L 3784 4172 
Q 4178 4694 4581 5347 
L 5075 5041 
Q 4684 4538 4366 4172 
L 6006 4172 
L 6006 3684 
L 4681 3684 
L 4681 2172 
L 6275 2172 
L 6275 1684 
L 4681 1684 
L 4681 -816 
L 4169 -816 
L 4169 1684 
L 2266 1684 
Q 2188 28 744 -872 
Q 513 -566 394 -434 
Q 1713 403 1747 1684 
L 125 1684 
L 125 2172 
z
M 2291 2172 
L 4169 2172 
L 4169 3684 
L 2294 3684 
Q 2294 2384 2291 2172 
z
" transform="scale(0.015625)"/>
       <path id="MicrosoftYaHei-74e" d="M 1800 -366 
Q 3019 -188 3784 222 
Q 3200 484 2531 772 
Q 2800 1119 3028 1466 
L 2000 1466 
L 2000 1884 
L 3291 1884 
Q 3491 2222 3656 2559 
L 4119 2366 
Q 3969 2116 3822 1884 
L 6225 1884 
L 6225 1466 
L 5403 1466 
Q 5156 778 4672 306 
Q 5469 -25 6219 -353 
L 5944 -816 
Q 5241 -444 4288 -3 
Q 3450 -572 2038 -841 
Q 1950 -634 1800 -366 
z
M 100 1966 
Q 544 2088 963 2213 
L 963 3641 
L 175 3641 
L 175 4091 
L 963 4091 
L 963 5259 
L 1425 5259 
L 1425 4091 
L 2144 4091 
L 2144 3641 
L 1425 3641 
L 1425 2356 
Q 1722 2450 2006 2547 
Q 2013 2266 2044 2059 
Q 1722 1956 1425 1856 
L 1425 -72 
Q 1425 -747 819 -753 
Q 588 -759 231 -747 
Q 206 -491 156 -228 
Q 531 -266 688 -266 
Q 963 -266 963 66 
L 963 1703 
Q 534 1559 163 1428 
L 100 1966 
z
M 2019 3072 
L 4453 3072 
Q 4850 3622 5156 4103 
L 5625 3847 
Q 5300 3456 4966 3072 
L 6269 3072 
L 6269 2653 
L 2019 2653 
L 2019 3072 
z
M 2263 4591 
L 4028 4591 
Q 3881 4875 3719 5153 
L 4138 5347 
Q 4338 5009 4519 4666 
L 4359 4591 
L 6119 4591 
L 6119 4172 
L 2263 4172 
L 2263 4591 
z
M 3181 909 
Q 3703 703 4203 497 
Q 4694 894 4900 1466 
L 3553 1466 
Q 3363 1175 3181 909 
z
M 2825 3853 
L 3188 4097 
Q 3481 3753 3756 3372 
L 3356 3103 
Q 3119 3491 2825 3853 
z
" transform="scale(0.015625)"/>
       <path id="MicrosoftYaHei-549" d="M 1075 1684 
L 1075 2116 
L 5025 2116 
L 5025 1672 
Q 4478 881 3616 275 
Q 4544 -150 6313 -309 
Q 6125 -566 5975 -847 
Q 4141 -591 3144 -13 
Q 2150 -534 400 -884 
Q 275 -666 106 -416 
Q 1741 -125 2688 297 
Q 1984 850 1506 1684 
L 1075 1684 
z
M 319 3241 
L 4138 3241 
Q 4453 3697 4894 4522 
L 5388 4241 
Q 4978 3644 4675 3241 
L 6075 3241 
L 6075 1959 
L 5569 1959 
L 5569 2803 
L 825 2803 
L 825 1959 
L 319 1959 
L 319 3241 
z
M 625 4484 
Q 588 4703 538 4947 
Q 3550 4978 5669 5134 
L 5744 4672 
Q 3256 4541 625 4484 
z
M 4456 1684 
L 2013 1684 
Q 2459 1009 3153 538 
Q 3941 1016 4456 1684 
z
M 2644 4272 
L 3050 4472 
Q 3356 4028 3588 3566 
L 3131 3347 
Q 2919 3822 2644 4272 
z
M 931 4159 
L 1319 4397 
Q 1656 3953 1906 3547 
L 1463 3291 
Q 1213 3741 931 4159 
z
" transform="scale(0.015625)"/>
      </defs>
      <use xlink:href="#MicrosoftYaHei-6670"/>
      <use xlink:href="#MicrosoftYaHei-8ff" transform="translate(100 0)"/>
      <use xlink:href="#MicrosoftYaHei-44b" transform="translate(200 0)"/>
      <use xlink:href="#MicrosoftYaHei-aa8" transform="translate(300 0)"/>
      <use xlink:href="#MicrosoftYaHei-a9c" transform="translate(400 0)"/>
      <use xlink:href="#MicrosoftYaHei-8e4" transform="translate(500 0)"/>
      <use xlink:href="#MicrosoftYaHei-287" transform="translate(600 0)"/>
      <use xlink:href="#MicrosoftYaHei-1b" transform="translate(674.171875 0)"/>
      <use xlink:href="#MicrosoftYaHei-b" transform="translate(732.8125 0)"/>
      <use xlink:href="#MicrosoftYaHei-79e" transform="translate(821.78125 0)"/>
      <use xlink:href="#MicrosoftYaHei-36b" transform="translate(921.78125 0)"/>
      <use xlink:href="#MicrosoftYaHei-680" transform="translate(1021.78125 0)"/>
      <use xlink:href="#MicrosoftYaHei-4c4" transform="translate(1121.78125 0)"/>
      <use xlink:href="#MicrosoftYaHei-44b" transform="translate(1221.78125 0)"/>
      <use xlink:href="#MicrosoftYaHei-574" transform="translate(1321.78125 0)"/>
      <use xlink:href="#MicrosoftYaHei-833" transform="translate(1421.78125 0)"/>
      <use xlink:href="#MicrosoftYaHei-947" transform="translate(1521.78125 0)"/>
      <use xlink:href="#MicrosoftYaHei-a9c" transform="translate(1621.78125 0)"/>
      <use xlink:href="#MicrosoftYaHei-4f0" transform="translate(1721.78125 0)"/>
      <use xlink:href="#MicrosoftYaHei-677" transform="translate(1821.78125 0)"/>
      <use xlink:href="#MicrosoftYaHei-74e" transform="translate(1921.78125 0)"/>
      <use xlink:href="#MicrosoftYaHei-549" transform="translate(2021.78125 0)"/>
      <use xlink:href="#MicrosoftYaHei-8e4" transform="translate(2121.78125 0)"/>
     </g>
    </g>
   </g>
  </g>
 </g>
 <defs>
  <clipPath id="pc06c92fd50">
   <rect x="50.759785" y="24.099687" width="539.652402" height="278.043633"/>
  </clipPath>
 </defs>
</svg>
