<?xml version="1.0" encoding="utf-8" standalone="no"?>
<!DOCTYPE svg PUBLIC "-//W3C//DTD SVG 1.1//EN"
  "http://www.w3.org/Graphics/SVG/1.1/DTD/svg11.dtd">
<svg xmlns:xlink="http://www.w3.org/1999/xlink" width="576pt" height="360pt" viewBox="0 0 576 360" xmlns="http://www.w3.org/2000/svg" version="1.1">
 <metadata>
  <rdf:RDF xmlns:dc="http://purl.org/dc/elements/1.1/" xmlns:cc="http://creativecommons.org/ns#" xmlns:rdf="http://www.w3.org/1999/02/22-rdf-syntax-ns#">
   <cc:Work>
    <dc:type rdf:resource="http://purl.org/dc/dcmitype/StillImage"/>
    <dc:date>2026-06-30T15:59:21.713410</dc:date>
    <dc:format>image/svg+xml</dc:format>
    <dc:creator>
     <cc:Agent>
      <dc:title>Matplotlib v3.11.0, https://matplotlib.org/</dc:title>
     </cc:Agent>
    </dc:creator>
   </cc:Work>
  </rdf:RDF>
 </metadata>
 <defs>
  <style type="text/css">*{stroke-linejoin: round; stroke-linecap: butt}</style>
 </defs>
 <g id="figure_1">
  <g id="patch_1">
   <path d="M 0 360 
L 576 360 
L 576 0 
L 0 0 
z
" style="fill: #ffffff"/>
  </g>
  <g id="axes_1">
   <g id="patch_2">
    <path d="M 49.734297 331.545703 
L 565.2 331.545703 
L 565.2 27.6 
L 49.734297 27.6 
z
" style="fill: #ffffff"/>
   </g>
   <g id="patch_3">
    <path d="M 73.164556 331.545703 
L 99.198177 331.545703 
L 99.198177 42.073605 
L 73.164556 42.073605 
z
" clip-path="url(#pcbc21601cd)" style="fill: #d83b01"/>
   </g>
   <g id="patch_4">
    <path d="M 170.790636 331.545703 
L 196.824258 331.545703 
L 196.824258 331.545703 
L 170.790636 331.545703 
z
" clip-path="url(#pcbc21601cd)" style="fill: #d83b01"/>
   </g>
   <g id="patch_5">
    <path d="M 268.416716 331.545703 
L 294.450338 331.545703 
L 294.450338 331.545703 
L 268.416716 331.545703 
z
" clip-path="url(#pcbc21601cd)" style="fill: #d83b01"/>
   </g>
   <g id="patch_6">
    <path d="M 366.042797 331.545703 
L 392.076418 331.545703 
L 392.076418 331.545703 
L 366.042797 331.545703 
z
" clip-path="url(#pcbc21601cd)" style="fill: #d83b01"/>
   </g>
   <g id="patch_7">
    <path d="M 463.668877 331.545703 
L 489.702498 331.545703 
L 489.702498 42.073605 
L 463.668877 42.073605 
z
" clip-path="url(#pcbc21601cd)" style="fill: #d83b01"/>
   </g>
   <g id="patch_8">
    <path d="M 99.198177 331.545703 
L 125.231799 331.545703 
L 125.231799 101.994329 
L 99.198177 101.994329 
z
" clip-path="url(#pcbc21601cd)" style="fill: #0078d4"/>
   </g>
   <g id="patch_9">
    <path d="M 196.824258 331.545703 
L 222.857879 331.545703 
L 222.857879 331.545703 
L 196.824258 331.545703 
z
" clip-path="url(#pcbc21601cd)" style="fill: #0078d4"/>
   </g>
   <g id="patch_10">
    <path d="M 294.450338 331.545703 
L 320.483959 331.545703 
L 320.483959 331.545703 
L 294.450338 331.545703 
z
" clip-path="url(#pcbc21601cd)" style="fill: #0078d4"/>
   </g>
   <g id="patch_11">
    <path d="M 392.076418 331.545703 
L 418.110039 331.545703 
L 418.110039 331.545703 
L 392.076418 331.545703 
z
" clip-path="url(#pcbc21601cd)" style="fill: #0078d4"/>
   </g>
   <g id="patch_12">
    <path d="M 489.702498 331.545703 
L 515.736119 331.545703 
L 515.736119 101.994329 
L 489.702498 101.994329 
z
" clip-path="url(#pcbc21601cd)" style="fill: #0078d4"/>
   </g>
   <g id="patch_13">
    <path d="M 125.231799 331.545703 
L 151.26542 331.545703 
L 151.26542 42.073605 
L 125.231799 42.073605 
z
" clip-path="url(#pcbc21601cd)" style="fill: #107c10"/>
   </g>
   <g id="patch_14">
    <path d="M 222.857879 331.545703 
L 248.8915 331.545703 
L 248.8915 331.545703 
L 222.857879 331.545703 
z
" clip-path="url(#pcbc21601cd)" style="fill: #107c10"/>
   </g>
   <g id="patch_15">
    <path d="M 320.483959 331.545703 
L 346.51758 331.545703 
L 346.51758 331.545703 
L 320.483959 331.545703 
z
" clip-path="url(#pcbc21601cd)" style="fill: #107c10"/>
   </g>
   <g id="patch_16">
    <path d="M 418.110039 331.545703 
L 444.143661 331.545703 
L 444.143661 331.545703 
L 418.110039 331.545703 
z
" clip-path="url(#pcbc21601cd)" style="fill: #107c10"/>
   </g>
   <g id="patch_17">
    <path d="M 515.736119 331.545703 
L 541.769741 331.545703 
L 541.769741 42.073605 
L 515.736119 42.073605 
z
" clip-path="url(#pcbc21601cd)" style="fill: #107c10"/>
   </g>
   <g id="matplotlib.axis_1">
    <g id="xtick_1">
     <g id="line2d_1">
      <defs>
       <path id="md4c568855a" d="M 0 0 
L 0 3.5 
" style="stroke: #000000; stroke-width: 0.8"/>
      </defs>
      <g>
       <use xlink:href="#md4c568855a" x="112.214988" y="331.545703" style="stroke: #000000; stroke-width: 0.8"/>
      </g>
     </g>
     <g id="text_1">
      <!-- 清晰 -->
      <g transform="translate(102.214988 346.909766) scale(0.1 -0.1)">
       <defs>
        <path id="MicrosoftYaHei-88e" d="M 2638 -791 
L 2163 -791 
L 2163 2378 
L 5856 2378 
L 5856 -78 
Q 5856 -741 5188 -741 
L 4150 -741 
Q 4119 -541 4056 -259 
Q 4638 -297 5000 -297 
Q 5381 -297 5381 28 
L 5381 341 
L 2638 341 
L 2638 -791 
z
M 1719 3153 
L 3775 3153 
L 3775 3578 
L 2138 3578 
L 2138 3972 
L 3775 3972 
L 3775 4397 
L 1925 4397 
L 1925 4791 
L 3775 4791 
L 3775 5353 
L 4256 5353 
L 4256 4791 
L 6206 4791 
L 6206 4397 
L 4256 4397 
L 4256 3972 
L 6038 3972 
L 6038 3578 
L 4256 3578 
L 4256 3153 
L 6319 3153 
L 6319 2759 
L 1719 2759 
L 1719 3153 
z
M 288 -609 
Q 663 553 931 1809 
Q 1206 1691 1438 1616 
Q 1138 453 838 -778 
L 288 -609 
z
M 5381 1978 
L 2638 1978 
L 2638 1547 
L 5381 1547 
L 5381 1978 
z
M 2638 728 
L 5381 728 
L 5381 1159 
L 2638 1159 
L 2638 728 
z
M 81 3247 
L 400 3603 
Q 981 3209 1481 2797 
Q 1250 2541 1113 2397 
Q 544 2903 81 3247 
z
M 325 4878 
L 650 5209 
Q 1063 4897 1725 4328 
Q 1513 4122 1350 3959 
Q 706 4566 325 4878 
z
" transform="scale(0.015625)"/>
        <path id="MicrosoftYaHei-7b1" d="M 2119 4016 
L 2769 4016 
L 2769 5253 
L 3200 5253 
L 3200 4016 
L 3863 4016 
L 3863 3597 
L 3200 3597 
L 3200 2572 
L 3400 2747 
Q 3763 2409 4075 2059 
L 3763 1772 
Q 3472 2119 3200 2388 
L 3200 -816 
L 2769 -816 
L 2769 2481 
Q 2466 1388 2094 828 
Q 2000 1116 1906 1347 
L 1906 -153 
L 1481 -153 
L 1481 216 
L 794 216 
L 794 -247 
L 369 -247 
L 369 4728 
L 1906 4728 
L 1906 1397 
Q 2456 2350 2728 3597 
L 2119 3597 
L 2119 4016 
z
M 4113 4766 
Q 5125 4822 6006 5047 
L 6169 4578 
Q 5369 4428 4550 4353 
L 4550 3159 
L 6250 3159 
L 6250 2722 
L 5688 2722 
L 5688 -847 
L 5250 -847 
L 5250 2722 
L 4550 2722 
L 4550 2228 
Q 4550 184 3719 -828 
Q 3569 -597 3400 -416 
Q 4113 466 4113 2159 
L 4113 4766 
z
M 794 628 
L 1481 628 
L 1481 2284 
L 794 2284 
L 794 628 
z
M 1481 4316 
L 794 4316 
L 794 2684 
L 1481 2684 
L 1481 4316 
z
" transform="scale(0.015625)"/>
       </defs>
       <use xlink:href="#MicrosoftYaHei-88e"/>
       <use xlink:href="#MicrosoftYaHei-7b1" transform="translate(100 0)"/>
      </g>
     </g>
    </g>
    <g id="xtick_2">
     <g id="line2d_2">
      <g>
       <use xlink:href="#md4c568855a" x="209.841068" y="331.545703" style="stroke: #000000; stroke-width: 0.8"/>
      </g>
     </g>
     <g id="text_2">
      <!-- 糊脸 -->
      <g transform="translate(199.841068 346.851953) scale(0.1 -0.1)">
       <defs>
        <path id="MicrosoftYaHei-9a5" d="M 4213 4959 
L 6013 4959 
L 6013 -122 
Q 6013 -747 5419 -747 
Q 5013 -747 4831 -728 
Q 4813 -547 4756 -247 
Q 5075 -291 5306 -291 
Q 5581 -291 5581 -16 
L 5581 1378 
L 4631 1378 
Q 4547 -81 3813 -859 
Q 3656 -697 3419 -516 
Q 4213 197 4213 1834 
L 4213 4959 
z
M 2206 2466 
L 2781 2466 
L 2781 3722 
L 2175 3722 
L 2175 4134 
L 2781 4134 
L 2781 5309 
L 3213 5309 
L 3213 4134 
L 3888 4134 
L 3888 3722 
L 3213 3722 
L 3213 2466 
L 3800 2466 
L 3800 91 
L 2625 91 
L 2625 -309 
L 2206 -309 
L 2206 2466 
z
M 88 722 
Q 581 1566 916 2697 
L 106 2697 
L 106 3097 
L 981 3097 
L 981 5316 
L 1375 5316 
L 1375 3097 
L 2181 3097 
L 2181 2697 
L 1375 2697 
L 1375 1981 
L 1588 2141 
Q 1925 1791 2200 1441 
L 1875 1172 
Q 1681 1450 1375 1813 
L 1375 -791 
L 981 -791 
L 981 1881 
Q 688 916 281 153 
Q 163 547 88 722 
z
M 3381 491 
L 3381 2066 
L 2625 2066 
L 2625 491 
L 3381 491 
z
M 4644 1803 
L 5581 1803 
L 5581 2959 
L 4644 2959 
L 4644 1803 
z
M 5581 4534 
L 4644 4534 
L 4644 3384 
L 5581 3384 
L 5581 4534 
z
M 1513 3534 
Q 1688 4016 1844 4772 
L 2231 4678 
Q 2038 3947 1850 3428 
L 1513 3534 
z
M 156 4709 
L 500 4778 
Q 650 4159 756 3528 
L 375 3447 
Q 294 4059 156 4709 
z
" transform="scale(0.015625)"/>
        <path id="MicrosoftYaHei-a0e" d="M 4650 5228 
L 4544 5047 
Q 5231 3866 6363 3284 
Q 6256 3159 6069 2866 
Q 4969 3534 4275 4653 
Q 3731 3791 2525 2803 
Q 2344 3028 2206 3178 
L 2206 -122 
Q 2206 -747 1600 -747 
Q 1313 -747 1069 -734 
Q 1050 -534 994 -272 
Q 1300 -303 1475 -303 
Q 1756 -303 1756 -9 
L 1756 1409 
L 938 1409 
Q 888 -16 388 -872 
Q 225 -691 31 -547 
Q 494 222 494 1703 
L 494 4978 
L 2206 4978 
L 2206 3209 
Q 3506 4116 4056 5228 
L 4650 5228 
z
M 2425 -91 
L 4625 -91 
Q 5081 1072 5456 2272 
L 5925 2103 
Q 5556 1047 5106 -91 
L 6175 -91 
L 6175 -522 
L 2425 -522 
L 2425 -91 
z
M 2919 3022 
L 5581 3022 
L 5581 2591 
L 2919 2591 
L 2919 3022 
z
M 944 1822 
L 1756 1822 
L 1756 2991 
L 944 2991 
L 944 1822 
z
M 1756 4566 
L 944 4566 
L 944 3403 
L 1756 3403 
L 1756 4566 
z
M 2644 1972 
L 3069 2103 
Q 3381 1184 3600 422 
L 3144 272 
Q 2938 1141 2644 1972 
z
M 3806 2178 
L 4219 2272 
Q 4463 1422 4644 578 
L 4194 472 
Q 4044 1259 3806 2178 
z
" transform="scale(0.015625)"/>
       </defs>
       <use xlink:href="#MicrosoftYaHei-9a5"/>
       <use xlink:href="#MicrosoftYaHei-a0e" transform="translate(100 0)"/>
      </g>
     </g>
    </g>
    <g id="xtick_3">
     <g id="line2d_3">
      <g>
       <use xlink:href="#md4c568855a" x="307.467148" y="331.545703" style="stroke: #000000; stroke-width: 0.8"/>
      </g>
     </g>
     <g id="text_3">
      <!-- 极糊 -->
      <g transform="translate(297.467148 346.851953) scale(0.1 -0.1)">
       <defs>
        <path id="MicrosoftYaHei-7e2" d="M 3263 2528 
Q 3163 466 1994 -828 
Q 1813 -641 1613 -478 
Q 2406 391 2638 1409 
Q 2863 2284 2844 4472 
L 2288 4472 
L 2288 4916 
L 5406 4916 
L 5406 4447 
L 4800 3191 
L 5888 3191 
L 5888 2728 
Q 5531 1578 4881 709 
Q 5550 72 6331 -316 
Q 6131 -497 5913 -778 
Q 5169 -316 4556 309 
Q 3919 -391 3063 -872 
Q 2888 -641 2713 -472 
Q 3600 34 4213 691 
Q 3638 1403 3263 2528 
z
M 81 1359 
Q 731 2372 1000 3578 
L 125 3578 
L 125 3997 
L 1006 3997 
L 1006 5234 
L 1438 5234 
L 1438 3997 
L 2250 3997 
L 2250 3578 
L 1438 3578 
L 1438 2659 
L 1638 2859 
Q 2088 2466 2456 2097 
L 2131 1759 
Q 1825 2103 1438 2484 
L 1438 -834 
L 1006 -834 
L 1006 2384 
Q 700 1409 281 809 
Q 200 1078 81 1359 
z
M 4281 3203 
L 4881 4472 
L 3319 4472 
Q 3319 4016 3313 3616 
Q 3800 1978 4538 1084 
Q 5106 1828 5369 2747 
L 4281 2747 
L 4281 3203 
z
" transform="scale(0.015625)"/>
       </defs>
       <use xlink:href="#MicrosoftYaHei-7e2"/>
       <use xlink:href="#MicrosoftYaHei-9a5" transform="translate(100 0)"/>
      </g>
     </g>
    </g>
    <g id="xtick_4">
     <g id="line2d_4">
      <g>
       <use xlink:href="#md4c568855a" x="405.093229" y="331.545703" style="stroke: #000000; stroke-width: 0.8"/>
      </g>
     </g>
     <g id="text_4">
      <!-- 无脸 -->
      <g transform="translate(395.093229 346.714453) scale(0.1 -0.1)">
       <defs>
        <path id="MicrosoftYaHei-797" d="M 200 2878 
L 2650 2878 
Q 2781 3528 2806 4328 
L 675 4328 
L 675 4816 
L 5750 4816 
L 5750 4328 
L 3331 4328 
Q 3288 3528 3169 2878 
L 6225 2878 
L 6225 2391 
L 3063 2391 
Q 2588 278 450 -884 
Q 313 -672 113 -441 
Q 1975 491 2538 2391 
L 200 2391 
L 200 2878 
z
M 3400 1941 
L 3906 1941 
L 3906 297 
Q 3906 -197 4363 -197 
L 5219 -197 
Q 5644 -197 5700 172 
Q 5750 528 5775 1097 
Q 6013 1009 6300 916 
Q 6238 297 6188 -16 
Q 6106 -641 5300 -641 
L 4219 -641 
Q 3400 -641 3400 222 
L 3400 1941 
z
" transform="scale(0.015625)"/>
       </defs>
       <use xlink:href="#MicrosoftYaHei-797"/>
       <use xlink:href="#MicrosoftYaHei-a0e" transform="translate(100 0)"/>
      </g>
     </g>
    </g>
    <g id="xtick_5">
     <g id="line2d_5">
      <g>
       <use xlink:href="#md4c568855a" x="502.719309" y="331.545703" style="stroke: #000000; stroke-width: 0.8"/>
      </g>
     </g>
     <g id="text_5">
      <!-- 总体 -->
      <g transform="translate(492.719309 346.909766) scale(0.1 -0.1)">
       <defs>
        <path id="MicrosoftYaHei-6c8" d="M 900 4253 
L 3631 4253 
Q 4022 4822 4331 5353 
L 4813 5103 
Q 4500 4675 4175 4253 
L 5500 4253 
L 5500 1703 
L 5000 1703 
L 5000 1978 
L 1400 1978 
L 1400 1703 
L 900 1703 
L 900 4253 
z
M 5000 3803 
L 1400 3803 
L 1400 2428 
L 5000 2428 
L 5000 3803 
z
M 1694 1378 
L 2181 1378 
L 2181 284 
Q 2181 -203 2619 -203 
L 3875 -203 
Q 4244 -203 4338 172 
Q 4394 366 4450 872 
Q 4631 791 4931 684 
Q 4850 209 4750 -97 
Q 4556 -641 3900 -641 
L 2519 -641 
Q 1694 -641 1694 197 
L 1694 1378 
z
M 719 1422 
L 1188 1272 
Q 931 491 538 -334 
Q 338 -247 81 -134 
Q 444 597 719 1422 
z
M 4881 1203 
L 5238 1478 
Q 5813 841 6319 197 
L 5900 -134 
Q 5456 491 4881 1203 
z
M 2663 1591 
L 3044 1841 
Q 3488 1372 3863 841 
L 3444 547 
Q 3069 1109 2663 1591 
z
M 1594 5109 
L 1975 5353 
Q 2350 4959 2650 4541 
L 2225 4266 
Q 1956 4653 1594 5109 
z
" transform="scale(0.015625)"/>
        <path id="MicrosoftYaHei-47d" d="M 6350 778 
Q 6138 522 5981 316 
Q 4731 1278 4144 3572 
L 4144 934 
L 5063 934 
L 5063 484 
L 4144 484 
L 4144 -822 
L 3681 -822 
L 3681 484 
L 2763 484 
L 2763 934 
L 3681 934 
L 3681 3572 
L 3666 3572 
Q 3084 1413 1750 216 
Q 1606 397 1419 609 
Q 2625 1713 3225 3572 
L 1756 3572 
L 1756 4022 
L 3681 4022 
L 3681 5297 
L 4144 5297 
L 4144 4022 
L 6138 4022 
L 6138 3572 
L 4547 3572 
Q 5144 1628 6350 778 
z
M 56 2297 
Q 963 3622 1406 5316 
L 1881 5178 
Q 1638 4381 1331 3681 
L 1331 -816 
L 869 -816 
L 869 2741 
Q 588 2231 269 1784 
Q 175 2041 56 2297 
z
" transform="scale(0.015625)"/>
       </defs>
       <use xlink:href="#MicrosoftYaHei-6c8"/>
       <use xlink:href="#MicrosoftYaHei-47d" transform="translate(100 0)"/>
      </g>
     </g>
    </g>
   </g>
   <g id="matplotlib.axis_2">
    <g id="ytick_1">
     <g id="line2d_6">
      <path d="M 49.734297 331.545703 
L 565.2 331.545703 
" clip-path="url(#pcbc21601cd)" style="fill: none; stroke: #b0b0b0; stroke-opacity: 0.3; stroke-width: 0.8; stroke-linecap: square"/>
     </g>
     <g id="line2d_7">
      <defs>
       <path id="m3f689a9b82" d="M 0 0 
L -3.5 0 
" style="stroke: #000000; stroke-width: 0.8"/>
      </defs>
      <g>
       <use xlink:href="#m3f689a9b82" x="49.734297" y="331.545703" style="stroke: #000000; stroke-width: 0.8"/>
      </g>
     </g>
     <g id="text_6">
      <!-- 0 -->
      <g transform="translate(36.870234 335.605762) scale(0.1 -0.1)">
       <defs>
        <path id="MicrosoftYaHei-16" d="M 284 2325 
Q 284 3606 709 4264 
Q 1134 4922 1941 4922 
Q 3478 4922 3478 2441 
Q 3478 1216 3045 567 
Q 2613 -81 1831 -81 
Q 1094 -81 689 534 
Q 284 1150 284 2325 
z
M 909 2353 
Q 909 425 1888 425 
Q 2850 425 2850 2384 
Q 2850 4413 1906 4413 
Q 909 4413 909 2353 
z
" transform="scale(0.015625)"/>
       </defs>
       <use xlink:href="#MicrosoftYaHei-16"/>
      </g>
     </g>
    </g>
    <g id="ytick_2">
     <g id="line2d_8">
      <path d="M 49.734297 273.651283 
L 565.2 273.651283 
" clip-path="url(#pcbc21601cd)" style="fill: none; stroke: #b0b0b0; stroke-opacity: 0.3; stroke-width: 0.8; stroke-linecap: square"/>
     </g>
     <g id="line2d_9">
      <g>
       <use xlink:href="#m3f689a9b82" x="49.734297" y="273.651283" style="stroke: #000000; stroke-width: 0.8"/>
      </g>
     </g>
     <g id="text_7">
      <!-- 20 -->
      <g transform="translate(31.006172 277.711342) scale(0.1 -0.1)">
       <defs>
        <path id="MicrosoftYaHei-18" d="M 2666 3572 
Q 2666 3963 2419 4186 
Q 2172 4409 1747 4409 
Q 1447 4409 1140 4256 
Q 834 4103 569 3819 
L 569 4413 
Q 806 4659 1107 4790 
Q 1409 4922 1816 4922 
Q 2472 4922 2872 4570 
Q 3272 4219 3272 3619 
Q 3272 3084 3026 2693 
Q 2781 2303 2188 1894 
Q 1581 1475 1376 1294 
Q 1172 1113 1090 947 
Q 1009 781 1009 544 
L 3416 544 
L 3416 0 
L 372 0 
L 372 241 
Q 372 659 486 951 
Q 600 1244 862 1520 
Q 1125 1797 1681 2184 
Q 2250 2584 2458 2886 
Q 2666 3188 2666 3572 
z
" transform="scale(0.015625)"/>
       </defs>
       <use xlink:href="#MicrosoftYaHei-18"/>
       <use xlink:href="#MicrosoftYaHei-16" transform="translate(58.640625 0)"/>
      </g>
     </g>
    </g>
    <g id="ytick_3">
     <g id="line2d_10">
      <path d="M 49.734297 215.756864 
L 565.2 215.756864 
" clip-path="url(#pcbc21601cd)" style="fill: none; stroke: #b0b0b0; stroke-opacity: 0.3; stroke-width: 0.8; stroke-linecap: square"/>
     </g>
     <g id="line2d_11">
      <g>
       <use xlink:href="#m3f689a9b82" x="49.734297" y="215.756864" style="stroke: #000000; stroke-width: 0.8"/>
      </g>
     </g>
     <g id="text_8">
      <!-- 40 -->
      <g transform="translate(31.006172 219.816922) scale(0.1 -0.1)">
       <defs>
        <path id="MicrosoftYaHei-1a" d="M 2906 4841 
L 2906 1644 
L 3631 1644 
L 3631 1138 
L 2906 1138 
L 2906 0 
L 2313 0 
L 2313 1138 
L 53 1138 
L 53 1616 
Q 656 2294 1265 3178 
Q 1875 4063 2272 4841 
L 2906 4841 
z
M 741 1644 
L 2313 1644 
L 2313 3950 
Q 1988 3366 1616 2817 
Q 1244 2269 741 1644 
z
" transform="scale(0.015625)"/>
       </defs>
       <use xlink:href="#MicrosoftYaHei-1a"/>
       <use xlink:href="#MicrosoftYaHei-16" transform="translate(58.640625 0)"/>
      </g>
     </g>
    </g>
    <g id="ytick_4">
     <g id="line2d_12">
      <path d="M 49.734297 157.862444 
L 565.2 157.862444 
" clip-path="url(#pcbc21601cd)" style="fill: none; stroke: #b0b0b0; stroke-opacity: 0.3; stroke-width: 0.8; stroke-linecap: square"/>
     </g>
     <g id="line2d_13">
      <g>
       <use xlink:href="#m3f689a9b82" x="49.734297" y="157.862444" style="stroke: #000000; stroke-width: 0.8"/>
      </g>
     </g>
     <g id="text_9">
      <!-- 60 -->
      <g transform="translate(31.006172 161.922503) scale(0.1 -0.1)">
       <defs>
        <path id="MicrosoftYaHei-1c" d="M 3181 4219 
Q 2803 4413 2391 4413 
Q 1763 4413 1381 3866 
Q 1000 3319 994 2372 
L 1009 2372 
Q 1353 3038 2106 3038 
Q 2734 3038 3109 2628 
Q 3484 2219 3484 1541 
Q 3484 831 3051 375 
Q 2619 -81 1947 -81 
Q 1209 -81 789 495 
Q 369 1072 369 2131 
Q 369 3413 920 4167 
Q 1472 4922 2372 4922 
Q 2888 4922 3181 4781 
L 3181 4219 
z
M 1031 1584 
Q 1031 1106 1286 765 
Q 1541 425 1963 425 
Q 2363 425 2613 719 
Q 2863 1013 2863 1475 
Q 2863 1975 2627 2253 
Q 2391 2531 1956 2531 
Q 1544 2531 1287 2250 
Q 1031 1969 1031 1584 
z
" transform="scale(0.015625)"/>
       </defs>
       <use xlink:href="#MicrosoftYaHei-1c"/>
       <use xlink:href="#MicrosoftYaHei-16" transform="translate(58.640625 0)"/>
      </g>
     </g>
    </g>
    <g id="ytick_5">
     <g id="line2d_14">
      <path d="M 49.734297 99.968025 
L 565.2 99.968025 
" clip-path="url(#pcbc21601cd)" style="fill: none; stroke: #b0b0b0; stroke-opacity: 0.3; stroke-width: 0.8; stroke-linecap: square"/>
     </g>
     <g id="line2d_15">
      <g>
       <use xlink:href="#m3f689a9b82" x="49.734297" y="99.968025" style="stroke: #000000; stroke-width: 0.8"/>
      </g>
     </g>
     <g id="text_10">
      <!-- 80 -->
      <g transform="translate(31.006172 104.028083) scale(0.1 -0.1)">
       <defs>
        <path id="MicrosoftYaHei-1e" d="M 306 1350 
Q 306 1769 556 2122 
Q 806 2475 1200 2625 
Q 884 2803 700 3081 
Q 516 3359 516 3684 
Q 516 4028 692 4312 
Q 869 4597 1183 4759 
Q 1497 4922 1875 4922 
Q 2256 4922 2572 4761 
Q 2888 4600 3063 4315 
Q 3238 4031 3238 3684 
Q 3238 3366 3058 3086 
Q 2878 2806 2559 2625 
Q 2953 2472 3200 2119 
Q 3447 1766 3447 1350 
Q 3447 938 3250 611 
Q 3053 284 2690 103 
Q 2328 -78 1875 -78 
Q 1425 -78 1065 103 
Q 706 284 506 612 
Q 306 941 306 1350 
z
M 906 1378 
Q 906 947 1172 687 
Q 1438 428 1878 428 
Q 2309 428 2582 692 
Q 2856 956 2856 1378 
Q 2856 1778 2579 2051 
Q 2303 2325 1878 2325 
Q 1456 2325 1181 2058 
Q 906 1791 906 1378 
z
M 1081 3634 
Q 1081 3309 1312 3076 
Q 1544 2844 1878 2844 
Q 2206 2844 2445 3078 
Q 2684 3313 2684 3634 
Q 2684 3963 2454 4191 
Q 2225 4419 1878 4419 
Q 1534 4419 1307 4195 
Q 1081 3972 1081 3634 
z
" transform="scale(0.015625)"/>
       </defs>
       <use xlink:href="#MicrosoftYaHei-1e"/>
       <use xlink:href="#MicrosoftYaHei-16" transform="translate(58.640625 0)"/>
      </g>
     </g>
    </g>
    <g id="ytick_6">
     <g id="line2d_16">
      <path d="M 49.734297 42.073605 
L 565.2 42.073605 
" clip-path="url(#pcbc21601cd)" style="fill: none; stroke: #b0b0b0; stroke-opacity: 0.3; stroke-width: 0.8; stroke-linecap: square"/>
     </g>
     <g id="line2d_17">
      <g>
       <use xlink:href="#m3f689a9b82" x="49.734297" y="42.073605" style="stroke: #000000; stroke-width: 0.8"/>
      </g>
     </g>
     <g id="text_11">
      <!-- 100 -->
      <g transform="translate(25.142109 46.133664) scale(0.1 -0.1)">
       <defs>
        <path id="MicrosoftYaHei-17" d="M 1781 0 
L 1781 4141 
Q 1638 3997 1295 3819 
Q 953 3641 663 3569 
L 663 4169 
Q 1047 4275 1484 4508 
Q 1922 4741 2156 4947 
L 2388 4947 
L 2388 0 
L 1781 0 
z
" transform="scale(0.015625)"/>
       </defs>
       <use xlink:href="#MicrosoftYaHei-17"/>
       <use xlink:href="#MicrosoftYaHei-16" transform="translate(58.640625 0)"/>
       <use xlink:href="#MicrosoftYaHei-16" transform="translate(117.28125 0)"/>
      </g>
     </g>
    </g>
    <g id="text_12">
     <!-- Rank-1 准确率 (%) -->
     <g transform="translate(18.60793 221.881445) rotate(-90) scale(0.1 -0.1)">
      <defs>
       <path id="MicrosoftYaHei-38" d="M 4159 0 
L 3422 0 
L 2619 1344 
Q 2378 1747 2178 1892 
Q 1978 2038 1700 2038 
L 1250 2038 
L 1250 0 
L 625 0 
L 625 4841 
L 2100 4841 
Q 2806 4841 3206 4500 
Q 3606 4159 3606 3547 
Q 3606 2541 2531 2241 
L 2531 2225 
Q 2731 2141 2876 1984 
Q 3022 1828 3253 1450 
L 4159 0 
z
M 1250 4294 
L 1250 2584 
L 1988 2584 
Q 2416 2584 2683 2834 
Q 2950 3084 2950 3491 
Q 2950 3869 2706 4081 
Q 2463 4294 1997 4294 
L 1250 4294 
z
" transform="scale(0.015625)"/>
       <path id="MicrosoftYaHei-47" d="M 628 3216 
Q 1144 3538 1819 3538 
Q 3069 3538 3069 2225 
L 3069 0 
L 2463 0 
L 2463 534 
L 2447 534 
Q 2088 -81 1388 -81 
Q 884 -81 587 191 
Q 291 463 291 925 
Q 291 1894 1438 2053 
L 2463 2197 
Q 2463 3044 1763 3044 
Q 1141 3044 628 2625 
L 628 3216 
z
M 1653 1625 
Q 1228 1569 1067 1412 
Q 906 1256 906 975 
Q 906 728 1081 572 
Q 1256 416 1544 416 
Q 1944 416 2203 697 
Q 2463 978 2463 1403 
L 2463 1734 
L 1653 1625 
z
" transform="scale(0.015625)"/>
       <path id="MicrosoftYaHei-54" d="M 3469 0 
L 2859 0 
L 2859 1966 
Q 2859 3031 2081 3031 
Q 1678 3031 1418 2731 
Q 1159 2431 1159 1972 
L 1159 0 
L 547 0 
L 547 3456 
L 1159 3456 
L 1159 2884 
L 1172 2884 
Q 1563 3538 2306 3538 
Q 2875 3538 3172 3173 
Q 3469 2809 3469 2113 
L 3469 0 
z
" transform="scale(0.015625)"/>
       <path id="MicrosoftYaHei-51" d="M 3484 0 
L 2650 0 
L 1172 1666 
L 1159 1666 
L 1159 0 
L 547 0 
L 547 5116 
L 1159 5116 
L 1159 1872 
L 1172 1872 
L 2575 3456 
L 3363 3456 
L 1800 1794 
L 3484 0 
z
" transform="scale(0.015625)"/>
       <path id="MicrosoftYaHei-13" d="M 2328 1681 
L 488 1681 
L 488 2153 
L 2328 2153 
L 2328 1681 
z
" transform="scale(0.015625)"/>
       <path id="MicrosoftYaHei-3" transform="scale(0.015625)"/>
       <path id="MicrosoftYaHei-4d5" d="M 1413 2766 
Q 2313 3866 2869 5334 
L 3331 5172 
Q 3128 4694 2906 4253 
L 6194 4253 
L 6194 3822 
L 4675 3822 
L 4675 2891 
L 6025 2891 
L 6025 2459 
L 4675 2459 
L 4675 1528 
L 6038 1528 
L 6038 1097 
L 4675 1097 
L 4675 78 
L 6275 78 
L 6275 -341 
L 2769 -341 
L 2769 -841 
L 2281 -841 
L 2281 3131 
Q 2034 2738 1769 2384 
Q 1631 2578 1413 2766 
z
M 2769 78 
L 4188 78 
L 4188 1097 
L 2769 1097 
L 2769 78 
z
M 1081 2422 
Q 1325 2291 1556 2209 
Q 1113 916 681 -372 
L 169 -141 
Q 650 1003 1081 2422 
z
M 2769 1528 
L 4188 1528 
L 4188 2459 
L 2769 2459 
L 2769 1528 
z
M 2769 2891 
L 4188 2891 
L 4188 3822 
L 2769 3822 
L 2769 2891 
z
M 531 4991 
Q 1050 4384 1581 3709 
Q 1538 3678 1150 3341 
Q 681 3997 138 4672 
L 531 4991 
z
M 3919 5116 
L 4325 5372 
Q 4569 5072 4881 4622 
L 4450 4334 
Q 4156 4784 3919 5116 
z
" transform="scale(0.015625)"/>
       <path id="MicrosoftYaHei-947" d="M 2075 3453 
Q 2956 4334 3456 5359 
L 3931 5272 
Q 3781 4991 3619 4722 
L 5438 4722 
L 5438 4328 
L 4909 3666 
L 6063 3666 
L 6063 -53 
Q 6063 -728 5475 -728 
Q 5144 -728 4906 -716 
Q 4869 -497 4813 -259 
Q 5156 -291 5331 -291 
Q 5619 -291 5619 16 
L 5619 734 
L 4588 734 
L 4588 -659 
L 4144 -659 
L 4144 734 
L 3113 734 
Q 2944 -263 2444 -884 
Q 2288 -703 2081 -509 
Q 2756 291 2756 1841 
L 2756 3506 
Q 2597 3316 2431 3134 
Q 2281 3278 2075 3453 
z
M 31 1691 
Q 741 2834 1066 4291 
L 231 4291 
L 231 4716 
L 2469 4716 
L 2469 4291 
L 1509 4291 
Q 1356 3613 1128 2991 
L 2200 2991 
L 2200 128 
L 1150 128 
L 1150 -347 
L 738 -347 
L 738 2059 
Q 559 1691 350 1347 
Q 225 1497 31 1691 
z
M 1788 541 
L 1788 2578 
L 1150 2578 
L 1150 541 
L 1788 541 
z
M 4875 4322 
L 3366 4322 
Q 3138 3981 2884 3666 
L 4384 3666 
L 4875 4322 
z
M 4588 1134 
L 5619 1134 
L 5619 1991 
L 4588 1991 
L 4588 1134 
z
M 5619 3241 
L 4588 3241 
L 4588 2391 
L 5619 2391 
L 5619 3241 
z
M 3166 1134 
L 4144 1134 
L 4144 1991 
L 3200 1991 
Q 3200 1841 3166 1134 
z
M 3200 2391 
L 4144 2391 
L 4144 3241 
L 3200 3241 
L 3200 2391 
z
" transform="scale(0.015625)"/>
       <path id="MicrosoftYaHei-8e4" d="M 2525 2009 
Q 2622 2016 3928 2081 
Q 3772 2300 3625 2491 
L 3963 2703 
Q 4413 2203 4794 1653 
L 4394 1403 
Q 4284 1569 4178 1725 
Q 2991 1659 2213 1597 
Q 2075 1584 1881 1541 
L 1725 1966 
Q 1913 2028 2006 2084 
Q 2534 2441 3050 2913 
Q 2597 2894 2275 2866 
Q 2144 2847 1988 2809 
L 1800 3191 
Q 1956 3247 2088 3366 
Q 2509 3722 2875 4228 
L 231 4228 
L 231 4666 
L 3031 4666 
Q 2878 4944 2744 5153 
L 3194 5372 
Q 3438 5000 3616 4666 
L 6175 4666 
L 6175 4228 
L 3053 4228 
L 3350 4072 
Q 2844 3553 2494 3247 
Q 2850 3256 3425 3269 
Q 3675 3519 3925 3797 
L 4356 3547 
Q 3363 2603 2525 2009 
z
M 144 991 
L 2994 991 
L 2994 1541 
L 3488 1541 
L 3488 991 
L 6275 991 
L 6275 553 
L 3488 553 
L 3488 -853 
L 2994 -853 
L 2994 553 
L 144 553 
L 144 991 
z
M 1719 2672 
L 1944 2303 
Q 1200 1866 425 1409 
L 163 1828 
Q 813 2134 1719 2672 
z
M 4856 2678 
Q 5750 2172 6250 1816 
L 5975 1409 
Q 5331 1909 4600 2341 
L 4856 2678 
z
M 5994 3591 
Q 5519 3178 4963 2809 
L 4644 3141 
Q 5244 3534 5638 3928 
L 5994 3591 
z
M 363 3634 
L 681 3941 
Q 1200 3528 1588 3159 
L 1238 2816 
Q 875 3197 363 3634 
z
" transform="scale(0.015625)"/>
       <path id="MicrosoftYaHei-e" d="M 1531 -1100 
Q 478 100 478 1847 
Q 478 3594 1531 4841 
L 2072 4841 
Q 1016 3544 1016 1853 
Q 1016 166 2066 -1100 
L 1531 -1100 
z
" transform="scale(0.015625)"/>
       <path id="MicrosoftYaHei-b" d="M 272 3619 
Q 272 4213 589 4563 
Q 906 4913 1444 4913 
Q 1959 4913 2248 4591 
Q 2538 4269 2538 3694 
Q 2538 3122 2219 2765 
Q 1900 2409 1372 2409 
Q 872 2409 572 2740 
Q 272 3072 272 3619 
z
M 753 3650 
Q 753 3247 928 3028 
Q 1103 2809 1406 2809 
Q 1719 2809 1889 3036 
Q 2059 3263 2059 3675 
Q 2059 4078 1892 4298 
Q 1725 4519 1422 4519 
Q 1113 4519 933 4289 
Q 753 4059 753 3650 
z
M 4647 4841 
L 1538 -31 
L 1016 -31 
L 4125 4841 
L 4647 4841 
z
M 3172 1134 
Q 3172 1728 3489 2083 
Q 3806 2438 4341 2438 
Q 4853 2438 5143 2114 
Q 5434 1791 5434 1203 
Q 5434 634 5112 279 
Q 4791 -75 4272 -75 
Q 3769 -75 3470 261 
Q 3172 597 3172 1134 
z
M 3650 1163 
Q 3650 769 3825 548 
Q 4000 328 4303 328 
Q 4616 328 4786 556 
Q 4956 784 4956 1194 
Q 4956 1600 4786 1815 
Q 4616 2031 4319 2031 
Q 4000 2031 3825 1801 
Q 3650 1572 3650 1163 
z
" transform="scale(0.015625)"/>
       <path id="MicrosoftYaHei-f" d="M 78 -1100 
Q 1131 163 1131 1853 
Q 1131 3547 72 4841 
L 616 4841 
Q 1672 3603 1672 1847 
Q 1672 91 616 -1100 
L 78 -1100 
z
" transform="scale(0.015625)"/>
      </defs>
      <use xlink:href="#MicrosoftYaHei-38"/>
      <use xlink:href="#MicrosoftYaHei-47" transform="translate(65.28125 0)"/>
      <use xlink:href="#MicrosoftYaHei-54" transform="translate(120.5625 0)"/>
      <use xlink:href="#MicrosoftYaHei-51" transform="translate(182.1875 0)"/>
      <use xlink:href="#MicrosoftYaHei-13" transform="translate(229.296875 0)"/>
      <use xlink:href="#MicrosoftYaHei-17" transform="translate(272.5625 0)"/>
      <use xlink:href="#MicrosoftYaHei-3" transform="translate(331.203125 0)"/>
      <use xlink:href="#MicrosoftYaHei-4d5" transform="translate(360.796875 0)"/>
      <use xlink:href="#MicrosoftYaHei-947" transform="translate(460.796875 0)"/>
      <use xlink:href="#MicrosoftYaHei-8e4" transform="translate(560.796875 0)"/>
      <use xlink:href="#MicrosoftYaHei-3" transform="translate(660.796875 0)"/>
      <use xlink:href="#MicrosoftYaHei-e" transform="translate(690.390625 0)"/>
      <use xlink:href="#MicrosoftYaHei-b" transform="translate(723.796875 0)"/>
      <use xlink:href="#MicrosoftYaHei-f" transform="translate(812.765625 0)"/>
     </g>
    </g>
   </g>
   <g id="patch_18">
    <path d="M 49.734297 331.545703 
L 49.734297 27.6 
" style="fill: none; stroke: #000000; stroke-width: 0.8; stroke-linejoin: miter; stroke-linecap: square"/>
   </g>
   <g id="patch_19">
    <path d="M 565.2 331.545703 
L 565.2 27.6 
" style="fill: none; stroke: #000000; stroke-width: 0.8; stroke-linejoin: miter; stroke-linecap: square"/>
   </g>
   <g id="patch_20">
    <path d="M 49.734297 331.545703 
L 565.2 331.545703 
" style="fill: none; stroke: #000000; stroke-width: 0.8; stroke-linejoin: miter; stroke-linecap: square"/>
   </g>
   <g id="patch_21">
    <path d="M 49.734297 27.6 
L 565.2 27.6 
" style="fill: none; stroke: #000000; stroke-width: 0.8; stroke-linejoin: miter; stroke-linecap: square"/>
   </g>
   <g id="text_13">
    <!-- 100 -->
    <g transform="translate(79.144492 39.178884) scale(0.08 -0.08)">
     <use xlink:href="#MicrosoftYaHei-17"/>
     <use xlink:href="#MicrosoftYaHei-16" transform="translate(58.640625 0)"/>
     <use xlink:href="#MicrosoftYaHei-16" transform="translate(117.28125 0)"/>
    </g>
   </g>
   <g id="text_14">
    <!-- 100 -->
    <g transform="translate(469.648812 39.178884) scale(0.08 -0.08)">
     <use xlink:href="#MicrosoftYaHei-17"/>
     <use xlink:href="#MicrosoftYaHei-16" transform="translate(58.640625 0)"/>
     <use xlink:href="#MicrosoftYaHei-16" transform="translate(117.28125 0)"/>
    </g>
   </g>
   <g id="text_15">
    <!-- 79 -->
    <g transform="translate(107.523738 99.099608) scale(0.08 -0.08)">
     <defs>
      <path id="MicrosoftYaHei-1d" d="M 3422 4463 
Q 2659 3131 2223 1998 
Q 1788 866 1684 0 
L 1047 0 
Q 1163 853 1594 1947 
Q 2025 3041 2747 4300 
L 347 4300 
L 347 4841 
L 3422 4841 
L 3422 4463 
z
" transform="scale(0.015625)"/>
      <path id="MicrosoftYaHei-1f" d="M 578 656 
Q 978 425 1441 425 
Q 2091 425 2448 937 
Q 2806 1450 2806 2394 
Q 2800 2388 2794 2394 
Q 2475 1788 1722 1788 
Q 1113 1788 713 2206 
Q 313 2625 313 3294 
Q 313 4006 750 4464 
Q 1188 4922 1884 4922 
Q 2606 4922 3012 4355 
Q 3419 3788 3419 2703 
Q 3419 1363 2894 641 
Q 2369 -81 1441 -81 
Q 931 -81 578 84 
L 578 656 
z
M 931 3372 
Q 931 2884 1181 2598 
Q 1431 2313 1872 2313 
Q 2253 2313 2512 2573 
Q 2772 2834 2772 3206 
Q 2772 3728 2514 4070 
Q 2256 4413 1834 4413 
Q 1444 4413 1187 4116 
Q 931 3819 931 3372 
z
" transform="scale(0.015625)"/>
     </defs>
     <use xlink:href="#MicrosoftYaHei-1d"/>
     <use xlink:href="#MicrosoftYaHei-1f" transform="translate(58.640625 0)"/>
    </g>
   </g>
   <g id="text_16">
    <!-- 79 -->
    <g transform="translate(498.028059 99.099608) scale(0.08 -0.08)">
     <use xlink:href="#MicrosoftYaHei-1d"/>
     <use xlink:href="#MicrosoftYaHei-1f" transform="translate(58.640625 0)"/>
    </g>
   </g>
   <g id="text_17">
    <!-- 100 -->
    <g transform="translate(131.211735 39.178884) scale(0.08 -0.08)">
     <use xlink:href="#MicrosoftYaHei-17"/>
     <use xlink:href="#MicrosoftYaHei-16" transform="translate(58.640625 0)"/>
     <use xlink:href="#MicrosoftYaHei-16" transform="translate(117.28125 0)"/>
    </g>
   </g>
   <g id="text_18">
    <!-- 100 -->
    <g transform="translate(521.716055 39.178884) scale(0.08 -0.08)">
     <use xlink:href="#MicrosoftYaHei-17"/>
     <use xlink:href="#MicrosoftYaHei-16" transform="translate(58.640625 0)"/>
     <use xlink:href="#MicrosoftYaHei-16" transform="translate(117.28125 0)"/>
    </g>
   </g>
   <g id="text_19">
    <!-- 端到端身份识别 · 按人脸清晰度分桶（ChokePoint） -->
    <g transform="translate(167.631523 21.6) scale(0.12 -0.12)">
     <defs>
      <path id="MicrosoftYaHei-980" d="M 2263 2953 
L 6306 2953 
L 6306 2547 
L 4431 2547 
L 4259 1866 
L 6013 1866 
L 6013 -209 
Q 6013 -747 5538 -747 
Q 5375 -747 5081 -741 
Q 5038 -484 4956 -278 
Q 5169 -297 5388 -297 
Q 5575 -297 5575 -103 
L 5575 1478 
L 4931 1478 
L 4931 -484 
L 4513 -484 
L 4513 1478 
L 3894 1478 
L 3894 -447 
L 3475 -447 
L 3475 1478 
L 2850 1478 
L 2850 -803 
L 2413 -803 
L 2413 1866 
L 3806 1866 
L 3950 2547 
L 2263 2547 
L 2263 2953 
z
M 5406 3359 
L 5406 3553 
L 2581 3553 
L 2581 4959 
L 3019 4959 
L 3019 3941 
L 3988 3941 
L 3988 5353 
L 4438 5353 
L 4438 3941 
L 5406 3941 
L 5406 4959 
L 5844 4959 
L 5844 3359 
L 5406 3359 
z
M 2088 3178 
Q 1969 2256 1644 584 
Q 1966 653 2238 722 
Q 2231 478 2244 278 
Q 1538 103 181 -172 
L 88 297 
Q 716 400 1231 500 
Q 1538 2378 1644 3259 
L 2088 3178 
z
M 238 3091 
L 663 3184 
Q 869 2291 1075 991 
L 644 878 
Q 475 2128 238 3091 
z
M 156 4072 
L 2300 4072 
L 2300 3666 
L 156 3666 
L 156 4072 
z
M 669 5091 
L 1050 5316 
Q 1419 4859 1681 4378 
L 1269 4128 
Q 1044 4566 669 5091 
z
" transform="scale(0.015625)"/>
      <path id="MicrosoftYaHei-4f1" d="M 2856 4122 
Q 3356 3384 3794 2584 
Q 3556 2472 3313 2334 
Q 3203 2566 3088 2791 
Q 1741 2659 531 2534 
L 306 3053 
Q 669 3247 931 3672 
Q 1172 4034 1403 4484 
L 238 4484 
L 238 4947 
L 3825 4947 
L 3825 4484 
L 1994 4484 
Q 1528 3694 1050 3047 
Q 1941 3113 2863 3209 
Q 2656 3569 2431 3909 
L 2856 4122 
z
M 281 1734 
L 1750 1734 
L 1750 2509 
L 2250 2509 
L 2250 1734 
L 3681 1734 
L 3681 1272 
L 2250 1272 
L 2250 172 
Q 2988 266 3769 372 
Q 3769 153 3794 -116 
Q 2025 -334 238 -597 
L 94 -72 
Q 891 9 1750 113 
L 1750 1272 
L 281 1272 
L 281 1734 
z
M 5519 5322 
L 6038 5322 
L 6038 34 
Q 6038 -747 5281 -747 
Q 5025 -747 4369 -741 
Q 4331 -484 4275 -178 
Q 4825 -228 5125 -228 
Q 5519 -234 5519 178 
L 5519 5322 
z
M 4163 4647 
L 4669 4647 
L 4669 666 
L 4163 666 
L 4163 4647 
z
" transform="scale(0.015625)"/>
      <path id="MicrosoftYaHei-aef" d="M 150 1666 
L 1013 1666 
L 1013 4653 
L 2441 4653 
Q 2588 5022 2681 5341 
L 3206 5209 
Q 3088 4941 2953 4653 
L 5219 4653 
L 5219 1997 
Q 5628 2303 6006 2641 
L 6319 2297 
Q 5791 1844 5219 1441 
L 5219 191 
Q 5219 -753 4394 -759 
Q 3881 -772 3356 -747 
Q 3319 -528 3256 -228 
Q 3713 -272 4238 -272 
Q 4725 -272 4725 241 
L 4725 1109 
Q 2819 -116 419 -828 
Q 300 -584 138 -353 
Q 2347 216 4094 1247 
L 150 1247 
L 150 1666 
z
M 1506 1666 
L 4725 1666 
L 4725 2259 
L 1506 2259 
L 1506 1666 
z
M 4725 4234 
L 1506 4234 
L 1506 3647 
L 4725 3647 
L 4725 4234 
z
M 1506 2659 
L 4725 2659 
L 4725 3247 
L 1506 3247 
L 1506 2659 
z
" transform="scale(0.015625)"/>
      <path id="MicrosoftYaHei-461" d="M 2269 2653 
L 5394 2653 
Q 5388 2566 5300 366 
Q 5275 -709 4319 -722 
Q 3806 -722 3425 -703 
Q 3394 -416 3331 -184 
Q 3763 -241 4200 -253 
Q 4806 -297 4813 422 
Q 4863 1259 4888 2216 
L 3481 2216 
Q 3463 1222 3181 572 
Q 2844 -172 2019 -822 
Q 1856 -622 1656 -416 
Q 2450 203 2713 772 
Q 2969 1275 2997 2216 
L 2269 2216 
L 2269 2653 
z
M 75 2353 
Q 969 3534 1525 5284 
L 2013 5116 
Q 1709 4284 1350 3559 
L 1350 -809 
L 875 -809 
L 875 2691 
Q 588 2216 275 1797 
Q 181 2066 75 2353 
z
M 4006 5116 
L 4419 5291 
Q 5038 3703 6325 2972 
Q 6088 2697 5969 2516 
Q 4575 3472 4006 5116 
z
M 1588 2741 
Q 2563 3597 3163 5034 
L 3606 4866 
Q 3025 3409 1963 2397 
Q 1738 2628 1588 2741 
z
" transform="scale(0.015625)"/>
      <path id="MicrosoftYaHei-a9c" d="M 2431 4884 
L 5875 4884 
L 5875 1597 
L 5394 1597 
L 5394 1972 
L 2913 1972 
L 2913 1597 
L 2431 1597 
L 2431 4884 
z
M 5394 4447 
L 2913 4447 
L 2913 2409 
L 5394 2409 
L 5394 4447 
z
M 2313 1309 
Q 2344 1047 2394 791 
Q 1831 372 1325 -41 
Q 1200 -153 1050 -328 
L 681 59 
Q 881 259 881 609 
L 881 2772 
L 88 2772 
L 88 3222 
L 1363 3222 
L 1363 566 
Q 1875 947 2313 1309 
z
M 4469 997 
L 4875 1297 
Q 5619 503 6381 -422 
L 5931 -759 
Q 5225 153 4469 997 
z
M 3306 1322 
L 3725 1022 
Q 2981 116 2063 -784 
Q 1906 -634 1681 -447 
Q 2544 334 3306 1322 
z
M 1025 5203 
Q 1638 4578 2000 4172 
L 1569 3816 
Q 1088 4434 656 4891 
L 1025 5203 
z
" transform="scale(0.015625)"/>
      <path id="MicrosoftYaHei-4f0" d="M 538 4959 
L 3375 4959 
L 3375 2772 
L 2888 2772 
L 2888 3028 
L 1025 3028 
L 1025 2772 
L 538 2772 
L 538 4959 
z
M 300 2116 
L 1316 2116 
Q 1331 2431 1338 2822 
L 1825 2822 
Q 1816 2431 1797 2116 
L 3431 2116 
Q 3413 1028 3363 328 
Q 3319 -684 2431 -678 
Q 2006 -678 1563 -641 
Q 1531 -347 1469 -122 
Q 1963 -203 2350 -203 
Q 2850 -209 2875 378 
Q 2925 891 2938 1666 
L 1769 1666 
Q 1688 53 431 -859 
Q 300 -666 88 -441 
Q 1238 366 1288 1666 
L 300 1666 
L 300 2116 
z
M 5425 5278 
L 5944 5278 
L 5944 53 
Q 5944 -747 5163 -747 
Q 4756 -747 4175 -741 
Q 4138 -484 4081 -178 
Q 4725 -228 4994 -228 
Q 5425 -228 5425 191 
L 5425 5278 
z
M 4138 4647 
L 4644 4647 
L 4644 666 
L 4138 666 
L 4138 4647 
z
M 2888 4509 
L 1025 4509 
L 1025 3478 
L 2888 3478 
L 2888 4509 
z
" transform="scale(0.015625)"/>
      <path id="MicrosoftYaHei-78" d="M 372 2113 
Q 372 2278 490 2395 
Q 609 2513 775 2513 
Q 941 2513 1061 2397 
Q 1181 2281 1181 2113 
Q 1181 1950 1064 1831 
Q 947 1713 772 1713 
Q 600 1713 486 1831 
Q 372 1950 372 2113 
z
" transform="scale(0.015625)"/>
      <path id="MicrosoftYaHei-737" d="M 1763 -366 
Q 3172 -25 3822 450 
Q 3184 791 2444 1147 
Q 2713 1622 2959 2153 
L 2194 2153 
L 2194 2603 
L 3159 2603 
Q 3384 3119 3588 3684 
L 4113 3503 
Q 3919 3069 3700 2603 
L 6263 2603 
L 6263 2153 
L 5444 2153 
Q 5219 1191 4650 547 
Q 5494 100 6238 -353 
L 5938 -828 
Q 5253 -338 4288 197 
Q 3566 -394 2013 -834 
Q 1938 -609 1763 -366 
z
M 88 1966 
Q 503 2094 938 2244 
L 938 3641 
L 175 3641 
L 175 4091 
L 938 4091 
L 938 5253 
L 1413 5253 
L 1413 4091 
L 2100 4091 
L 2100 3641 
L 1413 3641 
L 1413 2413 
Q 1691 2513 1975 2622 
Q 1988 2359 2025 2122 
Q 1722 2016 1413 1900 
L 1413 -78 
Q 1413 -753 763 -759 
Q 569 -766 206 -753 
Q 181 -497 131 -234 
Q 431 -272 681 -272 
Q 938 -272 938 28 
L 938 1722 
Q 550 1575 150 1416 
L 88 1966 
z
M 2300 4384 
L 4056 4384 
Q 3884 4734 3663 5122 
L 4113 5347 
Q 4419 4847 4550 4572 
L 4178 4384 
L 6119 4384 
L 6119 3322 
L 5619 3322 
L 5619 3934 
L 2800 3934 
L 2800 3322 
L 2300 3322 
L 2300 4384 
z
M 3088 1328 
Q 3656 1056 4188 784 
Q 4750 1384 4934 2153 
L 3488 2153 
Q 3297 1753 3088 1328 
z
" transform="scale(0.015625)"/>
      <path id="MicrosoftYaHei-44b" d="M 100 -303 
Q 2825 1272 2981 5222 
L 3531 5222 
Q 3497 4553 3400 3947 
Q 4175 822 6313 -166 
Q 6050 -453 5850 -709 
Q 3994 341 3203 3006 
Q 2519 431 494 -778 
Q 325 -547 100 -303 
z
" transform="scale(0.015625)"/>
      <path id="MicrosoftYaHei-686" d="M 1550 1216 
L 1550 1628 
L 5469 1628 
L 5469 1222 
Q 4903 613 4147 163 
Q 5050 -200 6263 -309 
L 6019 -797 
Q 4625 -603 3644 -109 
Q 2600 -619 1250 -866 
Q 1150 -666 994 -416 
Q 2231 -222 3166 166 
Q 2497 600 2066 1216 
L 1550 1216 
z
M 1363 3541 
L 2294 3541 
L 2294 4066 
L 2769 4066 
L 2769 3541 
L 4538 3541 
L 4538 4072 
L 5013 4072 
L 5013 3541 
L 6150 3541 
L 6150 3128 
L 5013 3128 
L 5013 1928 
L 4538 1928 
L 4538 2147 
L 2769 2147 
L 2769 1922 
L 2294 1922 
L 2294 3128 
L 1363 3128 
L 1363 3541 
z
M 3025 5172 
L 3481 5391 
Q 3694 5056 3909 4634 
L 6213 4634 
L 6213 4197 
L 1225 4197 
L 1225 2316 
Q 1225 178 394 -872 
Q 238 -666 38 -447 
Q 725 397 738 2347 
L 738 4634 
L 3331 4634 
Q 3188 4909 3025 5172 
z
M 2769 2547 
L 4538 2547 
L 4538 3128 
L 2769 3128 
L 2769 2547 
z
M 4819 1216 
L 2588 1216 
Q 3031 728 3656 391 
Q 4334 741 4819 1216 
z
" transform="scale(0.015625)"/>
      <path id="MicrosoftYaHei-4e3" d="M 900 2559 
L 5056 2559 
Q 5025 1497 4963 484 
Q 4888 -684 3856 -678 
Q 3350 -684 2788 -647 
Q 2750 -384 2700 -116 
Q 3181 -184 3775 -191 
Q 4400 -203 4463 541 
Q 4513 1216 4538 2097 
L 2616 2097 
Q 2541 1053 2181 416 
Q 1706 -422 588 -878 
Q 425 -666 231 -459 
Q 1269 -72 1725 666 
Q 2053 1225 2103 2097 
L 900 2097 
L 900 2559 
z
M 3488 5159 
L 3938 5353 
Q 4625 3678 6350 2847 
Q 6069 2553 5944 2372 
Q 4225 3366 3488 5159 
z
M 50 2766 
Q 1338 3678 2250 5253 
L 2694 5009 
Q 1744 3347 413 2341 
Q 281 2534 50 2766 
z
" transform="scale(0.015625)"/>
      <path id="MicrosoftYaHei-80c" d="M 2938 -859 
L 2488 -859 
L 2488 3509 
L 3919 3509 
Q 3494 3828 3013 4159 
L 3288 4466 
Q 3769 4141 4244 3803 
L 5288 4609 
L 2456 4609 
L 2456 5022 
L 5981 5022 
L 5981 4597 
L 4613 3541 
Q 4631 3522 4656 3509 
L 5988 3509 
L 5988 -91 
Q 5988 -753 5300 -753 
L 4725 -753 
Q 4688 -534 4606 -259 
Q 4938 -297 5281 -297 
Q 5538 -297 5538 -9 
L 5538 709 
L 4444 709 
L 4444 -728 
L 3994 -728 
L 3994 709 
L 2938 709 
L 2938 -859 
z
M 69 1378 
Q 688 2347 981 3591 
L 200 3591 
L 200 4028 
L 1069 4028 
L 1069 5266 
L 1525 5266 
L 1525 4028 
L 2300 4028 
L 2300 3591 
L 1525 3591 
L 1525 2872 
L 1794 3066 
Q 2169 2547 2400 2166 
L 2025 1909 
Q 1838 2272 1525 2741 
L 1525 -859 
L 1069 -859 
L 1069 2703 
Q 725 1472 269 828 
Q 188 1097 69 1378 
z
M 4444 1122 
L 5538 1122 
L 5538 1903 
L 4444 1903 
L 4444 1122 
z
M 5538 3091 
L 4444 3091 
L 4444 2316 
L 5538 2316 
L 5538 3091 
z
M 2938 1122 
L 3994 1122 
L 3994 1903 
L 2938 1903 
L 2938 1122 
z
M 2938 2316 
L 3994 2316 
L 3994 3091 
L 2938 3091 
L 2938 2316 
z
" transform="scale(0.015625)"/>
      <path id="MicrosoftYaHei-367" d="M 5288 -1100 
Q 4172 119 4172 1850 
Q 4172 3603 5288 4838 
L 5825 4838 
Q 4716 3572 4716 1856 
Q 4716 166 5819 -1100 
L 5288 -1100 
z
" transform="scale(0.015625)"/>
      <path id="MicrosoftYaHei-29" d="M 3938 200 
Q 3403 -81 2597 -81 
Q 1556 -81 934 580 
Q 313 1241 313 2328 
Q 313 3497 1013 4209 
Q 1713 4922 2791 4922 
Q 3484 4922 3938 4725 
L 3938 4072 
Q 3419 4359 2797 4359 
Q 1988 4359 1478 3820 
Q 969 3281 969 2366 
Q 969 1497 1444 986 
Q 1919 475 2688 475 
Q 3406 475 3938 800 
L 3938 200 
z
" transform="scale(0.015625)"/>
      <path id="MicrosoftYaHei-4e" d="M 3466 0 
L 2856 0 
L 2856 1988 
Q 2856 3031 2081 3031 
Q 1684 3031 1421 2726 
Q 1159 2422 1159 1959 
L 1159 0 
L 547 0 
L 547 5116 
L 1159 5116 
L 1159 2888 
L 1172 2888 
Q 1569 3538 2300 3538 
Q 3466 3538 3466 2128 
L 3466 0 
z
" transform="scale(0.015625)"/>
      <path id="MicrosoftYaHei-55" d="M 316 1691 
Q 316 2547 794 3042 
Q 1272 3538 2091 3538 
Q 2869 3538 3311 3061 
Q 3753 2584 3753 1744 
Q 3753 925 3281 422 
Q 2809 -81 2016 -81 
Q 1241 -81 778 406 
Q 316 894 316 1691 
z
M 941 1709 
Q 941 1113 1242 769 
Q 1544 425 2053 425 
Q 2578 425 2853 761 
Q 3128 1097 3128 1725 
Q 3128 2356 2853 2693 
Q 2578 3031 2053 3031 
Q 1538 3031 1239 2678 
Q 941 2325 941 1709 
z
" transform="scale(0.015625)"/>
      <path id="MicrosoftYaHei-4b" d="M 3363 1572 
L 944 1572 
Q 959 1019 1246 717 
Q 1534 416 2050 416 
Q 2631 416 3116 788 
L 3116 241 
Q 2659 -81 1906 -81 
Q 1156 -81 736 394 
Q 316 869 316 1713 
Q 316 2506 777 3022 
Q 1238 3538 1922 3538 
Q 2600 3538 2981 3102 
Q 3363 2666 3363 1881 
L 3363 1572 
z
M 2750 2063 
Q 2747 2531 2528 2787 
Q 2309 3044 1913 3044 
Q 1547 3044 1280 2772 
Q 1013 2500 944 2063 
L 2750 2063 
z
" transform="scale(0.015625)"/>
      <path id="MicrosoftYaHei-36" d="M 1250 1809 
L 1250 0 
L 625 0 
L 625 4841 
L 2000 4841 
Q 2784 4841 3217 4462 
Q 3650 4084 3650 3381 
Q 3650 2669 3144 2226 
Q 2638 1784 1878 1809 
L 1250 1809 
z
M 1250 4291 
L 1250 2359 
L 1828 2359 
Q 2400 2359 2697 2617 
Q 2994 2875 2994 3356 
Q 2994 4291 1888 4291 
L 1250 4291 
z
" transform="scale(0.015625)"/>
      <path id="MicrosoftYaHei-4f" d="M 472 4675 
Q 472 4838 583 4948 
Q 694 5059 856 5059 
Q 1022 5059 1136 4950 
Q 1250 4841 1250 4675 
Q 1250 4513 1136 4405 
Q 1022 4297 856 4297 
Q 691 4297 581 4405 
Q 472 4513 472 4675 
z
M 544 0 
L 544 3456 
L 1156 3456 
L 1156 0 
L 544 0 
z
" transform="scale(0.015625)"/>
      <path id="MicrosoftYaHei-5a" d="M 2206 34 
Q 2006 -75 1666 -75 
Q 738 -75 738 953 
L 738 2950 
L 144 2950 
L 144 3456 
L 738 3456 
L 738 4288 
L 1347 4481 
L 1347 3456 
L 2206 3456 
L 2206 2950 
L 1347 2950 
L 1347 1063 
Q 1347 722 1462 575 
Q 1578 428 1847 428 
Q 2053 428 2206 544 
L 2206 34 
z
" transform="scale(0.015625)"/>
      <path id="MicrosoftYaHei-368" d="M 1113 -1100 
L 575 -1100 
Q 1684 163 1684 1888 
Q 1684 3581 581 4838 
L 1113 4838 
Q 2222 3628 2222 1888 
Q 2222 128 1113 -1100 
z
" transform="scale(0.015625)"/>
     </defs>
     <use xlink:href="#MicrosoftYaHei-980"/>
     <use xlink:href="#MicrosoftYaHei-4f1" transform="translate(100 0)"/>
     <use xlink:href="#MicrosoftYaHei-980" transform="translate(200 0)"/>
     <use xlink:href="#MicrosoftYaHei-aef" transform="translate(300 0)"/>
     <use xlink:href="#MicrosoftYaHei-461" transform="translate(400 0)"/>
     <use xlink:href="#MicrosoftYaHei-a9c" transform="translate(500 0)"/>
     <use xlink:href="#MicrosoftYaHei-4f0" transform="translate(600 0)"/>
     <use xlink:href="#MicrosoftYaHei-3" transform="translate(700 0)"/>
     <use xlink:href="#MicrosoftYaHei-78" transform="translate(729.59375 0)"/>
     <use xlink:href="#MicrosoftYaHei-3" transform="translate(753.671875 0)"/>
     <use xlink:href="#MicrosoftYaHei-737" transform="translate(783.265625 0)"/>
     <use xlink:href="#MicrosoftYaHei-44b" transform="translate(883.265625 0)"/>
     <use xlink:href="#MicrosoftYaHei-a0e" transform="translate(983.265625 0)"/>
     <use xlink:href="#MicrosoftYaHei-88e" transform="translate(1083.265625 0)"/>
     <use xlink:href="#MicrosoftYaHei-7b1" transform="translate(1183.265625 0)"/>
     <use xlink:href="#MicrosoftYaHei-686" transform="translate(1283.265625 0)"/>
     <use xlink:href="#MicrosoftYaHei-4e3" transform="translate(1383.265625 0)"/>
     <use xlink:href="#MicrosoftYaHei-80c" transform="translate(1483.265625 0)"/>
     <use xlink:href="#MicrosoftYaHei-367" transform="translate(1583.265625 0)"/>
     <use xlink:href="#MicrosoftYaHei-29" transform="translate(1683.265625 0)"/>
     <use xlink:href="#MicrosoftYaHei-4e" transform="translate(1750.15625 0)"/>
     <use xlink:href="#MicrosoftYaHei-55" transform="translate(1811.734375 0)"/>
     <use xlink:href="#MicrosoftYaHei-51" transform="translate(1875.3125 0)"/>
     <use xlink:href="#MicrosoftYaHei-4b" transform="translate(1927.609375 0)"/>
     <use xlink:href="#MicrosoftYaHei-36" transform="translate(1984.34375 0)"/>
     <use xlink:href="#MicrosoftYaHei-55" transform="translate(2041.53125 0)"/>
     <use xlink:href="#MicrosoftYaHei-4f" transform="translate(2105.109375 0)"/>
     <use xlink:href="#MicrosoftYaHei-54" transform="translate(2131.71875 0)"/>
     <use xlink:href="#MicrosoftYaHei-5a" transform="translate(2193.34375 0)"/>
     <use xlink:href="#MicrosoftYaHei-368" transform="translate(2230.59375 0)"/>
    </g>
   </g>
   <g id="legend_1">
    <g id="patch_22">
     <path d="M 276.746836 326.545703 
L 338.187461 326.545703 
Q 340.187461 326.545703 340.187461 324.545703 
L 340.187461 278.573242 
Q 340.187461 276.573242 338.187461 276.573242 
L 276.746836 276.573242 
Q 274.746836 276.573242 274.746836 278.573242 
L 274.746836 324.545703 
Q 274.746836 326.545703 276.746836 326.545703 
z
" style="fill: #ffffff; opacity: 0.8; stroke: #cccccc; stroke-linejoin: miter"/>
    </g>
    <g id="patch_23">
     <path d="M 278.746836 288.693359 
L 298.746836 288.693359 
L 298.746836 281.693359 
L 278.746836 281.693359 
z
" style="fill: #d83b01"/>
    </g>
    <g id="text_20">
     <!-- face -->
     <g transform="translate(306.746836 288.693359) scale(0.1 -0.1)">
      <defs>
       <path id="MicrosoftYaHei-4c" d="M 2319 4594 
Q 2147 4684 1947 4684 
Q 1372 4684 1372 3972 
L 1372 3456 
L 2181 3456 
L 2181 2950 
L 1372 2950 
L 1372 0 
L 766 0 
L 766 2950 
L 175 2950 
L 175 3456 
L 766 3456 
L 766 4000 
Q 766 4556 1086 4873 
Q 1406 5191 1900 5191 
Q 2163 5191 2319 5131 
L 2319 4594 
z
" transform="scale(0.015625)"/>
       <path id="MicrosoftYaHei-49" d="M 2934 156 
Q 2538 -81 1978 -81 
Q 1228 -81 772 400 
Q 316 881 316 1647 
Q 316 2497 808 3017 
Q 1300 3538 2125 3538 
Q 2600 3538 2938 3369 
L 2938 2763 
Q 2572 3031 2125 3031 
Q 1600 3031 1270 2667 
Q 941 2303 941 1697 
Q 941 1100 1252 762 
Q 1563 425 2091 425 
Q 2538 425 2934 719 
L 2934 156 
z
" transform="scale(0.015625)"/>
      </defs>
      <use xlink:href="#MicrosoftYaHei-4c"/>
      <use xlink:href="#MicrosoftYaHei-47" transform="translate(34.671875 0)"/>
      <use xlink:href="#MicrosoftYaHei-49" transform="translate(89.953125 0)"/>
      <use xlink:href="#MicrosoftYaHei-4b" transform="translate(140.09375 0)"/>
     </g>
    </g>
    <g id="patch_24">
     <path d="M 278.746836 304.347656 
L 298.746836 304.347656 
L 298.746836 297.347656 
L 278.746836 297.347656 
z
" style="fill: #0078d4"/>
    </g>
    <g id="text_21">
     <!-- body -->
     <g transform="translate(306.746836 304.347656) scale(0.1 -0.1)">
      <defs>
       <path id="MicrosoftYaHei-48" d="M 1159 488 
L 1159 0 
L 547 0 
L 547 5116 
L 1159 5116 
L 1159 2859 
L 1172 2859 
Q 1578 3538 2359 3538 
Q 3009 3538 3392 3080 
Q 3775 2622 3775 1828 
Q 3775 953 3345 436 
Q 2916 -81 2200 -81 
Q 1525 -81 1172 488 
L 1159 488 
z
M 1156 1422 
Q 1156 1003 1428 714 
Q 1700 425 2109 425 
Q 2597 425 2872 800 
Q 3147 1175 3147 1838 
Q 3147 2384 2890 2707 
Q 2634 3031 2191 3031 
Q 1741 3031 1448 2709 
Q 1156 2388 1156 1891 
L 1156 1422 
z
" transform="scale(0.015625)"/>
       <path id="MicrosoftYaHei-4a" d="M 3547 0 
L 2934 0 
L 2934 575 
L 2922 575 
Q 2544 -81 1747 -81 
Q 1091 -81 703 386 
Q 316 853 316 1647 
Q 316 2503 753 3020 
Q 1191 3538 1897 3538 
Q 2603 3538 2922 2988 
L 2934 2988 
L 2934 5116 
L 3547 5116 
L 3547 0 
z
M 2938 2056 
Q 2938 2472 2664 2751 
Q 2391 3031 1991 3031 
Q 1503 3031 1222 2667 
Q 941 2303 941 1675 
Q 941 1097 1211 761 
Q 1481 425 1931 425 
Q 2375 425 2656 754 
Q 2938 1084 2938 1575 
L 2938 2056 
z
" transform="scale(0.015625)"/>
       <path id="MicrosoftYaHei-5f" d="M 3359 3456 
L 1791 -522 
Q 1353 -1628 556 -1628 
Q 328 -1628 166 -1578 
L 166 -1041 
Q 344 -1109 509 -1109 
Q 925 -1109 1131 -622 
L 1397 6 
L 41 3456 
L 719 3456 
L 1622 859 
L 1697 575 
L 1713 575 
Q 1731 672 1788 853 
L 2731 3456 
L 3359 3456 
z
" transform="scale(0.015625)"/>
      </defs>
      <use xlink:href="#MicrosoftYaHei-48"/>
      <use xlink:href="#MicrosoftYaHei-55" transform="translate(63.875 0)"/>
      <use xlink:href="#MicrosoftYaHei-4a" transform="translate(127.453125 0)"/>
      <use xlink:href="#MicrosoftYaHei-5f" transform="translate(191.421875 0)"/>
     </g>
    </g>
    <g id="patch_25">
     <path d="M 278.746836 320.011523 
L 298.746836 320.011523 
L 298.746836 313.011523 
L 278.746836 313.011523 
z
" style="fill: #107c10"/>
    </g>
    <g id="text_22">
     <!-- fusion -->
     <g transform="translate(306.746836 320.011523) scale(0.1 -0.1)">
      <defs>
       <path id="MicrosoftYaHei-5b" d="M 3400 0 
L 2784 0 
L 2784 544 
L 2772 544 
Q 2425 -81 1706 -81 
Q 478 -81 478 1388 
L 478 3456 
L 1084 3456 
L 1084 1478 
Q 1084 425 1891 425 
Q 2291 425 2537 720 
Q 2784 1016 2784 1466 
L 2784 3456 
L 3400 3456 
L 3400 0 
z
" transform="scale(0.015625)"/>
       <path id="MicrosoftYaHei-59" d="M 353 747 
Q 816 413 1350 413 
Q 2066 413 2066 881 
Q 2066 1081 1909 1211 
Q 1753 1341 1275 1519 
Q 700 1750 528 1976 
Q 356 2203 356 2525 
Q 356 2984 745 3261 
Q 1134 3538 1703 3538 
Q 2144 3538 2522 3384 
L 2522 2794 
Q 2134 3044 1644 3044 
Q 1350 3044 1165 2916 
Q 981 2788 981 2578 
Q 981 2372 1114 2256 
Q 1247 2141 1703 1959 
Q 2281 1744 2484 1512 
Q 2688 1281 2688 941 
Q 2688 466 2298 192 
Q 1909 -81 1291 -81 
Q 753 -81 353 122 
L 353 747 
z
" transform="scale(0.015625)"/>
      </defs>
      <use xlink:href="#MicrosoftYaHei-4c"/>
      <use xlink:href="#MicrosoftYaHei-5b" transform="translate(34.671875 0)"/>
      <use xlink:href="#MicrosoftYaHei-59" transform="translate(96.296875 0)"/>
      <use xlink:href="#MicrosoftYaHei-4f" transform="translate(142.59375 0)"/>
      <use xlink:href="#MicrosoftYaHei-55" transform="translate(169.203125 0)"/>
      <use xlink:href="#MicrosoftYaHei-54" transform="translate(232.78125 0)"/>
     </g>
    </g>
   </g>
  </g>
 </g>
 <defs>
  <clipPath id="pcbc21601cd">
   <rect x="49.734297" y="27.6" width="515.465703" height="303.945703"/>
  </clipPath>
 </defs>
</svg>
