<?xml version="1.0" encoding="utf-8" standalone="no"?>
<!DOCTYPE svg PUBLIC "-//W3C//DTD SVG 1.1//EN"
  "http://www.w3.org/Graphics/SVG/1.1/DTD/svg11.dtd">
<svg xmlns:xlink="http://www.w3.org/1999/xlink" width="612pt" height="388.8pt" viewBox="0 0 612 388.8" xmlns="http://www.w3.org/2000/svg" version="1.1">
 <metadata>
  <rdf:RDF xmlns:dc="http://purl.org/dc/elements/1.1/" xmlns:cc="http://creativecommons.org/ns#" xmlns:rdf="http://www.w3.org/1999/02/22-rdf-syntax-ns#">
   <cc:Work>
    <dc:type rdf:resource="http://purl.org/dc/dcmitype/StillImage"/>
    <dc:date>2026-07-01T14:33:52.873402</dc:date>
    <dc:format>image/svg+xml</dc:format>
    <dc:creator>
     <cc:Agent>
      <dc:title>Matplotlib v3.11.0, https://matplotlib.org/</dc:title>
     </cc:Agent>
    </dc:creator>
   </cc:Work>
  </rdf:RDF>
 </metadata>
 <defs>
  <style type="text/css">*{stroke-linejoin: round; stroke-linecap: butt}</style>
 </defs>
 <g id="figure_1">
  <g id="patch_1">
   <path d="M 0 388.8 
L 612 388.8 
L 612 0 
L 0 0 
z
" style="fill: #ffffff"/>
  </g>
  <g id="axes_1">
   <g id="patch_2">
    <path d="M 52.921016 356.725566 
L 601.2 356.725566 
L 601.2 30.48 
L 52.921016 30.48 
z
" style="fill: #ffffff"/>
   </g>
   <g id="patch_3">
    <path d="M 77.842788 356.725566 
L 143.812184 356.725566 
L 143.812184 170.340056 
L 77.842788 170.340056 
z
" clip-path="url(#p05dedeb86c)" style="fill: #d83b01"/>
   </g>
   <g id="patch_4">
    <path d="M 261.091111 356.725566 
L 327.060508 356.725566 
L 327.060508 356.725566 
L 261.091111 356.725566 
z
" clip-path="url(#p05dedeb86c)" style="fill: #d83b01"/>
   </g>
   <g id="patch_5">
    <path d="M 444.339435 356.725566 
L 510.308831 356.725566 
L 510.308831 272.469103 
L 444.339435 272.469103 
z
" clip-path="url(#p05dedeb86c)" style="fill: #d83b01"/>
   </g>
   <g id="patch_6">
    <path d="M 143.812184 356.725566 
L 209.781581 356.725566 
L 209.781581 94.310654 
L 143.812184 94.310654 
z
" clip-path="url(#p05dedeb86c)" style="fill: #107c10"/>
   </g>
   <g id="patch_7">
    <path d="M 327.060508 356.725566 
L 393.029904 356.725566 
L 393.029904 94.026963 
L 327.060508 94.026963 
z
" clip-path="url(#p05dedeb86c)" style="fill: #107c10"/>
   </g>
   <g id="patch_8">
    <path d="M 510.308831 356.725566 
L 576.278228 356.725566 
L 576.278228 94.026963 
L 510.308831 94.026963 
z
" clip-path="url(#p05dedeb86c)" style="fill: #107c10"/>
   </g>
   <g id="matplotlib.axis_1">
    <g id="xtick_1">
     <g id="line2d_1">
      <defs>
       <path id="m56e2b17a59" d="M 0 0 
L 0 3.5 
" style="stroke: #000000; stroke-width: 0.8"/>
      </defs>
      <g>
       <use xlink:href="#m56e2b17a59" x="143.812184" y="356.725566" style="stroke: #000000; stroke-width: 0.8"/>
      </g>
     </g>
     <g id="text_1">
      <!-- 不合格 -->
      <g transform="translate(124.312184 374.574473) scale(0.13 -0.13)">
       <defs>
        <path id="MicrosoftYaHei-409" d="M 225 4772 
L 6181 4772 
L 6181 4284 
L 3881 4284 
Q 3581 3766 3081 3053 
L 3444 3053 
L 3444 -866 
L 2906 -866 
L 2906 2859 
Q 1838 1541 388 609 
Q 231 834 38 1059 
Q 2006 2291 3213 4284 
L 225 4284 
L 225 4772 
z
M 4069 2859 
Q 5238 2147 6325 1409 
L 5969 916 
Q 4681 1872 3763 2434 
L 4069 2859 
z
" transform="scale(0.015625)"/>
        <path id="MicrosoftYaHei-560" d="M 1025 1909 
L 5381 1909 
L 5381 -866 
L 4881 -866 
L 4881 -447 
L 1525 -447 
L 1525 -878 
L 1025 -878 
L 1025 1909 
z
M 3700 5234 
L 3550 5053 
Q 4594 3697 6319 3009 
Q 6125 2734 5988 2509 
Q 5481 2753 5025 3059 
L 5025 2703 
L 1369 2703 
L 1369 3016 
Q 913 2716 394 2428 
Q 269 2641 81 2897 
Q 2013 3866 3000 5234 
L 3700 5234 
z
M 4881 1453 
L 1525 1453 
L 1525 -3 
L 4881 -3 
L 4881 1453 
z
M 3219 4691 
Q 2581 3872 1550 3147 
L 4894 3147 
Q 3944 3797 3219 4691 
z
" transform="scale(0.015625)"/>
        <path id="MicrosoftYaHei-800" d="M 2250 3278 
Q 3063 4309 3438 5341 
L 3906 5184 
Q 3788 4903 3644 4628 
L 5906 4628 
L 5906 4184 
Q 5481 3447 4731 2809 
Q 5450 2409 6313 2247 
Q 6169 1947 6106 1703 
Q 5163 1991 4313 2503 
Q 3481 1972 2306 1528 
Q 2206 1759 2094 1966 
Q 3088 2284 3919 2816 
Q 3450 3253 3163 3791 
Q 2888 3366 2563 2947 
Q 2444 3084 2250 3278 
z
M 2713 1559 
L 5800 1559 
L 5800 -872 
L 5319 -872 
L 5319 -559 
L 3194 -559 
L 3194 -872 
L 2713 -872 
L 2713 1559 
z
M 88 1378 
Q 756 2422 1025 3641 
L 131 3641 
L 131 4078 
L 1031 4078 
L 1031 5297 
L 1500 5297 
L 1500 4078 
L 2300 4078 
L 2300 3641 
L 1500 3641 
L 1500 2953 
L 1675 3122 
Q 2013 2797 2419 2384 
L 2094 2078 
Q 1763 2466 1500 2747 
L 1500 -866 
L 1031 -866 
L 1031 2453 
Q 713 1422 288 828 
Q 206 1097 88 1378 
z
M 5319 1109 
L 3194 1109 
L 3194 -109 
L 5319 -109 
L 5319 1109 
z
M 5338 4203 
L 3413 4203 
Q 3775 3491 4300 3078 
Q 4938 3566 5338 4203 
z
" transform="scale(0.015625)"/>
       </defs>
       <use xlink:href="#MicrosoftYaHei-409"/>
       <use xlink:href="#MicrosoftYaHei-560" transform="translate(100 0)"/>
       <use xlink:href="#MicrosoftYaHei-800" transform="translate(200 0)"/>
      </g>
     </g>
    </g>
    <g id="xtick_2">
     <g id="line2d_2">
      <g>
       <use xlink:href="#m56e2b17a59" x="327.060508" y="356.725566" style="stroke: #000000; stroke-width: 0.8"/>
      </g>
     </g>
     <g id="text_2">
      <!-- 无脸 -->
      <g transform="translate(314.060508 374.344941) scale(0.13 -0.13)">
       <defs>
        <path id="MicrosoftYaHei-797" d="M 200 2878 
L 2650 2878 
Q 2781 3528 2806 4328 
L 675 4328 
L 675 4816 
L 5750 4816 
L 5750 4328 
L 3331 4328 
Q 3288 3528 3169 2878 
L 6225 2878 
L 6225 2391 
L 3063 2391 
Q 2588 278 450 -884 
Q 313 -672 113 -441 
Q 1975 491 2538 2391 
L 200 2391 
L 200 2878 
z
M 3400 1941 
L 3906 1941 
L 3906 297 
Q 3906 -197 4363 -197 
L 5219 -197 
Q 5644 -197 5700 172 
Q 5750 528 5775 1097 
Q 6013 1009 6300 916 
Q 6238 297 6188 -16 
Q 6106 -641 5300 -641 
L 4219 -641 
Q 3400 -641 3400 222 
L 3400 1941 
z
" transform="scale(0.015625)"/>
        <path id="MicrosoftYaHei-a0e" d="M 4650 5228 
L 4544 5047 
Q 5231 3866 6363 3284 
Q 6256 3159 6069 2866 
Q 4969 3534 4275 4653 
Q 3731 3791 2525 2803 
Q 2344 3028 2206 3178 
L 2206 -122 
Q 2206 -747 1600 -747 
Q 1313 -747 1069 -734 
Q 1050 -534 994 -272 
Q 1300 -303 1475 -303 
Q 1756 -303 1756 -9 
L 1756 1409 
L 938 1409 
Q 888 -16 388 -872 
Q 225 -691 31 -547 
Q 494 222 494 1703 
L 494 4978 
L 2206 4978 
L 2206 3209 
Q 3506 4116 4056 5228 
L 4650 5228 
z
M 2425 -91 
L 4625 -91 
Q 5081 1072 5456 2272 
L 5925 2103 
Q 5556 1047 5106 -91 
L 6175 -91 
L 6175 -522 
L 2425 -522 
L 2425 -91 
z
M 2919 3022 
L 5581 3022 
L 5581 2591 
L 2919 2591 
L 2919 3022 
z
M 944 1822 
L 1756 1822 
L 1756 2991 
L 944 2991 
L 944 1822 
z
M 1756 4566 
L 944 4566 
L 944 3403 
L 1756 3403 
L 1756 4566 
z
M 2644 1972 
L 3069 2103 
Q 3381 1184 3600 422 
L 3144 272 
Q 2938 1141 2644 1972 
z
M 3806 2178 
L 4219 2272 
Q 4463 1422 4644 578 
L 4194 472 
Q 4044 1259 3806 2178 
z
" transform="scale(0.015625)"/>
       </defs>
       <use xlink:href="#MicrosoftYaHei-797"/>
       <use xlink:href="#MicrosoftYaHei-a0e" transform="translate(100 0)"/>
      </g>
     </g>
    </g>
    <g id="xtick_3">
     <g id="line2d_3">
      <g>
       <use xlink:href="#m56e2b17a59" x="510.308831" y="356.725566" style="stroke: #000000; stroke-width: 0.8"/>
      </g>
     </g>
     <g id="text_3">
      <!-- 总体 -->
      <g transform="translate(497.308831 374.598848) scale(0.13 -0.13)">
       <defs>
        <path id="MicrosoftYaHei-6c8" d="M 900 4253 
L 3631 4253 
Q 4022 4822 4331 5353 
L 4813 5103 
Q 4500 4675 4175 4253 
L 5500 4253 
L 5500 1703 
L 5000 1703 
L 5000 1978 
L 1400 1978 
L 1400 1703 
L 900 1703 
L 900 4253 
z
M 5000 3803 
L 1400 3803 
L 1400 2428 
L 5000 2428 
L 5000 3803 
z
M 1694 1378 
L 2181 1378 
L 2181 284 
Q 2181 -203 2619 -203 
L 3875 -203 
Q 4244 -203 4338 172 
Q 4394 366 4450 872 
Q 4631 791 4931 684 
Q 4850 209 4750 -97 
Q 4556 -641 3900 -641 
L 2519 -641 
Q 1694 -641 1694 197 
L 1694 1378 
z
M 719 1422 
L 1188 1272 
Q 931 491 538 -334 
Q 338 -247 81 -134 
Q 444 597 719 1422 
z
M 4881 1203 
L 5238 1478 
Q 5813 841 6319 197 
L 5900 -134 
Q 5456 491 4881 1203 
z
M 2663 1591 
L 3044 1841 
Q 3488 1372 3863 841 
L 3444 547 
Q 3069 1109 2663 1591 
z
M 1594 5109 
L 1975 5353 
Q 2350 4959 2650 4541 
L 2225 4266 
Q 1956 4653 1594 5109 
z
" transform="scale(0.015625)"/>
        <path id="MicrosoftYaHei-47d" d="M 6350 778 
Q 6138 522 5981 316 
Q 4731 1278 4144 3572 
L 4144 934 
L 5063 934 
L 5063 484 
L 4144 484 
L 4144 -822 
L 3681 -822 
L 3681 484 
L 2763 484 
L 2763 934 
L 3681 934 
L 3681 3572 
L 3666 3572 
Q 3084 1413 1750 216 
Q 1606 397 1419 609 
Q 2625 1713 3225 3572 
L 1756 3572 
L 1756 4022 
L 3681 4022 
L 3681 5297 
L 4144 5297 
L 4144 4022 
L 6138 4022 
L 6138 3572 
L 4547 3572 
Q 5144 1628 6350 778 
z
M 56 2297 
Q 963 3622 1406 5316 
L 1881 5178 
Q 1638 4381 1331 3681 
L 1331 -816 
L 869 -816 
L 869 2741 
Q 588 2231 269 1784 
Q 175 2041 56 2297 
z
" transform="scale(0.015625)"/>
       </defs>
       <use xlink:href="#MicrosoftYaHei-6c8"/>
       <use xlink:href="#MicrosoftYaHei-47d" transform="translate(100 0)"/>
      </g>
     </g>
    </g>
   </g>
   <g id="matplotlib.axis_2">
    <g id="ytick_1">
     <g id="line2d_4">
      <path d="M 52.921016 356.725566 
L 601.2 356.725566 
" clip-path="url(#p05dedeb86c)" style="fill: none; stroke: #b0b0b0; stroke-opacity: 0.3; stroke-width: 0.8; stroke-linecap: square"/>
     </g>
     <g id="line2d_5">
      <defs>
       <path id="m33dd290701" d="M 0 0 
L -3.5 0 
" style="stroke: #000000; stroke-width: 0.8"/>
      </defs>
      <g>
       <use xlink:href="#m33dd290701" x="52.921016" y="356.725566" style="stroke: #000000; stroke-width: 0.8"/>
      </g>
     </g>
     <g id="text_4">
      <!-- 0 -->
      <g transform="translate(40.056953 360.785625) scale(0.1 -0.1)">
       <defs>
        <path id="MicrosoftYaHei-16" d="M 284 2325 
Q 284 3606 709 4264 
Q 1134 4922 1941 4922 
Q 3478 4922 3478 2441 
Q 3478 1216 3045 567 
Q 2613 -81 1831 -81 
Q 1094 -81 689 534 
Q 284 1150 284 2325 
z
M 909 2353 
Q 909 425 1888 425 
Q 2850 425 2850 2384 
Q 2850 4413 1906 4413 
Q 909 4413 909 2353 
z
" transform="scale(0.015625)"/>
       </defs>
       <use xlink:href="#MicrosoftYaHei-16"/>
      </g>
     </g>
    </g>
    <g id="ytick_2">
     <g id="line2d_6">
      <path d="M 52.921016 299.987207 
L 601.2 299.987207 
" clip-path="url(#p05dedeb86c)" style="fill: none; stroke: #b0b0b0; stroke-opacity: 0.3; stroke-width: 0.8; stroke-linecap: square"/>
     </g>
     <g id="line2d_7">
      <g>
       <use xlink:href="#m33dd290701" x="52.921016" y="299.987207" style="stroke: #000000; stroke-width: 0.8"/>
      </g>
     </g>
     <g id="text_5">
      <!-- 20 -->
      <g transform="translate(34.192891 304.047266) scale(0.1 -0.1)">
       <defs>
        <path id="MicrosoftYaHei-18" d="M 2666 3572 
Q 2666 3963 2419 4186 
Q 2172 4409 1747 4409 
Q 1447 4409 1140 4256 
Q 834 4103 569 3819 
L 569 4413 
Q 806 4659 1107 4790 
Q 1409 4922 1816 4922 
Q 2472 4922 2872 4570 
Q 3272 4219 3272 3619 
Q 3272 3084 3026 2693 
Q 2781 2303 2188 1894 
Q 1581 1475 1376 1294 
Q 1172 1113 1090 947 
Q 1009 781 1009 544 
L 3416 544 
L 3416 0 
L 372 0 
L 372 241 
Q 372 659 486 951 
Q 600 1244 862 1520 
Q 1125 1797 1681 2184 
Q 2250 2584 2458 2886 
Q 2666 3188 2666 3572 
z
" transform="scale(0.015625)"/>
       </defs>
       <use xlink:href="#MicrosoftYaHei-18"/>
       <use xlink:href="#MicrosoftYaHei-16" transform="translate(58.640625 0)"/>
      </g>
     </g>
    </g>
    <g id="ytick_3">
     <g id="line2d_8">
      <path d="M 52.921016 243.248848 
L 601.2 243.248848 
" clip-path="url(#p05dedeb86c)" style="fill: none; stroke: #b0b0b0; stroke-opacity: 0.3; stroke-width: 0.8; stroke-linecap: square"/>
     </g>
     <g id="line2d_9">
      <g>
       <use xlink:href="#m33dd290701" x="52.921016" y="243.248848" style="stroke: #000000; stroke-width: 0.8"/>
      </g>
     </g>
     <g id="text_6">
      <!-- 40 -->
      <g transform="translate(34.192891 247.308906) scale(0.1 -0.1)">
       <defs>
        <path id="MicrosoftYaHei-1a" d="M 2906 4841 
L 2906 1644 
L 3631 1644 
L 3631 1138 
L 2906 1138 
L 2906 0 
L 2313 0 
L 2313 1138 
L 53 1138 
L 53 1616 
Q 656 2294 1265 3178 
Q 1875 4063 2272 4841 
L 2906 4841 
z
M 741 1644 
L 2313 1644 
L 2313 3950 
Q 1988 3366 1616 2817 
Q 1244 2269 741 1644 
z
" transform="scale(0.015625)"/>
       </defs>
       <use xlink:href="#MicrosoftYaHei-1a"/>
       <use xlink:href="#MicrosoftYaHei-16" transform="translate(58.640625 0)"/>
      </g>
     </g>
    </g>
    <g id="ytick_4">
     <g id="line2d_10">
      <path d="M 52.921016 186.510488 
L 601.2 186.510488 
" clip-path="url(#p05dedeb86c)" style="fill: none; stroke: #b0b0b0; stroke-opacity: 0.3; stroke-width: 0.8; stroke-linecap: square"/>
     </g>
     <g id="line2d_11">
      <g>
       <use xlink:href="#m33dd290701" x="52.921016" y="186.510488" style="stroke: #000000; stroke-width: 0.8"/>
      </g>
     </g>
     <g id="text_7">
      <!-- 60 -->
      <g transform="translate(34.192891 190.570547) scale(0.1 -0.1)">
       <defs>
        <path id="MicrosoftYaHei-1c" d="M 3181 4219 
Q 2803 4413 2391 4413 
Q 1763 4413 1381 3866 
Q 1000 3319 994 2372 
L 1009 2372 
Q 1353 3038 2106 3038 
Q 2734 3038 3109 2628 
Q 3484 2219 3484 1541 
Q 3484 831 3051 375 
Q 2619 -81 1947 -81 
Q 1209 -81 789 495 
Q 369 1072 369 2131 
Q 369 3413 920 4167 
Q 1472 4922 2372 4922 
Q 2888 4922 3181 4781 
L 3181 4219 
z
M 1031 1584 
Q 1031 1106 1286 765 
Q 1541 425 1963 425 
Q 2363 425 2613 719 
Q 2863 1013 2863 1475 
Q 2863 1975 2627 2253 
Q 2391 2531 1956 2531 
Q 1544 2531 1287 2250 
Q 1031 1969 1031 1584 
z
" transform="scale(0.015625)"/>
       </defs>
       <use xlink:href="#MicrosoftYaHei-1c"/>
       <use xlink:href="#MicrosoftYaHei-16" transform="translate(58.640625 0)"/>
      </g>
     </g>
    </g>
    <g id="ytick_5">
     <g id="line2d_12">
      <path d="M 52.921016 129.772129 
L 601.2 129.772129 
" clip-path="url(#p05dedeb86c)" style="fill: none; stroke: #b0b0b0; stroke-opacity: 0.3; stroke-width: 0.8; stroke-linecap: square"/>
     </g>
     <g id="line2d_13">
      <g>
       <use xlink:href="#m33dd290701" x="52.921016" y="129.772129" style="stroke: #000000; stroke-width: 0.8"/>
      </g>
     </g>
     <g id="text_8">
      <!-- 80 -->
      <g transform="translate(34.192891 133.832187) scale(0.1 -0.1)">
       <defs>
        <path id="MicrosoftYaHei-1e" d="M 306 1350 
Q 306 1769 556 2122 
Q 806 2475 1200 2625 
Q 884 2803 700 3081 
Q 516 3359 516 3684 
Q 516 4028 692 4312 
Q 869 4597 1183 4759 
Q 1497 4922 1875 4922 
Q 2256 4922 2572 4761 
Q 2888 4600 3063 4315 
Q 3238 4031 3238 3684 
Q 3238 3366 3058 3086 
Q 2878 2806 2559 2625 
Q 2953 2472 3200 2119 
Q 3447 1766 3447 1350 
Q 3447 938 3250 611 
Q 3053 284 2690 103 
Q 2328 -78 1875 -78 
Q 1425 -78 1065 103 
Q 706 284 506 612 
Q 306 941 306 1350 
z
M 906 1378 
Q 906 947 1172 687 
Q 1438 428 1878 428 
Q 2309 428 2582 692 
Q 2856 956 2856 1378 
Q 2856 1778 2579 2051 
Q 2303 2325 1878 2325 
Q 1456 2325 1181 2058 
Q 906 1791 906 1378 
z
M 1081 3634 
Q 1081 3309 1312 3076 
Q 1544 2844 1878 2844 
Q 2206 2844 2445 3078 
Q 2684 3313 2684 3634 
Q 2684 3963 2454 4191 
Q 2225 4419 1878 4419 
Q 1534 4419 1307 4195 
Q 1081 3972 1081 3634 
z
" transform="scale(0.015625)"/>
       </defs>
       <use xlink:href="#MicrosoftYaHei-1e"/>
       <use xlink:href="#MicrosoftYaHei-16" transform="translate(58.640625 0)"/>
      </g>
     </g>
    </g>
    <g id="ytick_6">
     <g id="line2d_14">
      <path d="M 52.921016 73.03377 
L 601.2 73.03377 
" clip-path="url(#p05dedeb86c)" style="fill: none; stroke: #b0b0b0; stroke-opacity: 0.3; stroke-width: 0.8; stroke-linecap: square"/>
     </g>
     <g id="line2d_15">
      <g>
       <use xlink:href="#m33dd290701" x="52.921016" y="73.03377" style="stroke: #000000; stroke-width: 0.8"/>
      </g>
     </g>
     <g id="text_9">
      <!-- 100 -->
      <g transform="translate(28.328828 77.093828) scale(0.1 -0.1)">
       <defs>
        <path id="MicrosoftYaHei-17" d="M 1781 0 
L 1781 4141 
Q 1638 3997 1295 3819 
Q 953 3641 663 3569 
L 663 4169 
Q 1047 4275 1484 4508 
Q 1922 4741 2156 4947 
L 2388 4947 
L 2388 0 
L 1781 0 
z
" transform="scale(0.015625)"/>
       </defs>
       <use xlink:href="#MicrosoftYaHei-17"/>
       <use xlink:href="#MicrosoftYaHei-16" transform="translate(58.640625 0)"/>
       <use xlink:href="#MicrosoftYaHei-16" transform="translate(117.28125 0)"/>
      </g>
     </g>
    </g>
    <g id="text_10">
     <!-- 身份识别 Rank-1 (%) -->
     <g transform="translate(21.287813 250.373096) rotate(-90) scale(0.12 -0.12)">
      <defs>
       <path id="MicrosoftYaHei-aef" d="M 150 1666 
L 1013 1666 
L 1013 4653 
L 2441 4653 
Q 2588 5022 2681 5341 
L 3206 5209 
Q 3088 4941 2953 4653 
L 5219 4653 
L 5219 1997 
Q 5628 2303 6006 2641 
L 6319 2297 
Q 5791 1844 5219 1441 
L 5219 191 
Q 5219 -753 4394 -759 
Q 3881 -772 3356 -747 
Q 3319 -528 3256 -228 
Q 3713 -272 4238 -272 
Q 4725 -272 4725 241 
L 4725 1109 
Q 2819 -116 419 -828 
Q 300 -584 138 -353 
Q 2347 216 4094 1247 
L 150 1247 
L 150 1666 
z
M 1506 1666 
L 4725 1666 
L 4725 2259 
L 1506 2259 
L 1506 1666 
z
M 4725 4234 
L 1506 4234 
L 1506 3647 
L 4725 3647 
L 4725 4234 
z
M 1506 2659 
L 4725 2659 
L 4725 3247 
L 1506 3247 
L 1506 2659 
z
" transform="scale(0.015625)"/>
       <path id="MicrosoftYaHei-461" d="M 2269 2653 
L 5394 2653 
Q 5388 2566 5300 366 
Q 5275 -709 4319 -722 
Q 3806 -722 3425 -703 
Q 3394 -416 3331 -184 
Q 3763 -241 4200 -253 
Q 4806 -297 4813 422 
Q 4863 1259 4888 2216 
L 3481 2216 
Q 3463 1222 3181 572 
Q 2844 -172 2019 -822 
Q 1856 -622 1656 -416 
Q 2450 203 2713 772 
Q 2969 1275 2997 2216 
L 2269 2216 
L 2269 2653 
z
M 75 2353 
Q 969 3534 1525 5284 
L 2013 5116 
Q 1709 4284 1350 3559 
L 1350 -809 
L 875 -809 
L 875 2691 
Q 588 2216 275 1797 
Q 181 2066 75 2353 
z
M 4006 5116 
L 4419 5291 
Q 5038 3703 6325 2972 
Q 6088 2697 5969 2516 
Q 4575 3472 4006 5116 
z
M 1588 2741 
Q 2563 3597 3163 5034 
L 3606 4866 
Q 3025 3409 1963 2397 
Q 1738 2628 1588 2741 
z
" transform="scale(0.015625)"/>
       <path id="MicrosoftYaHei-a9c" d="M 2431 4884 
L 5875 4884 
L 5875 1597 
L 5394 1597 
L 5394 1972 
L 2913 1972 
L 2913 1597 
L 2431 1597 
L 2431 4884 
z
M 5394 4447 
L 2913 4447 
L 2913 2409 
L 5394 2409 
L 5394 4447 
z
M 2313 1309 
Q 2344 1047 2394 791 
Q 1831 372 1325 -41 
Q 1200 -153 1050 -328 
L 681 59 
Q 881 259 881 609 
L 881 2772 
L 88 2772 
L 88 3222 
L 1363 3222 
L 1363 566 
Q 1875 947 2313 1309 
z
M 4469 997 
L 4875 1297 
Q 5619 503 6381 -422 
L 5931 -759 
Q 5225 153 4469 997 
z
M 3306 1322 
L 3725 1022 
Q 2981 116 2063 -784 
Q 1906 -634 1681 -447 
Q 2544 334 3306 1322 
z
M 1025 5203 
Q 1638 4578 2000 4172 
L 1569 3816 
Q 1088 4434 656 4891 
L 1025 5203 
z
" transform="scale(0.015625)"/>
       <path id="MicrosoftYaHei-4f0" d="M 538 4959 
L 3375 4959 
L 3375 2772 
L 2888 2772 
L 2888 3028 
L 1025 3028 
L 1025 2772 
L 538 2772 
L 538 4959 
z
M 300 2116 
L 1316 2116 
Q 1331 2431 1338 2822 
L 1825 2822 
Q 1816 2431 1797 2116 
L 3431 2116 
Q 3413 1028 3363 328 
Q 3319 -684 2431 -678 
Q 2006 -678 1563 -641 
Q 1531 -347 1469 -122 
Q 1963 -203 2350 -203 
Q 2850 -209 2875 378 
Q 2925 891 2938 1666 
L 1769 1666 
Q 1688 53 431 -859 
Q 300 -666 88 -441 
Q 1238 366 1288 1666 
L 300 1666 
L 300 2116 
z
M 5425 5278 
L 5944 5278 
L 5944 53 
Q 5944 -747 5163 -747 
Q 4756 -747 4175 -741 
Q 4138 -484 4081 -178 
Q 4725 -228 4994 -228 
Q 5425 -228 5425 191 
L 5425 5278 
z
M 4138 4647 
L 4644 4647 
L 4644 666 
L 4138 666 
L 4138 4647 
z
M 2888 4509 
L 1025 4509 
L 1025 3478 
L 2888 3478 
L 2888 4509 
z
" transform="scale(0.015625)"/>
       <path id="MicrosoftYaHei-3" transform="scale(0.015625)"/>
       <path id="MicrosoftYaHei-38" d="M 4159 0 
L 3422 0 
L 2619 1344 
Q 2378 1747 2178 1892 
Q 1978 2038 1700 2038 
L 1250 2038 
L 1250 0 
L 625 0 
L 625 4841 
L 2100 4841 
Q 2806 4841 3206 4500 
Q 3606 4159 3606 3547 
Q 3606 2541 2531 2241 
L 2531 2225 
Q 2731 2141 2876 1984 
Q 3022 1828 3253 1450 
L 4159 0 
z
M 1250 4294 
L 1250 2584 
L 1988 2584 
Q 2416 2584 2683 2834 
Q 2950 3084 2950 3491 
Q 2950 3869 2706 4081 
Q 2463 4294 1997 4294 
L 1250 4294 
z
" transform="scale(0.015625)"/>
       <path id="MicrosoftYaHei-47" d="M 628 3216 
Q 1144 3538 1819 3538 
Q 3069 3538 3069 2225 
L 3069 0 
L 2463 0 
L 2463 534 
L 2447 534 
Q 2088 -81 1388 -81 
Q 884 -81 587 191 
Q 291 463 291 925 
Q 291 1894 1438 2053 
L 2463 2197 
Q 2463 3044 1763 3044 
Q 1141 3044 628 2625 
L 628 3216 
z
M 1653 1625 
Q 1228 1569 1067 1412 
Q 906 1256 906 975 
Q 906 728 1081 572 
Q 1256 416 1544 416 
Q 1944 416 2203 697 
Q 2463 978 2463 1403 
L 2463 1734 
L 1653 1625 
z
" transform="scale(0.015625)"/>
       <path id="MicrosoftYaHei-54" d="M 3469 0 
L 2859 0 
L 2859 1966 
Q 2859 3031 2081 3031 
Q 1678 3031 1418 2731 
Q 1159 2431 1159 1972 
L 1159 0 
L 547 0 
L 547 3456 
L 1159 3456 
L 1159 2884 
L 1172 2884 
Q 1563 3538 2306 3538 
Q 2875 3538 3172 3173 
Q 3469 2809 3469 2113 
L 3469 0 
z
" transform="scale(0.015625)"/>
       <path id="MicrosoftYaHei-51" d="M 3484 0 
L 2650 0 
L 1172 1666 
L 1159 1666 
L 1159 0 
L 547 0 
L 547 5116 
L 1159 5116 
L 1159 1872 
L 1172 1872 
L 2575 3456 
L 3363 3456 
L 1800 1794 
L 3484 0 
z
" transform="scale(0.015625)"/>
       <path id="MicrosoftYaHei-13" d="M 2328 1681 
L 488 1681 
L 488 2153 
L 2328 2153 
L 2328 1681 
z
" transform="scale(0.015625)"/>
       <path id="MicrosoftYaHei-e" d="M 1531 -1100 
Q 478 100 478 1847 
Q 478 3594 1531 4841 
L 2072 4841 
Q 1016 3544 1016 1853 
Q 1016 166 2066 -1100 
L 1531 -1100 
z
" transform="scale(0.015625)"/>
       <path id="MicrosoftYaHei-b" d="M 272 3619 
Q 272 4213 589 4563 
Q 906 4913 1444 4913 
Q 1959 4913 2248 4591 
Q 2538 4269 2538 3694 
Q 2538 3122 2219 2765 
Q 1900 2409 1372 2409 
Q 872 2409 572 2740 
Q 272 3072 272 3619 
z
M 753 3650 
Q 753 3247 928 3028 
Q 1103 2809 1406 2809 
Q 1719 2809 1889 3036 
Q 2059 3263 2059 3675 
Q 2059 4078 1892 4298 
Q 1725 4519 1422 4519 
Q 1113 4519 933 4289 
Q 753 4059 753 3650 
z
M 4647 4841 
L 1538 -31 
L 1016 -31 
L 4125 4841 
L 4647 4841 
z
M 3172 1134 
Q 3172 1728 3489 2083 
Q 3806 2438 4341 2438 
Q 4853 2438 5143 2114 
Q 5434 1791 5434 1203 
Q 5434 634 5112 279 
Q 4791 -75 4272 -75 
Q 3769 -75 3470 261 
Q 3172 597 3172 1134 
z
M 3650 1163 
Q 3650 769 3825 548 
Q 4000 328 4303 328 
Q 4616 328 4786 556 
Q 4956 784 4956 1194 
Q 4956 1600 4786 1815 
Q 4616 2031 4319 2031 
Q 4000 2031 3825 1801 
Q 3650 1572 3650 1163 
z
" transform="scale(0.015625)"/>
       <path id="MicrosoftYaHei-f" d="M 78 -1100 
Q 1131 163 1131 1853 
Q 1131 3547 72 4841 
L 616 4841 
Q 1672 3603 1672 1847 
Q 1672 91 616 -1100 
L 78 -1100 
z
" transform="scale(0.015625)"/>
      </defs>
      <use xlink:href="#MicrosoftYaHei-aef"/>
      <use xlink:href="#MicrosoftYaHei-461" transform="translate(100 0)"/>
      <use xlink:href="#MicrosoftYaHei-a9c" transform="translate(200 0)"/>
      <use xlink:href="#MicrosoftYaHei-4f0" transform="translate(300 0)"/>
      <use xlink:href="#MicrosoftYaHei-3" transform="translate(400 0)"/>
      <use xlink:href="#MicrosoftYaHei-38" transform="translate(429.59375 0)"/>
      <use xlink:href="#MicrosoftYaHei-47" transform="translate(494.875 0)"/>
      <use xlink:href="#MicrosoftYaHei-54" transform="translate(550.15625 0)"/>
      <use xlink:href="#MicrosoftYaHei-51" transform="translate(611.78125 0)"/>
      <use xlink:href="#MicrosoftYaHei-13" transform="translate(658.890625 0)"/>
      <use xlink:href="#MicrosoftYaHei-17" transform="translate(702.15625 0)"/>
      <use xlink:href="#MicrosoftYaHei-3" transform="translate(760.796875 0)"/>
      <use xlink:href="#MicrosoftYaHei-e" transform="translate(790.390625 0)"/>
      <use xlink:href="#MicrosoftYaHei-b" transform="translate(823.796875 0)"/>
      <use xlink:href="#MicrosoftYaHei-f" transform="translate(912.765625 0)"/>
     </g>
    </g>
   </g>
   <g id="patch_9">
    <path d="M 52.921016 356.725566 
L 52.921016 30.48 
" style="fill: none; stroke: #000000; stroke-width: 0.8; stroke-linejoin: miter; stroke-linecap: square"/>
   </g>
   <g id="patch_10">
    <path d="M 601.2 356.725566 
L 601.2 30.48 
" style="fill: none; stroke: #000000; stroke-width: 0.8; stroke-linejoin: miter; stroke-linecap: square"/>
   </g>
   <g id="patch_11">
    <path d="M 52.921016 356.725566 
L 601.2 356.725566 
" style="fill: none; stroke: #000000; stroke-width: 0.8; stroke-linejoin: miter; stroke-linecap: square"/>
   </g>
   <g id="patch_12">
    <path d="M 52.921016 30.48 
L 601.2 30.48 
" style="fill: none; stroke: #000000; stroke-width: 0.8; stroke-linejoin: miter; stroke-linecap: square"/>
   </g>
   <g id="text_11">
    <!-- 66% -->
    <g transform="translate(97.840298 166.084679) scale(0.12 -0.12)">
     <defs>
      <path id="MicrosoftYaHei-Bold-1c" d="M 3378 3938 
Q 3009 4147 2575 4147 
Q 2016 4147 1680 3708 
Q 1344 3269 1344 2572 
L 1363 2572 
Q 1709 3103 2391 3103 
Q 3000 3103 3358 2686 
Q 3716 2269 3716 1600 
Q 3716 869 3250 392 
Q 2784 -84 2059 -84 
Q 1228 -84 786 516 
Q 344 1116 344 2159 
Q 344 3388 917 4155 
Q 1491 4922 2513 4922 
Q 3063 4922 3378 4791 
L 3378 3938 
z
M 1378 1591 
Q 1378 1216 1565 953 
Q 1753 691 2059 691 
Q 2369 691 2547 931 
Q 2725 1172 2725 1534 
Q 2725 2350 2053 2350 
Q 1750 2350 1564 2134 
Q 1378 1919 1378 1591 
z
" transform="scale(0.015625)"/>
      <path id="MicrosoftYaHei-Bold-b" d="M 297 3597 
Q 297 4191 626 4548 
Q 956 4906 1519 4906 
Q 2056 4906 2354 4581 
Q 2653 4256 2653 3684 
Q 2653 3097 2322 2744 
Q 1991 2391 1438 2391 
Q 919 2391 608 2722 
Q 297 3053 297 3597 
z
M 984 3631 
Q 984 2959 1478 2959 
Q 1981 2959 1981 3659 
Q 1981 4338 1500 4338 
Q 984 4338 984 3631 
z
M 4938 4841 
L 1791 -3 
L 1006 -3 
L 4147 4841 
L 4938 4841 
z
M 3297 1141 
Q 3297 1741 3631 2095 
Q 3966 2450 4522 2450 
Q 5059 2450 5357 2131 
Q 5656 1813 5656 1234 
Q 5656 641 5322 286 
Q 4988 -69 4438 -69 
Q 3922 -69 3609 264 
Q 3297 597 3297 1141 
z
M 3981 1175 
Q 3981 500 4478 500 
Q 4978 500 4978 1200 
Q 4978 1528 4845 1704 
Q 4713 1881 4491 1881 
Q 3981 1881 3981 1175 
z
" transform="scale(0.015625)"/>
     </defs>
     <use xlink:href="#MicrosoftYaHei-Bold-1c"/>
     <use xlink:href="#MicrosoftYaHei-Bold-1c" transform="translate(61.671875 0)"/>
     <use xlink:href="#MicrosoftYaHei-Bold-b" transform="translate(123.34375 0)"/>
    </g>
   </g>
   <g id="text_12">
    <!-- 0% -->
    <g transform="translate(284.788935 352.470189) scale(0.12 -0.12)">
     <defs>
      <path id="MicrosoftYaHei-Bold-16" d="M 244 2341 
Q 244 3597 706 4259 
Q 1169 4922 2044 4922 
Q 3713 4922 3713 2453 
Q 3713 1238 3259 577 
Q 2806 -84 1950 -84 
Q 244 -84 244 2341 
z
M 1266 2366 
Q 1266 691 1981 691 
Q 2684 691 2684 2416 
Q 2684 4147 2000 4147 
Q 1266 4147 1266 2366 
z
" transform="scale(0.015625)"/>
     </defs>
     <use xlink:href="#MicrosoftYaHei-Bold-16"/>
     <use xlink:href="#MicrosoftYaHei-Bold-b" transform="translate(61.671875 0)"/>
    </g>
   </g>
   <g id="text_13">
    <!-- 30% -->
    <g transform="translate(464.336946 268.213726) scale(0.12 -0.12)">
     <defs>
      <path id="MicrosoftYaHei-Bold-19" d="M 494 1053 
Q 978 691 1625 691 
Q 2034 691 2275 872 
Q 2516 1053 2516 1388 
Q 2516 1731 2230 1912 
Q 1944 2094 1428 2094 
L 997 2094 
L 997 2872 
L 1394 2872 
Q 2369 2872 2369 3528 
Q 2369 4147 1622 4147 
Q 1134 4147 675 3828 
L 675 4663 
Q 1175 4922 1853 4922 
Q 2541 4922 2969 4605 
Q 3397 4288 3397 3725 
Q 3397 2775 2434 2531 
L 2434 2516 
Q 2941 2459 3244 2145 
Q 3547 1831 3547 1381 
Q 3547 691 3042 303 
Q 2538 -84 1697 -84 
Q 950 -84 494 163 
L 494 1053 
z
" transform="scale(0.015625)"/>
     </defs>
     <use xlink:href="#MicrosoftYaHei-Bold-19"/>
     <use xlink:href="#MicrosoftYaHei-Bold-16" transform="translate(61.671875 0)"/>
     <use xlink:href="#MicrosoftYaHei-Bold-b" transform="translate(123.34375 0)"/>
    </g>
   </g>
   <g id="text_14">
    <!-- 92% -->
    <g transform="translate(163.809695 90.055277) scale(0.12 -0.12)">
     <defs>
      <path id="MicrosoftYaHei-Bold-1f" d="M 544 941 
Q 931 691 1456 691 
Q 2628 691 2653 2216 
L 2634 2222 
Q 2316 1731 1650 1731 
Q 1047 1731 658 2154 
Q 269 2578 269 3222 
Q 269 3978 737 4450 
Q 1206 4922 1959 4922 
Q 2744 4922 3191 4325 
Q 3638 3728 3638 2659 
Q 3638 1391 3098 653 
Q 2559 -84 1547 -84 
Q 975 -84 544 100 
L 544 941 
z
M 1259 3313 
Q 1259 2928 1445 2709 
Q 1631 2491 1953 2491 
Q 2241 2491 2427 2700 
Q 2613 2909 2613 3219 
Q 2613 3591 2427 3869 
Q 2241 4147 1928 4147 
Q 1625 4147 1442 3906 
Q 1259 3666 1259 3313 
z
" transform="scale(0.015625)"/>
      <path id="MicrosoftYaHei-Bold-18" d="M 1500 841 
L 3553 841 
L 3553 0 
L 334 0 
L 334 359 
Q 334 738 473 1050 
Q 613 1363 856 1633 
Q 1100 1903 1613 2266 
Q 2081 2616 2268 2886 
Q 2456 3156 2456 3459 
Q 2456 4113 1744 4113 
Q 1119 4113 550 3613 
L 550 4513 
Q 1184 4922 1975 4922 
Q 2700 4922 3122 4551 
Q 3544 4181 3544 3531 
Q 3544 3169 3422 2876 
Q 3300 2584 3069 2328 
Q 2838 2072 2328 1713 
Q 1838 1363 1669 1172 
Q 1500 981 1500 841 
z
" transform="scale(0.015625)"/>
     </defs>
     <use xlink:href="#MicrosoftYaHei-Bold-1f"/>
     <use xlink:href="#MicrosoftYaHei-Bold-18" transform="translate(61.671875 0)"/>
     <use xlink:href="#MicrosoftYaHei-Bold-b" transform="translate(123.34375 0)"/>
    </g>
   </g>
   <g id="text_15">
    <!-- 93% -->
    <g transform="translate(347.058019 89.771586) scale(0.12 -0.12)">
     <use xlink:href="#MicrosoftYaHei-Bold-1f"/>
     <use xlink:href="#MicrosoftYaHei-Bold-19" transform="translate(61.671875 0)"/>
     <use xlink:href="#MicrosoftYaHei-Bold-b" transform="translate(123.34375 0)"/>
    </g>
   </g>
   <g id="text_16">
    <!-- 93% -->
    <g transform="translate(530.306342 89.771586) scale(0.12 -0.12)">
     <use xlink:href="#MicrosoftYaHei-Bold-1f"/>
     <use xlink:href="#MicrosoftYaHei-Bold-19" transform="translate(61.671875 0)"/>
     <use xlink:href="#MicrosoftYaHei-Bold-b" transform="translate(123.34375 0)"/>
    </g>
   </g>
   <g id="text_17">
    <!-- ↑ +27 -->
    <g style="fill: #107c10" transform="translate(127.057184 77.289146) scale(0.12 -0.12)">
     <defs>
      <path id="MicrosoftYaHei-Bold-25f" d="M 478 3922 
Q 900 4303 1120 4576 
Q 1341 4850 1531 5213 
L 1672 5213 
Q 1863 4850 2080 4579 
Q 2297 4309 2725 3922 
L 2725 3684 
Q 2422 3828 2261 3928 
Q 2100 4028 1875 4203 
L 1875 -313 
L 1328 -313 
L 1328 4203 
Q 1113 4034 945 3931 
Q 778 3828 478 3684 
L 478 3922 
z
" transform="scale(0.015625)"/>
      <path id="MicrosoftYaHei-Bold-3" transform="scale(0.015625)"/>
      <path id="MicrosoftYaHei-Bold-11" d="M 4072 1653 
L 2766 1653 
L 2766 347 
L 2109 347 
L 2109 1653 
L 797 1653 
L 797 2313 
L 2109 2313 
L 2109 3625 
L 2766 3625 
L 2766 2313 
L 4072 2313 
L 4072 1653 
z
" transform="scale(0.015625)"/>
      <path id="MicrosoftYaHei-Bold-1d" d="M 3675 4225 
Q 3088 3172 2798 2528 
Q 2509 1884 2328 1275 
Q 2147 666 2050 0 
L 966 0 
Q 1122 947 1517 1917 
Q 1913 2888 2609 4009 
L 300 4009 
L 300 4841 
L 3675 4841 
L 3675 4225 
z
" transform="scale(0.015625)"/>
     </defs>
     <use xlink:href="#MicrosoftYaHei-Bold-25f"/>
     <use xlink:href="#MicrosoftYaHei-Bold-3" transform="translate(50 0)"/>
     <use xlink:href="#MicrosoftYaHei-Bold-11" transform="translate(79.78125 0)"/>
     <use xlink:href="#MicrosoftYaHei-Bold-18" transform="translate(155.90625 0)"/>
     <use xlink:href="#MicrosoftYaHei-Bold-1d" transform="translate(217.578125 0)"/>
    </g>
   </g>
   <g id="text_18">
    <!-- ↑ +93 -->
    <g style="fill: #107c10" transform="translate(310.305508 77.005455) scale(0.12 -0.12)">
     <use xlink:href="#MicrosoftYaHei-Bold-25f"/>
     <use xlink:href="#MicrosoftYaHei-Bold-3" transform="translate(50 0)"/>
     <use xlink:href="#MicrosoftYaHei-Bold-11" transform="translate(79.78125 0)"/>
     <use xlink:href="#MicrosoftYaHei-Bold-1f" transform="translate(155.90625 0)"/>
     <use xlink:href="#MicrosoftYaHei-Bold-19" transform="translate(217.578125 0)"/>
    </g>
   </g>
   <g id="text_19">
    <!-- ↑ +63 -->
    <g style="fill: #107c10" transform="translate(493.553831 77.005455) scale(0.12 -0.12)">
     <use xlink:href="#MicrosoftYaHei-Bold-25f"/>
     <use xlink:href="#MicrosoftYaHei-Bold-3" transform="translate(50 0)"/>
     <use xlink:href="#MicrosoftYaHei-Bold-11" transform="translate(79.78125 0)"/>
     <use xlink:href="#MicrosoftYaHei-Bold-1c" transform="translate(155.90625 0)"/>
     <use xlink:href="#MicrosoftYaHei-Bold-19" transform="translate(217.578125 0)"/>
    </g>
   </g>
   <g id="text_20">
    <!-- 脸糊到认不出时，人形把身份救回来 -->
    <g transform="translate(207.060508 24.48) scale(0.15 -0.15)">
     <defs>
      <path id="MicrosoftYaHei-Bold-9dd" d="M 5544 2647 
L 3163 2647 
L 3163 2997 
Q 2944 2797 2706 2603 
Q 2575 2884 2406 3197 
L 2406 72 
Q 2400 -634 1925 -716 
Q 1675 -759 1250 -784 
Q 1213 -441 1044 66 
Q 1194 34 1406 34 
Q 1694 34 1694 391 
L 1694 1178 
L 1138 1178 
Q 1119 -184 638 -884 
Q 419 -534 88 -166 
Q 300 303 381 928 
Q 450 1509 450 2922 
L 450 5053 
L 2406 5053 
L 2406 3472 
Q 3325 4191 3938 5278 
L 4931 5278 
L 4806 5072 
Q 5469 3978 6381 3466 
Q 6144 3066 5950 2691 
Q 5738 2828 5544 2984 
L 5544 2647 
z
M 2556 116 
L 4688 116 
Q 5063 1228 5250 2303 
L 6025 2103 
Q 5838 1347 5431 116 
L 6213 116 
L 6213 -634 
L 2556 -634 
L 2556 116 
z
M 3263 2172 
Q 3556 1397 3856 503 
L 3175 259 
Q 2981 978 2625 1934 
L 3263 2172 
z
M 4419 2428 
Q 4644 1603 4806 753 
L 4113 584 
Q 3994 1347 3763 2278 
L 4419 2428 
z
M 4331 4466 
Q 4006 3897 3538 3384 
L 5113 3384 
Q 4663 3853 4331 4466 
z
M 1163 1909 
L 1694 1909 
L 1694 2722 
L 1169 2722 
Q 1169 2284 1163 1909 
z
M 1694 4266 
L 1169 4266 
L 1169 3453 
L 1694 3453 
L 1694 4266 
z
" transform="scale(0.015625)"/>
      <path id="MicrosoftYaHei-Bold-974" d="M 113 3191 
L 813 3191 
L 813 3581 
L 388 3434 
Q 250 4016 69 4678 
L 475 4803 
Q 653 4216 813 3609 
L 813 5303 
L 1488 5303 
L 1488 3731 
Q 1625 4200 1794 4834 
L 2250 4709 
Q 2081 4078 1875 3428 
L 1488 3569 
L 1488 3191 
L 2097 3191 
L 2097 2528 
L 2688 2528 
L 2688 3484 
L 2156 3484 
L 2156 4191 
L 2688 4191 
L 2688 5303 
L 3338 5303 
L 3338 4191 
L 3888 4191 
L 3888 3484 
L 3338 3484 
L 3338 2528 
L 3850 2528 
L 3850 16 
L 2725 16 
L 2725 -322 
L 2088 -322 
L 2088 1466 
L 1781 947 
L 1488 1194 
L 1488 -834 
L 813 -834 
L 813 1134 
Q 556 434 256 -84 
Q 156 341 25 853 
Q 434 1466 797 2528 
L 113 2528 
L 113 3191 
z
M 2088 2528 
L 1488 2528 
L 1488 1969 
Q 1756 1794 2088 1569 
L 2088 2528 
z
M 3288 616 
L 3288 1934 
L 2725 1934 
L 2725 616 
L 3288 616 
z
M 4294 -934 
Q 3963 -678 3631 -441 
Q 3928 -13 4023 565 
Q 4119 1144 4125 2466 
L 4125 5103 
L 6119 5103 
L 6119 -147 
Q 6119 -441 5986 -597 
Q 5853 -753 5598 -772 
Q 5344 -791 4825 -791 
Q 4763 -434 4650 -84 
Q 5019 -103 5241 -103 
Q 5444 -103 5444 153 
L 5444 1253 
L 4788 1253 
Q 4763 481 4678 64 
Q 4594 -353 4294 -934 
z
M 5444 4416 
L 4800 4416 
L 4800 3528 
L 5444 3528 
L 5444 4416 
z
M 4800 1941 
L 5444 1941 
L 5444 2841 
L 4800 2841 
L 4800 1941 
z
" transform="scale(0.015625)"/>
      <path id="MicrosoftYaHei-Bold-4f0" d="M 5125 5266 
L 5981 5266 
L 5981 166 
Q 5981 -297 5787 -537 
Q 5594 -778 5136 -800 
Q 4678 -822 4194 -822 
Q 4144 -547 3975 59 
Q 4506 47 4794 47 
Q 5125 47 5125 403 
L 5125 5266 
z
M 169 4984 
L 3625 4984 
L 3625 4222 
L 2063 4222 
Q 1681 3684 1306 3216 
Q 1578 3219 2491 3256 
Q 2303 3556 2175 3747 
L 2806 4097 
Q 3231 3509 3775 2666 
L 3106 2228 
L 2909 2563 
L 1725 2509 
Q 909 2469 765 2448 
Q 622 2428 413 2384 
L 150 3103 
Q 509 3284 1097 4222 
L 169 4222 
L 169 4984 
z
M 3844 4653 
L 4675 4653 
L 4675 659 
L 3844 659 
L 3844 4653 
z
M 313 1728 
L 1500 1728 
L 1500 2347 
L 2331 2347 
L 2331 1728 
L 3425 1728 
L 3425 966 
L 2331 966 
L 2331 328 
L 3613 422 
L 3563 -397 
Q 1650 -522 169 -653 
L 106 197 
L 1500 272 
L 1500 966 
L 313 966 
L 313 1728 
z
" transform="scale(0.015625)"/>
      <path id="MicrosoftYaHei-Bold-a5c" d="M 1075 5322 
Q 1800 4609 2131 4247 
L 1419 3653 
Q 1063 4091 431 4797 
L 1075 5322 
z
M 3594 5291 
L 4525 5291 
Q 4516 4513 4475 3863 
Q 4725 1066 6319 134 
Q 5956 -403 5700 -816 
Q 4450 253 4153 1722 
Q 3713 253 2506 -809 
Q 2250 -341 1919 97 
Q 3028 997 3320 1948 
Q 3613 2900 3594 5291 
z
M 2319 1797 
Q 2406 1434 2575 1034 
Q 1719 203 1000 -691 
L 531 -116 
Q 756 134 756 466 
L 756 2553 
L 119 2553 
L 119 3366 
L 1588 3366 
L 1588 1128 
L 2319 1797 
z
" transform="scale(0.015625)"/>
      <path id="MicrosoftYaHei-Bold-408" d="M 350 4928 
L 6088 4928 
L 6088 4078 
L 3866 4078 
Q 3659 3556 3375 3072 
L 3675 3072 
L 3675 2341 
L 4300 2928 
Q 5144 2178 6338 1078 
L 5606 359 
Q 4809 1284 3675 2316 
L 3675 -853 
L 2731 -853 
L 2731 2141 
Q 1925 1138 725 303 
Q 525 591 88 1128 
Q 2069 2419 2813 4078 
L 350 4078 
L 350 4928 
z
" transform="scale(0.015625)"/>
      <path id="MicrosoftYaHei-Bold-4de" d="M 4869 3184 
L 4869 4753 
L 5744 4753 
L 5744 2359 
L 3663 2359 
L 3663 284 
L 5094 284 
L 5094 1816 
L 5969 1816 
L 5969 -834 
L 5094 -834 
L 5094 -541 
L 425 -541 
L 425 1816 
L 1300 1816 
L 1300 284 
L 2725 284 
L 2725 2359 
L 650 2359 
L 650 4753 
L 1525 4753 
L 1525 3184 
L 2725 3184 
L 2725 5297 
L 3663 5297 
L 3663 3184 
L 4869 3184 
z
" transform="scale(0.015625)"/>
      <path id="MicrosoftYaHei-Bold-77f" d="M 3038 4241 
L 4888 4241 
L 4888 5291 
L 5781 5291 
L 5781 4241 
L 6306 4241 
L 6306 3409 
L 5781 3409 
L 5781 316 
Q 5781 -209 5547 -478 
Q 5313 -747 4898 -762 
Q 4484 -778 3669 -778 
Q 3569 -209 3456 134 
Q 4344 109 4431 109 
Q 4888 109 4888 584 
L 4888 3409 
L 3038 3409 
L 3038 4241 
z
M 394 -497 
L 394 4897 
L 2856 4897 
L 2856 -459 
L 2031 -459 
L 2031 -28 
L 1219 -28 
L 1219 -497 
L 394 -497 
z
M 2031 4072 
L 1219 4072 
L 1219 2834 
L 2031 2834 
L 2031 4072 
z
M 1219 797 
L 2031 797 
L 2031 2034 
L 1219 2034 
L 1219 797 
z
M 3588 3072 
Q 4013 2541 4713 1559 
L 3956 1066 
Q 3388 2009 2938 2641 
L 3588 3072 
z
" transform="scale(0.015625)"/>
      <path id="MicrosoftYaHei-Bold-367" d="M 2075 831 
L 1569 -863 
L 831 -863 
L 1191 831 
L 2075 831 
z
" transform="scale(0.015625)"/>
      <path id="MicrosoftYaHei-Bold-44a" d="M 2731 5297 
L 3644 5297 
Q 3647 4619 3584 3984 
Q 4053 1066 6300 147 
Q 5806 -434 5581 -759 
Q 3900 94 3206 2147 
Q 2547 313 719 -822 
Q 525 -478 88 72 
Q 1491 872 2117 2009 
Q 2744 3147 2731 5297 
z
" transform="scale(0.015625)"/>
      <path id="MicrosoftYaHei-Bold-6a4" d="M 5488 5322 
L 6100 4797 
Q 5244 3897 4169 3209 
Q 3900 3591 3569 3934 
Q 4719 4497 5488 5322 
z
M 150 2797 
L 806 2797 
L 806 4216 
L 288 4216 
L 288 4966 
L 3744 4966 
L 3744 4216 
L 3188 4216 
L 3188 2797 
L 3894 2797 
L 3894 2094 
Q 4859 2678 5631 3547 
L 6244 3003 
Q 5325 2003 4188 1241 
Q 3944 1566 3594 1922 
Q 3706 1981 3816 2047 
L 3188 2047 
L 3188 -759 
L 2363 -759 
L 2363 2047 
L 1619 2047 
Q 1528 56 781 -872 
Q 375 -434 75 -172 
Q 725 528 797 2047 
L 150 2047 
L 150 2797 
z
M 1631 2797 
L 2363 2797 
L 2363 4216 
L 1631 4216 
L 1631 2797 
z
M 5669 1659 
L 6319 1134 
Q 5225 -141 3931 -872 
Q 3644 -453 3350 -91 
Q 4688 559 5669 1659 
z
" transform="scale(0.015625)"/>
      <path id="MicrosoftYaHei-Bold-6ec" d="M 150 4278 
L 794 4278 
L 794 5303 
L 1631 5303 
L 1631 4278 
L 2138 4278 
L 2138 3466 
L 1631 3466 
L 1631 2528 
L 2106 2641 
Q 2075 2122 2075 1847 
L 1631 1731 
L 1631 22 
Q 1631 -391 1428 -600 
Q 1225 -809 306 -809 
Q 238 -497 81 41 
Q 400 22 600 22 
Q 794 22 794 328 
L 794 1509 
L 181 1341 
L 94 2203 
Q 422 2266 794 2344 
L 794 3466 
L 150 3466 
L 150 4278 
z
M 3481 116 
L 4731 116 
Q 4897 116 5012 166 
Q 5128 216 5197 308 
Q 5266 400 5341 720 
Q 5416 1041 5444 1378 
Q 6088 1059 6313 991 
Q 6153 -147 5817 -428 
Q 5481 -709 4931 -709 
L 3225 -709 
Q 2300 -709 2300 191 
L 2300 5053 
L 5900 5053 
L 5900 1903 
L 3138 1903 
L 3138 422 
Q 3138 116 3481 116 
z
M 3138 4278 
L 3138 2678 
L 3706 2678 
L 3706 4278 
L 3138 4278 
z
M 5063 2678 
L 5063 4278 
L 4494 4278 
L 4494 2678 
L 5063 2678 
z
" transform="scale(0.015625)"/>
      <path id="MicrosoftYaHei-Bold-abe" d="M 150 1791 
L 875 1791 
L 875 4766 
L 2253 4766 
L 2556 5341 
Q 3125 5284 3538 5228 
L 3238 4766 
L 5350 4766 
L 5350 2228 
Q 5606 2428 5838 2641 
L 6363 2053 
Q 5894 1666 5350 1313 
L 5350 234 
Q 5350 -784 4413 -797 
L 3356 -797 
Q 3269 -259 3213 9 
Q 3650 -22 4150 -22 
Q 4500 -22 4500 328 
L 4500 809 
Q 2816 -100 531 -734 
Q 275 -184 75 103 
Q 1888 447 3281 1041 
L 150 1041 
L 150 1791 
z
M 4500 4028 
L 1725 4028 
L 1725 3653 
L 4500 3653 
L 4500 4028 
z
M 1725 2728 
L 4500 2728 
L 4500 3103 
L 1725 3103 
L 1725 2728 
z
M 1725 1791 
L 4500 1791 
L 4500 2178 
L 1725 2178 
L 1725 1791 
z
" transform="scale(0.015625)"/>
      <path id="MicrosoftYaHei-Bold-460" d="M 1294 5291 
L 2175 5047 
Q 1953 4322 1669 3653 
L 1669 -797 
L 819 -797 
L 819 2013 
Q 603 1666 369 1341 
Q 294 1728 100 2472 
Q 863 3709 1294 5291 
z
M 5000 5184 
Q 5413 3928 6306 3147 
L 5938 2197 
Q 5806 2316 5684 2441 
L 5597 275 
Q 5575 -159 5378 -396 
Q 5181 -634 4906 -678 
Q 4631 -722 3800 -722 
Q 3700 -209 3588 178 
Q 4000 147 4234 147 
Q 4488 147 4606 237 
Q 4725 328 4734 759 
L 4769 2097 
L 3809 2097 
Q 3806 66 2394 -834 
Q 2194 -578 1769 -178 
Q 2916 491 2916 2097 
L 2525 2097 
L 2525 2466 
Q 2369 2294 2200 2134 
Q 2050 2516 1813 3028 
Q 2688 3834 3094 5197 
L 3906 4984 
Q 3581 3809 2869 2878 
L 5294 2878 
Q 4525 3822 4213 4984 
L 5000 5184 
z
" transform="scale(0.015625)"/>
      <path id="MicrosoftYaHei-Bold-3976" d="M 2388 1909 
Q 2913 1497 3650 891 
L 3106 253 
Q 2606 753 2175 1166 
L 2175 41 
Q 2175 -753 1538 -778 
Q 1125 -809 563 -809 
Q 519 -434 388 16 
Q 656 -9 1063 -16 
Q 1375 -22 1375 334 
L 1375 1141 
Q 894 684 350 159 
L 63 972 
Q 600 1359 1188 1859 
L 1375 1484 
L 1375 3541 
L 163 3541 
L 163 4303 
L 1375 4303 
L 1375 5291 
L 2175 5291 
L 2175 4303 
L 2725 4303 
Q 2456 4684 2213 4978 
L 2713 5316 
Q 2900 5109 3300 4634 
L 2831 4303 
L 3369 4303 
L 3369 3541 
L 2175 3541 
L 2175 2322 
Q 2606 2897 2881 3359 
L 3256 3122 
Q 3700 4022 3988 5316 
L 4813 5128 
Q 4713 4697 4588 4291 
L 6263 4291 
L 6263 3528 
L 5906 3528 
Q 5725 2009 5169 934 
Q 5625 353 6306 -9 
Q 6094 -241 5763 -841 
Q 5131 -416 4688 191 
Q 4150 -472 3438 -928 
Q 3213 -591 2806 -178 
Q 3669 272 4219 984 
Q 3919 1622 3763 2409 
Q 3638 2184 3500 1978 
Q 3369 2166 3138 2491 
Q 2931 2216 2694 1922 
L 2175 2303 
L 2175 1572 
L 2388 1909 
z
M 4281 3441 
Q 4369 2484 4688 1759 
Q 5044 2534 5138 3528 
L 4313 3528 
L 4281 3441 
z
M 669 3334 
Q 975 2903 1350 2297 
L 763 1928 
Q 394 2547 106 2984 
L 669 3334 
z
" transform="scale(0.015625)"/>
      <path id="MicrosoftYaHei-Bold-59a" d="M 388 -797 
L 388 5053 
L 6019 5053 
L 6019 -791 
L 5125 -791 
L 5125 -528 
L 1281 -528 
L 1281 -797 
L 388 -797 
z
M 5125 241 
L 5125 4284 
L 1281 4284 
L 1281 241 
L 5125 241 
z
M 1794 3603 
L 4606 3603 
L 4606 928 
L 1794 928 
L 1794 3603 
z
M 3738 1672 
L 3738 2859 
L 2663 2859 
L 2663 1672 
L 3738 1672 
z
" transform="scale(0.015625)"/>
      <path id="MicrosoftYaHei-Bold-7bc" d="M 513 4628 
L 2731 4628 
L 2731 5316 
L 3638 5316 
L 3638 4628 
L 5888 4628 
L 5888 3816 
L 4872 3816 
L 5494 3353 
Q 5078 2844 4722 2516 
L 6213 2516 
L 6213 1709 
L 4159 1709 
Q 5028 816 6269 347 
Q 5988 -22 5713 -441 
Q 4388 281 3638 1263 
L 3638 -809 
L 2731 -809 
L 2731 1256 
Q 1959 253 656 -478 
Q 369 -66 106 266 
Q 1325 794 2175 1709 
L 213 1709 
L 213 2516 
L 1609 2516 
Q 1363 2856 906 3378 
L 1488 3816 
L 513 3816 
L 513 4628 
z
M 4847 3816 
L 3638 3816 
L 3638 2516 
L 4638 2516 
L 4081 2984 
Q 4469 3347 4847 3816 
z
M 2294 2966 
L 1688 2516 
L 2731 2516 
L 2731 3816 
L 1531 3816 
Q 1897 3441 2294 2966 
z
" transform="scale(0.015625)"/>
     </defs>
     <use xlink:href="#MicrosoftYaHei-Bold-9dd"/>
     <use xlink:href="#MicrosoftYaHei-Bold-974" transform="translate(100 0)"/>
     <use xlink:href="#MicrosoftYaHei-Bold-4f0" transform="translate(200 0)"/>
     <use xlink:href="#MicrosoftYaHei-Bold-a5c" transform="translate(300 0)"/>
     <use xlink:href="#MicrosoftYaHei-Bold-408" transform="translate(400 0)"/>
     <use xlink:href="#MicrosoftYaHei-Bold-4de" transform="translate(500 0)"/>
     <use xlink:href="#MicrosoftYaHei-Bold-77f" transform="translate(600 0)"/>
     <use xlink:href="#MicrosoftYaHei-Bold-367" transform="translate(700 0)"/>
     <use xlink:href="#MicrosoftYaHei-Bold-44a" transform="translate(800 0)"/>
     <use xlink:href="#MicrosoftYaHei-Bold-6a4" transform="translate(900 0)"/>
     <use xlink:href="#MicrosoftYaHei-Bold-6ec" transform="translate(1000 0)"/>
     <use xlink:href="#MicrosoftYaHei-Bold-abe" transform="translate(1100 0)"/>
     <use xlink:href="#MicrosoftYaHei-Bold-460" transform="translate(1200 0)"/>
     <use xlink:href="#MicrosoftYaHei-Bold-3976" transform="translate(1300 0)"/>
     <use xlink:href="#MicrosoftYaHei-Bold-59a" transform="translate(1400 0)"/>
     <use xlink:href="#MicrosoftYaHei-Bold-7bc" transform="translate(1500 0)"/>
    </g>
   </g>
   <g id="legend_1">
    <g id="patch_13">
     <path d="M 193.646836 56.811035 
L 460.47418 56.811035 
Q 462.67418 56.811035 462.67418 54.611035 
L 462.67418 38.18 
Q 462.67418 35.98 460.47418 35.98 
L 193.646836 35.98 
Q 191.446836 35.98 191.446836 38.18 
L 191.446836 54.611035 
Q 191.446836 56.811035 193.646836 56.811035 
z
" style="fill: #ffffff; opacity: 0.9; stroke: #cccccc; stroke-linejoin: miter"/>
    </g>
    <g id="patch_14">
     <path d="M 195.846836 49.623438 
L 217.846836 49.623438 
L 217.846836 41.923438 
L 195.846836 41.923438 
z
" style="fill: #d83b01"/>
    </g>
    <g id="text_21">
     <!-- 仅人脸（baseline） -->
     <g transform="translate(226.646836 49.623438) scale(0.11 -0.11)">
      <defs>
       <path id="MicrosoftYaHei-44e" d="M 2131 4416 
L 2131 4853 
L 5906 4853 
L 5906 4428 
Q 5628 2366 4441 953 
Q 5203 175 6338 -284 
Q 6094 -578 5944 -784 
Q 4834 -244 4075 553 
Q 3256 -263 2088 -828 
Q 1969 -659 1713 -366 
Q 2909 184 3716 972 
Q 2634 2359 2459 4416 
L 2131 4416 
z
M 5344 4416 
L 2941 4416 
Q 3138 2572 4081 1363 
Q 5147 2625 5344 4416 
z
M 56 2384 
Q 1044 3716 1531 5328 
L 2038 5159 
Q 1741 4331 1388 3619 
L 1388 -803 
L 900 -803 
L 900 2741 
Q 594 2250 256 1828 
Q 163 2097 56 2384 
z
" transform="scale(0.015625)"/>
       <path id="MicrosoftYaHei-44b" d="M 100 -303 
Q 2825 1272 2981 5222 
L 3531 5222 
Q 3497 4553 3400 3947 
Q 4175 822 6313 -166 
Q 6050 -453 5850 -709 
Q 3994 341 3203 3006 
Q 2519 431 494 -778 
Q 325 -547 100 -303 
z
" transform="scale(0.015625)"/>
       <path id="MicrosoftYaHei-367" d="M 5288 -1100 
Q 4172 119 4172 1850 
Q 4172 3603 5288 4838 
L 5825 4838 
Q 4716 3572 4716 1856 
Q 4716 166 5819 -1100 
L 5288 -1100 
z
" transform="scale(0.015625)"/>
       <path id="MicrosoftYaHei-48" d="M 1159 488 
L 1159 0 
L 547 0 
L 547 5116 
L 1159 5116 
L 1159 2859 
L 1172 2859 
Q 1578 3538 2359 3538 
Q 3009 3538 3392 3080 
Q 3775 2622 3775 1828 
Q 3775 953 3345 436 
Q 2916 -81 2200 -81 
Q 1525 -81 1172 488 
L 1159 488 
z
M 1156 1422 
Q 1156 1003 1428 714 
Q 1700 425 2109 425 
Q 2597 425 2872 800 
Q 3147 1175 3147 1838 
Q 3147 2384 2890 2707 
Q 2634 3031 2191 3031 
Q 1741 3031 1448 2709 
Q 1156 2388 1156 1891 
L 1156 1422 
z
" transform="scale(0.015625)"/>
       <path id="MicrosoftYaHei-59" d="M 353 747 
Q 816 413 1350 413 
Q 2066 413 2066 881 
Q 2066 1081 1909 1211 
Q 1753 1341 1275 1519 
Q 700 1750 528 1976 
Q 356 2203 356 2525 
Q 356 2984 745 3261 
Q 1134 3538 1703 3538 
Q 2144 3538 2522 3384 
L 2522 2794 
Q 2134 3044 1644 3044 
Q 1350 3044 1165 2916 
Q 981 2788 981 2578 
Q 981 2372 1114 2256 
Q 1247 2141 1703 1959 
Q 2281 1744 2484 1512 
Q 2688 1281 2688 941 
Q 2688 466 2298 192 
Q 1909 -81 1291 -81 
Q 753 -81 353 122 
L 353 747 
z
" transform="scale(0.015625)"/>
       <path id="MicrosoftYaHei-4b" d="M 3363 1572 
L 944 1572 
Q 959 1019 1246 717 
Q 1534 416 2050 416 
Q 2631 416 3116 788 
L 3116 241 
Q 2659 -81 1906 -81 
Q 1156 -81 736 394 
Q 316 869 316 1713 
Q 316 2506 777 3022 
Q 1238 3538 1922 3538 
Q 2600 3538 2981 3102 
Q 3363 2666 3363 1881 
L 3363 1572 
z
M 2750 2063 
Q 2747 2531 2528 2787 
Q 2309 3044 1913 3044 
Q 1547 3044 1280 2772 
Q 1013 2500 944 2063 
L 2750 2063 
z
" transform="scale(0.015625)"/>
       <path id="MicrosoftYaHei-52" d="M 544 0 
L 544 5116 
L 1156 5116 
L 1156 0 
L 544 0 
z
" transform="scale(0.015625)"/>
       <path id="MicrosoftYaHei-4f" d="M 472 4675 
Q 472 4838 583 4948 
Q 694 5059 856 5059 
Q 1022 5059 1136 4950 
Q 1250 4841 1250 4675 
Q 1250 4513 1136 4405 
Q 1022 4297 856 4297 
Q 691 4297 581 4405 
Q 472 4513 472 4675 
z
M 544 0 
L 544 3456 
L 1156 3456 
L 1156 0 
L 544 0 
z
" transform="scale(0.015625)"/>
       <path id="MicrosoftYaHei-368" d="M 1113 -1100 
L 575 -1100 
Q 1684 163 1684 1888 
Q 1684 3581 581 4838 
L 1113 4838 
Q 2222 3628 2222 1888 
Q 2222 128 1113 -1100 
z
" transform="scale(0.015625)"/>
      </defs>
      <use xlink:href="#MicrosoftYaHei-44e"/>
      <use xlink:href="#MicrosoftYaHei-44b" transform="translate(100 0)"/>
      <use xlink:href="#MicrosoftYaHei-a0e" transform="translate(200 0)"/>
      <use xlink:href="#MicrosoftYaHei-367" transform="translate(300 0)"/>
      <use xlink:href="#MicrosoftYaHei-48" transform="translate(400 0)"/>
      <use xlink:href="#MicrosoftYaHei-47" transform="translate(462.453125 0)"/>
      <use xlink:href="#MicrosoftYaHei-59" transform="translate(517.734375 0)"/>
      <use xlink:href="#MicrosoftYaHei-4b" transform="translate(564.03125 0)"/>
      <use xlink:href="#MicrosoftYaHei-52" transform="translate(620.765625 0)"/>
      <use xlink:href="#MicrosoftYaHei-4f" transform="translate(647.375 0)"/>
      <use xlink:href="#MicrosoftYaHei-54" transform="translate(673.984375 0)"/>
      <use xlink:href="#MicrosoftYaHei-4b" transform="translate(735.609375 0)"/>
      <use xlink:href="#MicrosoftYaHei-368" transform="translate(792.34375 0)"/>
     </g>
    </g>
    <g id="patch_15">
     <path d="M 346.804648 49.623438 
L 368.804648 49.623438 
L 368.804648 41.923438 
L 346.804648 41.923438 
z
" style="fill: #107c10"/>
    </g>
    <g id="text_22">
     <!-- 人脸 + 人形兜底 -->
     <g transform="translate(377.604648 49.623438) scale(0.11 -0.11)">
      <defs>
       <path id="MicrosoftYaHei-11" d="M 3972 1772 
L 2613 1772 
L 2613 419 
L 2141 419 
L 2141 1772 
L 788 1772 
L 788 2250 
L 2141 2250 
L 2141 3603 
L 2613 3603 
L 2613 2250 
L 3972 2250 
L 3972 1772 
z
" transform="scale(0.015625)"/>
       <path id="MicrosoftYaHei-6a5" d="M 175 2647 
L 1019 2647 
L 1019 4422 
L 350 4422 
L 350 4872 
L 3775 4872 
L 3775 4422 
L 3006 4422 
L 3006 2647 
L 3975 2647 
L 3975 2197 
L 3006 2197 
L 3006 -791 
L 2525 -791 
L 2525 2197 
L 1497 2197 
Q 1500 128 406 -841 
Q 256 -622 75 -428 
Q 1025 366 1016 2197 
L 175 2197 
L 175 2647 
z
M 1500 2647 
L 2525 2647 
L 2525 4422 
L 1500 4422 
L 1500 2647 
z
M 6319 1353 
Q 5331 166 3738 -834 
Q 3631 -666 3388 -422 
Q 4925 397 5956 1672 
L 6319 1353 
z
M 6138 3172 
Q 5250 2159 4019 1347 
Q 3888 1528 3694 1722 
Q 4856 2441 5775 3484 
L 6138 3172 
z
M 6038 4934 
Q 5194 4009 3988 3266 
Q 3875 3428 3675 3666 
Q 4838 4322 5675 5253 
L 6038 4934 
z
" transform="scale(0.015625)"/>
       <path id="MicrosoftYaHei-285c" d="M 2031 4678 
L 2806 4678 
Q 2925 5028 3000 5328 
L 3506 5222 
Q 3413 4972 3294 4678 
L 4381 4678 
L 4381 1466 
L 3938 1466 
L 3938 1641 
L 2475 1641 
L 2475 1466 
L 2031 1466 
L 2031 4678 
z
M 500 4547 
Q 1125 4728 1675 4928 
L 1850 4466 
Q 1294 4278 963 4191 
L 963 2028 
Q 1388 2234 1681 2391 
Q 1694 2084 1725 1872 
Q 1319 1697 969 1491 
Q 819 1403 681 1266 
L 313 1691 
Q 500 1878 500 2228 
L 500 4547 
z
M 4694 2022 
L 5431 2022 
L 5431 4284 
L 4681 4284 
L 4681 4709 
L 5894 4709 
L 5894 1353 
L 5431 1353 
L 5431 1597 
L 4694 1597 
L 4694 2022 
z
M 3700 1247 
L 4188 1247 
L 4188 141 
Q 4188 -266 4569 -266 
L 5200 -266 
Q 5650 -266 5725 41 
Q 5788 284 5831 784 
Q 6044 691 6313 603 
Q 6250 147 6169 -159 
Q 6025 -709 5275 -709 
L 4481 -709 
Q 3700 -709 3700 97 
L 3700 1247 
z
M 2519 1253 
Q 2494 272 2031 -122 
Q 1531 -566 381 -841 
Q 256 -609 88 -366 
Q 1231 -134 1694 247 
Q 2025 547 2025 1253 
L 2519 1253 
z
M 2475 2053 
L 3938 2053 
L 3938 2959 
L 2475 2959 
L 2475 2053 
z
M 3938 4266 
L 2475 4266 
L 2475 3366 
L 3938 3366 
L 3938 4266 
z
" transform="scale(0.015625)"/>
       <path id="MicrosoftYaHei-682" d="M 1925 3497 
Q 4069 3516 5844 3722 
L 6000 3253 
Q 5231 3184 4250 3134 
Q 4250 2509 4313 1991 
L 6163 1991 
L 6163 1541 
L 4381 1541 
Q 4638 241 5394 -209 
Q 5619 -341 5719 -72 
Q 5806 247 5869 847 
Q 6138 734 6338 678 
Q 6250 53 6163 -291 
Q 6013 -803 5594 -803 
Q 5213 -803 4681 -241 
Q 4113 391 3894 1541 
L 2413 1541 
L 2413 97 
Q 3113 453 3688 772 
Q 3725 478 3781 284 
Q 2994 -122 2406 -472 
Q 2181 -622 2038 -753 
L 1713 -341 
Q 1925 -159 1925 197 
L 1925 3497 
z
M 2969 5184 
L 3444 5378 
Q 3644 5034 3881 4603 
L 6213 4603 
L 6213 4166 
L 1225 4166 
L 1225 2278 
Q 1225 191 456 -909 
Q 294 -697 94 -491 
Q 725 341 725 2203 
L 725 4603 
L 3313 4603 
Q 3138 4934 2969 5184 
z
M 3756 3109 
Q 3125 3084 2413 3059 
L 2413 1991 
L 3825 1991 
Q 3763 2503 3756 3109 
z
M 3256 -253 
L 3556 28 
Q 3956 -272 4300 -591 
L 3963 -916 
Q 3631 -572 3256 -253 
z
" transform="scale(0.015625)"/>
      </defs>
      <use xlink:href="#MicrosoftYaHei-44b"/>
      <use xlink:href="#MicrosoftYaHei-a0e" transform="translate(100 0)"/>
      <use xlink:href="#MicrosoftYaHei-3" transform="translate(200 0)"/>
      <use xlink:href="#MicrosoftYaHei-11" transform="translate(229.59375 0)"/>
      <use xlink:href="#MicrosoftYaHei-3" transform="translate(303.765625 0)"/>
      <use xlink:href="#MicrosoftYaHei-44b" transform="translate(333.359375 0)"/>
      <use xlink:href="#MicrosoftYaHei-6a5" transform="translate(433.359375 0)"/>
      <use xlink:href="#MicrosoftYaHei-285c" transform="translate(533.359375 0)"/>
      <use xlink:href="#MicrosoftYaHei-682" transform="translate(633.359375 0)"/>
     </g>
    </g>
   </g>
  </g>
 </g>
 <defs>
  <clipPath id="p05dedeb86c">
   <rect x="52.921016" y="30.48" width="548.278984" height="326.245566"/>
  </clipPath>
 </defs>
</svg>
