<?xml version="1.0" encoding="utf-8" standalone="no"?>
<!DOCTYPE svg PUBLIC "-//W3C//DTD SVG 1.1//EN"
  "http://www.w3.org/Graphics/SVG/1.1/DTD/svg11.dtd">
<svg xmlns:xlink="http://www.w3.org/1999/xlink" width="648pt" height="360pt" viewBox="0 0 648 360" xmlns="http://www.w3.org/2000/svg" version="1.1">
 <metadata>
  <rdf:RDF xmlns:dc="http://purl.org/dc/elements/1.1/" xmlns:cc="http://creativecommons.org/ns#" xmlns:rdf="http://www.w3.org/1999/02/22-rdf-syntax-ns#">
   <cc:Work>
    <dc:type rdf:resource="http://purl.org/dc/dcmitype/StillImage"/>
    <dc:date>2026-07-02T15:12:38.874100</dc:date>
    <dc:format>image/svg+xml</dc:format>
    <dc:creator>
     <cc:Agent>
      <dc:title>Matplotlib v3.11.0, https://matplotlib.org/</dc:title>
     </cc:Agent>
    </dc:creator>
   </cc:Work>
  </rdf:RDF>
 </metadata>
 <defs>
  <style type="text/css">*{stroke-linejoin: round; stroke-linecap: butt}</style>
 </defs>
 <g id="figure_1">
  <g id="patch_1">
   <path d="M 0 360 
L 648 360 
L 648 0 
L 0 0 
z
" style="fill: #ffffff"/>
  </g>
  <g id="axes_1">
   <g id="patch_2">
    <path d="M 49.734297 331.545703 
L 637.2 331.545703 
L 637.2 26.88 
L 49.734297 26.88 
z
" style="fill: #ffffff"/>
   </g>
   <g id="patch_3">
    <path d="M 76.437283 331.545703 
L 165.447238 331.545703 
L 165.447238 41.387891 
L 76.437283 41.387891 
z
" clip-path="url(#p6cf1775ac3)" style="fill: #9aa0a6"/>
   </g>
   <g id="patch_4">
    <path d="M 187.699727 331.545703 
L 276.709682 331.545703 
L 276.709682 331.545703 
L 187.699727 331.545703 
z
" clip-path="url(#p6cf1775ac3)" style="fill: #9aa0a6"/>
   </g>
   <g id="patch_5">
    <path d="M 298.962171 331.545703 
L 387.972126 331.545703 
L 387.972126 331.545703 
L 298.962171 331.545703 
z
" clip-path="url(#p6cf1775ac3)" style="fill: #9aa0a6"/>
   </g>
   <g id="patch_6">
    <path d="M 410.224615 331.545703 
L 499.23457 331.545703 
L 499.23457 331.545703 
L 410.224615 331.545703 
z
" clip-path="url(#p6cf1775ac3)" style="fill: #9aa0a6"/>
   </g>
   <g id="patch_7">
    <path d="M 521.487058 331.545703 
L 610.497013 331.545703 
L 610.497013 41.387891 
L 521.487058 41.387891 
z
" clip-path="url(#p6cf1775ac3)" style="fill: #9aa0a6"/>
   </g>
   <g id="matplotlib.axis_1">
    <g id="xtick_1">
     <g id="line2d_1">
      <defs>
       <path id="m173f6fb6ca" d="M 0 0 
L 0 3.5 
" style="stroke: #000000; stroke-width: 0.8"/>
      </defs>
      <g>
       <use xlink:href="#m173f6fb6ca" x="120.942261" y="331.545703" style="stroke: #000000; stroke-width: 0.8"/>
      </g>
     </g>
     <g id="text_1">
      <!-- 清晰 -->
      <g transform="translate(110.942261 346.909766) scale(0.1 -0.1)">
       <defs>
        <path id="MicrosoftYaHei-88e" d="M 2638 -791 
L 2163 -791 
L 2163 2378 
L 5856 2378 
L 5856 -78 
Q 5856 -741 5188 -741 
L 4150 -741 
Q 4119 -541 4056 -259 
Q 4638 -297 5000 -297 
Q 5381 -297 5381 28 
L 5381 341 
L 2638 341 
L 2638 -791 
z
M 1719 3153 
L 3775 3153 
L 3775 3578 
L 2138 3578 
L 2138 3972 
L 3775 3972 
L 3775 4397 
L 1925 4397 
L 1925 4791 
L 3775 4791 
L 3775 5353 
L 4256 5353 
L 4256 4791 
L 6206 4791 
L 6206 4397 
L 4256 4397 
L 4256 3972 
L 6038 3972 
L 6038 3578 
L 4256 3578 
L 4256 3153 
L 6319 3153 
L 6319 2759 
L 1719 2759 
L 1719 3153 
z
M 288 -609 
Q 663 553 931 1809 
Q 1206 1691 1438 1616 
Q 1138 453 838 -778 
L 288 -609 
z
M 5381 1978 
L 2638 1978 
L 2638 1547 
L 5381 1547 
L 5381 1978 
z
M 2638 728 
L 5381 728 
L 5381 1159 
L 2638 1159 
L 2638 728 
z
M 81 3247 
L 400 3603 
Q 981 3209 1481 2797 
Q 1250 2541 1113 2397 
Q 544 2903 81 3247 
z
M 325 4878 
L 650 5209 
Q 1063 4897 1725 4328 
Q 1513 4122 1350 3959 
Q 706 4566 325 4878 
z
" transform="scale(0.015625)"/>
        <path id="MicrosoftYaHei-7b1" d="M 2119 4016 
L 2769 4016 
L 2769 5253 
L 3200 5253 
L 3200 4016 
L 3863 4016 
L 3863 3597 
L 3200 3597 
L 3200 2572 
L 3400 2747 
Q 3763 2409 4075 2059 
L 3763 1772 
Q 3472 2119 3200 2388 
L 3200 -816 
L 2769 -816 
L 2769 2481 
Q 2466 1388 2094 828 
Q 2000 1116 1906 1347 
L 1906 -153 
L 1481 -153 
L 1481 216 
L 794 216 
L 794 -247 
L 369 -247 
L 369 4728 
L 1906 4728 
L 1906 1397 
Q 2456 2350 2728 3597 
L 2119 3597 
L 2119 4016 
z
M 4113 4766 
Q 5125 4822 6006 5047 
L 6169 4578 
Q 5369 4428 4550 4353 
L 4550 3159 
L 6250 3159 
L 6250 2722 
L 5688 2722 
L 5688 -847 
L 5250 -847 
L 5250 2722 
L 4550 2722 
L 4550 2228 
Q 4550 184 3719 -828 
Q 3569 -597 3400 -416 
Q 4113 466 4113 2159 
L 4113 4766 
z
M 794 628 
L 1481 628 
L 1481 2284 
L 794 2284 
L 794 628 
z
M 1481 4316 
L 794 4316 
L 794 2684 
L 1481 2684 
L 1481 4316 
z
" transform="scale(0.015625)"/>
       </defs>
       <use xlink:href="#MicrosoftYaHei-88e"/>
       <use xlink:href="#MicrosoftYaHei-7b1" transform="translate(100 0)"/>
      </g>
     </g>
    </g>
    <g id="xtick_2">
     <g id="line2d_2">
      <g>
       <use xlink:href="#m173f6fb6ca" x="232.204705" y="331.545703" style="stroke: #000000; stroke-width: 0.8"/>
      </g>
     </g>
     <g id="text_2">
      <!-- 糊脸 -->
      <g transform="translate(222.204705 346.851953) scale(0.1 -0.1)">
       <defs>
        <path id="MicrosoftYaHei-9a5" d="M 4213 4959 
L 6013 4959 
L 6013 -122 
Q 6013 -747 5419 -747 
Q 5013 -747 4831 -728 
Q 4813 -547 4756 -247 
Q 5075 -291 5306 -291 
Q 5581 -291 5581 -16 
L 5581 1378 
L 4631 1378 
Q 4547 -81 3813 -859 
Q 3656 -697 3419 -516 
Q 4213 197 4213 1834 
L 4213 4959 
z
M 2206 2466 
L 2781 2466 
L 2781 3722 
L 2175 3722 
L 2175 4134 
L 2781 4134 
L 2781 5309 
L 3213 5309 
L 3213 4134 
L 3888 4134 
L 3888 3722 
L 3213 3722 
L 3213 2466 
L 3800 2466 
L 3800 91 
L 2625 91 
L 2625 -309 
L 2206 -309 
L 2206 2466 
z
M 88 722 
Q 581 1566 916 2697 
L 106 2697 
L 106 3097 
L 981 3097 
L 981 5316 
L 1375 5316 
L 1375 3097 
L 2181 3097 
L 2181 2697 
L 1375 2697 
L 1375 1981 
L 1588 2141 
Q 1925 1791 2200 1441 
L 1875 1172 
Q 1681 1450 1375 1813 
L 1375 -791 
L 981 -791 
L 981 1881 
Q 688 916 281 153 
Q 163 547 88 722 
z
M 3381 491 
L 3381 2066 
L 2625 2066 
L 2625 491 
L 3381 491 
z
M 4644 1803 
L 5581 1803 
L 5581 2959 
L 4644 2959 
L 4644 1803 
z
M 5581 4534 
L 4644 4534 
L 4644 3384 
L 5581 3384 
L 5581 4534 
z
M 1513 3534 
Q 1688 4016 1844 4772 
L 2231 4678 
Q 2038 3947 1850 3428 
L 1513 3534 
z
M 156 4709 
L 500 4778 
Q 650 4159 756 3528 
L 375 3447 
Q 294 4059 156 4709 
z
" transform="scale(0.015625)"/>
        <path id="MicrosoftYaHei-a0e" d="M 4650 5228 
L 4544 5047 
Q 5231 3866 6363 3284 
Q 6256 3159 6069 2866 
Q 4969 3534 4275 4653 
Q 3731 3791 2525 2803 
Q 2344 3028 2206 3178 
L 2206 -122 
Q 2206 -747 1600 -747 
Q 1313 -747 1069 -734 
Q 1050 -534 994 -272 
Q 1300 -303 1475 -303 
Q 1756 -303 1756 -9 
L 1756 1409 
L 938 1409 
Q 888 -16 388 -872 
Q 225 -691 31 -547 
Q 494 222 494 1703 
L 494 4978 
L 2206 4978 
L 2206 3209 
Q 3506 4116 4056 5228 
L 4650 5228 
z
M 2425 -91 
L 4625 -91 
Q 5081 1072 5456 2272 
L 5925 2103 
Q 5556 1047 5106 -91 
L 6175 -91 
L 6175 -522 
L 2425 -522 
L 2425 -91 
z
M 2919 3022 
L 5581 3022 
L 5581 2591 
L 2919 2591 
L 2919 3022 
z
M 944 1822 
L 1756 1822 
L 1756 2991 
L 944 2991 
L 944 1822 
z
M 1756 4566 
L 944 4566 
L 944 3403 
L 1756 3403 
L 1756 4566 
z
M 2644 1972 
L 3069 2103 
Q 3381 1184 3600 422 
L 3144 272 
Q 2938 1141 2644 1972 
z
M 3806 2178 
L 4219 2272 
Q 4463 1422 4644 578 
L 4194 472 
Q 4044 1259 3806 2178 
z
" transform="scale(0.015625)"/>
       </defs>
       <use xlink:href="#MicrosoftYaHei-9a5"/>
       <use xlink:href="#MicrosoftYaHei-a0e" transform="translate(100 0)"/>
      </g>
     </g>
    </g>
    <g id="xtick_3">
     <g id="line2d_3">
      <g>
       <use xlink:href="#m173f6fb6ca" x="343.467148" y="331.545703" style="stroke: #000000; stroke-width: 0.8"/>
      </g>
     </g>
     <g id="text_3">
      <!-- 极糊 -->
      <g transform="translate(333.467148 346.851953) scale(0.1 -0.1)">
       <defs>
        <path id="MicrosoftYaHei-7e2" d="M 3263 2528 
Q 3163 466 1994 -828 
Q 1813 -641 1613 -478 
Q 2406 391 2638 1409 
Q 2863 2284 2844 4472 
L 2288 4472 
L 2288 4916 
L 5406 4916 
L 5406 4447 
L 4800 3191 
L 5888 3191 
L 5888 2728 
Q 5531 1578 4881 709 
Q 5550 72 6331 -316 
Q 6131 -497 5913 -778 
Q 5169 -316 4556 309 
Q 3919 -391 3063 -872 
Q 2888 -641 2713 -472 
Q 3600 34 4213 691 
Q 3638 1403 3263 2528 
z
M 81 1359 
Q 731 2372 1000 3578 
L 125 3578 
L 125 3997 
L 1006 3997 
L 1006 5234 
L 1438 5234 
L 1438 3997 
L 2250 3997 
L 2250 3578 
L 1438 3578 
L 1438 2659 
L 1638 2859 
Q 2088 2466 2456 2097 
L 2131 1759 
Q 1825 2103 1438 2484 
L 1438 -834 
L 1006 -834 
L 1006 2384 
Q 700 1409 281 809 
Q 200 1078 81 1359 
z
M 4281 3203 
L 4881 4472 
L 3319 4472 
Q 3319 4016 3313 3616 
Q 3800 1978 4538 1084 
Q 5106 1828 5369 2747 
L 4281 2747 
L 4281 3203 
z
" transform="scale(0.015625)"/>
       </defs>
       <use xlink:href="#MicrosoftYaHei-7e2"/>
       <use xlink:href="#MicrosoftYaHei-9a5" transform="translate(100 0)"/>
      </g>
     </g>
    </g>
    <g id="xtick_4">
     <g id="line2d_4">
      <g>
       <use xlink:href="#m173f6fb6ca" x="454.729592" y="331.545703" style="stroke: #000000; stroke-width: 0.8"/>
      </g>
     </g>
     <g id="text_4">
      <!-- 无脸 -->
      <g transform="translate(444.729592 346.714453) scale(0.1 -0.1)">
       <defs>
        <path id="MicrosoftYaHei-797" d="M 200 2878 
L 2650 2878 
Q 2781 3528 2806 4328 
L 675 4328 
L 675 4816 
L 5750 4816 
L 5750 4328 
L 3331 4328 
Q 3288 3528 3169 2878 
L 6225 2878 
L 6225 2391 
L 3063 2391 
Q 2588 278 450 -884 
Q 313 -672 113 -441 
Q 1975 491 2538 2391 
L 200 2391 
L 200 2878 
z
M 3400 1941 
L 3906 1941 
L 3906 297 
Q 3906 -197 4363 -197 
L 5219 -197 
Q 5644 -197 5700 172 
Q 5750 528 5775 1097 
Q 6013 1009 6300 916 
Q 6238 297 6188 -16 
Q 6106 -641 5300 -641 
L 4219 -641 
Q 3400 -641 3400 222 
L 3400 1941 
z
" transform="scale(0.015625)"/>
       </defs>
       <use xlink:href="#MicrosoftYaHei-797"/>
       <use xlink:href="#MicrosoftYaHei-a0e" transform="translate(100 0)"/>
      </g>
     </g>
    </g>
    <g id="xtick_5">
     <g id="line2d_5">
      <g>
       <use xlink:href="#m173f6fb6ca" x="565.992036" y="331.545703" style="stroke: #000000; stroke-width: 0.8"/>
      </g>
     </g>
     <g id="text_5">
      <!-- 总体 -->
      <g transform="translate(555.992036 346.909766) scale(0.1 -0.1)">
       <defs>
        <path id="MicrosoftYaHei-6c8" d="M 900 4253 
L 3631 4253 
Q 4022 4822 4331 5353 
L 4813 5103 
Q 4500 4675 4175 4253 
L 5500 4253 
L 5500 1703 
L 5000 1703 
L 5000 1978 
L 1400 1978 
L 1400 1703 
L 900 1703 
L 900 4253 
z
M 5000 3803 
L 1400 3803 
L 1400 2428 
L 5000 2428 
L 5000 3803 
z
M 1694 1378 
L 2181 1378 
L 2181 284 
Q 2181 -203 2619 -203 
L 3875 -203 
Q 4244 -203 4338 172 
Q 4394 366 4450 872 
Q 4631 791 4931 684 
Q 4850 209 4750 -97 
Q 4556 -641 3900 -641 
L 2519 -641 
Q 1694 -641 1694 197 
L 1694 1378 
z
M 719 1422 
L 1188 1272 
Q 931 491 538 -334 
Q 338 -247 81 -134 
Q 444 597 719 1422 
z
M 4881 1203 
L 5238 1478 
Q 5813 841 6319 197 
L 5900 -134 
Q 5456 491 4881 1203 
z
M 2663 1591 
L 3044 1841 
Q 3488 1372 3863 841 
L 3444 547 
Q 3069 1109 2663 1591 
z
M 1594 5109 
L 1975 5353 
Q 2350 4959 2650 4541 
L 2225 4266 
Q 1956 4653 1594 5109 
z
" transform="scale(0.015625)"/>
        <path id="MicrosoftYaHei-47d" d="M 6350 778 
Q 6138 522 5981 316 
Q 4731 1278 4144 3572 
L 4144 934 
L 5063 934 
L 5063 484 
L 4144 484 
L 4144 -822 
L 3681 -822 
L 3681 484 
L 2763 484 
L 2763 934 
L 3681 934 
L 3681 3572 
L 3666 3572 
Q 3084 1413 1750 216 
Q 1606 397 1419 609 
Q 2625 1713 3225 3572 
L 1756 3572 
L 1756 4022 
L 3681 4022 
L 3681 5297 
L 4144 5297 
L 4144 4022 
L 6138 4022 
L 6138 3572 
L 4547 3572 
Q 5144 1628 6350 778 
z
M 56 2297 
Q 963 3622 1406 5316 
L 1881 5178 
Q 1638 4381 1331 3681 
L 1331 -816 
L 869 -816 
L 869 2741 
Q 588 2231 269 1784 
Q 175 2041 56 2297 
z
" transform="scale(0.015625)"/>
       </defs>
       <use xlink:href="#MicrosoftYaHei-6c8"/>
       <use xlink:href="#MicrosoftYaHei-47d" transform="translate(100 0)"/>
      </g>
     </g>
    </g>
   </g>
   <g id="matplotlib.axis_2">
    <g id="ytick_1">
     <g id="line2d_6">
      <path d="M 49.734297 331.545703 
L 637.2 331.545703 
" clip-path="url(#p6cf1775ac3)" style="fill: none; stroke: #b0b0b0; stroke-opacity: 0.3; stroke-width: 0.8; stroke-linecap: square"/>
     </g>
     <g id="line2d_7">
      <defs>
       <path id="mf7d333f546" d="M 0 0 
L -3.5 0 
" style="stroke: #000000; stroke-width: 0.8"/>
      </defs>
      <g>
       <use xlink:href="#mf7d333f546" x="49.734297" y="331.545703" style="stroke: #000000; stroke-width: 0.8"/>
      </g>
     </g>
     <g id="text_6">
      <!-- 0 -->
      <g transform="translate(36.870234 335.605762) scale(0.1 -0.1)">
       <defs>
        <path id="MicrosoftYaHei-16" d="M 284 2325 
Q 284 3606 709 4264 
Q 1134 4922 1941 4922 
Q 3478 4922 3478 2441 
Q 3478 1216 3045 567 
Q 2613 -81 1831 -81 
Q 1094 -81 689 534 
Q 284 1150 284 2325 
z
M 909 2353 
Q 909 425 1888 425 
Q 2850 425 2850 2384 
Q 2850 4413 1906 4413 
Q 909 4413 909 2353 
z
" transform="scale(0.015625)"/>
       </defs>
       <use xlink:href="#MicrosoftYaHei-16"/>
      </g>
     </g>
    </g>
    <g id="ytick_2">
     <g id="line2d_8">
      <path d="M 49.734297 273.514141 
L 637.2 273.514141 
" clip-path="url(#p6cf1775ac3)" style="fill: none; stroke: #b0b0b0; stroke-opacity: 0.3; stroke-width: 0.8; stroke-linecap: square"/>
     </g>
     <g id="line2d_9">
      <g>
       <use xlink:href="#mf7d333f546" x="49.734297" y="273.514141" style="stroke: #000000; stroke-width: 0.8"/>
      </g>
     </g>
     <g id="text_7">
      <!-- 20 -->
      <g transform="translate(31.006172 277.574199) scale(0.1 -0.1)">
       <defs>
        <path id="MicrosoftYaHei-18" d="M 2666 3572 
Q 2666 3963 2419 4186 
Q 2172 4409 1747 4409 
Q 1447 4409 1140 4256 
Q 834 4103 569 3819 
L 569 4413 
Q 806 4659 1107 4790 
Q 1409 4922 1816 4922 
Q 2472 4922 2872 4570 
Q 3272 4219 3272 3619 
Q 3272 3084 3026 2693 
Q 2781 2303 2188 1894 
Q 1581 1475 1376 1294 
Q 1172 1113 1090 947 
Q 1009 781 1009 544 
L 3416 544 
L 3416 0 
L 372 0 
L 372 241 
Q 372 659 486 951 
Q 600 1244 862 1520 
Q 1125 1797 1681 2184 
Q 2250 2584 2458 2886 
Q 2666 3188 2666 3572 
z
" transform="scale(0.015625)"/>
       </defs>
       <use xlink:href="#MicrosoftYaHei-18"/>
       <use xlink:href="#MicrosoftYaHei-16" transform="translate(58.640625 0)"/>
      </g>
     </g>
    </g>
    <g id="ytick_3">
     <g id="line2d_10">
      <path d="M 49.734297 215.482578 
L 637.2 215.482578 
" clip-path="url(#p6cf1775ac3)" style="fill: none; stroke: #b0b0b0; stroke-opacity: 0.3; stroke-width: 0.8; stroke-linecap: square"/>
     </g>
     <g id="line2d_11">
      <g>
       <use xlink:href="#mf7d333f546" x="49.734297" y="215.482578" style="stroke: #000000; stroke-width: 0.8"/>
      </g>
     </g>
     <g id="text_8">
      <!-- 40 -->
      <g transform="translate(31.006172 219.542637) scale(0.1 -0.1)">
       <defs>
        <path id="MicrosoftYaHei-1a" d="M 2906 4841 
L 2906 1644 
L 3631 1644 
L 3631 1138 
L 2906 1138 
L 2906 0 
L 2313 0 
L 2313 1138 
L 53 1138 
L 53 1616 
Q 656 2294 1265 3178 
Q 1875 4063 2272 4841 
L 2906 4841 
z
M 741 1644 
L 2313 1644 
L 2313 3950 
Q 1988 3366 1616 2817 
Q 1244 2269 741 1644 
z
" transform="scale(0.015625)"/>
       </defs>
       <use xlink:href="#MicrosoftYaHei-1a"/>
       <use xlink:href="#MicrosoftYaHei-16" transform="translate(58.640625 0)"/>
      </g>
     </g>
    </g>
    <g id="ytick_4">
     <g id="line2d_12">
      <path d="M 49.734297 157.451016 
L 637.2 157.451016 
" clip-path="url(#p6cf1775ac3)" style="fill: none; stroke: #b0b0b0; stroke-opacity: 0.3; stroke-width: 0.8; stroke-linecap: square"/>
     </g>
     <g id="line2d_13">
      <g>
       <use xlink:href="#mf7d333f546" x="49.734297" y="157.451016" style="stroke: #000000; stroke-width: 0.8"/>
      </g>
     </g>
     <g id="text_9">
      <!-- 60 -->
      <g transform="translate(31.006172 161.511074) scale(0.1 -0.1)">
       <defs>
        <path id="MicrosoftYaHei-1c" d="M 3181 4219 
Q 2803 4413 2391 4413 
Q 1763 4413 1381 3866 
Q 1000 3319 994 2372 
L 1009 2372 
Q 1353 3038 2106 3038 
Q 2734 3038 3109 2628 
Q 3484 2219 3484 1541 
Q 3484 831 3051 375 
Q 2619 -81 1947 -81 
Q 1209 -81 789 495 
Q 369 1072 369 2131 
Q 369 3413 920 4167 
Q 1472 4922 2372 4922 
Q 2888 4922 3181 4781 
L 3181 4219 
z
M 1031 1584 
Q 1031 1106 1286 765 
Q 1541 425 1963 425 
Q 2363 425 2613 719 
Q 2863 1013 2863 1475 
Q 2863 1975 2627 2253 
Q 2391 2531 1956 2531 
Q 1544 2531 1287 2250 
Q 1031 1969 1031 1584 
z
" transform="scale(0.015625)"/>
       </defs>
       <use xlink:href="#MicrosoftYaHei-1c"/>
       <use xlink:href="#MicrosoftYaHei-16" transform="translate(58.640625 0)"/>
      </g>
     </g>
    </g>
    <g id="ytick_5">
     <g id="line2d_14">
      <path d="M 49.734297 99.419453 
L 637.2 99.419453 
" clip-path="url(#p6cf1775ac3)" style="fill: none; stroke: #b0b0b0; stroke-opacity: 0.3; stroke-width: 0.8; stroke-linecap: square"/>
     </g>
     <g id="line2d_15">
      <g>
       <use xlink:href="#mf7d333f546" x="49.734297" y="99.419453" style="stroke: #000000; stroke-width: 0.8"/>
      </g>
     </g>
     <g id="text_10">
      <!-- 80 -->
      <g transform="translate(31.006172 103.479512) scale(0.1 -0.1)">
       <defs>
        <path id="MicrosoftYaHei-1e" d="M 306 1350 
Q 306 1769 556 2122 
Q 806 2475 1200 2625 
Q 884 2803 700 3081 
Q 516 3359 516 3684 
Q 516 4028 692 4312 
Q 869 4597 1183 4759 
Q 1497 4922 1875 4922 
Q 2256 4922 2572 4761 
Q 2888 4600 3063 4315 
Q 3238 4031 3238 3684 
Q 3238 3366 3058 3086 
Q 2878 2806 2559 2625 
Q 2953 2472 3200 2119 
Q 3447 1766 3447 1350 
Q 3447 938 3250 611 
Q 3053 284 2690 103 
Q 2328 -78 1875 -78 
Q 1425 -78 1065 103 
Q 706 284 506 612 
Q 306 941 306 1350 
z
M 906 1378 
Q 906 947 1172 687 
Q 1438 428 1878 428 
Q 2309 428 2582 692 
Q 2856 956 2856 1378 
Q 2856 1778 2579 2051 
Q 2303 2325 1878 2325 
Q 1456 2325 1181 2058 
Q 906 1791 906 1378 
z
M 1081 3634 
Q 1081 3309 1312 3076 
Q 1544 2844 1878 2844 
Q 2206 2844 2445 3078 
Q 2684 3313 2684 3634 
Q 2684 3963 2454 4191 
Q 2225 4419 1878 4419 
Q 1534 4419 1307 4195 
Q 1081 3972 1081 3634 
z
" transform="scale(0.015625)"/>
       </defs>
       <use xlink:href="#MicrosoftYaHei-1e"/>
       <use xlink:href="#MicrosoftYaHei-16" transform="translate(58.640625 0)"/>
      </g>
     </g>
    </g>
    <g id="ytick_6">
     <g id="line2d_16">
      <path d="M 49.734297 41.387891 
L 637.2 41.387891 
" clip-path="url(#p6cf1775ac3)" style="fill: none; stroke: #b0b0b0; stroke-opacity: 0.3; stroke-width: 0.8; stroke-linecap: square"/>
     </g>
     <g id="line2d_17">
      <g>
       <use xlink:href="#mf7d333f546" x="49.734297" y="41.387891" style="stroke: #000000; stroke-width: 0.8"/>
      </g>
     </g>
     <g id="text_11">
      <!-- 100 -->
      <g transform="translate(25.142109 45.447949) scale(0.1 -0.1)">
       <defs>
        <path id="MicrosoftYaHei-17" d="M 1781 0 
L 1781 4141 
Q 1638 3997 1295 3819 
Q 953 3641 663 3569 
L 663 4169 
Q 1047 4275 1484 4508 
Q 1922 4741 2156 4947 
L 2388 4947 
L 2388 0 
L 1781 0 
z
" transform="scale(0.015625)"/>
       </defs>
       <use xlink:href="#MicrosoftYaHei-17"/>
       <use xlink:href="#MicrosoftYaHei-16" transform="translate(58.640625 0)"/>
       <use xlink:href="#MicrosoftYaHei-16" transform="translate(117.28125 0)"/>
      </g>
     </g>
    </g>
    <g id="text_12">
     <!-- Rank-1 准确率 (%) -->
     <g transform="translate(18.60793 221.521445) rotate(-90) scale(0.1 -0.1)">
      <defs>
       <path id="MicrosoftYaHei-38" d="M 4159 0 
L 3422 0 
L 2619 1344 
Q 2378 1747 2178 1892 
Q 1978 2038 1700 2038 
L 1250 2038 
L 1250 0 
L 625 0 
L 625 4841 
L 2100 4841 
Q 2806 4841 3206 4500 
Q 3606 4159 3606 3547 
Q 3606 2541 2531 2241 
L 2531 2225 
Q 2731 2141 2876 1984 
Q 3022 1828 3253 1450 
L 4159 0 
z
M 1250 4294 
L 1250 2584 
L 1988 2584 
Q 2416 2584 2683 2834 
Q 2950 3084 2950 3491 
Q 2950 3869 2706 4081 
Q 2463 4294 1997 4294 
L 1250 4294 
z
" transform="scale(0.015625)"/>
       <path id="MicrosoftYaHei-47" d="M 628 3216 
Q 1144 3538 1819 3538 
Q 3069 3538 3069 2225 
L 3069 0 
L 2463 0 
L 2463 534 
L 2447 534 
Q 2088 -81 1388 -81 
Q 884 -81 587 191 
Q 291 463 291 925 
Q 291 1894 1438 2053 
L 2463 2197 
Q 2463 3044 1763 3044 
Q 1141 3044 628 2625 
L 628 3216 
z
M 1653 1625 
Q 1228 1569 1067 1412 
Q 906 1256 906 975 
Q 906 728 1081 572 
Q 1256 416 1544 416 
Q 1944 416 2203 697 
Q 2463 978 2463 1403 
L 2463 1734 
L 1653 1625 
z
" transform="scale(0.015625)"/>
       <path id="MicrosoftYaHei-54" d="M 3469 0 
L 2859 0 
L 2859 1966 
Q 2859 3031 2081 3031 
Q 1678 3031 1418 2731 
Q 1159 2431 1159 1972 
L 1159 0 
L 547 0 
L 547 3456 
L 1159 3456 
L 1159 2884 
L 1172 2884 
Q 1563 3538 2306 3538 
Q 2875 3538 3172 3173 
Q 3469 2809 3469 2113 
L 3469 0 
z
" transform="scale(0.015625)"/>
       <path id="MicrosoftYaHei-51" d="M 3484 0 
L 2650 0 
L 1172 1666 
L 1159 1666 
L 1159 0 
L 547 0 
L 547 5116 
L 1159 5116 
L 1159 1872 
L 1172 1872 
L 2575 3456 
L 3363 3456 
L 1800 1794 
L 3484 0 
z
" transform="scale(0.015625)"/>
       <path id="MicrosoftYaHei-13" d="M 2328 1681 
L 488 1681 
L 488 2153 
L 2328 2153 
L 2328 1681 
z
" transform="scale(0.015625)"/>
       <path id="MicrosoftYaHei-3" transform="scale(0.015625)"/>
       <path id="MicrosoftYaHei-4d5" d="M 1413 2766 
Q 2313 3866 2869 5334 
L 3331 5172 
Q 3128 4694 2906 4253 
L 6194 4253 
L 6194 3822 
L 4675 3822 
L 4675 2891 
L 6025 2891 
L 6025 2459 
L 4675 2459 
L 4675 1528 
L 6038 1528 
L 6038 1097 
L 4675 1097 
L 4675 78 
L 6275 78 
L 6275 -341 
L 2769 -341 
L 2769 -841 
L 2281 -841 
L 2281 3131 
Q 2034 2738 1769 2384 
Q 1631 2578 1413 2766 
z
M 2769 78 
L 4188 78 
L 4188 1097 
L 2769 1097 
L 2769 78 
z
M 1081 2422 
Q 1325 2291 1556 2209 
Q 1113 916 681 -372 
L 169 -141 
Q 650 1003 1081 2422 
z
M 2769 1528 
L 4188 1528 
L 4188 2459 
L 2769 2459 
L 2769 1528 
z
M 2769 2891 
L 4188 2891 
L 4188 3822 
L 2769 3822 
L 2769 2891 
z
M 531 4991 
Q 1050 4384 1581 3709 
Q 1538 3678 1150 3341 
Q 681 3997 138 4672 
L 531 4991 
z
M 3919 5116 
L 4325 5372 
Q 4569 5072 4881 4622 
L 4450 4334 
Q 4156 4784 3919 5116 
z
" transform="scale(0.015625)"/>
       <path id="MicrosoftYaHei-947" d="M 2075 3453 
Q 2956 4334 3456 5359 
L 3931 5272 
Q 3781 4991 3619 4722 
L 5438 4722 
L 5438 4328 
L 4909 3666 
L 6063 3666 
L 6063 -53 
Q 6063 -728 5475 -728 
Q 5144 -728 4906 -716 
Q 4869 -497 4813 -259 
Q 5156 -291 5331 -291 
Q 5619 -291 5619 16 
L 5619 734 
L 4588 734 
L 4588 -659 
L 4144 -659 
L 4144 734 
L 3113 734 
Q 2944 -263 2444 -884 
Q 2288 -703 2081 -509 
Q 2756 291 2756 1841 
L 2756 3506 
Q 2597 3316 2431 3134 
Q 2281 3278 2075 3453 
z
M 31 1691 
Q 741 2834 1066 4291 
L 231 4291 
L 231 4716 
L 2469 4716 
L 2469 4291 
L 1509 4291 
Q 1356 3613 1128 2991 
L 2200 2991 
L 2200 128 
L 1150 128 
L 1150 -347 
L 738 -347 
L 738 2059 
Q 559 1691 350 1347 
Q 225 1497 31 1691 
z
M 1788 541 
L 1788 2578 
L 1150 2578 
L 1150 541 
L 1788 541 
z
M 4875 4322 
L 3366 4322 
Q 3138 3981 2884 3666 
L 4384 3666 
L 4875 4322 
z
M 4588 1134 
L 5619 1134 
L 5619 1991 
L 4588 1991 
L 4588 1134 
z
M 5619 3241 
L 4588 3241 
L 4588 2391 
L 5619 2391 
L 5619 3241 
z
M 3166 1134 
L 4144 1134 
L 4144 1991 
L 3200 1991 
Q 3200 1841 3166 1134 
z
M 3200 2391 
L 4144 2391 
L 4144 3241 
L 3200 3241 
L 3200 2391 
z
" transform="scale(0.015625)"/>
       <path id="MicrosoftYaHei-8e4" d="M 2525 2009 
Q 2622 2016 3928 2081 
Q 3772 2300 3625 2491 
L 3963 2703 
Q 4413 2203 4794 1653 
L 4394 1403 
Q 4284 1569 4178 1725 
Q 2991 1659 2213 1597 
Q 2075 1584 1881 1541 
L 1725 1966 
Q 1913 2028 2006 2084 
Q 2534 2441 3050 2913 
Q 2597 2894 2275 2866 
Q 2144 2847 1988 2809 
L 1800 3191 
Q 1956 3247 2088 3366 
Q 2509 3722 2875 4228 
L 231 4228 
L 231 4666 
L 3031 4666 
Q 2878 4944 2744 5153 
L 3194 5372 
Q 3438 5000 3616 4666 
L 6175 4666 
L 6175 4228 
L 3053 4228 
L 3350 4072 
Q 2844 3553 2494 3247 
Q 2850 3256 3425 3269 
Q 3675 3519 3925 3797 
L 4356 3547 
Q 3363 2603 2525 2009 
z
M 144 991 
L 2994 991 
L 2994 1541 
L 3488 1541 
L 3488 991 
L 6275 991 
L 6275 553 
L 3488 553 
L 3488 -853 
L 2994 -853 
L 2994 553 
L 144 553 
L 144 991 
z
M 1719 2672 
L 1944 2303 
Q 1200 1866 425 1409 
L 163 1828 
Q 813 2134 1719 2672 
z
M 4856 2678 
Q 5750 2172 6250 1816 
L 5975 1409 
Q 5331 1909 4600 2341 
L 4856 2678 
z
M 5994 3591 
Q 5519 3178 4963 2809 
L 4644 3141 
Q 5244 3534 5638 3928 
L 5994 3591 
z
M 363 3634 
L 681 3941 
Q 1200 3528 1588 3159 
L 1238 2816 
Q 875 3197 363 3634 
z
" transform="scale(0.015625)"/>
       <path id="MicrosoftYaHei-e" d="M 1531 -1100 
Q 478 100 478 1847 
Q 478 3594 1531 4841 
L 2072 4841 
Q 1016 3544 1016 1853 
Q 1016 166 2066 -1100 
L 1531 -1100 
z
" transform="scale(0.015625)"/>
       <path id="MicrosoftYaHei-b" d="M 272 3619 
Q 272 4213 589 4563 
Q 906 4913 1444 4913 
Q 1959 4913 2248 4591 
Q 2538 4269 2538 3694 
Q 2538 3122 2219 2765 
Q 1900 2409 1372 2409 
Q 872 2409 572 2740 
Q 272 3072 272 3619 
z
M 753 3650 
Q 753 3247 928 3028 
Q 1103 2809 1406 2809 
Q 1719 2809 1889 3036 
Q 2059 3263 2059 3675 
Q 2059 4078 1892 4298 
Q 1725 4519 1422 4519 
Q 1113 4519 933 4289 
Q 753 4059 753 3650 
z
M 4647 4841 
L 1538 -31 
L 1016 -31 
L 4125 4841 
L 4647 4841 
z
M 3172 1134 
Q 3172 1728 3489 2083 
Q 3806 2438 4341 2438 
Q 4853 2438 5143 2114 
Q 5434 1791 5434 1203 
Q 5434 634 5112 279 
Q 4791 -75 4272 -75 
Q 3769 -75 3470 261 
Q 3172 597 3172 1134 
z
M 3650 1163 
Q 3650 769 3825 548 
Q 4000 328 4303 328 
Q 4616 328 4786 556 
Q 4956 784 4956 1194 
Q 4956 1600 4786 1815 
Q 4616 2031 4319 2031 
Q 4000 2031 3825 1801 
Q 3650 1572 3650 1163 
z
" transform="scale(0.015625)"/>
       <path id="MicrosoftYaHei-f" d="M 78 -1100 
Q 1131 163 1131 1853 
Q 1131 3547 72 4841 
L 616 4841 
Q 1672 3603 1672 1847 
Q 1672 91 616 -1100 
L 78 -1100 
z
" transform="scale(0.015625)"/>
      </defs>
      <use xlink:href="#MicrosoftYaHei-38"/>
      <use xlink:href="#MicrosoftYaHei-47" transform="translate(65.28125 0)"/>
      <use xlink:href="#MicrosoftYaHei-54" transform="translate(120.5625 0)"/>
      <use xlink:href="#MicrosoftYaHei-51" transform="translate(182.1875 0)"/>
      <use xlink:href="#MicrosoftYaHei-13" transform="translate(229.296875 0)"/>
      <use xlink:href="#MicrosoftYaHei-17" transform="translate(272.5625 0)"/>
      <use xlink:href="#MicrosoftYaHei-3" transform="translate(331.203125 0)"/>
      <use xlink:href="#MicrosoftYaHei-4d5" transform="translate(360.796875 0)"/>
      <use xlink:href="#MicrosoftYaHei-947" transform="translate(460.796875 0)"/>
      <use xlink:href="#MicrosoftYaHei-8e4" transform="translate(560.796875 0)"/>
      <use xlink:href="#MicrosoftYaHei-3" transform="translate(660.796875 0)"/>
      <use xlink:href="#MicrosoftYaHei-e" transform="translate(690.390625 0)"/>
      <use xlink:href="#MicrosoftYaHei-b" transform="translate(723.796875 0)"/>
      <use xlink:href="#MicrosoftYaHei-f" transform="translate(812.765625 0)"/>
     </g>
    </g>
   </g>
   <g id="patch_8">
    <path d="M 49.734297 331.545703 
L 49.734297 26.88 
" style="fill: none; stroke: #000000; stroke-width: 0.8; stroke-linejoin: miter; stroke-linecap: square"/>
   </g>
   <g id="patch_9">
    <path d="M 637.2 331.545703 
L 637.2 26.88 
" style="fill: none; stroke: #000000; stroke-width: 0.8; stroke-linejoin: miter; stroke-linecap: square"/>
   </g>
   <g id="patch_10">
    <path d="M 49.734297 331.545703 
L 637.2 331.545703 
" style="fill: none; stroke: #000000; stroke-width: 0.8; stroke-linejoin: miter; stroke-linecap: square"/>
   </g>
   <g id="patch_11">
    <path d="M 49.734297 26.88 
L 637.2 26.88 
" style="fill: none; stroke: #000000; stroke-width: 0.8; stroke-linejoin: miter; stroke-linecap: square"/>
   </g>
   <g id="text_13">
    <!-- 糊脸消融 · 各 arm 按人脸质量分桶（Market-1501） -->
    <g transform="translate(203.141211 20.88) scale(0.12 -0.12)">
     <defs>
      <path id="MicrosoftYaHei-883" d="M 2513 -803 
L 2019 -803 
L 2019 3566 
L 3731 3566 
L 3731 5334 
L 4250 5334 
L 4250 3566 
L 5925 3566 
L 5925 -47 
Q 5925 -778 5225 -778 
Q 4819 -778 4144 -759 
Q 4106 -528 4050 -247 
Q 4669 -284 5031 -284 
Q 5431 -284 5431 59 
L 5431 653 
L 2513 653 
L 2513 -803 
z
M 2513 1103 
L 5431 1103 
L 5431 1878 
L 2513 1878 
L 2513 1103 
z
M 5431 3097 
L 2513 3097 
L 2513 2328 
L 5431 2328 
L 5431 3097 
z
M 844 1816 
Q 1100 1716 1356 1628 
Q 1050 384 781 -784 
L 231 -622 
Q 569 491 844 1816 
z
M 4750 4097 
Q 5225 4578 5644 5159 
L 6094 4816 
Q 5700 4353 5119 3772 
L 4750 4097 
z
M 400 3622 
Q 869 3291 1500 2772 
Q 1269 2509 1138 2366 
Q 431 2997 88 3259 
L 400 3622 
z
M 638 5241 
Q 1113 4866 1713 4328 
Q 1500 4109 1344 3941 
Q 669 4597 319 4897 
L 638 5241 
z
M 1931 4872 
L 2294 5159 
Q 2581 4897 3250 4141 
L 2825 3816 
Q 2213 4584 1931 4872 
z
" transform="scale(0.015625)"/>
      <path id="MicrosoftYaHei-58dd" d="M 5425 1016 
L 5844 1134 
Q 6125 178 6319 -666 
L 5881 -778 
Q 5844 -609 5800 -441 
Q 4613 -572 3569 -697 
L 3475 -178 
Q 4063 -141 4631 -97 
L 4631 1591 
L 4113 1591 
L 4113 1384 
L 3656 1384 
L 3656 4141 
L 4631 4141 
L 4631 5259 
L 5069 5259 
L 5069 4141 
L 6013 4141 
L 6013 1591 
L 5069 1591 
L 5069 -59 
Q 5388 -34 5694 -16 
Q 5575 484 5425 1016 
z
M 763 -797 
L 350 -797 
L 350 2403 
L 3319 2403 
L 3319 -203 
Q 3319 -791 2700 -791 
L 2219 -791 
Q 2188 -572 2125 -359 
Q 2425 -384 2613 -384 
Q 2906 -384 2906 -116 
L 2906 2016 
L 763 2016 
L 763 -797 
z
M 606 4184 
L 3069 4184 
L 3069 2678 
L 2656 2678 
L 2656 2841 
L 1019 2841 
L 1019 2678 
L 606 2678 
L 606 4184 
z
M 875 1016 
L 1838 1016 
Q 2194 1659 2300 1909 
L 2669 1734 
Q 2413 1316 2213 1016 
L 2781 1016 
L 2781 641 
L 2025 641 
L 2025 -659 
L 1638 -659 
L 1638 641 
L 875 641 
L 875 1016 
z
M 300 5016 
L 3344 5016 
L 3344 4616 
L 300 4616 
L 300 5016 
z
M 2656 3809 
L 1019 3809 
L 1019 3216 
L 2656 3216 
L 2656 3809 
z
M 5588 2003 
L 5588 3728 
L 5069 3728 
L 5069 2003 
L 5588 2003 
z
M 4113 2003 
L 4631 2003 
L 4631 3728 
L 4113 3728 
L 4113 2003 
z
M 988 1697 
L 1288 1884 
Q 1513 1584 1694 1241 
L 1369 1041 
Q 1188 1378 988 1697 
z
" transform="scale(0.015625)"/>
      <path id="MicrosoftYaHei-78" d="M 372 2113 
Q 372 2278 490 2395 
Q 609 2513 775 2513 
Q 941 2513 1061 2397 
Q 1181 2281 1181 2113 
Q 1181 1950 1064 1831 
Q 947 1713 772 1713 
Q 600 1713 486 1831 
Q 372 1950 372 2113 
z
" transform="scale(0.015625)"/>
      <path id="MicrosoftYaHei-55f" d="M 1838 5366 
L 2325 5191 
Q 2191 4934 2038 4691 
L 5463 4691 
L 5463 4234 
Q 4819 3428 3806 2831 
Q 4881 2366 6375 2266 
Q 6169 1953 6025 1703 
Q 4388 1947 3272 2544 
Q 2022 1925 300 1578 
Q 169 1828 31 2059 
Q 1591 2303 2775 2844 
Q 2041 3347 1588 4038 
Q 1138 3444 569 2916 
Q 400 3122 225 3278 
Q 1288 4191 1838 5366 
z
M 1100 1666 
L 5363 1666 
L 5363 -803 
L 4875 -803 
L 4875 -441 
L 1588 -441 
L 1588 -803 
L 1100 -803 
L 1100 1666 
z
M 4875 1216 
L 1588 1216 
L 1588 -3 
L 4875 -3 
L 4875 1216 
z
M 4794 4241 
L 1988 4241 
Q 2494 3547 3275 3094 
Q 4153 3575 4794 4241 
z
" transform="scale(0.015625)"/>
      <path id="MicrosoftYaHei-58" d="M 2400 2850 
Q 2247 2959 1978 2959 
Q 1622 2959 1390 2626 
Q 1159 2294 1159 1750 
L 1159 0 
L 547 0 
L 547 3456 
L 1159 3456 
L 1159 2753 
L 1172 2753 
Q 1434 3516 2078 3516 
Q 2288 3516 2400 3469 
L 2400 2850 
z
" transform="scale(0.015625)"/>
      <path id="MicrosoftYaHei-53" d="M 5522 0 
L 4909 0 
L 4909 1984 
Q 4909 2547 4734 2789 
Q 4559 3031 4159 3031 
Q 3822 3031 3581 2715 
Q 3341 2400 3341 1969 
L 3341 0 
L 2728 0 
L 2728 2047 
Q 2728 3031 1969 3031 
Q 1619 3031 1389 2731 
Q 1159 2431 1159 1966 
L 1159 0 
L 547 0 
L 547 3456 
L 1159 3456 
L 1159 2909 
L 1172 2909 
Q 1541 3538 2250 3538 
Q 2597 3538 2862 3347 
Q 3128 3156 3231 2831 
Q 3616 3538 4381 3538 
Q 5522 3538 5522 2131 
L 5522 0 
z
" transform="scale(0.015625)"/>
      <path id="MicrosoftYaHei-737" d="M 1763 -366 
Q 3172 -25 3822 450 
Q 3184 791 2444 1147 
Q 2713 1622 2959 2153 
L 2194 2153 
L 2194 2603 
L 3159 2603 
Q 3384 3119 3588 3684 
L 4113 3503 
Q 3919 3069 3700 2603 
L 6263 2603 
L 6263 2153 
L 5444 2153 
Q 5219 1191 4650 547 
Q 5494 100 6238 -353 
L 5938 -828 
Q 5253 -338 4288 197 
Q 3566 -394 2013 -834 
Q 1938 -609 1763 -366 
z
M 88 1966 
Q 503 2094 938 2244 
L 938 3641 
L 175 3641 
L 175 4091 
L 938 4091 
L 938 5253 
L 1413 5253 
L 1413 4091 
L 2100 4091 
L 2100 3641 
L 1413 3641 
L 1413 2413 
Q 1691 2513 1975 2622 
Q 1988 2359 2025 2122 
Q 1722 2016 1413 1900 
L 1413 -78 
Q 1413 -753 763 -759 
Q 569 -766 206 -753 
Q 181 -497 131 -234 
Q 431 -272 681 -272 
Q 938 -272 938 28 
L 938 1722 
Q 550 1575 150 1416 
L 88 1966 
z
M 2300 4384 
L 4056 4384 
Q 3884 4734 3663 5122 
L 4113 5347 
Q 4419 4847 4550 4572 
L 4178 4384 
L 6119 4384 
L 6119 3322 
L 5619 3322 
L 5619 3934 
L 2800 3934 
L 2800 3322 
L 2300 3322 
L 2300 4384 
z
M 3088 1328 
Q 3656 1056 4188 784 
Q 4750 1384 4934 2153 
L 3488 2153 
Q 3297 1753 3088 1328 
z
" transform="scale(0.015625)"/>
      <path id="MicrosoftYaHei-44b" d="M 100 -303 
Q 2825 1272 2981 5222 
L 3531 5222 
Q 3497 4553 3400 3947 
Q 4175 822 6313 -166 
Q 6050 -453 5850 -709 
Q 3994 341 3203 3006 
Q 2519 431 494 -778 
Q 325 -547 100 -303 
z
" transform="scale(0.015625)"/>
      <path id="MicrosoftYaHei-ac5" d="M 1838 2628 
L 3500 2628 
L 3500 3353 
L 1450 3353 
L 1450 3791 
L 3500 3791 
L 3500 4472 
L 4000 4472 
L 4000 3791 
L 6125 3791 
L 6125 3353 
L 4000 3353 
L 4000 2628 
L 5681 2628 
L 5681 428 
L 5194 428 
L 5194 2191 
L 2325 2191 
L 2325 428 
L 1838 428 
L 1838 2628 
z
M 713 4934 
Q 3744 4947 5988 5197 
L 6163 4709 
Q 3813 4541 1213 4497 
L 1213 2578 
Q 1213 178 406 -872 
Q 219 -653 31 -466 
Q 713 372 713 2534 
L 713 4934 
z
M 4000 1866 
Q 4013 1053 3919 691 
Q 5063 191 6263 -403 
L 5994 -866 
Q 4794 -203 3763 272 
Q 3275 -559 1344 -884 
Q 1238 -684 1075 -428 
Q 3019 -128 3350 534 
Q 3525 822 3513 1866 
L 4000 1866 
z
" transform="scale(0.015625)"/>
      <path id="MicrosoftYaHei-b4f" d="M 113 -278 
L 2981 -278 
L 2981 78 
L 475 78 
L 475 403 
L 2981 403 
L 2981 759 
L 1494 759 
L 1494 597 
L 1069 597 
L 1069 2516 
L 5350 2516 
L 5350 597 
L 4925 597 
L 4925 759 
L 3419 759 
L 3419 403 
L 5931 403 
L 5931 78 
L 3419 78 
L 3419 -278 
L 6288 -278 
L 6288 -616 
L 113 -616 
L 113 -278 
z
M 1119 5072 
L 5306 5072 
L 5306 3284 
L 4881 3284 
L 4881 3453 
L 1544 3453 
L 1544 3284 
L 1119 3284 
L 1119 5072 
z
M 163 3153 
L 6263 3153 
L 6263 2816 
L 163 2816 
L 163 3153 
z
M 1544 3778 
L 4881 3778 
L 4881 4116 
L 1544 4116 
L 1544 3778 
z
M 4881 4747 
L 1544 4747 
L 1544 4416 
L 4881 4416 
L 4881 4747 
z
M 3419 1084 
L 4925 1084 
L 4925 1491 
L 3419 1491 
L 3419 1084 
z
M 1494 1084 
L 2981 1084 
L 2981 1491 
L 1494 1491 
L 1494 1084 
z
M 4925 2191 
L 3419 2191 
L 3419 1791 
L 4925 1791 
L 4925 2191 
z
M 1494 1791 
L 2981 1791 
L 2981 2191 
L 1494 2191 
L 1494 1791 
z
" transform="scale(0.015625)"/>
      <path id="MicrosoftYaHei-4e3" d="M 900 2559 
L 5056 2559 
Q 5025 1497 4963 484 
Q 4888 -684 3856 -678 
Q 3350 -684 2788 -647 
Q 2750 -384 2700 -116 
Q 3181 -184 3775 -191 
Q 4400 -203 4463 541 
Q 4513 1216 4538 2097 
L 2616 2097 
Q 2541 1053 2181 416 
Q 1706 -422 588 -878 
Q 425 -666 231 -459 
Q 1269 -72 1725 666 
Q 2053 1225 2103 2097 
L 900 2097 
L 900 2559 
z
M 3488 5159 
L 3938 5353 
Q 4625 3678 6350 2847 
Q 6069 2553 5944 2372 
Q 4225 3366 3488 5159 
z
M 50 2766 
Q 1338 3678 2250 5253 
L 2694 5009 
Q 1744 3347 413 2341 
Q 281 2534 50 2766 
z
" transform="scale(0.015625)"/>
      <path id="MicrosoftYaHei-80c" d="M 2938 -859 
L 2488 -859 
L 2488 3509 
L 3919 3509 
Q 3494 3828 3013 4159 
L 3288 4466 
Q 3769 4141 4244 3803 
L 5288 4609 
L 2456 4609 
L 2456 5022 
L 5981 5022 
L 5981 4597 
L 4613 3541 
Q 4631 3522 4656 3509 
L 5988 3509 
L 5988 -91 
Q 5988 -753 5300 -753 
L 4725 -753 
Q 4688 -534 4606 -259 
Q 4938 -297 5281 -297 
Q 5538 -297 5538 -9 
L 5538 709 
L 4444 709 
L 4444 -728 
L 3994 -728 
L 3994 709 
L 2938 709 
L 2938 -859 
z
M 69 1378 
Q 688 2347 981 3591 
L 200 3591 
L 200 4028 
L 1069 4028 
L 1069 5266 
L 1525 5266 
L 1525 4028 
L 2300 4028 
L 2300 3591 
L 1525 3591 
L 1525 2872 
L 1794 3066 
Q 2169 2547 2400 2166 
L 2025 1909 
Q 1838 2272 1525 2741 
L 1525 -859 
L 1069 -859 
L 1069 2703 
Q 725 1472 269 828 
Q 188 1097 69 1378 
z
M 4444 1122 
L 5538 1122 
L 5538 1903 
L 4444 1903 
L 4444 1122 
z
M 5538 3091 
L 4444 3091 
L 4444 2316 
L 5538 2316 
L 5538 3091 
z
M 2938 1122 
L 3994 1122 
L 3994 1903 
L 2938 1903 
L 2938 1122 
z
M 2938 2316 
L 3994 2316 
L 3994 3091 
L 2938 3091 
L 2938 2316 
z
" transform="scale(0.015625)"/>
      <path id="MicrosoftYaHei-367" d="M 5288 -1100 
Q 4172 119 4172 1850 
Q 4172 3603 5288 4838 
L 5825 4838 
Q 4716 3572 4716 1856 
Q 4716 166 5819 -1100 
L 5288 -1100 
z
" transform="scale(0.015625)"/>
      <path id="MicrosoftYaHei-33" d="M 5003 0 
L 5003 3206 
Q 5003 3603 5050 4159 
L 5034 4159 
Q 4953 3809 4891 3672 
L 3294 0 
L 2947 0 
L 1353 3644 
Q 1297 3769 1209 4159 
L 1191 4159 
Q 1222 3822 1222 3178 
L 1222 0 
L 625 0 
L 625 4841 
L 1472 4841 
L 2900 1522 
Q 3063 1141 3116 928 
L 3138 928 
Q 3300 1375 3366 1534 
L 4819 4841 
L 5625 4841 
L 5625 0 
L 5003 0 
z
" transform="scale(0.015625)"/>
      <path id="MicrosoftYaHei-4b" d="M 3363 1572 
L 944 1572 
Q 959 1019 1246 717 
Q 1534 416 2050 416 
Q 2631 416 3116 788 
L 3116 241 
Q 2659 -81 1906 -81 
Q 1156 -81 736 394 
Q 316 869 316 1713 
Q 316 2506 777 3022 
Q 1238 3538 1922 3538 
Q 2600 3538 2981 3102 
Q 3363 2666 3363 1881 
L 3363 1572 
z
M 2750 2063 
Q 2747 2531 2528 2787 
Q 2309 3044 1913 3044 
Q 1547 3044 1280 2772 
Q 1013 2500 944 2063 
L 2750 2063 
z
" transform="scale(0.015625)"/>
      <path id="MicrosoftYaHei-5a" d="M 2206 34 
Q 2006 -75 1666 -75 
Q 738 -75 738 953 
L 738 2950 
L 144 2950 
L 144 3456 
L 738 3456 
L 738 4288 
L 1347 4481 
L 1347 3456 
L 2206 3456 
L 2206 2950 
L 1347 2950 
L 1347 1063 
Q 1347 722 1462 575 
Q 1578 428 1847 428 
Q 2053 428 2206 544 
L 2206 34 
z
" transform="scale(0.015625)"/>
      <path id="MicrosoftYaHei-1b" d="M 3294 1494 
Q 3294 784 2823 350 
Q 2353 -84 1559 -84 
Q 878 -84 544 119 
L 544 744 
Q 1034 425 1544 425 
Q 2050 425 2361 704 
Q 2672 984 2672 1447 
Q 2672 1909 2348 2167 
Q 2025 2425 1434 2425 
Q 978 2425 613 2384 
L 791 4841 
L 3053 4841 
L 3053 4303 
L 1306 4303 
L 1206 2931 
L 1647 2950 
Q 2416 2950 2855 2567 
Q 3294 2184 3294 1494 
z
" transform="scale(0.015625)"/>
      <path id="MicrosoftYaHei-368" d="M 1113 -1100 
L 575 -1100 
Q 1684 163 1684 1888 
Q 1684 3581 581 4838 
L 1113 4838 
Q 2222 3628 2222 1888 
Q 2222 128 1113 -1100 
z
" transform="scale(0.015625)"/>
     </defs>
     <use xlink:href="#MicrosoftYaHei-9a5"/>
     <use xlink:href="#MicrosoftYaHei-a0e" transform="translate(100 0)"/>
     <use xlink:href="#MicrosoftYaHei-883" transform="translate(200 0)"/>
     <use xlink:href="#MicrosoftYaHei-58dd" transform="translate(300 0)"/>
     <use xlink:href="#MicrosoftYaHei-3" transform="translate(400 0)"/>
     <use xlink:href="#MicrosoftYaHei-78" transform="translate(429.59375 0)"/>
     <use xlink:href="#MicrosoftYaHei-3" transform="translate(453.671875 0)"/>
     <use xlink:href="#MicrosoftYaHei-55f" transform="translate(483.265625 0)"/>
     <use xlink:href="#MicrosoftYaHei-3" transform="translate(583.265625 0)"/>
     <use xlink:href="#MicrosoftYaHei-47" transform="translate(612.859375 0)"/>
     <use xlink:href="#MicrosoftYaHei-58" transform="translate(668.140625 0)"/>
     <use xlink:href="#MicrosoftYaHei-53" transform="translate(706.140625 0)"/>
     <use xlink:href="#MicrosoftYaHei-3" transform="translate(799.84375 0)"/>
     <use xlink:href="#MicrosoftYaHei-737" transform="translate(829.4375 0)"/>
     <use xlink:href="#MicrosoftYaHei-44b" transform="translate(929.4375 0)"/>
     <use xlink:href="#MicrosoftYaHei-a0e" transform="translate(1029.4375 0)"/>
     <use xlink:href="#MicrosoftYaHei-ac5" transform="translate(1129.4375 0)"/>
     <use xlink:href="#MicrosoftYaHei-b4f" transform="translate(1229.4375 0)"/>
     <use xlink:href="#MicrosoftYaHei-4e3" transform="translate(1329.4375 0)"/>
     <use xlink:href="#MicrosoftYaHei-80c" transform="translate(1429.4375 0)"/>
     <use xlink:href="#MicrosoftYaHei-367" transform="translate(1529.4375 0)"/>
     <use xlink:href="#MicrosoftYaHei-33" transform="translate(1629.4375 0)"/>
     <use xlink:href="#MicrosoftYaHei-47" transform="translate(1727.140625 0)"/>
     <use xlink:href="#MicrosoftYaHei-58" transform="translate(1782.421875 0)"/>
     <use xlink:href="#MicrosoftYaHei-51" transform="translate(1820.609375 0)"/>
     <use xlink:href="#MicrosoftYaHei-4b" transform="translate(1872.90625 0)"/>
     <use xlink:href="#MicrosoftYaHei-5a" transform="translate(1929.640625 0)"/>
     <use xlink:href="#MicrosoftYaHei-13" transform="translate(1960.9375 0)"/>
     <use xlink:href="#MicrosoftYaHei-17" transform="translate(2004.203125 0)"/>
     <use xlink:href="#MicrosoftYaHei-1b" transform="translate(2062.84375 0)"/>
     <use xlink:href="#MicrosoftYaHei-16" transform="translate(2121.484375 0)"/>
     <use xlink:href="#MicrosoftYaHei-17" transform="translate(2180.125 0)"/>
     <use xlink:href="#MicrosoftYaHei-368" transform="translate(2238.765625 0)"/>
    </g>
   </g>
   <g id="legend_1">
    <g id="patch_12">
     <path d="M 321.64918 326.545703 
L 365.285117 326.545703 
Q 367.285117 326.545703 367.285117 324.545703 
L 367.285117 309.891406 
Q 367.285117 307.891406 365.285117 307.891406 
L 321.64918 307.891406 
Q 319.64918 307.891406 319.64918 309.891406 
L 319.64918 324.545703 
Q 319.64918 326.545703 321.64918 326.545703 
z
" style="fill: #ffffff; opacity: 0.8; stroke: #cccccc; stroke-linejoin: miter"/>
    </g>
    <g id="patch_13">
     <path d="M 323.64918 320.011523 
L 343.64918 320.011523 
L 343.64918 313.011523 
L 323.64918 313.011523 
z
" style="fill: #9aa0a6"/>
    </g>
    <g id="text_14">
     <!-- S0 -->
     <g transform="translate(351.64918 320.011523) scale(0.1 -0.1)">
      <defs>
       <path id="MicrosoftYaHei-39" d="M 400 909 
Q 622 716 994 591 
Q 1366 466 1700 466 
Q 2719 466 2719 1191 
Q 2719 1394 2609 1556 
Q 2500 1719 2309 1844 
Q 2119 1969 1594 2228 
Q 866 2591 634 2902 
Q 403 3213 403 3613 
Q 403 4216 887 4569 
Q 1372 4922 2109 4922 
Q 2831 4922 3169 4747 
L 3169 4066 
Q 2731 4369 2063 4369 
Q 1619 4369 1339 4183 
Q 1059 3997 1059 3666 
Q 1059 3372 1253 3187 
Q 1447 3003 2094 2684 
Q 2806 2344 3090 2003 
Q 3375 1663 3375 1238 
Q 3375 600 2912 259 
Q 2450 -81 1628 -81 
Q 1341 -81 958 -1 
Q 575 78 400 197 
L 400 909 
z
" transform="scale(0.015625)"/>
      </defs>
      <use xlink:href="#MicrosoftYaHei-39"/>
      <use xlink:href="#MicrosoftYaHei-16" transform="translate(57.71875 0)"/>
     </g>
    </g>
   </g>
  </g>
 </g>
 <defs>
  <clipPath id="p6cf1775ac3">
   <rect x="49.734297" y="26.88" width="587.465703" height="304.665703"/>
  </clipPath>
 </defs>
</svg>
